<?xml version="1.0" encoding="UTF-8"?>
<svg version="1.1" viewBox="0 0 1680 644" xmlns="http://www.w3.org/2000/svg">
    <path d="m764.52 0.964c-0.352 0.57-1.528 1.036-2.613 1.036-3.84 0-18.125 6.257-25.41 11.129-13.677 9.148-23.327 22.138-27.02 36.371-2.024 7.802-2.037 23.282-0.027 31.95 4.436 19.127 19.032 34.294 39.421 40.962 9.472 3.098 15.403 4.114 35.543 6.091 18.852 1.851 23.113 2.718 29.654 6.032 8.958 4.54 13.547 15.661 11.056 26.794-1.79 7.998-4.66 11.644-12.162 15.45-15.881 8.058-39.528 6.37-54.937-3.92-7.434-4.964-10.891-9.894-13.134-18.728l-1.684-6.631-6.354 0.091c-3.495 0.05-12.092 0.433-19.105 0.851l-12.75 0.759 0.015 4.65c0.023 6.977 3.499 19.42 7.677 27.482 5.294 10.216 17.234 21.964 27.808 27.36 17.828 9.098 30.786 11.796 53 11.036 12.245-0.419 16.614-0.994 23.788-3.128 27.209-8.094 43.197-23.529 49.309-47.601 2.487-9.795 1.49-27.898-2.109-38.293-5.839-16.868-16.544-27.677-33.865-34.197-9.418-3.545-12.766-4.175-37.319-7.025-11.992-1.393-23.909-3.222-26.482-4.065-6.582-2.157-12.387-6.667-15.003-11.657-2.742-5.229-2.994-14.66-0.517-19.407 6.021-11.544 21.47-18.167 39.698-17.019 15.735 0.99 23.39 5.769 29.892 18.663 2.724 5.401 4.318 7.5 5.695 7.5 5.642 0 32.179-1.69 33.744-2.149 1.584-0.465 1.744-1.233 1.183-5.694-2.141-17.042-9.887-30.735-22.824-40.349-7.082-5.264-17.982-10.614-25.227-12.384-2.73-0.667-5.417-1.563-5.971-1.99-1.579-1.217-42.217-1.188-42.97 0.03m134.08 0.618c-0.334 0.87-0.607 50.154-0.607 109.52v107.94l42.5-0.54 0.5-63.392 0.5-63.393 7.426 15.393c22.594 46.835 34.212 69.79 36.973 73.052 3.634 4.293 10.398 7.84 14.949 7.84 7.049 0 13.718-4.524 19.131-12.976 2.479-3.872 15.47-30.895 32.941-68.524 2.554-5.5 5.178-10.9 5.831-12 0.927-1.56 1.195 11.579 1.219 59.668 0.016 33.918 0.303 62.38 0.637 63.25 0.526 1.371 3.316 1.582 20.878 1.582 15.039 0 20.517-0.323 21.227-1.25 0.599-0.783 0.856-41.248 0.687-108.25-0.148-58.85-0.298-107.49-0.334-108.09-0.044-0.738-6.387-1.146-19.729-1.27-18.996-0.177-19.743-0.109-22 2.012-1.285 1.207-2.336 2.507-2.336 2.888 0 0.613-13.852 29.412-44.711 92.958-5.209 10.725-10.152 21.185-10.985 23.244-0.834 2.058-1.94 3.481-2.458 3.161s-4.021-6.955-7.784-14.744c-33.422-69.169-51.964-106.71-53.436-108.18-1.209-1.209-5.079-1.483-20.948-1.483-16.826 0-19.546 0.214-20.071 1.582m314.71 0.31c-6.881 2.329-10.351 5.124-13.984 11.261-3.528 5.961-4.882 9.703-40.284 111.35-13.792 39.6-26.811 76.725-28.931 82.5s-3.663 10.838-3.428 11.25c0.234 0.413 10.019 0.75 21.745 0.75 15.849 0 21.577-0.321 22.328-1.25 0.555-0.687 3.564-9.237 6.687-19l5.678-17.75h35.761 35.761l4.823 15.25c2.653 8.387 5.48 16.938 6.282 19l1.46 3.75h21.892c17.152 0 21.891-0.278 21.891-1.284 0-0.706-1.828-6.443-4.062-12.75-2.235-6.306-8.504-24.291-13.931-39.966-5.428-15.675-12.855-37.05-16.506-47.5-3.65-10.45-12.476-35.875-19.614-56.5-18.575-53.673-18.527-53.572-27.656-57.752-6.994-3.202-9.763-3.438-15.912-1.356m166.68-0.892c1.113 0.719 0.513 0.973-2.324 0.985-5.943 0.023-18.614 4.723-23.476 8.707-5.715 4.683-9.015 9.842-11.555 18.062-2.027 6.557-2.095 9.002-2.437 87.246-0.193 44.275-0.05 85.563 0.319 91.75l0.67 11.25h20.343c14.538 0 20.55-0.336 21.07-1.179 0.401-0.648 0.619-16.07 0.484-34.271s0.072-35.896 0.46-39.321l0.704-6.229h14.348c13.801 0 14.401 0.086 15.737 2.25 0.763 1.238 5.211 9.675 9.884 18.75 14.206 27.592 29.958 57.427 31.017 58.75 1.418 1.771 48.756 1.814 48.756 0.044 0-0.663-2.869-6.401-6.376-12.75-3.506-6.349-11.661-21.219-18.122-33.044-6.46-11.825-13.433-24.425-15.494-28s-4.465-7.909-5.342-9.631l-1.594-3.13 6.356-3.129c7.562-3.723 18.485-14.211 23.48-22.544 1.875-3.127 4.558-8.922 5.961-12.876 2.262-6.372 2.557-8.784 2.592-21.19 0.045-16.034-1.296-22.433-7.229-34.5-4.295-8.735-16.664-21.97-24.602-26.323-8.083-4.432-18.707-7.811-26.447-8.41-4.492-0.347-6.809-0.888-6-1.401 0.724-0.46-10.833-0.835-25.683-0.835-17.796 0-26.489 0.33-25.5 0.969m142.25 0.75c-0.377 0.962-0.7 9.85-0.719 19.75l-0.034 18 28.745 0.265 28.744 0.266 0.256 89.234 0.255 89.235 20 0.106c11 0.059 20.582-0.195 21.292-0.563 1.043-0.54 1.28-17.821 1.23-89.356-0.06-84.204 0.026-88.689 1.707-88.717 0.974-0.016 14.034-3e-3 29.021 0.029l27.25 0.059v-20.029-20.029h-78.531c-73.865 0-78.572 0.104-79.216 1.75m-129.85 40.154c-2.457 1.115-5.003 3.328-6.363 5.528-2.158 3.491-2.293 4.903-2.803 29.118l-0.536 25.45h22.534c26.277 0 30.065-0.769 37.722-7.653 6.786-6.101 9.398-12.535 9.478-23.347 0.087-11.705-1.521-16.379-7.79-22.642-7.236-7.23-11.599-8.364-32.079-8.336-13.498 0.018-16.723 0.319-20.163 1.882m-179.15 40.846c-12.586 40.76-18.416 59.497-18.937 60.852-0.45 1.174 3.481 1.398 24.571 1.398 19.431 0 25.102-0.283 25.085-1.25-0.013-0.687-2.698-10.25-5.968-21.25-3.269-11-8.508-28.888-11.642-39.75-3.133-10.862-5.992-19.75-6.354-19.75-0.361 0-3.401 8.888-6.755 19.75m-441.6 172.24c-18.833 3.393-34.886 11.928-46.957 24.966-11.273 12.176-15.687 22.951-16.451 40.156-0.899 20.268 4.297 35.631 16.008 47.328 14.267 14.25 26.926 18.898 61.458 22.567 22.669 2.408 28.331 3.496 34.541 6.634 9.36 4.728 13.978 15.534 11.84 27.705-1.504 8.566-5.114 13.372-13.011 17.324-14.65 7.333-35.8 7.03-51.579-0.738-12.134-5.974-18.245-13.16-20.816-24.48-1.578-6.949 1.226-6.364-24.443-5.101l-17.25 0.849v4.453c0 7.54 2.957 18.408 7.695 28.282 3.755 7.823 5.915 10.818 12.666 17.558 6.877 6.866 9.767 8.922 18.639 13.26 25.207 12.324 49.477 15.124 75.818 8.745 22.529-5.455 38.374-15.981 48.554-32.255 12.002-19.186 11.853-53.234-0.315-72.139-7.013-10.895-19.311-20.053-32.93-24.522-9.428-3.094-15.198-4.068-41.127-6.943-17.377-1.927-21.456-2.705-26.777-5.104-10.083-4.546-15.223-11.977-15.223-22.006 0-12.297 10.597-23.086 26.05-26.522 8.883-1.975 27.239-0.936 33.664 1.905 7.074 3.128 13.482 10.179 16.318 17.956 1.242 3.408 2.534 6.366 2.871 6.574 0.725 0.448 32.144-1.27 36.847-2.016 2.905-0.46 3.25-0.865 3.25-3.809 0-5.18-3.571-17.822-6.893-24.402-7.917-15.685-24.53-28.302-45.107-34.26-6.126-1.773-10.705-2.232-25-2.504-9.625-0.183-19.678 0.059-22.34 0.539m397.84-0.041c-9.753 1.6-18.108 4.222-26.5 8.317-6.828 3.332-10.173 5.829-17.004 12.692-6.955 6.988-9.363 10.274-13.225 18.044-8.473 17.048-12.228 35.421-13.383 65.5-0.992 25.804 1.726 53.316 7.097 71.853 8.834 30.484 28.003 48.214 58.515 54.123 11.903 2.305 28.76 2.978 40 1.598 48.089-5.909 69.862-29.813 76.125-83.574 1.856-15.926 1.579-56.114-0.485-70.541-6.11-42.702-24.756-66.624-59.221-75.974-6.517-1.768-11.372-2.211-27.419-2.503-10.725-0.196-21.75 0.014-24.5 0.465m-257 1.21c-0.282 0.739-0.396 52.643-0.254 115.34l0.257 114h22.5 22.5l0.262-36.892 0.263-36.892 9.737 0.632c14.139 0.917 50.349-0.879 58.238-2.889 24.72-6.298 41.653-23.29 48.093-48.256 2.576-9.991 3.531-30.655 1.992-43.106-3.224-26.07-15.322-44.131-36.546-54.559-15.144-7.44-18.435-7.798-76.285-8.294-41.431-0.355-50.335-0.195-50.757 0.913m449.12-0.124c-22.245 2.528-32.903 10.792-38.781 30.069l-2.255 7.398-0.336 94.841c-0.253 71.354-0.047 95.189 0.833 96.25 0.94 1.131 5.368 1.409 22.488 1.409 13.229 0 21.555-0.382 21.941-1.007 0.342-0.553 0.58-19.678 0.529-42.5l-0.094-41.493h15.978 15.978l4.421 8.25c2.432 4.538 12.184 23.1 21.672 41.25s17.702 33.563 18.253 34.25c0.756 0.941 7.281 1.25 26.381 1.25 27.849 0 27.6 0.062 23.565-5.846-0.997-1.46-4.77-8.054-8.383-14.654-3.614-6.6-11.623-21.225-17.798-32.5s-12.812-23.425-14.749-27-4.379-7.931-5.428-9.68l-1.906-3.181 6.487-3.096c10.606-5.062 21.81-16.569 27.829-28.584 5.538-11.053 6.261-14.803 6.261-32.459 0-14.734-0.254-17.249-2.374-23.5-8.728-25.738-27.457-42.917-52.469-48.126-8.585-1.788-55.899-2.72-68.043-1.341m150.9-0.217c-0.285 0.284-0.518 9.39-0.518 20.234 0 19.601 0.013 19.72 2.25 20.321 1.237 0.332 14.96 0.331 30.495-2e-3l28.245-0.607 0.51 189.74 20.5 0.283c11.275 0.156 21.513 0.035 22.75-0.269l2.25-0.552v-94.557-94.557l61.001 0.652v-20.81l-1e-3 -20.81-83.482 0.209c-45.916 0.115-83.716 0.442-84 0.727m-338.66 41.049c-13.753 4.516-21.539 14.619-25.393 32.949-2.313 10.999-3.785 35.491-3.107 51.686 1.195 28.536 4.85 43.064 13.159 52.306 19.067 21.207 62.075 15.616 71.389-9.28 6.299-16.835 8.724-47.896 6.052-77.526-2.617-29.027-9.815-43.256-24.877-49.178-7.941-3.122-28.983-3.663-37.223-0.957m-215.86 36.577v37.705l26.25-0.356c29.544-0.4 31.569-0.831 38.961-8.298 6.193-6.255 8.061-13.717 7.584-30.283-0.349-12.081-0.698-14.364-2.936-19.21-1.397-3.025-4.385-7.162-6.64-9.194-6.711-6.046-11.345-6.943-38.969-7.542l-24.25-0.527v37.705m423.11-36.478c-6.443 1.018-9.763 3.292-12.543 8.593-1.915 3.65-2.093 5.939-2.393 30.832l-0.324 26.889 24.824-0.49c28.918-0.57 31.769-1.28 39.858-9.928 7.054-7.541 8.912-12.505 8.942-23.881 0.022-8.75-0.24-10.056-3.233-16.137-6.079-12.348-13.703-15.894-35.243-16.394-7.975-0.184-16.924 0.047-19.888 0.516m-535.3 225.51c-12.321 3.393-21.054 10.209-26.026 20.315-2.939 5.972-3.287 7.584-3.285 15.221 1e-3 7.631 0.351 9.253 3.282 15.206 6.14 12.473 14.273 16.767 37.216 19.65 8.525 1.071 16.749 2.518 18.275 3.215 3.673 1.677 6.693 6.744 6.881 11.546 0.374 9.535-6.85 14.818-20.156 14.739-12.874-0.076-22.474-5.981-25.005-15.381l-1.09-4.046-9.202 0.614c-12.577 0.839-12.078 0.546-11.427 6.722 0.778 7.368 3.889 13.922 9.411 19.825 5.142 5.498 6.935 6.612 17.713 11.004 6.576 2.68 8.064 2.893 20.15 2.897 7.178 1e-3 13.478-0.369 14-0.823 0.523-0.454 2.769-1.396 4.992-2.091 9.99-3.128 21.014-14.329 23.399-23.776 2.325-9.205 0.591-22.475-3.882-29.712-6.291-10.178-15.919-14.51-36.939-16.619-14.379-1.442-17.385-2.375-21.029-6.525-2.501-2.848-3.091-4.403-3.091-8.141 0-4.067 0.465-5.062 3.888-8.318 10.717-10.196 31.819-6.952 35.833 5.508l0.966 3 8.407-0.302c4.623-0.167 9.695-0.551 11.27-0.855 2.667-0.514 2.823-0.801 2.276-4.173-0.323-1.991-1.968-6.426-3.656-9.853-4.763-9.676-14.265-16.749-25.783-19.193-6.928-1.469-21.463-1.286-27.388 0.346m100 0c-12.393 3.413-21.839 10.832-26.394 20.73-2.429 5.277-2.901 7.599-2.908 14.3-0.015 14.889 5.321 23.872 17.793 29.953 6.264 3.053 9.233 3.764 22.919 5.488 8.648 1.089 17.025 2.653 18.616 3.476 3.476 1.797 6.161 7.041 6.161 12.034 0 9.175-6.987 14.007-20.069 13.878-12.749-0.126-21.419-5.261-24.489-14.505l-1.612-4.852-9.665 0.597c-5.316 0.328-10.182 0.753-10.815 0.944-1.578 0.477-0.749 6.605 1.892 13.987 3.274 9.151 11.615 17.025 23.108 21.813 8.628 3.595 9.169 3.687 21.617 3.687 13.56 0 18.576-1.229 27.033-6.623 14.896-9.501 20.585-25.778 14.909-42.659-5.087-15.13-15.482-21.39-39.409-23.731-15.047-1.472-17.825-2.345-21.447-6.739-2.386-2.895-3.053-4.67-3.053-8.131 0-3.842 0.513-4.915 3.888-8.125 10.717-10.195 31.843-6.947 35.826 5.508l0.959 3 9.914-0.358c5.452-0.197 10.425-0.773 11.05-1.279 1.518-1.229 0.073-7.748-3.233-14.587-4.164-8.613-14.153-15.807-25.203-18.152-6.928-1.469-21.463-1.286-27.388 0.346m151.69-0.081c-7.15 1.743-16.945 7.254-21.133 11.89-5.899 6.529-8.779 13.956-8.811 22.721-0.054 14.701 5.7 24.587 17.701 30.414 6.324 3.071 9.216 3.759 22.798 5.425 16.902 2.073 21.045 3.521 23.465 8.2 2.09 4.042 2.137 11.31 0.092 14.431-6.213 9.482-29.82 9.229-39.064-0.419-1.477-1.543-3.272-4.773-3.987-7.178l-1.301-4.373-9.88 0.366c-5.434 0.201-10.268 0.596-10.742 0.878-1.583 0.941 0.388 10.683 3.43 16.953 4.608 9.501 12.786 15.782 26.992 20.728 4.876 1.698 29.391 2.273 30.355 0.712 0.294-0.474 2.618-1.446 5.167-2.16 9.738-2.726 20.167-13.122 23.42-23.345 1.874-5.889 0.863-20.014-1.87-26.132-5.741-12.847-16.198-18.34-39.132-20.554-17.76-1.714-23.5-5.128-23.5-13.978 0-9.59 6.878-14.441 20.5-14.457 10.644-0.014 14.357 1.84 18.066 9.021 1.926 3.728 3.112 4.95 4.75 4.897 1.201-0.04 5.798-0.152 10.215-0.25 9.767-0.218 10.142-0.759 7.089-10.238-3.799-11.796-14.646-21.055-27.919-23.832-6.808-1.425-20.289-1.283-26.701 0.28m424.24 0.173c-6.985 1.693-10.588 3.487-15.286 7.612-8.042 7.061-13.494 19.163-15.532 34.481-1.531 11.5-0.676 38.847 1.454 46.559 3.847 13.925 11.165 23.328 22.725 29.201l7.057 3.585h13.755c13.743 0 13.762-3e-3 21.113-3.581 8.909-4.336 13.843-9.35 18.508-18.807 2.617-5.307 3.749-9.241 4.458-15.502 0.523-4.615 0.712-8.778 0.42-9.25-0.292-0.473-5.392-0.86-11.333-0.86h-10.801l-0.606 4.75c-1.783 13.992-6.748 20.057-17.726 21.652-11.421 1.659-20.408-3.569-23.455-13.644-2.178-7.202-3.045-30.765-1.573-42.758 2.101-17.119 6.643-22.237 20.291-22.857 12.286-0.559 16.287 2.011 20.274 13.023l2.294 6.334h10.861 10.861l-0.147-6.642c-0.266-11.983-8.094-24.114-19.223-29.792-9.764-4.981-26.128-6.475-38.389-3.504m-772.69 2.046c-1.704 1.434-3.572 3.492-4.15 4.572-0.579 1.081-6.679 18.244-13.556 38.142s-15.619 45.13-19.426 56.071-6.922 20.067-6.922 20.28 5.701 0.261 12.669 0.107l12.67-0.28 3.032-10c1.668-5.5 3.347-10.225 3.73-10.5 0.384-0.275 9.406-0.275 20.048 0l19.351 0.5 6.826 20.5h12.337c6.785 0 12.337-0.406 12.337-0.903s-1.541-5.334-3.424-10.75c-1.882-5.416-10.239-29.588-18.569-53.716-17.472-50.607-18.914-54.054-23.241-55.563-5.372-1.872-10.317-1.317-13.712 1.54m274.77 44.142c-0.192 51.894-0.188 62.314 0.026 70l0.146 5.25h12 12v-61-61h-12-12l-0.172 46.75m141.54-36 0.28 10.75 15.925 0.177 15.926 0.176 0.259 50.074 0.259 50.073h11.982 11.982l0.518-100.5 14.5-0.168c7.975-0.093 15.063-0.206 15.75-0.25 0.915-0.06 1.25-2.892 1.25-10.582v-10.5h-44.456-44.456l0.281 10.75m141.63-10.041c-4.7 1.729-7.502 6.647-13.242 23.246-2.196 6.35-7.8 22.57-12.454 36.045-4.653 13.475-10.948 31.7-13.987 40.5-3.04 8.8-5.902 17.251-6.36 18.779l-0.834 2.78 12.631-0.28 12.631-0.279 3.09-10 3.091-10 38.771-1 1.712 2.818c0.941 1.55 2.728 6.387 3.97 10.75l2.259 7.932h12.861c7.074 0 12.861-0.194 12.861-0.432 0-0.237-1.387-4.175-3.081-8.75-1.695-4.575-8.925-25.193-16.067-45.818-22.79-65.814-22.126-64.203-27.162-65.958-3.155-1.1-8.178-1.256-10.69-0.333m71 60.291v61h12.045 12.044l-0.294-38.501c-0.162-21.175-0.21-38.5-0.106-38.5 0.309 1e-3 12.228 18.279 23.801 36.501 16.542 26.044 20.377 31.645 24.823 36.25 4.017 4.161 4.243 4.25 10.74 4.25 7.193 0 8.25-0.626 11.326-6.7 1.437-2.838 1.621-9.558 1.621-59.25v-56.05h-12.023-12.023l0.273 38.5c0.15 21.176 0.038 38.501-0.249 38.5-0.563 0-3.232-4.191-28.977-45.5-9.256-14.85-17.563-28.013-18.461-29.25-1.53-2.107-2.36-2.25-13.087-2.25h-11.453v61m222-12.404c0 53.881 0.231 56.18 6.334 63.131 3.183 3.626 11.482 8.186 15.166 8.334l2 0.08-2 0.859c-1.178 0.506 10.43 0.888 28.25 0.93l30.25 0.07v-10.861-10.861l-24.275-0.484c-15.833-0.315-25.041-0.893-26.477-1.661-3.567-1.909-4.476-4.862-5.018-16.307l-0.513-10.826 17.891-0.015c9.841-9e-3 18.443-0.366 19.116-0.794 0.799-0.507 1.321-4.239 1.5-10.734l0.276-9.957-19.278-0.272-19.278-0.271 0.278-13.712 0.278-13.711 55.5 0.66v-11.097-11.097h-40-40v48.596m-843.28-12.913c-0.264 0.45-3.295 10.042-6.734 21.317-3.44 11.275-6.468 21.063-6.728 21.75-0.364 0.963 2.733 1.25 13.487 1.25h13.96l-4.935-16.75c-2.714-9.212-5.519-19.133-6.232-22.046-1.365-5.572-2.027-6.868-2.818-5.521m552.45 8.504c-1.671 5.122-4.705 14.713-6.743 21.313-2.037 6.6-3.915 12.563-4.172 13.25-0.36 0.963 2.752 1.25 13.547 1.25h14.015l-1.436-4.75c-0.79-2.612-3.674-12.588-6.408-22.167-2.735-9.579-5.151-17.595-5.369-17.813s-1.763 3.795-3.434 8.917" fill="#0564a5" fill-rule="evenodd"/>
    <path d="m211.95 0.377c-0.248 0.247-4.952 1.214-10.452 2.15s-16.365 3.447-24.145 5.58c-42.233 11.579-75.952 31.241-106.86 62.312-20.772 20.879-33.911 39.277-46.476 65.081-9.869 20.266-14.962 35.704-21.28 64.5-1.791 8.166-2.134 13.684-2.439 39.289-0.384 32.296-0.388 32.261 6.69 61.953 15.467 64.88 63.349 124.82 124.01 155.24 13.136 6.588 27.87 13.004 28.44 12.385 0.364-0.396 1.509-198.15 1.541-266.12l0.019-41.75h153.5c84.425 0 153.5-0.373 153.5-0.828 0-1.009-9.634-22.553-13.493-30.172-8.897-17.57-24.926-39.934-39.933-55.717-23.923-25.16-55.418-46.18-88.155-58.837-11.825-4.571-38.21-11.819-47.528-13.055-2.669-0.354-4.632-1.001-4.362-1.439 0.504-0.814-61.759-1.386-62.577-0.575m2.298 214.34c-0.991 0.36-1.25 27.633-1.25 131.8 0 77.438 0.377 132.34 0.919 133.77 0.872 2.295 1.457 2.445 11.521 2.959 12.814 0.654 35.085-0.578 50.06-2.768 73.584-10.764 138.71-55.405 174.95-119.92 22.083-39.312 32.89-84.005 31.188-128.98-0.424-11.207-0.979-16.175-1.872-16.76-1.285-0.841-263.21-0.938-265.52-0.098m319.64 0.186c-0.059 0.33-0.025 9.601 0.074 20.601 0.529 58.741-12.548 108.74-41.105 157.15-40.687 68.978-113.66 120.94-192.8 137.3-20.829 4.304-30.031 5.191-58.561 5.646l-28 0.447-0.259 53.981-0.258 53.981h214.35 214.35l0.722-137.86c0.81-154.72-0.028-290.18-1.804-291.41-1.288-0.893-106.55-0.731-106.71 0.165" fill="#666767" fill-rule="evenodd"/>
</svg>
