M48
; DRILL file {KiCad 8.0.4} date 2025-06-13T09:50:00+0200
; FORMAT={-:-/ absolute / metric / decimal}
; #@! TF.CreationDate,2025-06-13T09:50:00+02:00
; #@! TF.GenerationSoftware,Kicad,Pcbnew,8.0.4
; #@! TF.FileFunction,MixedPlating,1,2
FMAT,2
METRIC
; #@! TA.AperFunction,Plated,PTH,ComponentDrill
T1C0.800
; #@! TA.AperFunction,Plated,PTH,ComponentDrill
T2C1.000
; #@! TA.AperFunction,NonPlated,NPTH,ComponentDrill
T3C0.400
; #@! TA.AperFunction,NonPlated,NPTH,ComponentDrill
T4C0.600
; #@! TA.AperFunction,NonPlated,NPTH,ComponentDrill
T5C3.200
%
G90
G05
T1
X118.747Y-94.391
X118.747Y-96.391
X124.843Y-94.391
X124.843Y-96.391
T2
X117.731Y-84.76
X117.731Y-89.332
X117.985Y-68.777
X117.985Y-71.277
X120.271Y-84.76
X120.271Y-89.332
X122.811Y-84.76
X122.811Y-89.332
X125.351Y-84.76
X125.351Y-89.332
X130.177Y-77.627
X130.177Y-80.167
X130.177Y-82.707
X130.177Y-85.247
X130.177Y-90.327
X130.177Y-92.867
X132.718Y-70.007
X135.257Y-70.007
X137.797Y-70.007
X140.338Y-70.007
X142.877Y-81.183
X142.877Y-91.343
X142.877Y-93.883
X142.877Y-104.043
X143.79Y-71.785
X145.417Y-81.183
X145.417Y-88.803
X145.417Y-91.343
X145.417Y-93.883
X145.417Y-96.423
X145.417Y-98.963
X146.329Y-71.785
X148.869Y-71.785
X151.409Y-71.785
X153.95Y-71.785
X156.489Y-71.785
X168.278Y-81.183
X168.278Y-83.723
X168.278Y-86.263
X168.278Y-88.803
X168.278Y-91.343
X168.278Y-93.883
X168.278Y-96.423
X170.817Y-104.043
X174.119Y-67.467
X174.119Y-70.007
X174.119Y-72.547
X174.881Y-82.453
X174.881Y-84.993
X174.881Y-87.533
X174.881Y-90.073
X174.881Y-92.613
X174.881Y-95.153
X174.881Y-97.693
T3
X118.438Y-102.0
T4
X118.438Y-78.0
X181.438Y-78.0
X181.438Y-102.0
T5
X118.438Y-78.015
X118.438Y-102.015
X181.438Y-78.015
X181.438Y-102.015
M30
