%TF.GenerationSoftware,KiCad,Pcbnew,8.0.4*%
%TF.CreationDate,2025-06-13T09:49:43+02:00*%
%TF.ProjectId,LeoIoT_Goalfinder,4c656f49-6f54-45f4-976f-616c66696e64,01.04 SMD*%
%TF.SameCoordinates,Original*%
%TF.FileFunction,Soldermask,Bot*%
%TF.FilePolarity,Negative*%
%FSLAX46Y46*%
G04 Gerber Fmt 4.6, Leading zero omitted, Abs format (unit mm)*
G04 Created by KiCad (PCBNEW 8.0.4) date 2025-06-13 09:49:43*
%MOMM*%
%LPD*%
G01*
G04 APERTURE LIST*
G04 Aperture macros list*
%AMRoundRect*
0 Rectangle with rounded corners*
0 $1 Rounding radius*
0 $2 $3 $4 $5 $6 $7 $8 $9 X,Y pos of 4 corners*
0 Add a 4 corners polygon primitive as box body*
4,1,4,$2,$3,$4,$5,$6,$7,$8,$9,$2,$3,0*
0 Add four circle primitives for the rounded corners*
1,1,$1+$1,$2,$3*
1,1,$1+$1,$4,$5*
1,1,$1+$1,$6,$7*
1,1,$1+$1,$8,$9*
0 Add four rect primitives between the rounded corners*
20,1,$1+$1,$2,$3,$4,$5,0*
20,1,$1+$1,$4,$5,$6,$7,0*
20,1,$1+$1,$6,$7,$8,$9,0*
20,1,$1+$1,$8,$9,$2,$3,0*%
G04 Aperture macros list end*
%ADD10C,3.200000*%
%ADD11R,1.700000X1.700000*%
%ADD12O,1.700000X1.700000*%
%ADD13C,1.800000*%
%ADD14C,0.600000*%
%ADD15RoundRect,0.250000X0.750000X-0.600000X0.750000X0.600000X-0.750000X0.600000X-0.750000X-0.600000X0*%
%ADD16O,2.000000X1.700000*%
%ADD17R,1.600000X1.600000*%
%ADD18C,1.600000*%
%ADD19RoundRect,0.250000X-0.475000X0.337500X-0.475000X-0.337500X0.475000X-0.337500X0.475000X0.337500X0*%
%ADD20RoundRect,0.250000X-0.337500X-0.475000X0.337500X-0.475000X0.337500X0.475000X-0.337500X0.475000X0*%
%ADD21RoundRect,0.250000X0.450000X-0.350000X0.450000X0.350000X-0.450000X0.350000X-0.450000X-0.350000X0*%
%ADD22RoundRect,0.150000X0.587500X0.150000X-0.587500X0.150000X-0.587500X-0.150000X0.587500X-0.150000X0*%
%ADD23RoundRect,0.250000X-0.450000X0.350000X-0.450000X-0.350000X0.450000X-0.350000X0.450000X0.350000X0*%
%ADD24RoundRect,0.250000X0.475000X-0.337500X0.475000X0.337500X-0.475000X0.337500X-0.475000X-0.337500X0*%
G04 APERTURE END LIST*
D10*
%TO.C,MH4*%
X118437500Y-102015000D03*
%TD*%
D11*
%TO.C,U2*%
X143789500Y-71785000D03*
D12*
X146329500Y-71785000D03*
X148869500Y-71785000D03*
X151409500Y-71785000D03*
X153949500Y-71785000D03*
X156489500Y-71785000D03*
%TD*%
D13*
%TO.C,U1*%
X170817500Y-104043000D03*
X168277500Y-96423000D03*
X168277500Y-93883000D03*
X168277500Y-91343000D03*
X168277500Y-88803000D03*
X168277500Y-86263000D03*
X168277500Y-83723000D03*
X168277500Y-81183000D03*
X142877500Y-104043000D03*
X145417500Y-98963000D03*
X145417500Y-96423000D03*
X145417500Y-93883000D03*
X142877500Y-93883000D03*
X145417500Y-91343000D03*
X142877500Y-91343000D03*
X145417500Y-88803000D03*
X145417500Y-81183000D03*
X142877500Y-81183000D03*
%TD*%
D10*
%TO.C,MH3*%
X181437500Y-102015000D03*
%TD*%
%TO.C,MH2*%
X181437500Y-78015000D03*
%TD*%
%TO.C,MH1*%
X118437500Y-78015000D03*
%TD*%
D14*
%TO.C,LS1*%
X181437500Y-102000000D03*
X181437500Y-78000000D03*
X118437500Y-102000000D03*
X118437500Y-78000000D03*
%TD*%
D11*
%TO.C,U3*%
X174881500Y-82453000D03*
D12*
X174881500Y-84993000D03*
X174881500Y-87533000D03*
X174881500Y-90073000D03*
X174881500Y-92613000D03*
X174881500Y-95153000D03*
X174881500Y-97693000D03*
%TD*%
D11*
%TO.C,U5*%
X130177500Y-77627000D03*
D12*
X130177500Y-80167000D03*
X130177500Y-82707000D03*
X130177500Y-85247000D03*
X130177500Y-90327000D03*
X130177500Y-92867000D03*
%TD*%
D11*
%TO.C,J2*%
X117731500Y-84760500D03*
D12*
X120271500Y-84760500D03*
X122811500Y-84760500D03*
X125351500Y-84760500D03*
%TD*%
D15*
%TO.C,J4*%
X117985500Y-71277000D03*
D16*
X117985500Y-68777000D03*
%TD*%
D11*
%TO.C,J1*%
X117731500Y-89332500D03*
D12*
X120271500Y-89332500D03*
X122811500Y-89332500D03*
X125351500Y-89332500D03*
%TD*%
D11*
%TO.C,J6*%
X132717500Y-70007000D03*
D12*
X135257500Y-70007000D03*
X137797500Y-70007000D03*
X140337500Y-70007000D03*
%TD*%
D17*
%TO.C,C1*%
X124843500Y-94391000D03*
D18*
X124843500Y-96391000D03*
%TD*%
D17*
%TO.C,C2*%
X118747500Y-94391000D03*
D18*
X118747500Y-96391000D03*
%TD*%
D11*
%TO.C,J5*%
X174119500Y-67467000D03*
D12*
X174119500Y-70007000D03*
X174119500Y-72547000D03*
%TD*%
D19*
%TO.C,C9*%
X132717500Y-77627000D03*
X132717500Y-79702000D03*
%TD*%
D20*
%TO.C,C6*%
X143872000Y-74833000D03*
X145947000Y-74833000D03*
%TD*%
D19*
%TO.C,C3*%
X121795500Y-94369500D03*
X121795500Y-96444500D03*
%TD*%
D21*
%TO.C,R2*%
X177929500Y-92105000D03*
X177929500Y-90105000D03*
%TD*%
%TO.C,R4*%
X130177500Y-72277000D03*
X130177500Y-70277000D03*
%TD*%
D22*
%TO.C,Q1*%
X125019000Y-70245000D03*
X125019000Y-72145000D03*
X123144000Y-71195000D03*
%TD*%
D23*
%TO.C,R5*%
X127637500Y-70261000D03*
X127637500Y-72261000D03*
%TD*%
%TO.C,R3*%
X127383500Y-77659000D03*
X127383500Y-79659000D03*
%TD*%
D19*
%TO.C,C8*%
X164975500Y-86474000D03*
X164975500Y-88549000D03*
%TD*%
%TO.C,C5*%
X176913500Y-67953500D03*
X176913500Y-70028500D03*
%TD*%
D24*
%TO.C,C4*%
X177929500Y-97460500D03*
X177929500Y-95385500D03*
%TD*%
M02*
