%TF.GenerationSoftware,KiCad,Pcbnew,8.0.4*%
%TF.CreationDate,2025-06-13T09:49:43+02:00*%
%TF.ProjectId,LeoIoT_Goalfinder,4c656f49-6f54-45f4-976f-616c66696e64,01.04 SMD*%
%TF.SameCoordinates,Original*%
%TF.FileFunction,Legend,Top*%
%TF.FilePolarity,Positive*%
%FSLAX46Y46*%
G04 Gerber Fmt 4.6, Leading zero omitted, Abs format (unit mm)*
G04 Created by KiCad (PCBNEW 8.0.4) date 2025-06-13 09:49:43*
%MOMM*%
%LPD*%
G01*
G04 APERTURE LIST*
%ADD10C,0.187500*%
%ADD11C,0.125000*%
%ADD12C,0.300000*%
%ADD13C,0.250000*%
%ADD14C,0.150000*%
%ADD15C,0.120000*%
%ADD16C,0.100000*%
G04 APERTURE END LIST*
D10*
X122196526Y-72033916D02*
X122958431Y-72033916D01*
X122577478Y-72414869D02*
X122577478Y-71652964D01*
X123910811Y-71414869D02*
X123434621Y-71414869D01*
X123434621Y-71414869D02*
X123387002Y-71891059D01*
X123387002Y-71891059D02*
X123434621Y-71843440D01*
X123434621Y-71843440D02*
X123529859Y-71795821D01*
X123529859Y-71795821D02*
X123767954Y-71795821D01*
X123767954Y-71795821D02*
X123863192Y-71843440D01*
X123863192Y-71843440D02*
X123910811Y-71891059D01*
X123910811Y-71891059D02*
X123958430Y-71986297D01*
X123958430Y-71986297D02*
X123958430Y-72224392D01*
X123958430Y-72224392D02*
X123910811Y-72319630D01*
X123910811Y-72319630D02*
X123863192Y-72367250D01*
X123863192Y-72367250D02*
X123767954Y-72414869D01*
X123767954Y-72414869D02*
X123529859Y-72414869D01*
X123529859Y-72414869D02*
X123434621Y-72367250D01*
X123434621Y-72367250D02*
X123387002Y-72319630D01*
X124244145Y-71414869D02*
X124577478Y-72414869D01*
X124577478Y-72414869D02*
X124910811Y-71414869D01*
X125244145Y-71891059D02*
X126006050Y-71891059D01*
X126006050Y-72176773D02*
X125244145Y-72176773D01*
D11*
X173103786Y-75332556D02*
X173246643Y-75380175D01*
X173246643Y-75380175D02*
X173484738Y-75380175D01*
X173484738Y-75380175D02*
X173579976Y-75332556D01*
X173579976Y-75332556D02*
X173627595Y-75284936D01*
X173627595Y-75284936D02*
X173675214Y-75189698D01*
X173675214Y-75189698D02*
X173675214Y-75094460D01*
X173675214Y-75094460D02*
X173627595Y-74999222D01*
X173627595Y-74999222D02*
X173579976Y-74951603D01*
X173579976Y-74951603D02*
X173484738Y-74903984D01*
X173484738Y-74903984D02*
X173294262Y-74856365D01*
X173294262Y-74856365D02*
X173199024Y-74808746D01*
X173199024Y-74808746D02*
X173151405Y-74761127D01*
X173151405Y-74761127D02*
X173103786Y-74665889D01*
X173103786Y-74665889D02*
X173103786Y-74570651D01*
X173103786Y-74570651D02*
X173151405Y-74475413D01*
X173151405Y-74475413D02*
X173199024Y-74427794D01*
X173199024Y-74427794D02*
X173294262Y-74380175D01*
X173294262Y-74380175D02*
X173532357Y-74380175D01*
X173532357Y-74380175D02*
X173675214Y-74427794D01*
X174008548Y-74380175D02*
X174246643Y-75380175D01*
X174246643Y-75380175D02*
X174437119Y-74665889D01*
X174437119Y-74665889D02*
X174627595Y-75380175D01*
X174627595Y-75380175D02*
X174865691Y-74380175D01*
X175199024Y-74475413D02*
X175246643Y-74427794D01*
X175246643Y-74427794D02*
X175341881Y-74380175D01*
X175341881Y-74380175D02*
X175579976Y-74380175D01*
X175579976Y-74380175D02*
X175675214Y-74427794D01*
X175675214Y-74427794D02*
X175722833Y-74475413D01*
X175722833Y-74475413D02*
X175770452Y-74570651D01*
X175770452Y-74570651D02*
X175770452Y-74665889D01*
X175770452Y-74665889D02*
X175722833Y-74808746D01*
X175722833Y-74808746D02*
X175151405Y-75380175D01*
X175151405Y-75380175D02*
X175770452Y-75380175D01*
X176627595Y-74713508D02*
X176627595Y-75380175D01*
X176389500Y-74332556D02*
X176151405Y-75046841D01*
X176151405Y-75046841D02*
X176770452Y-75046841D01*
X177341881Y-74380175D02*
X177437119Y-74380175D01*
X177437119Y-74380175D02*
X177532357Y-74427794D01*
X177532357Y-74427794D02*
X177579976Y-74475413D01*
X177579976Y-74475413D02*
X177627595Y-74570651D01*
X177627595Y-74570651D02*
X177675214Y-74761127D01*
X177675214Y-74761127D02*
X177675214Y-74999222D01*
X177675214Y-74999222D02*
X177627595Y-75189698D01*
X177627595Y-75189698D02*
X177579976Y-75284936D01*
X177579976Y-75284936D02*
X177532357Y-75332556D01*
X177532357Y-75332556D02*
X177437119Y-75380175D01*
X177437119Y-75380175D02*
X177341881Y-75380175D01*
X177341881Y-75380175D02*
X177246643Y-75332556D01*
X177246643Y-75332556D02*
X177199024Y-75284936D01*
X177199024Y-75284936D02*
X177151405Y-75189698D01*
X177151405Y-75189698D02*
X177103786Y-74999222D01*
X177103786Y-74999222D02*
X177103786Y-74761127D01*
X177103786Y-74761127D02*
X177151405Y-74570651D01*
X177151405Y-74570651D02*
X177199024Y-74475413D01*
X177199024Y-74475413D02*
X177246643Y-74427794D01*
X177246643Y-74427794D02*
X177341881Y-74380175D01*
X173579976Y-77371071D02*
X173532357Y-77323452D01*
X173532357Y-77323452D02*
X173437119Y-77180595D01*
X173437119Y-77180595D02*
X173389500Y-77085357D01*
X173389500Y-77085357D02*
X173341881Y-76942500D01*
X173341881Y-76942500D02*
X173294262Y-76704404D01*
X173294262Y-76704404D02*
X173294262Y-76513928D01*
X173294262Y-76513928D02*
X173341881Y-76275833D01*
X173341881Y-76275833D02*
X173389500Y-76132976D01*
X173389500Y-76132976D02*
X173437119Y-76037738D01*
X173437119Y-76037738D02*
X173532357Y-75894880D01*
X173532357Y-75894880D02*
X173579976Y-75847261D01*
X173818072Y-75990119D02*
X174151405Y-76990119D01*
X174151405Y-76990119D02*
X174484738Y-75990119D01*
X174818072Y-76990119D02*
X174818072Y-76323452D01*
X174818072Y-75990119D02*
X174770453Y-76037738D01*
X174770453Y-76037738D02*
X174818072Y-76085357D01*
X174818072Y-76085357D02*
X174865691Y-76037738D01*
X174865691Y-76037738D02*
X174818072Y-75990119D01*
X174818072Y-75990119D02*
X174818072Y-76085357D01*
X175294262Y-76990119D02*
X175294262Y-75990119D01*
X175294262Y-76371071D02*
X175389500Y-76323452D01*
X175389500Y-76323452D02*
X175579976Y-76323452D01*
X175579976Y-76323452D02*
X175675214Y-76371071D01*
X175675214Y-76371071D02*
X175722833Y-76418690D01*
X175722833Y-76418690D02*
X175770452Y-76513928D01*
X175770452Y-76513928D02*
X175770452Y-76799642D01*
X175770452Y-76799642D02*
X175722833Y-76894880D01*
X175722833Y-76894880D02*
X175675214Y-76942500D01*
X175675214Y-76942500D02*
X175579976Y-76990119D01*
X175579976Y-76990119D02*
X175389500Y-76990119D01*
X175389500Y-76990119D02*
X175294262Y-76942500D01*
X176199024Y-76990119D02*
X176199024Y-76323452D01*
X176199024Y-76513928D02*
X176246643Y-76418690D01*
X176246643Y-76418690D02*
X176294262Y-76371071D01*
X176294262Y-76371071D02*
X176389500Y-76323452D01*
X176389500Y-76323452D02*
X176484738Y-76323452D01*
X176818072Y-76894880D02*
X176865691Y-76942500D01*
X176865691Y-76942500D02*
X176818072Y-76990119D01*
X176818072Y-76990119D02*
X176770453Y-76942500D01*
X176770453Y-76942500D02*
X176818072Y-76894880D01*
X176818072Y-76894880D02*
X176818072Y-76990119D01*
X177199024Y-77371071D02*
X177246643Y-77323452D01*
X177246643Y-77323452D02*
X177341881Y-77180595D01*
X177341881Y-77180595D02*
X177389500Y-77085357D01*
X177389500Y-77085357D02*
X177437119Y-76942500D01*
X177437119Y-76942500D02*
X177484738Y-76704404D01*
X177484738Y-76704404D02*
X177484738Y-76513928D01*
X177484738Y-76513928D02*
X177437119Y-76275833D01*
X177437119Y-76275833D02*
X177389500Y-76132976D01*
X177389500Y-76132976D02*
X177341881Y-76037738D01*
X177341881Y-76037738D02*
X177246643Y-75894880D01*
X177246643Y-75894880D02*
X177199024Y-75847261D01*
D12*
X147242010Y-67775828D02*
X147242010Y-66275828D01*
X147242010Y-66990114D02*
X148099153Y-66990114D01*
X148099153Y-67775828D02*
X148099153Y-66275828D01*
X148599154Y-66275828D02*
X149456297Y-66275828D01*
X149027725Y-67775828D02*
X149027725Y-66275828D01*
X150670582Y-67775828D02*
X149956296Y-67775828D01*
X149956296Y-67775828D02*
X149956296Y-66275828D01*
X153027725Y-67775828D02*
X152313439Y-67775828D01*
X152313439Y-67775828D02*
X152313439Y-66275828D01*
X154099154Y-67704400D02*
X153956297Y-67775828D01*
X153956297Y-67775828D02*
X153670583Y-67775828D01*
X153670583Y-67775828D02*
X153527725Y-67704400D01*
X153527725Y-67704400D02*
X153456297Y-67561542D01*
X153456297Y-67561542D02*
X153456297Y-66990114D01*
X153456297Y-66990114D02*
X153527725Y-66847257D01*
X153527725Y-66847257D02*
X153670583Y-66775828D01*
X153670583Y-66775828D02*
X153956297Y-66775828D01*
X153956297Y-66775828D02*
X154099154Y-66847257D01*
X154099154Y-66847257D02*
X154170583Y-66990114D01*
X154170583Y-66990114D02*
X154170583Y-67132971D01*
X154170583Y-67132971D02*
X153456297Y-67275828D01*
X155027725Y-67775828D02*
X154884868Y-67704400D01*
X154884868Y-67704400D02*
X154813439Y-67632971D01*
X154813439Y-67632971D02*
X154742011Y-67490114D01*
X154742011Y-67490114D02*
X154742011Y-67061542D01*
X154742011Y-67061542D02*
X154813439Y-66918685D01*
X154813439Y-66918685D02*
X154884868Y-66847257D01*
X154884868Y-66847257D02*
X155027725Y-66775828D01*
X155027725Y-66775828D02*
X155242011Y-66775828D01*
X155242011Y-66775828D02*
X155384868Y-66847257D01*
X155384868Y-66847257D02*
X155456297Y-66918685D01*
X155456297Y-66918685D02*
X155527725Y-67061542D01*
X155527725Y-67061542D02*
X155527725Y-67490114D01*
X155527725Y-67490114D02*
X155456297Y-67632971D01*
X155456297Y-67632971D02*
X155384868Y-67704400D01*
X155384868Y-67704400D02*
X155242011Y-67775828D01*
X155242011Y-67775828D02*
X155027725Y-67775828D01*
X156170582Y-66775828D02*
X156170582Y-67775828D01*
X156170582Y-66918685D02*
X156242011Y-66847257D01*
X156242011Y-66847257D02*
X156384868Y-66775828D01*
X156384868Y-66775828D02*
X156599154Y-66775828D01*
X156599154Y-66775828D02*
X156742011Y-66847257D01*
X156742011Y-66847257D02*
X156813440Y-66990114D01*
X156813440Y-66990114D02*
X156813440Y-67775828D01*
X158170583Y-67775828D02*
X158170583Y-66275828D01*
X158170583Y-67704400D02*
X158027725Y-67775828D01*
X158027725Y-67775828D02*
X157742011Y-67775828D01*
X157742011Y-67775828D02*
X157599154Y-67704400D01*
X157599154Y-67704400D02*
X157527725Y-67632971D01*
X157527725Y-67632971D02*
X157456297Y-67490114D01*
X157456297Y-67490114D02*
X157456297Y-67061542D01*
X157456297Y-67061542D02*
X157527725Y-66918685D01*
X157527725Y-66918685D02*
X157599154Y-66847257D01*
X157599154Y-66847257D02*
X157742011Y-66775828D01*
X157742011Y-66775828D02*
X158027725Y-66775828D01*
X158027725Y-66775828D02*
X158170583Y-66847257D01*
X158884868Y-67775828D02*
X158884868Y-66775828D01*
X158884868Y-66275828D02*
X158813440Y-66347257D01*
X158813440Y-66347257D02*
X158884868Y-66418685D01*
X158884868Y-66418685D02*
X158956297Y-66347257D01*
X158956297Y-66347257D02*
X158884868Y-66275828D01*
X158884868Y-66275828D02*
X158884868Y-66418685D01*
X159599154Y-66775828D02*
X159599154Y-67775828D01*
X159599154Y-66918685D02*
X159670583Y-66847257D01*
X159670583Y-66847257D02*
X159813440Y-66775828D01*
X159813440Y-66775828D02*
X160027726Y-66775828D01*
X160027726Y-66775828D02*
X160170583Y-66847257D01*
X160170583Y-66847257D02*
X160242012Y-66990114D01*
X160242012Y-66990114D02*
X160242012Y-67775828D01*
X161599155Y-66775828D02*
X161599155Y-67990114D01*
X161599155Y-67990114D02*
X161527726Y-68132971D01*
X161527726Y-68132971D02*
X161456297Y-68204400D01*
X161456297Y-68204400D02*
X161313440Y-68275828D01*
X161313440Y-68275828D02*
X161099155Y-68275828D01*
X161099155Y-68275828D02*
X160956297Y-68204400D01*
X161599155Y-67704400D02*
X161456297Y-67775828D01*
X161456297Y-67775828D02*
X161170583Y-67775828D01*
X161170583Y-67775828D02*
X161027726Y-67704400D01*
X161027726Y-67704400D02*
X160956297Y-67632971D01*
X160956297Y-67632971D02*
X160884869Y-67490114D01*
X160884869Y-67490114D02*
X160884869Y-67061542D01*
X160884869Y-67061542D02*
X160956297Y-66918685D01*
X160956297Y-66918685D02*
X161027726Y-66847257D01*
X161027726Y-66847257D02*
X161170583Y-66775828D01*
X161170583Y-66775828D02*
X161456297Y-66775828D01*
X161456297Y-66775828D02*
X161599155Y-66847257D01*
X163384869Y-66418685D02*
X163456297Y-66347257D01*
X163456297Y-66347257D02*
X163599155Y-66275828D01*
X163599155Y-66275828D02*
X163956297Y-66275828D01*
X163956297Y-66275828D02*
X164099155Y-66347257D01*
X164099155Y-66347257D02*
X164170583Y-66418685D01*
X164170583Y-66418685D02*
X164242012Y-66561542D01*
X164242012Y-66561542D02*
X164242012Y-66704400D01*
X164242012Y-66704400D02*
X164170583Y-66918685D01*
X164170583Y-66918685D02*
X163313440Y-67775828D01*
X163313440Y-67775828D02*
X164242012Y-67775828D01*
X165170583Y-66275828D02*
X165313440Y-66275828D01*
X165313440Y-66275828D02*
X165456297Y-66347257D01*
X165456297Y-66347257D02*
X165527726Y-66418685D01*
X165527726Y-66418685D02*
X165599154Y-66561542D01*
X165599154Y-66561542D02*
X165670583Y-66847257D01*
X165670583Y-66847257D02*
X165670583Y-67204400D01*
X165670583Y-67204400D02*
X165599154Y-67490114D01*
X165599154Y-67490114D02*
X165527726Y-67632971D01*
X165527726Y-67632971D02*
X165456297Y-67704400D01*
X165456297Y-67704400D02*
X165313440Y-67775828D01*
X165313440Y-67775828D02*
X165170583Y-67775828D01*
X165170583Y-67775828D02*
X165027726Y-67704400D01*
X165027726Y-67704400D02*
X164956297Y-67632971D01*
X164956297Y-67632971D02*
X164884868Y-67490114D01*
X164884868Y-67490114D02*
X164813440Y-67204400D01*
X164813440Y-67204400D02*
X164813440Y-66847257D01*
X164813440Y-66847257D02*
X164884868Y-66561542D01*
X164884868Y-66561542D02*
X164956297Y-66418685D01*
X164956297Y-66418685D02*
X165027726Y-66347257D01*
X165027726Y-66347257D02*
X165170583Y-66275828D01*
X166242011Y-66418685D02*
X166313439Y-66347257D01*
X166313439Y-66347257D02*
X166456297Y-66275828D01*
X166456297Y-66275828D02*
X166813439Y-66275828D01*
X166813439Y-66275828D02*
X166956297Y-66347257D01*
X166956297Y-66347257D02*
X167027725Y-66418685D01*
X167027725Y-66418685D02*
X167099154Y-66561542D01*
X167099154Y-66561542D02*
X167099154Y-66704400D01*
X167099154Y-66704400D02*
X167027725Y-66918685D01*
X167027725Y-66918685D02*
X166170582Y-67775828D01*
X166170582Y-67775828D02*
X167099154Y-67775828D01*
X168456296Y-66275828D02*
X167742010Y-66275828D01*
X167742010Y-66275828D02*
X167670582Y-66990114D01*
X167670582Y-66990114D02*
X167742010Y-66918685D01*
X167742010Y-66918685D02*
X167884868Y-66847257D01*
X167884868Y-66847257D02*
X168242010Y-66847257D01*
X168242010Y-66847257D02*
X168384868Y-66918685D01*
X168384868Y-66918685D02*
X168456296Y-66990114D01*
X168456296Y-66990114D02*
X168527725Y-67132971D01*
X168527725Y-67132971D02*
X168527725Y-67490114D01*
X168527725Y-67490114D02*
X168456296Y-67632971D01*
X168456296Y-67632971D02*
X168384868Y-67704400D01*
X168384868Y-67704400D02*
X168242010Y-67775828D01*
X168242010Y-67775828D02*
X167884868Y-67775828D01*
X167884868Y-67775828D02*
X167742010Y-67704400D01*
X167742010Y-67704400D02*
X167670582Y-67632971D01*
X127453725Y-66347257D02*
X127310868Y-66275828D01*
X127310868Y-66275828D02*
X127096582Y-66275828D01*
X127096582Y-66275828D02*
X126882296Y-66347257D01*
X126882296Y-66347257D02*
X126739439Y-66490114D01*
X126739439Y-66490114D02*
X126668010Y-66632971D01*
X126668010Y-66632971D02*
X126596582Y-66918685D01*
X126596582Y-66918685D02*
X126596582Y-67132971D01*
X126596582Y-67132971D02*
X126668010Y-67418685D01*
X126668010Y-67418685D02*
X126739439Y-67561542D01*
X126739439Y-67561542D02*
X126882296Y-67704400D01*
X126882296Y-67704400D02*
X127096582Y-67775828D01*
X127096582Y-67775828D02*
X127239439Y-67775828D01*
X127239439Y-67775828D02*
X127453725Y-67704400D01*
X127453725Y-67704400D02*
X127525153Y-67632971D01*
X127525153Y-67632971D02*
X127525153Y-67132971D01*
X127525153Y-67132971D02*
X127239439Y-67132971D01*
X128382296Y-67775828D02*
X128239439Y-67704400D01*
X128239439Y-67704400D02*
X128168010Y-67632971D01*
X128168010Y-67632971D02*
X128096582Y-67490114D01*
X128096582Y-67490114D02*
X128096582Y-67061542D01*
X128096582Y-67061542D02*
X128168010Y-66918685D01*
X128168010Y-66918685D02*
X128239439Y-66847257D01*
X128239439Y-66847257D02*
X128382296Y-66775828D01*
X128382296Y-66775828D02*
X128596582Y-66775828D01*
X128596582Y-66775828D02*
X128739439Y-66847257D01*
X128739439Y-66847257D02*
X128810868Y-66918685D01*
X128810868Y-66918685D02*
X128882296Y-67061542D01*
X128882296Y-67061542D02*
X128882296Y-67490114D01*
X128882296Y-67490114D02*
X128810868Y-67632971D01*
X128810868Y-67632971D02*
X128739439Y-67704400D01*
X128739439Y-67704400D02*
X128596582Y-67775828D01*
X128596582Y-67775828D02*
X128382296Y-67775828D01*
X130168011Y-67775828D02*
X130168011Y-66990114D01*
X130168011Y-66990114D02*
X130096582Y-66847257D01*
X130096582Y-66847257D02*
X129953725Y-66775828D01*
X129953725Y-66775828D02*
X129668011Y-66775828D01*
X129668011Y-66775828D02*
X129525153Y-66847257D01*
X130168011Y-67704400D02*
X130025153Y-67775828D01*
X130025153Y-67775828D02*
X129668011Y-67775828D01*
X129668011Y-67775828D02*
X129525153Y-67704400D01*
X129525153Y-67704400D02*
X129453725Y-67561542D01*
X129453725Y-67561542D02*
X129453725Y-67418685D01*
X129453725Y-67418685D02*
X129525153Y-67275828D01*
X129525153Y-67275828D02*
X129668011Y-67204400D01*
X129668011Y-67204400D02*
X130025153Y-67204400D01*
X130025153Y-67204400D02*
X130168011Y-67132971D01*
X131096582Y-67775828D02*
X130953725Y-67704400D01*
X130953725Y-67704400D02*
X130882296Y-67561542D01*
X130882296Y-67561542D02*
X130882296Y-66275828D01*
X131453725Y-66775828D02*
X132025153Y-66775828D01*
X131668010Y-67775828D02*
X131668010Y-66490114D01*
X131668010Y-66490114D02*
X131739439Y-66347257D01*
X131739439Y-66347257D02*
X131882296Y-66275828D01*
X131882296Y-66275828D02*
X132025153Y-66275828D01*
X132525153Y-67775828D02*
X132525153Y-66775828D01*
X132525153Y-66275828D02*
X132453725Y-66347257D01*
X132453725Y-66347257D02*
X132525153Y-66418685D01*
X132525153Y-66418685D02*
X132596582Y-66347257D01*
X132596582Y-66347257D02*
X132525153Y-66275828D01*
X132525153Y-66275828D02*
X132525153Y-66418685D01*
X133239439Y-66775828D02*
X133239439Y-67775828D01*
X133239439Y-66918685D02*
X133310868Y-66847257D01*
X133310868Y-66847257D02*
X133453725Y-66775828D01*
X133453725Y-66775828D02*
X133668011Y-66775828D01*
X133668011Y-66775828D02*
X133810868Y-66847257D01*
X133810868Y-66847257D02*
X133882297Y-66990114D01*
X133882297Y-66990114D02*
X133882297Y-67775828D01*
X135239440Y-67775828D02*
X135239440Y-66275828D01*
X135239440Y-67704400D02*
X135096582Y-67775828D01*
X135096582Y-67775828D02*
X134810868Y-67775828D01*
X134810868Y-67775828D02*
X134668011Y-67704400D01*
X134668011Y-67704400D02*
X134596582Y-67632971D01*
X134596582Y-67632971D02*
X134525154Y-67490114D01*
X134525154Y-67490114D02*
X134525154Y-67061542D01*
X134525154Y-67061542D02*
X134596582Y-66918685D01*
X134596582Y-66918685D02*
X134668011Y-66847257D01*
X134668011Y-66847257D02*
X134810868Y-66775828D01*
X134810868Y-66775828D02*
X135096582Y-66775828D01*
X135096582Y-66775828D02*
X135239440Y-66847257D01*
X136525154Y-67704400D02*
X136382297Y-67775828D01*
X136382297Y-67775828D02*
X136096583Y-67775828D01*
X136096583Y-67775828D02*
X135953725Y-67704400D01*
X135953725Y-67704400D02*
X135882297Y-67561542D01*
X135882297Y-67561542D02*
X135882297Y-66990114D01*
X135882297Y-66990114D02*
X135953725Y-66847257D01*
X135953725Y-66847257D02*
X136096583Y-66775828D01*
X136096583Y-66775828D02*
X136382297Y-66775828D01*
X136382297Y-66775828D02*
X136525154Y-66847257D01*
X136525154Y-66847257D02*
X136596583Y-66990114D01*
X136596583Y-66990114D02*
X136596583Y-67132971D01*
X136596583Y-67132971D02*
X135882297Y-67275828D01*
X137239439Y-67775828D02*
X137239439Y-66775828D01*
X137239439Y-67061542D02*
X137310868Y-66918685D01*
X137310868Y-66918685D02*
X137382297Y-66847257D01*
X137382297Y-66847257D02*
X137525154Y-66775828D01*
X137525154Y-66775828D02*
X137668011Y-66775828D01*
X139310867Y-67775828D02*
X139310867Y-66775828D01*
X139310867Y-67061542D02*
X139382296Y-66918685D01*
X139382296Y-66918685D02*
X139453725Y-66847257D01*
X139453725Y-66847257D02*
X139596582Y-66775828D01*
X139596582Y-66775828D02*
X139739439Y-66775828D01*
X141025153Y-67775828D02*
X140168010Y-67775828D01*
X140596581Y-67775828D02*
X140596581Y-66275828D01*
X140596581Y-66275828D02*
X140453724Y-66490114D01*
X140453724Y-66490114D02*
X140310867Y-66632971D01*
X140310867Y-66632971D02*
X140168010Y-66704400D01*
X141668009Y-67632971D02*
X141739438Y-67704400D01*
X141739438Y-67704400D02*
X141668009Y-67775828D01*
X141668009Y-67775828D02*
X141596581Y-67704400D01*
X141596581Y-67704400D02*
X141668009Y-67632971D01*
X141668009Y-67632971D02*
X141668009Y-67775828D01*
X143025153Y-66775828D02*
X143025153Y-67775828D01*
X142668010Y-66204400D02*
X142310867Y-67275828D01*
X142310867Y-67275828D02*
X143239438Y-67275828D01*
X123204642Y-79345328D02*
X123204642Y-80559614D01*
X123204642Y-80559614D02*
X123276071Y-80702471D01*
X123276071Y-80702471D02*
X123347500Y-80773900D01*
X123347500Y-80773900D02*
X123490357Y-80845328D01*
X123490357Y-80845328D02*
X123776071Y-80845328D01*
X123776071Y-80845328D02*
X123918928Y-80773900D01*
X123918928Y-80773900D02*
X123990357Y-80702471D01*
X123990357Y-80702471D02*
X124061785Y-80559614D01*
X124061785Y-80559614D02*
X124061785Y-79345328D01*
X124704643Y-80773900D02*
X124918929Y-80845328D01*
X124918929Y-80845328D02*
X125276071Y-80845328D01*
X125276071Y-80845328D02*
X125418929Y-80773900D01*
X125418929Y-80773900D02*
X125490357Y-80702471D01*
X125490357Y-80702471D02*
X125561786Y-80559614D01*
X125561786Y-80559614D02*
X125561786Y-80416757D01*
X125561786Y-80416757D02*
X125490357Y-80273900D01*
X125490357Y-80273900D02*
X125418929Y-80202471D01*
X125418929Y-80202471D02*
X125276071Y-80131042D01*
X125276071Y-80131042D02*
X124990357Y-80059614D01*
X124990357Y-80059614D02*
X124847500Y-79988185D01*
X124847500Y-79988185D02*
X124776071Y-79916757D01*
X124776071Y-79916757D02*
X124704643Y-79773900D01*
X124704643Y-79773900D02*
X124704643Y-79631042D01*
X124704643Y-79631042D02*
X124776071Y-79488185D01*
X124776071Y-79488185D02*
X124847500Y-79416757D01*
X124847500Y-79416757D02*
X124990357Y-79345328D01*
X124990357Y-79345328D02*
X125347500Y-79345328D01*
X125347500Y-79345328D02*
X125561786Y-79416757D01*
X126704642Y-80059614D02*
X126918928Y-80131042D01*
X126918928Y-80131042D02*
X126990357Y-80202471D01*
X126990357Y-80202471D02*
X127061785Y-80345328D01*
X127061785Y-80345328D02*
X127061785Y-80559614D01*
X127061785Y-80559614D02*
X126990357Y-80702471D01*
X126990357Y-80702471D02*
X126918928Y-80773900D01*
X126918928Y-80773900D02*
X126776071Y-80845328D01*
X126776071Y-80845328D02*
X126204642Y-80845328D01*
X126204642Y-80845328D02*
X126204642Y-79345328D01*
X126204642Y-79345328D02*
X126704642Y-79345328D01*
X126704642Y-79345328D02*
X126847500Y-79416757D01*
X126847500Y-79416757D02*
X126918928Y-79488185D01*
X126918928Y-79488185D02*
X126990357Y-79631042D01*
X126990357Y-79631042D02*
X126990357Y-79773900D01*
X126990357Y-79773900D02*
X126918928Y-79916757D01*
X126918928Y-79916757D02*
X126847500Y-79988185D01*
X126847500Y-79988185D02*
X126704642Y-80059614D01*
X126704642Y-80059614D02*
X126204642Y-80059614D01*
D11*
X130837023Y-71840175D02*
X131170356Y-72840175D01*
X131170356Y-72840175D02*
X131503689Y-71840175D01*
X132313213Y-72840175D02*
X131837023Y-72840175D01*
X131837023Y-72840175D02*
X131837023Y-71840175D01*
X133122737Y-71840175D02*
X132646547Y-71840175D01*
X132646547Y-71840175D02*
X132598928Y-72316365D01*
X132598928Y-72316365D02*
X132646547Y-72268746D01*
X132646547Y-72268746D02*
X132741785Y-72221127D01*
X132741785Y-72221127D02*
X132979880Y-72221127D01*
X132979880Y-72221127D02*
X133075118Y-72268746D01*
X133075118Y-72268746D02*
X133122737Y-72316365D01*
X133122737Y-72316365D02*
X133170356Y-72411603D01*
X133170356Y-72411603D02*
X133170356Y-72649698D01*
X133170356Y-72649698D02*
X133122737Y-72744936D01*
X133122737Y-72744936D02*
X133075118Y-72792556D01*
X133075118Y-72792556D02*
X132979880Y-72840175D01*
X132979880Y-72840175D02*
X132741785Y-72840175D01*
X132741785Y-72840175D02*
X132646547Y-72792556D01*
X132646547Y-72792556D02*
X132598928Y-72744936D01*
X133503690Y-71840175D02*
X134122737Y-71840175D01*
X134122737Y-71840175D02*
X133789404Y-72221127D01*
X133789404Y-72221127D02*
X133932261Y-72221127D01*
X133932261Y-72221127D02*
X134027499Y-72268746D01*
X134027499Y-72268746D02*
X134075118Y-72316365D01*
X134075118Y-72316365D02*
X134122737Y-72411603D01*
X134122737Y-72411603D02*
X134122737Y-72649698D01*
X134122737Y-72649698D02*
X134075118Y-72744936D01*
X134075118Y-72744936D02*
X134027499Y-72792556D01*
X134027499Y-72792556D02*
X133932261Y-72840175D01*
X133932261Y-72840175D02*
X133646547Y-72840175D01*
X133646547Y-72840175D02*
X133551309Y-72792556D01*
X133551309Y-72792556D02*
X133503690Y-72744936D01*
X135027499Y-72840175D02*
X134551309Y-72840175D01*
X134551309Y-72840175D02*
X134551309Y-71840175D01*
X135551309Y-71840175D02*
X135646547Y-71840175D01*
X135646547Y-71840175D02*
X135741785Y-71887794D01*
X135741785Y-71887794D02*
X135789404Y-71935413D01*
X135789404Y-71935413D02*
X135837023Y-72030651D01*
X135837023Y-72030651D02*
X135884642Y-72221127D01*
X135884642Y-72221127D02*
X135884642Y-72459222D01*
X135884642Y-72459222D02*
X135837023Y-72649698D01*
X135837023Y-72649698D02*
X135789404Y-72744936D01*
X135789404Y-72744936D02*
X135741785Y-72792556D01*
X135741785Y-72792556D02*
X135646547Y-72840175D01*
X135646547Y-72840175D02*
X135551309Y-72840175D01*
X135551309Y-72840175D02*
X135456071Y-72792556D01*
X135456071Y-72792556D02*
X135408452Y-72744936D01*
X135408452Y-72744936D02*
X135360833Y-72649698D01*
X135360833Y-72649698D02*
X135313214Y-72459222D01*
X135313214Y-72459222D02*
X135313214Y-72221127D01*
X135313214Y-72221127D02*
X135360833Y-72030651D01*
X135360833Y-72030651D02*
X135408452Y-71935413D01*
X135408452Y-71935413D02*
X135456071Y-71887794D01*
X135456071Y-71887794D02*
X135551309Y-71840175D01*
X136217976Y-71840175D02*
X136884642Y-72840175D01*
X136884642Y-71840175D02*
X136217976Y-72840175D01*
X138027500Y-72459222D02*
X138789405Y-72459222D01*
X139884643Y-71840175D02*
X140456071Y-71840175D01*
X140170357Y-72840175D02*
X140170357Y-71840175D01*
X140932262Y-72840175D02*
X140837024Y-72792556D01*
X140837024Y-72792556D02*
X140789405Y-72744936D01*
X140789405Y-72744936D02*
X140741786Y-72649698D01*
X140741786Y-72649698D02*
X140741786Y-72363984D01*
X140741786Y-72363984D02*
X140789405Y-72268746D01*
X140789405Y-72268746D02*
X140837024Y-72221127D01*
X140837024Y-72221127D02*
X140932262Y-72173508D01*
X140932262Y-72173508D02*
X141075119Y-72173508D01*
X141075119Y-72173508D02*
X141170357Y-72221127D01*
X141170357Y-72221127D02*
X141217976Y-72268746D01*
X141217976Y-72268746D02*
X141265595Y-72363984D01*
X141265595Y-72363984D02*
X141265595Y-72649698D01*
X141265595Y-72649698D02*
X141217976Y-72744936D01*
X141217976Y-72744936D02*
X141170357Y-72792556D01*
X141170357Y-72792556D02*
X141075119Y-72840175D01*
X141075119Y-72840175D02*
X140932262Y-72840175D01*
X142027500Y-72316365D02*
X141694167Y-72316365D01*
X141694167Y-72840175D02*
X141694167Y-71840175D01*
X141694167Y-71840175D02*
X142170357Y-71840175D01*
X129598928Y-73450119D02*
X129932261Y-74450119D01*
X129932261Y-74450119D02*
X130265594Y-73450119D01*
X131027499Y-74402500D02*
X130932261Y-74450119D01*
X130932261Y-74450119D02*
X130741785Y-74450119D01*
X130741785Y-74450119D02*
X130646547Y-74402500D01*
X130646547Y-74402500D02*
X130598928Y-74354880D01*
X130598928Y-74354880D02*
X130551309Y-74259642D01*
X130551309Y-74259642D02*
X130551309Y-73973928D01*
X130551309Y-73973928D02*
X130598928Y-73878690D01*
X130598928Y-73878690D02*
X130646547Y-73831071D01*
X130646547Y-73831071D02*
X130741785Y-73783452D01*
X130741785Y-73783452D02*
X130932261Y-73783452D01*
X130932261Y-73783452D02*
X131027499Y-73831071D01*
X131884642Y-74402500D02*
X131789404Y-74450119D01*
X131789404Y-74450119D02*
X131598928Y-74450119D01*
X131598928Y-74450119D02*
X131503690Y-74402500D01*
X131503690Y-74402500D02*
X131456071Y-74354880D01*
X131456071Y-74354880D02*
X131408452Y-74259642D01*
X131408452Y-74259642D02*
X131408452Y-73973928D01*
X131408452Y-73973928D02*
X131456071Y-73878690D01*
X131456071Y-73878690D02*
X131503690Y-73831071D01*
X131503690Y-73831071D02*
X131598928Y-73783452D01*
X131598928Y-73783452D02*
X131789404Y-73783452D01*
X131789404Y-73783452D02*
X131884642Y-73831071D01*
X132551309Y-74783452D02*
X132551309Y-73354880D01*
X133217976Y-74402500D02*
X133360833Y-74450119D01*
X133360833Y-74450119D02*
X133598928Y-74450119D01*
X133598928Y-74450119D02*
X133694166Y-74402500D01*
X133694166Y-74402500D02*
X133741785Y-74354880D01*
X133741785Y-74354880D02*
X133789404Y-74259642D01*
X133789404Y-74259642D02*
X133789404Y-74164404D01*
X133789404Y-74164404D02*
X133741785Y-74069166D01*
X133741785Y-74069166D02*
X133694166Y-74021547D01*
X133694166Y-74021547D02*
X133598928Y-73973928D01*
X133598928Y-73973928D02*
X133408452Y-73926309D01*
X133408452Y-73926309D02*
X133313214Y-73878690D01*
X133313214Y-73878690D02*
X133265595Y-73831071D01*
X133265595Y-73831071D02*
X133217976Y-73735833D01*
X133217976Y-73735833D02*
X133217976Y-73640595D01*
X133217976Y-73640595D02*
X133265595Y-73545357D01*
X133265595Y-73545357D02*
X133313214Y-73497738D01*
X133313214Y-73497738D02*
X133408452Y-73450119D01*
X133408452Y-73450119D02*
X133646547Y-73450119D01*
X133646547Y-73450119D02*
X133789404Y-73497738D01*
X134217976Y-74450119D02*
X134217976Y-73450119D01*
X134217976Y-73450119D02*
X134456071Y-73450119D01*
X134456071Y-73450119D02*
X134598928Y-73497738D01*
X134598928Y-73497738D02*
X134694166Y-73592976D01*
X134694166Y-73592976D02*
X134741785Y-73688214D01*
X134741785Y-73688214D02*
X134789404Y-73878690D01*
X134789404Y-73878690D02*
X134789404Y-74021547D01*
X134789404Y-74021547D02*
X134741785Y-74212023D01*
X134741785Y-74212023D02*
X134694166Y-74307261D01*
X134694166Y-74307261D02*
X134598928Y-74402500D01*
X134598928Y-74402500D02*
X134456071Y-74450119D01*
X134456071Y-74450119D02*
X134217976Y-74450119D01*
X135170357Y-74164404D02*
X135646547Y-74164404D01*
X135075119Y-74450119D02*
X135408452Y-73450119D01*
X135408452Y-73450119D02*
X135741785Y-74450119D01*
X136313214Y-74783452D02*
X136313214Y-73354880D01*
X136979881Y-74402500D02*
X137122738Y-74450119D01*
X137122738Y-74450119D02*
X137360833Y-74450119D01*
X137360833Y-74450119D02*
X137456071Y-74402500D01*
X137456071Y-74402500D02*
X137503690Y-74354880D01*
X137503690Y-74354880D02*
X137551309Y-74259642D01*
X137551309Y-74259642D02*
X137551309Y-74164404D01*
X137551309Y-74164404D02*
X137503690Y-74069166D01*
X137503690Y-74069166D02*
X137456071Y-74021547D01*
X137456071Y-74021547D02*
X137360833Y-73973928D01*
X137360833Y-73973928D02*
X137170357Y-73926309D01*
X137170357Y-73926309D02*
X137075119Y-73878690D01*
X137075119Y-73878690D02*
X137027500Y-73831071D01*
X137027500Y-73831071D02*
X136979881Y-73735833D01*
X136979881Y-73735833D02*
X136979881Y-73640595D01*
X136979881Y-73640595D02*
X137027500Y-73545357D01*
X137027500Y-73545357D02*
X137075119Y-73497738D01*
X137075119Y-73497738D02*
X137170357Y-73450119D01*
X137170357Y-73450119D02*
X137408452Y-73450119D01*
X137408452Y-73450119D02*
X137551309Y-73497738D01*
X138551309Y-74354880D02*
X138503690Y-74402500D01*
X138503690Y-74402500D02*
X138360833Y-74450119D01*
X138360833Y-74450119D02*
X138265595Y-74450119D01*
X138265595Y-74450119D02*
X138122738Y-74402500D01*
X138122738Y-74402500D02*
X138027500Y-74307261D01*
X138027500Y-74307261D02*
X137979881Y-74212023D01*
X137979881Y-74212023D02*
X137932262Y-74021547D01*
X137932262Y-74021547D02*
X137932262Y-73878690D01*
X137932262Y-73878690D02*
X137979881Y-73688214D01*
X137979881Y-73688214D02*
X138027500Y-73592976D01*
X138027500Y-73592976D02*
X138122738Y-73497738D01*
X138122738Y-73497738D02*
X138265595Y-73450119D01*
X138265595Y-73450119D02*
X138360833Y-73450119D01*
X138360833Y-73450119D02*
X138503690Y-73497738D01*
X138503690Y-73497738D02*
X138551309Y-73545357D01*
X139456071Y-74450119D02*
X138979881Y-74450119D01*
X138979881Y-74450119D02*
X138979881Y-73450119D01*
X140027500Y-74783452D02*
X140027500Y-73354880D01*
X141265595Y-73497738D02*
X141170357Y-73450119D01*
X141170357Y-73450119D02*
X141027500Y-73450119D01*
X141027500Y-73450119D02*
X140884643Y-73497738D01*
X140884643Y-73497738D02*
X140789405Y-73592976D01*
X140789405Y-73592976D02*
X140741786Y-73688214D01*
X140741786Y-73688214D02*
X140694167Y-73878690D01*
X140694167Y-73878690D02*
X140694167Y-74021547D01*
X140694167Y-74021547D02*
X140741786Y-74212023D01*
X140741786Y-74212023D02*
X140789405Y-74307261D01*
X140789405Y-74307261D02*
X140884643Y-74402500D01*
X140884643Y-74402500D02*
X141027500Y-74450119D01*
X141027500Y-74450119D02*
X141122738Y-74450119D01*
X141122738Y-74450119D02*
X141265595Y-74402500D01*
X141265595Y-74402500D02*
X141313214Y-74354880D01*
X141313214Y-74354880D02*
X141313214Y-74021547D01*
X141313214Y-74021547D02*
X141122738Y-74021547D01*
X141741786Y-74450119D02*
X141741786Y-73450119D01*
X141741786Y-73450119D02*
X142313214Y-74450119D01*
X142313214Y-74450119D02*
X142313214Y-73450119D01*
X142789405Y-74450119D02*
X142789405Y-73450119D01*
X142789405Y-73450119D02*
X143027500Y-73450119D01*
X143027500Y-73450119D02*
X143170357Y-73497738D01*
X143170357Y-73497738D02*
X143265595Y-73592976D01*
X143265595Y-73592976D02*
X143313214Y-73688214D01*
X143313214Y-73688214D02*
X143360833Y-73878690D01*
X143360833Y-73878690D02*
X143360833Y-74021547D01*
X143360833Y-74021547D02*
X143313214Y-74212023D01*
X143313214Y-74212023D02*
X143265595Y-74307261D01*
X143265595Y-74307261D02*
X143170357Y-74402500D01*
X143170357Y-74402500D02*
X143027500Y-74450119D01*
X143027500Y-74450119D02*
X142789405Y-74450119D01*
X169529073Y-67944231D02*
X169862406Y-68944231D01*
X169862406Y-68944231D02*
X170195739Y-67944231D01*
X170957644Y-68896612D02*
X170862406Y-68944231D01*
X170862406Y-68944231D02*
X170671930Y-68944231D01*
X170671930Y-68944231D02*
X170576692Y-68896612D01*
X170576692Y-68896612D02*
X170529073Y-68848992D01*
X170529073Y-68848992D02*
X170481454Y-68753754D01*
X170481454Y-68753754D02*
X170481454Y-68468040D01*
X170481454Y-68468040D02*
X170529073Y-68372802D01*
X170529073Y-68372802D02*
X170576692Y-68325183D01*
X170576692Y-68325183D02*
X170671930Y-68277564D01*
X170671930Y-68277564D02*
X170862406Y-68277564D01*
X170862406Y-68277564D02*
X170957644Y-68325183D01*
X171814787Y-68896612D02*
X171719549Y-68944231D01*
X171719549Y-68944231D02*
X171529073Y-68944231D01*
X171529073Y-68944231D02*
X171433835Y-68896612D01*
X171433835Y-68896612D02*
X171386216Y-68848992D01*
X171386216Y-68848992D02*
X171338597Y-68753754D01*
X171338597Y-68753754D02*
X171338597Y-68468040D01*
X171338597Y-68468040D02*
X171386216Y-68372802D01*
X171386216Y-68372802D02*
X171433835Y-68325183D01*
X171433835Y-68325183D02*
X171529073Y-68277564D01*
X171529073Y-68277564D02*
X171719549Y-68277564D01*
X171719549Y-68277564D02*
X171814787Y-68325183D01*
X170290978Y-70554175D02*
X170290978Y-69554175D01*
X170290978Y-69554175D02*
X170529073Y-69554175D01*
X170529073Y-69554175D02*
X170671930Y-69601794D01*
X170671930Y-69601794D02*
X170767168Y-69697032D01*
X170767168Y-69697032D02*
X170814787Y-69792270D01*
X170814787Y-69792270D02*
X170862406Y-69982746D01*
X170862406Y-69982746D02*
X170862406Y-70125603D01*
X170862406Y-70125603D02*
X170814787Y-70316079D01*
X170814787Y-70316079D02*
X170767168Y-70411317D01*
X170767168Y-70411317D02*
X170671930Y-70506556D01*
X170671930Y-70506556D02*
X170529073Y-70554175D01*
X170529073Y-70554175D02*
X170290978Y-70554175D01*
X171481454Y-69554175D02*
X171576692Y-69554175D01*
X171576692Y-69554175D02*
X171671930Y-69601794D01*
X171671930Y-69601794D02*
X171719549Y-69649413D01*
X171719549Y-69649413D02*
X171767168Y-69744651D01*
X171767168Y-69744651D02*
X171814787Y-69935127D01*
X171814787Y-69935127D02*
X171814787Y-70173222D01*
X171814787Y-70173222D02*
X171767168Y-70363698D01*
X171767168Y-70363698D02*
X171719549Y-70458936D01*
X171719549Y-70458936D02*
X171671930Y-70506556D01*
X171671930Y-70506556D02*
X171576692Y-70554175D01*
X171576692Y-70554175D02*
X171481454Y-70554175D01*
X171481454Y-70554175D02*
X171386216Y-70506556D01*
X171386216Y-70506556D02*
X171338597Y-70458936D01*
X171338597Y-70458936D02*
X171290978Y-70363698D01*
X171290978Y-70363698D02*
X171243359Y-70173222D01*
X171243359Y-70173222D02*
X171243359Y-69935127D01*
X171243359Y-69935127D02*
X171290978Y-69744651D01*
X171290978Y-69744651D02*
X171338597Y-69649413D01*
X171338597Y-69649413D02*
X171386216Y-69601794D01*
X171386216Y-69601794D02*
X171481454Y-69554175D01*
X169719549Y-71211738D02*
X169624311Y-71164119D01*
X169624311Y-71164119D02*
X169481454Y-71164119D01*
X169481454Y-71164119D02*
X169338597Y-71211738D01*
X169338597Y-71211738D02*
X169243359Y-71306976D01*
X169243359Y-71306976D02*
X169195740Y-71402214D01*
X169195740Y-71402214D02*
X169148121Y-71592690D01*
X169148121Y-71592690D02*
X169148121Y-71735547D01*
X169148121Y-71735547D02*
X169195740Y-71926023D01*
X169195740Y-71926023D02*
X169243359Y-72021261D01*
X169243359Y-72021261D02*
X169338597Y-72116500D01*
X169338597Y-72116500D02*
X169481454Y-72164119D01*
X169481454Y-72164119D02*
X169576692Y-72164119D01*
X169576692Y-72164119D02*
X169719549Y-72116500D01*
X169719549Y-72116500D02*
X169767168Y-72068880D01*
X169767168Y-72068880D02*
X169767168Y-71735547D01*
X169767168Y-71735547D02*
X169576692Y-71735547D01*
X170195740Y-72164119D02*
X170195740Y-71164119D01*
X170195740Y-71164119D02*
X170767168Y-72164119D01*
X170767168Y-72164119D02*
X170767168Y-71164119D01*
X171243359Y-72164119D02*
X171243359Y-71164119D01*
X171243359Y-71164119D02*
X171481454Y-71164119D01*
X171481454Y-71164119D02*
X171624311Y-71211738D01*
X171624311Y-71211738D02*
X171719549Y-71306976D01*
X171719549Y-71306976D02*
X171767168Y-71402214D01*
X171767168Y-71402214D02*
X171814787Y-71592690D01*
X171814787Y-71592690D02*
X171814787Y-71735547D01*
X171814787Y-71735547D02*
X171767168Y-71926023D01*
X171767168Y-71926023D02*
X171719549Y-72021261D01*
X171719549Y-72021261D02*
X171624311Y-72116500D01*
X171624311Y-72116500D02*
X171481454Y-72164119D01*
X171481454Y-72164119D02*
X171243359Y-72164119D01*
D13*
X122901312Y-67903238D02*
X122806074Y-67855619D01*
X122806074Y-67855619D02*
X122663217Y-67855619D01*
X122663217Y-67855619D02*
X122520360Y-67903238D01*
X122520360Y-67903238D02*
X122425122Y-67998476D01*
X122425122Y-67998476D02*
X122377503Y-68093714D01*
X122377503Y-68093714D02*
X122329884Y-68284190D01*
X122329884Y-68284190D02*
X122329884Y-68427047D01*
X122329884Y-68427047D02*
X122377503Y-68617523D01*
X122377503Y-68617523D02*
X122425122Y-68712761D01*
X122425122Y-68712761D02*
X122520360Y-68808000D01*
X122520360Y-68808000D02*
X122663217Y-68855619D01*
X122663217Y-68855619D02*
X122758455Y-68855619D01*
X122758455Y-68855619D02*
X122901312Y-68808000D01*
X122901312Y-68808000D02*
X122948931Y-68760380D01*
X122948931Y-68760380D02*
X122948931Y-68427047D01*
X122948931Y-68427047D02*
X122758455Y-68427047D01*
X123377503Y-68855619D02*
X123377503Y-67855619D01*
X123377503Y-67855619D02*
X123948931Y-68855619D01*
X123948931Y-68855619D02*
X123948931Y-67855619D01*
X124425122Y-68855619D02*
X124425122Y-67855619D01*
X124425122Y-67855619D02*
X124663217Y-67855619D01*
X124663217Y-67855619D02*
X124806074Y-67903238D01*
X124806074Y-67903238D02*
X124901312Y-67998476D01*
X124901312Y-67998476D02*
X124948931Y-68093714D01*
X124948931Y-68093714D02*
X124996550Y-68284190D01*
X124996550Y-68284190D02*
X124996550Y-68427047D01*
X124996550Y-68427047D02*
X124948931Y-68617523D01*
X124948931Y-68617523D02*
X124901312Y-68712761D01*
X124901312Y-68712761D02*
X124806074Y-68808000D01*
X124806074Y-68808000D02*
X124663217Y-68855619D01*
X124663217Y-68855619D02*
X124425122Y-68855619D01*
D14*
X172595595Y-103497819D02*
X172595595Y-104307342D01*
X172595595Y-104307342D02*
X172643214Y-104402580D01*
X172643214Y-104402580D02*
X172690833Y-104450200D01*
X172690833Y-104450200D02*
X172786071Y-104497819D01*
X172786071Y-104497819D02*
X172976547Y-104497819D01*
X172976547Y-104497819D02*
X173071785Y-104450200D01*
X173071785Y-104450200D02*
X173119404Y-104402580D01*
X173119404Y-104402580D02*
X173167023Y-104307342D01*
X173167023Y-104307342D02*
X173167023Y-103497819D01*
X174167023Y-104497819D02*
X173595595Y-104497819D01*
X173881309Y-104497819D02*
X173881309Y-103497819D01*
X173881309Y-103497819D02*
X173786071Y-103640676D01*
X173786071Y-103640676D02*
X173690833Y-103735914D01*
X173690833Y-103735914D02*
X173595595Y-103783533D01*
X151466548Y-78574009D02*
X151799881Y-78574009D01*
X151942738Y-79097819D02*
X151466548Y-79097819D01*
X151466548Y-79097819D02*
X151466548Y-78097819D01*
X151466548Y-78097819D02*
X151942738Y-78097819D01*
X152323691Y-79050200D02*
X152466548Y-79097819D01*
X152466548Y-79097819D02*
X152704643Y-79097819D01*
X152704643Y-79097819D02*
X152799881Y-79050200D01*
X152799881Y-79050200D02*
X152847500Y-79002580D01*
X152847500Y-79002580D02*
X152895119Y-78907342D01*
X152895119Y-78907342D02*
X152895119Y-78812104D01*
X152895119Y-78812104D02*
X152847500Y-78716866D01*
X152847500Y-78716866D02*
X152799881Y-78669247D01*
X152799881Y-78669247D02*
X152704643Y-78621628D01*
X152704643Y-78621628D02*
X152514167Y-78574009D01*
X152514167Y-78574009D02*
X152418929Y-78526390D01*
X152418929Y-78526390D02*
X152371310Y-78478771D01*
X152371310Y-78478771D02*
X152323691Y-78383533D01*
X152323691Y-78383533D02*
X152323691Y-78288295D01*
X152323691Y-78288295D02*
X152371310Y-78193057D01*
X152371310Y-78193057D02*
X152418929Y-78145438D01*
X152418929Y-78145438D02*
X152514167Y-78097819D01*
X152514167Y-78097819D02*
X152752262Y-78097819D01*
X152752262Y-78097819D02*
X152895119Y-78145438D01*
X153323691Y-79097819D02*
X153323691Y-78097819D01*
X153323691Y-78097819D02*
X153704643Y-78097819D01*
X153704643Y-78097819D02*
X153799881Y-78145438D01*
X153799881Y-78145438D02*
X153847500Y-78193057D01*
X153847500Y-78193057D02*
X153895119Y-78288295D01*
X153895119Y-78288295D02*
X153895119Y-78431152D01*
X153895119Y-78431152D02*
X153847500Y-78526390D01*
X153847500Y-78526390D02*
X153799881Y-78574009D01*
X153799881Y-78574009D02*
X153704643Y-78621628D01*
X153704643Y-78621628D02*
X153323691Y-78621628D01*
X154228453Y-78097819D02*
X154847500Y-78097819D01*
X154847500Y-78097819D02*
X154514167Y-78478771D01*
X154514167Y-78478771D02*
X154657024Y-78478771D01*
X154657024Y-78478771D02*
X154752262Y-78526390D01*
X154752262Y-78526390D02*
X154799881Y-78574009D01*
X154799881Y-78574009D02*
X154847500Y-78669247D01*
X154847500Y-78669247D02*
X154847500Y-78907342D01*
X154847500Y-78907342D02*
X154799881Y-79002580D01*
X154799881Y-79002580D02*
X154752262Y-79050200D01*
X154752262Y-79050200D02*
X154657024Y-79097819D01*
X154657024Y-79097819D02*
X154371310Y-79097819D01*
X154371310Y-79097819D02*
X154276072Y-79050200D01*
X154276072Y-79050200D02*
X154228453Y-79002580D01*
X155228453Y-78193057D02*
X155276072Y-78145438D01*
X155276072Y-78145438D02*
X155371310Y-78097819D01*
X155371310Y-78097819D02*
X155609405Y-78097819D01*
X155609405Y-78097819D02*
X155704643Y-78145438D01*
X155704643Y-78145438D02*
X155752262Y-78193057D01*
X155752262Y-78193057D02*
X155799881Y-78288295D01*
X155799881Y-78288295D02*
X155799881Y-78383533D01*
X155799881Y-78383533D02*
X155752262Y-78526390D01*
X155752262Y-78526390D02*
X155180834Y-79097819D01*
X155180834Y-79097819D02*
X155799881Y-79097819D01*
X156990358Y-79097819D02*
X156990358Y-78097819D01*
X156990358Y-78097819D02*
X157228453Y-78097819D01*
X157228453Y-78097819D02*
X157371310Y-78145438D01*
X157371310Y-78145438D02*
X157466548Y-78240676D01*
X157466548Y-78240676D02*
X157514167Y-78335914D01*
X157514167Y-78335914D02*
X157561786Y-78526390D01*
X157561786Y-78526390D02*
X157561786Y-78669247D01*
X157561786Y-78669247D02*
X157514167Y-78859723D01*
X157514167Y-78859723D02*
X157466548Y-78954961D01*
X157466548Y-78954961D02*
X157371310Y-79050200D01*
X157371310Y-79050200D02*
X157228453Y-79097819D01*
X157228453Y-79097819D02*
X156990358Y-79097819D01*
X158514167Y-79097819D02*
X157942739Y-79097819D01*
X158228453Y-79097819D02*
X158228453Y-78097819D01*
X158228453Y-78097819D02*
X158133215Y-78240676D01*
X158133215Y-78240676D02*
X158037977Y-78335914D01*
X158037977Y-78335914D02*
X157942739Y-78383533D01*
X159704644Y-79097819D02*
X159704644Y-78097819D01*
X159704644Y-78097819D02*
X160037977Y-78812104D01*
X160037977Y-78812104D02*
X160371310Y-78097819D01*
X160371310Y-78097819D02*
X160371310Y-79097819D01*
X160847501Y-79097819D02*
X160847501Y-78431152D01*
X160847501Y-78097819D02*
X160799882Y-78145438D01*
X160799882Y-78145438D02*
X160847501Y-78193057D01*
X160847501Y-78193057D02*
X160895120Y-78145438D01*
X160895120Y-78145438D02*
X160847501Y-78097819D01*
X160847501Y-78097819D02*
X160847501Y-78193057D01*
X161323691Y-78431152D02*
X161323691Y-79097819D01*
X161323691Y-78526390D02*
X161371310Y-78478771D01*
X161371310Y-78478771D02*
X161466548Y-78431152D01*
X161466548Y-78431152D02*
X161609405Y-78431152D01*
X161609405Y-78431152D02*
X161704643Y-78478771D01*
X161704643Y-78478771D02*
X161752262Y-78574009D01*
X161752262Y-78574009D02*
X161752262Y-79097819D01*
X162228453Y-79097819D02*
X162228453Y-78431152D01*
X162228453Y-78097819D02*
X162180834Y-78145438D01*
X162180834Y-78145438D02*
X162228453Y-78193057D01*
X162228453Y-78193057D02*
X162276072Y-78145438D01*
X162276072Y-78145438D02*
X162228453Y-78097819D01*
X162228453Y-78097819D02*
X162228453Y-78193057D01*
X172034319Y-77920619D02*
X171558128Y-78253952D01*
X172034319Y-78492047D02*
X171034319Y-78492047D01*
X171034319Y-78492047D02*
X171034319Y-78111095D01*
X171034319Y-78111095D02*
X171081938Y-78015857D01*
X171081938Y-78015857D02*
X171129557Y-77968238D01*
X171129557Y-77968238D02*
X171224795Y-77920619D01*
X171224795Y-77920619D02*
X171367652Y-77920619D01*
X171367652Y-77920619D02*
X171462890Y-77968238D01*
X171462890Y-77968238D02*
X171510509Y-78015857D01*
X171510509Y-78015857D02*
X171558128Y-78111095D01*
X171558128Y-78111095D02*
X171558128Y-78492047D01*
X171986700Y-77539666D02*
X172034319Y-77396809D01*
X172034319Y-77396809D02*
X172034319Y-77158714D01*
X172034319Y-77158714D02*
X171986700Y-77063476D01*
X171986700Y-77063476D02*
X171939080Y-77015857D01*
X171939080Y-77015857D02*
X171843842Y-76968238D01*
X171843842Y-76968238D02*
X171748604Y-76968238D01*
X171748604Y-76968238D02*
X171653366Y-77015857D01*
X171653366Y-77015857D02*
X171605747Y-77063476D01*
X171605747Y-77063476D02*
X171558128Y-77158714D01*
X171558128Y-77158714D02*
X171510509Y-77349190D01*
X171510509Y-77349190D02*
X171462890Y-77444428D01*
X171462890Y-77444428D02*
X171415271Y-77492047D01*
X171415271Y-77492047D02*
X171320033Y-77539666D01*
X171320033Y-77539666D02*
X171224795Y-77539666D01*
X171224795Y-77539666D02*
X171129557Y-77492047D01*
X171129557Y-77492047D02*
X171081938Y-77444428D01*
X171081938Y-77444428D02*
X171034319Y-77349190D01*
X171034319Y-77349190D02*
X171034319Y-77111095D01*
X171034319Y-77111095D02*
X171081938Y-76968238D01*
X171034319Y-76682523D02*
X171034319Y-76111095D01*
X172034319Y-76396809D02*
X171034319Y-76396809D01*
X155585595Y-73017819D02*
X155585595Y-73827342D01*
X155585595Y-73827342D02*
X155633214Y-73922580D01*
X155633214Y-73922580D02*
X155680833Y-73970200D01*
X155680833Y-73970200D02*
X155776071Y-74017819D01*
X155776071Y-74017819D02*
X155966547Y-74017819D01*
X155966547Y-74017819D02*
X156061785Y-73970200D01*
X156061785Y-73970200D02*
X156109404Y-73922580D01*
X156109404Y-73922580D02*
X156157023Y-73827342D01*
X156157023Y-73827342D02*
X156157023Y-73017819D01*
X156585595Y-73970200D02*
X156728452Y-74017819D01*
X156728452Y-74017819D02*
X156966547Y-74017819D01*
X156966547Y-74017819D02*
X157061785Y-73970200D01*
X157061785Y-73970200D02*
X157109404Y-73922580D01*
X157109404Y-73922580D02*
X157157023Y-73827342D01*
X157157023Y-73827342D02*
X157157023Y-73732104D01*
X157157023Y-73732104D02*
X157109404Y-73636866D01*
X157109404Y-73636866D02*
X157061785Y-73589247D01*
X157061785Y-73589247D02*
X156966547Y-73541628D01*
X156966547Y-73541628D02*
X156776071Y-73494009D01*
X156776071Y-73494009D02*
X156680833Y-73446390D01*
X156680833Y-73446390D02*
X156633214Y-73398771D01*
X156633214Y-73398771D02*
X156585595Y-73303533D01*
X156585595Y-73303533D02*
X156585595Y-73208295D01*
X156585595Y-73208295D02*
X156633214Y-73113057D01*
X156633214Y-73113057D02*
X156680833Y-73065438D01*
X156680833Y-73065438D02*
X156776071Y-73017819D01*
X156776071Y-73017819D02*
X157014166Y-73017819D01*
X157014166Y-73017819D02*
X157157023Y-73065438D01*
X157918928Y-73494009D02*
X158061785Y-73541628D01*
X158061785Y-73541628D02*
X158109404Y-73589247D01*
X158109404Y-73589247D02*
X158157023Y-73684485D01*
X158157023Y-73684485D02*
X158157023Y-73827342D01*
X158157023Y-73827342D02*
X158109404Y-73922580D01*
X158109404Y-73922580D02*
X158061785Y-73970200D01*
X158061785Y-73970200D02*
X157966547Y-74017819D01*
X157966547Y-74017819D02*
X157585595Y-74017819D01*
X157585595Y-74017819D02*
X157585595Y-73017819D01*
X157585595Y-73017819D02*
X157918928Y-73017819D01*
X157918928Y-73017819D02*
X158014166Y-73065438D01*
X158014166Y-73065438D02*
X158061785Y-73113057D01*
X158061785Y-73113057D02*
X158109404Y-73208295D01*
X158109404Y-73208295D02*
X158109404Y-73303533D01*
X158109404Y-73303533D02*
X158061785Y-73398771D01*
X158061785Y-73398771D02*
X158014166Y-73446390D01*
X158014166Y-73446390D02*
X157918928Y-73494009D01*
X157918928Y-73494009D02*
X157585595Y-73494009D01*
X174119595Y-79367819D02*
X174119595Y-80177342D01*
X174119595Y-80177342D02*
X174167214Y-80272580D01*
X174167214Y-80272580D02*
X174214833Y-80320200D01*
X174214833Y-80320200D02*
X174310071Y-80367819D01*
X174310071Y-80367819D02*
X174500547Y-80367819D01*
X174500547Y-80367819D02*
X174595785Y-80320200D01*
X174595785Y-80320200D02*
X174643404Y-80272580D01*
X174643404Y-80272580D02*
X174691023Y-80177342D01*
X174691023Y-80177342D02*
X174691023Y-79367819D01*
X175071976Y-79367819D02*
X175691023Y-79367819D01*
X175691023Y-79367819D02*
X175357690Y-79748771D01*
X175357690Y-79748771D02*
X175500547Y-79748771D01*
X175500547Y-79748771D02*
X175595785Y-79796390D01*
X175595785Y-79796390D02*
X175643404Y-79844009D01*
X175643404Y-79844009D02*
X175691023Y-79939247D01*
X175691023Y-79939247D02*
X175691023Y-80177342D01*
X175691023Y-80177342D02*
X175643404Y-80272580D01*
X175643404Y-80272580D02*
X175595785Y-80320200D01*
X175595785Y-80320200D02*
X175500547Y-80367819D01*
X175500547Y-80367819D02*
X175214833Y-80367819D01*
X175214833Y-80367819D02*
X175119595Y-80320200D01*
X175119595Y-80320200D02*
X175071976Y-80272580D01*
X178130319Y-97295190D02*
X177130319Y-97295190D01*
X177130319Y-97295190D02*
X177844604Y-96961857D01*
X177844604Y-96961857D02*
X177130319Y-96628524D01*
X177130319Y-96628524D02*
X178130319Y-96628524D01*
X177844604Y-96199952D02*
X177844604Y-95723762D01*
X178130319Y-96295190D02*
X177130319Y-95961857D01*
X177130319Y-95961857D02*
X178130319Y-95628524D01*
X177130319Y-95390428D02*
X178130319Y-94723762D01*
X177130319Y-94723762D02*
X178130319Y-95390428D01*
X178130319Y-94295190D02*
X178130319Y-94104714D01*
X178130319Y-94104714D02*
X178082700Y-94009476D01*
X178082700Y-94009476D02*
X178035080Y-93961857D01*
X178035080Y-93961857D02*
X177892223Y-93866619D01*
X177892223Y-93866619D02*
X177701747Y-93819000D01*
X177701747Y-93819000D02*
X177320795Y-93819000D01*
X177320795Y-93819000D02*
X177225557Y-93866619D01*
X177225557Y-93866619D02*
X177177938Y-93914238D01*
X177177938Y-93914238D02*
X177130319Y-94009476D01*
X177130319Y-94009476D02*
X177130319Y-94199952D01*
X177130319Y-94199952D02*
X177177938Y-94295190D01*
X177177938Y-94295190D02*
X177225557Y-94342809D01*
X177225557Y-94342809D02*
X177320795Y-94390428D01*
X177320795Y-94390428D02*
X177558890Y-94390428D01*
X177558890Y-94390428D02*
X177654128Y-94342809D01*
X177654128Y-94342809D02*
X177701747Y-94295190D01*
X177701747Y-94295190D02*
X177749366Y-94199952D01*
X177749366Y-94199952D02*
X177749366Y-94009476D01*
X177749366Y-94009476D02*
X177701747Y-93914238D01*
X177701747Y-93914238D02*
X177654128Y-93866619D01*
X177654128Y-93866619D02*
X177558890Y-93819000D01*
X177558890Y-93247571D02*
X177511271Y-93342809D01*
X177511271Y-93342809D02*
X177463652Y-93390428D01*
X177463652Y-93390428D02*
X177368414Y-93438047D01*
X177368414Y-93438047D02*
X177320795Y-93438047D01*
X177320795Y-93438047D02*
X177225557Y-93390428D01*
X177225557Y-93390428D02*
X177177938Y-93342809D01*
X177177938Y-93342809D02*
X177130319Y-93247571D01*
X177130319Y-93247571D02*
X177130319Y-93057095D01*
X177130319Y-93057095D02*
X177177938Y-92961857D01*
X177177938Y-92961857D02*
X177225557Y-92914238D01*
X177225557Y-92914238D02*
X177320795Y-92866619D01*
X177320795Y-92866619D02*
X177368414Y-92866619D01*
X177368414Y-92866619D02*
X177463652Y-92914238D01*
X177463652Y-92914238D02*
X177511271Y-92961857D01*
X177511271Y-92961857D02*
X177558890Y-93057095D01*
X177558890Y-93057095D02*
X177558890Y-93247571D01*
X177558890Y-93247571D02*
X177606509Y-93342809D01*
X177606509Y-93342809D02*
X177654128Y-93390428D01*
X177654128Y-93390428D02*
X177749366Y-93438047D01*
X177749366Y-93438047D02*
X177939842Y-93438047D01*
X177939842Y-93438047D02*
X178035080Y-93390428D01*
X178035080Y-93390428D02*
X178082700Y-93342809D01*
X178082700Y-93342809D02*
X178130319Y-93247571D01*
X178130319Y-93247571D02*
X178130319Y-93057095D01*
X178130319Y-93057095D02*
X178082700Y-92961857D01*
X178082700Y-92961857D02*
X178035080Y-92914238D01*
X178035080Y-92914238D02*
X177939842Y-92866619D01*
X177939842Y-92866619D02*
X177749366Y-92866619D01*
X177749366Y-92866619D02*
X177654128Y-92914238D01*
X177654128Y-92914238D02*
X177606509Y-92961857D01*
X177606509Y-92961857D02*
X177558890Y-93057095D01*
X177130319Y-92533285D02*
X177130319Y-91914238D01*
X177130319Y-91914238D02*
X177511271Y-92247571D01*
X177511271Y-92247571D02*
X177511271Y-92104714D01*
X177511271Y-92104714D02*
X177558890Y-92009476D01*
X177558890Y-92009476D02*
X177606509Y-91961857D01*
X177606509Y-91961857D02*
X177701747Y-91914238D01*
X177701747Y-91914238D02*
X177939842Y-91914238D01*
X177939842Y-91914238D02*
X178035080Y-91961857D01*
X178035080Y-91961857D02*
X178082700Y-92009476D01*
X178082700Y-92009476D02*
X178130319Y-92104714D01*
X178130319Y-92104714D02*
X178130319Y-92390428D01*
X178130319Y-92390428D02*
X178082700Y-92485666D01*
X178082700Y-92485666D02*
X178035080Y-92533285D01*
X177130319Y-91009476D02*
X177130319Y-91485666D01*
X177130319Y-91485666D02*
X177606509Y-91533285D01*
X177606509Y-91533285D02*
X177558890Y-91485666D01*
X177558890Y-91485666D02*
X177511271Y-91390428D01*
X177511271Y-91390428D02*
X177511271Y-91152333D01*
X177511271Y-91152333D02*
X177558890Y-91057095D01*
X177558890Y-91057095D02*
X177606509Y-91009476D01*
X177606509Y-91009476D02*
X177701747Y-90961857D01*
X177701747Y-90961857D02*
X177939842Y-90961857D01*
X177939842Y-90961857D02*
X178035080Y-91009476D01*
X178035080Y-91009476D02*
X178082700Y-91057095D01*
X178082700Y-91057095D02*
X178130319Y-91152333D01*
X178130319Y-91152333D02*
X178130319Y-91390428D01*
X178130319Y-91390428D02*
X178082700Y-91485666D01*
X178082700Y-91485666D02*
X178035080Y-91533285D01*
X177130319Y-90628523D02*
X177130319Y-89961857D01*
X177130319Y-89961857D02*
X178130319Y-90390428D01*
X177844604Y-89628523D02*
X177844604Y-89152333D01*
X178130319Y-89723761D02*
X177130319Y-89390428D01*
X177130319Y-89390428D02*
X178130319Y-89057095D01*
X177749366Y-87961856D02*
X177749366Y-87199952D01*
X177844604Y-86009475D02*
X177844604Y-85533285D01*
X178130319Y-86104713D02*
X177130319Y-85771380D01*
X177130319Y-85771380D02*
X178130319Y-85438047D01*
X178130319Y-85104713D02*
X177463652Y-85104713D01*
X177558890Y-85104713D02*
X177511271Y-85057094D01*
X177511271Y-85057094D02*
X177463652Y-84961856D01*
X177463652Y-84961856D02*
X177463652Y-84818999D01*
X177463652Y-84818999D02*
X177511271Y-84723761D01*
X177511271Y-84723761D02*
X177606509Y-84676142D01*
X177606509Y-84676142D02*
X178130319Y-84676142D01*
X177606509Y-84676142D02*
X177511271Y-84628523D01*
X177511271Y-84628523D02*
X177463652Y-84533285D01*
X177463652Y-84533285D02*
X177463652Y-84390428D01*
X177463652Y-84390428D02*
X177511271Y-84295189D01*
X177511271Y-84295189D02*
X177606509Y-84247570D01*
X177606509Y-84247570D02*
X178130319Y-84247570D01*
X177463652Y-83771380D02*
X178463652Y-83771380D01*
X177511271Y-83771380D02*
X177463652Y-83676142D01*
X177463652Y-83676142D02*
X177463652Y-83485666D01*
X177463652Y-83485666D02*
X177511271Y-83390428D01*
X177511271Y-83390428D02*
X177558890Y-83342809D01*
X177558890Y-83342809D02*
X177654128Y-83295190D01*
X177654128Y-83295190D02*
X177939842Y-83295190D01*
X177939842Y-83295190D02*
X178035080Y-83342809D01*
X178035080Y-83342809D02*
X178082700Y-83390428D01*
X178082700Y-83390428D02*
X178130319Y-83485666D01*
X178130319Y-83485666D02*
X178130319Y-83676142D01*
X178130319Y-83676142D02*
X178082700Y-83771380D01*
X178130319Y-82723761D02*
X178082700Y-82818999D01*
X178082700Y-82818999D02*
X177987461Y-82866618D01*
X177987461Y-82866618D02*
X177130319Y-82866618D01*
X178035080Y-82342808D02*
X178082700Y-82295189D01*
X178082700Y-82295189D02*
X178130319Y-82342808D01*
X178130319Y-82342808D02*
X178082700Y-82390427D01*
X178082700Y-82390427D02*
X178035080Y-82342808D01*
X178035080Y-82342808D02*
X178130319Y-82342808D01*
X129161595Y-74795819D02*
X129161595Y-75605342D01*
X129161595Y-75605342D02*
X129209214Y-75700580D01*
X129209214Y-75700580D02*
X129256833Y-75748200D01*
X129256833Y-75748200D02*
X129352071Y-75795819D01*
X129352071Y-75795819D02*
X129542547Y-75795819D01*
X129542547Y-75795819D02*
X129637785Y-75748200D01*
X129637785Y-75748200D02*
X129685404Y-75700580D01*
X129685404Y-75700580D02*
X129733023Y-75605342D01*
X129733023Y-75605342D02*
X129733023Y-74795819D01*
X130685404Y-74795819D02*
X130209214Y-74795819D01*
X130209214Y-74795819D02*
X130161595Y-75272009D01*
X130161595Y-75272009D02*
X130209214Y-75224390D01*
X130209214Y-75224390D02*
X130304452Y-75176771D01*
X130304452Y-75176771D02*
X130542547Y-75176771D01*
X130542547Y-75176771D02*
X130637785Y-75224390D01*
X130637785Y-75224390D02*
X130685404Y-75272009D01*
X130685404Y-75272009D02*
X130733023Y-75367247D01*
X130733023Y-75367247D02*
X130733023Y-75605342D01*
X130733023Y-75605342D02*
X130685404Y-75700580D01*
X130685404Y-75700580D02*
X130637785Y-75748200D01*
X130637785Y-75748200D02*
X130542547Y-75795819D01*
X130542547Y-75795819D02*
X130304452Y-75795819D01*
X130304452Y-75795819D02*
X130209214Y-75748200D01*
X130209214Y-75748200D02*
X130161595Y-75700580D01*
X135044819Y-98780929D02*
X135044819Y-99257119D01*
X135044819Y-99257119D02*
X134044819Y-99257119D01*
X135044819Y-98447595D02*
X134044819Y-98447595D01*
X134997200Y-98019024D02*
X135044819Y-97876167D01*
X135044819Y-97876167D02*
X135044819Y-97638072D01*
X135044819Y-97638072D02*
X134997200Y-97542834D01*
X134997200Y-97542834D02*
X134949580Y-97495215D01*
X134949580Y-97495215D02*
X134854342Y-97447596D01*
X134854342Y-97447596D02*
X134759104Y-97447596D01*
X134759104Y-97447596D02*
X134663866Y-97495215D01*
X134663866Y-97495215D02*
X134616247Y-97542834D01*
X134616247Y-97542834D02*
X134568628Y-97638072D01*
X134568628Y-97638072D02*
X134521009Y-97828548D01*
X134521009Y-97828548D02*
X134473390Y-97923786D01*
X134473390Y-97923786D02*
X134425771Y-97971405D01*
X134425771Y-97971405D02*
X134330533Y-98019024D01*
X134330533Y-98019024D02*
X134235295Y-98019024D01*
X134235295Y-98019024D02*
X134140057Y-97971405D01*
X134140057Y-97971405D02*
X134092438Y-97923786D01*
X134092438Y-97923786D02*
X134044819Y-97828548D01*
X134044819Y-97828548D02*
X134044819Y-97590453D01*
X134044819Y-97590453D02*
X134092438Y-97447596D01*
X134044819Y-97114262D02*
X134044819Y-96495215D01*
X134044819Y-96495215D02*
X134425771Y-96828548D01*
X134425771Y-96828548D02*
X134425771Y-96685691D01*
X134425771Y-96685691D02*
X134473390Y-96590453D01*
X134473390Y-96590453D02*
X134521009Y-96542834D01*
X134521009Y-96542834D02*
X134616247Y-96495215D01*
X134616247Y-96495215D02*
X134854342Y-96495215D01*
X134854342Y-96495215D02*
X134949580Y-96542834D01*
X134949580Y-96542834D02*
X134997200Y-96590453D01*
X134997200Y-96590453D02*
X135044819Y-96685691D01*
X135044819Y-96685691D02*
X135044819Y-96971405D01*
X135044819Y-96971405D02*
X134997200Y-97066643D01*
X134997200Y-97066643D02*
X134949580Y-97114262D01*
X135044819Y-96066643D02*
X134044819Y-96066643D01*
X134044819Y-96066643D02*
X134044819Y-95828548D01*
X134044819Y-95828548D02*
X134092438Y-95685691D01*
X134092438Y-95685691D02*
X134187676Y-95590453D01*
X134187676Y-95590453D02*
X134282914Y-95542834D01*
X134282914Y-95542834D02*
X134473390Y-95495215D01*
X134473390Y-95495215D02*
X134616247Y-95495215D01*
X134616247Y-95495215D02*
X134806723Y-95542834D01*
X134806723Y-95542834D02*
X134901961Y-95590453D01*
X134901961Y-95590453D02*
X134997200Y-95685691D01*
X134997200Y-95685691D02*
X135044819Y-95828548D01*
X135044819Y-95828548D02*
X135044819Y-96066643D01*
X135044819Y-95066643D02*
X134044819Y-95066643D01*
X134521009Y-95066643D02*
X134521009Y-94495215D01*
X135044819Y-94495215D02*
X134044819Y-94495215D01*
X134663866Y-93257119D02*
X134663866Y-92495215D01*
X134759104Y-91304738D02*
X134759104Y-90828548D01*
X135044819Y-91399976D02*
X134044819Y-91066643D01*
X134044819Y-91066643D02*
X135044819Y-90733310D01*
X134997200Y-89971405D02*
X135044819Y-90066643D01*
X135044819Y-90066643D02*
X135044819Y-90257119D01*
X135044819Y-90257119D02*
X134997200Y-90352357D01*
X134997200Y-90352357D02*
X134949580Y-90399976D01*
X134949580Y-90399976D02*
X134854342Y-90447595D01*
X134854342Y-90447595D02*
X134568628Y-90447595D01*
X134568628Y-90447595D02*
X134473390Y-90399976D01*
X134473390Y-90399976D02*
X134425771Y-90352357D01*
X134425771Y-90352357D02*
X134378152Y-90257119D01*
X134378152Y-90257119D02*
X134378152Y-90066643D01*
X134378152Y-90066643D02*
X134425771Y-89971405D01*
X134997200Y-89114262D02*
X135044819Y-89209500D01*
X135044819Y-89209500D02*
X135044819Y-89399976D01*
X135044819Y-89399976D02*
X134997200Y-89495214D01*
X134997200Y-89495214D02*
X134949580Y-89542833D01*
X134949580Y-89542833D02*
X134854342Y-89590452D01*
X134854342Y-89590452D02*
X134568628Y-89590452D01*
X134568628Y-89590452D02*
X134473390Y-89542833D01*
X134473390Y-89542833D02*
X134425771Y-89495214D01*
X134425771Y-89495214D02*
X134378152Y-89399976D01*
X134378152Y-89399976D02*
X134378152Y-89209500D01*
X134378152Y-89209500D02*
X134425771Y-89114262D01*
X134997200Y-88304738D02*
X135044819Y-88399976D01*
X135044819Y-88399976D02*
X135044819Y-88590452D01*
X135044819Y-88590452D02*
X134997200Y-88685690D01*
X134997200Y-88685690D02*
X134901961Y-88733309D01*
X134901961Y-88733309D02*
X134521009Y-88733309D01*
X134521009Y-88733309D02*
X134425771Y-88685690D01*
X134425771Y-88685690D02*
X134378152Y-88590452D01*
X134378152Y-88590452D02*
X134378152Y-88399976D01*
X134378152Y-88399976D02*
X134425771Y-88304738D01*
X134425771Y-88304738D02*
X134521009Y-88257119D01*
X134521009Y-88257119D02*
X134616247Y-88257119D01*
X134616247Y-88257119D02*
X134711485Y-88733309D01*
X135044819Y-87685690D02*
X134997200Y-87780928D01*
X134997200Y-87780928D02*
X134901961Y-87828547D01*
X134901961Y-87828547D02*
X134044819Y-87828547D01*
X134997200Y-86923785D02*
X135044819Y-87019023D01*
X135044819Y-87019023D02*
X135044819Y-87209499D01*
X135044819Y-87209499D02*
X134997200Y-87304737D01*
X134997200Y-87304737D02*
X134901961Y-87352356D01*
X134901961Y-87352356D02*
X134521009Y-87352356D01*
X134521009Y-87352356D02*
X134425771Y-87304737D01*
X134425771Y-87304737D02*
X134378152Y-87209499D01*
X134378152Y-87209499D02*
X134378152Y-87019023D01*
X134378152Y-87019023D02*
X134425771Y-86923785D01*
X134425771Y-86923785D02*
X134521009Y-86876166D01*
X134521009Y-86876166D02*
X134616247Y-86876166D01*
X134616247Y-86876166D02*
X134711485Y-87352356D01*
X135044819Y-86447594D02*
X134378152Y-86447594D01*
X134568628Y-86447594D02*
X134473390Y-86399975D01*
X134473390Y-86399975D02*
X134425771Y-86352356D01*
X134425771Y-86352356D02*
X134378152Y-86257118D01*
X134378152Y-86257118D02*
X134378152Y-86161880D01*
X135044819Y-85685689D02*
X134997200Y-85780927D01*
X134997200Y-85780927D02*
X134949580Y-85828546D01*
X134949580Y-85828546D02*
X134854342Y-85876165D01*
X134854342Y-85876165D02*
X134568628Y-85876165D01*
X134568628Y-85876165D02*
X134473390Y-85828546D01*
X134473390Y-85828546D02*
X134425771Y-85780927D01*
X134425771Y-85780927D02*
X134378152Y-85685689D01*
X134378152Y-85685689D02*
X134378152Y-85542832D01*
X134378152Y-85542832D02*
X134425771Y-85447594D01*
X134425771Y-85447594D02*
X134473390Y-85399975D01*
X134473390Y-85399975D02*
X134568628Y-85352356D01*
X134568628Y-85352356D02*
X134854342Y-85352356D01*
X134854342Y-85352356D02*
X134949580Y-85399975D01*
X134949580Y-85399975D02*
X134997200Y-85447594D01*
X134997200Y-85447594D02*
X135044819Y-85542832D01*
X135044819Y-85542832D02*
X135044819Y-85685689D01*
X135044819Y-84923784D02*
X134378152Y-84923784D01*
X134473390Y-84923784D02*
X134425771Y-84876165D01*
X134425771Y-84876165D02*
X134378152Y-84780927D01*
X134378152Y-84780927D02*
X134378152Y-84638070D01*
X134378152Y-84638070D02*
X134425771Y-84542832D01*
X134425771Y-84542832D02*
X134521009Y-84495213D01*
X134521009Y-84495213D02*
X135044819Y-84495213D01*
X134521009Y-84495213D02*
X134425771Y-84447594D01*
X134425771Y-84447594D02*
X134378152Y-84352356D01*
X134378152Y-84352356D02*
X134378152Y-84209499D01*
X134378152Y-84209499D02*
X134425771Y-84114260D01*
X134425771Y-84114260D02*
X134521009Y-84066641D01*
X134521009Y-84066641D02*
X135044819Y-84066641D01*
X134997200Y-83209499D02*
X135044819Y-83304737D01*
X135044819Y-83304737D02*
X135044819Y-83495213D01*
X135044819Y-83495213D02*
X134997200Y-83590451D01*
X134997200Y-83590451D02*
X134901961Y-83638070D01*
X134901961Y-83638070D02*
X134521009Y-83638070D01*
X134521009Y-83638070D02*
X134425771Y-83590451D01*
X134425771Y-83590451D02*
X134378152Y-83495213D01*
X134378152Y-83495213D02*
X134378152Y-83304737D01*
X134378152Y-83304737D02*
X134425771Y-83209499D01*
X134425771Y-83209499D02*
X134521009Y-83161880D01*
X134521009Y-83161880D02*
X134616247Y-83161880D01*
X134616247Y-83161880D02*
X134711485Y-83638070D01*
X134378152Y-82876165D02*
X134378152Y-82495213D01*
X134044819Y-82733308D02*
X134901961Y-82733308D01*
X134901961Y-82733308D02*
X134997200Y-82685689D01*
X134997200Y-82685689D02*
X135044819Y-82590451D01*
X135044819Y-82590451D02*
X135044819Y-82495213D01*
X134997200Y-81780927D02*
X135044819Y-81876165D01*
X135044819Y-81876165D02*
X135044819Y-82066641D01*
X135044819Y-82066641D02*
X134997200Y-82161879D01*
X134997200Y-82161879D02*
X134901961Y-82209498D01*
X134901961Y-82209498D02*
X134521009Y-82209498D01*
X134521009Y-82209498D02*
X134425771Y-82161879D01*
X134425771Y-82161879D02*
X134378152Y-82066641D01*
X134378152Y-82066641D02*
X134378152Y-81876165D01*
X134378152Y-81876165D02*
X134425771Y-81780927D01*
X134425771Y-81780927D02*
X134521009Y-81733308D01*
X134521009Y-81733308D02*
X134616247Y-81733308D01*
X134616247Y-81733308D02*
X134711485Y-82209498D01*
X135044819Y-81304736D02*
X134378152Y-81304736D01*
X134568628Y-81304736D02*
X134473390Y-81257117D01*
X134473390Y-81257117D02*
X134425771Y-81209498D01*
X134425771Y-81209498D02*
X134378152Y-81114260D01*
X134378152Y-81114260D02*
X134378152Y-81019022D01*
X117144166Y-82415819D02*
X117144166Y-83130104D01*
X117144166Y-83130104D02*
X117096547Y-83272961D01*
X117096547Y-83272961D02*
X117001309Y-83368200D01*
X117001309Y-83368200D02*
X116858452Y-83415819D01*
X116858452Y-83415819D02*
X116763214Y-83415819D01*
X117572738Y-82511057D02*
X117620357Y-82463438D01*
X117620357Y-82463438D02*
X117715595Y-82415819D01*
X117715595Y-82415819D02*
X117953690Y-82415819D01*
X117953690Y-82415819D02*
X118048928Y-82463438D01*
X118048928Y-82463438D02*
X118096547Y-82511057D01*
X118096547Y-82511057D02*
X118144166Y-82606295D01*
X118144166Y-82606295D02*
X118144166Y-82701533D01*
X118144166Y-82701533D02*
X118096547Y-82844390D01*
X118096547Y-82844390D02*
X117525119Y-83415819D01*
X117525119Y-83415819D02*
X118144166Y-83415819D01*
X119501976Y-82161819D02*
X119501976Y-82971342D01*
X119501976Y-82971342D02*
X119549595Y-83066580D01*
X119549595Y-83066580D02*
X119597214Y-83114200D01*
X119597214Y-83114200D02*
X119692452Y-83161819D01*
X119692452Y-83161819D02*
X119882928Y-83161819D01*
X119882928Y-83161819D02*
X119978166Y-83114200D01*
X119978166Y-83114200D02*
X120025785Y-83066580D01*
X120025785Y-83066580D02*
X120073404Y-82971342D01*
X120073404Y-82971342D02*
X120073404Y-82161819D01*
X120501976Y-83114200D02*
X120644833Y-83161819D01*
X120644833Y-83161819D02*
X120882928Y-83161819D01*
X120882928Y-83161819D02*
X120978166Y-83114200D01*
X120978166Y-83114200D02*
X121025785Y-83066580D01*
X121025785Y-83066580D02*
X121073404Y-82971342D01*
X121073404Y-82971342D02*
X121073404Y-82876104D01*
X121073404Y-82876104D02*
X121025785Y-82780866D01*
X121025785Y-82780866D02*
X120978166Y-82733247D01*
X120978166Y-82733247D02*
X120882928Y-82685628D01*
X120882928Y-82685628D02*
X120692452Y-82638009D01*
X120692452Y-82638009D02*
X120597214Y-82590390D01*
X120597214Y-82590390D02*
X120549595Y-82542771D01*
X120549595Y-82542771D02*
X120501976Y-82447533D01*
X120501976Y-82447533D02*
X120501976Y-82352295D01*
X120501976Y-82352295D02*
X120549595Y-82257057D01*
X120549595Y-82257057D02*
X120597214Y-82209438D01*
X120597214Y-82209438D02*
X120692452Y-82161819D01*
X120692452Y-82161819D02*
X120930547Y-82161819D01*
X120930547Y-82161819D02*
X121073404Y-82209438D01*
X121835309Y-82638009D02*
X121978166Y-82685628D01*
X121978166Y-82685628D02*
X122025785Y-82733247D01*
X122025785Y-82733247D02*
X122073404Y-82828485D01*
X122073404Y-82828485D02*
X122073404Y-82971342D01*
X122073404Y-82971342D02*
X122025785Y-83066580D01*
X122025785Y-83066580D02*
X121978166Y-83114200D01*
X121978166Y-83114200D02*
X121882928Y-83161819D01*
X121882928Y-83161819D02*
X121501976Y-83161819D01*
X121501976Y-83161819D02*
X121501976Y-82161819D01*
X121501976Y-82161819D02*
X121835309Y-82161819D01*
X121835309Y-82161819D02*
X121930547Y-82209438D01*
X121930547Y-82209438D02*
X121978166Y-82257057D01*
X121978166Y-82257057D02*
X122025785Y-82352295D01*
X122025785Y-82352295D02*
X122025785Y-82447533D01*
X122025785Y-82447533D02*
X121978166Y-82542771D01*
X121978166Y-82542771D02*
X121930547Y-82590390D01*
X121930547Y-82590390D02*
X121835309Y-82638009D01*
X121835309Y-82638009D02*
X121501976Y-82638009D01*
X122501976Y-82780866D02*
X123263881Y-82780866D01*
X123740071Y-82638009D02*
X124073404Y-82638009D01*
X124216261Y-83161819D02*
X123740071Y-83161819D01*
X123740071Y-83161819D02*
X123740071Y-82161819D01*
X123740071Y-82161819D02*
X124216261Y-82161819D01*
X124597214Y-83114200D02*
X124740071Y-83161819D01*
X124740071Y-83161819D02*
X124978166Y-83161819D01*
X124978166Y-83161819D02*
X125073404Y-83114200D01*
X125073404Y-83114200D02*
X125121023Y-83066580D01*
X125121023Y-83066580D02*
X125168642Y-82971342D01*
X125168642Y-82971342D02*
X125168642Y-82876104D01*
X125168642Y-82876104D02*
X125121023Y-82780866D01*
X125121023Y-82780866D02*
X125073404Y-82733247D01*
X125073404Y-82733247D02*
X124978166Y-82685628D01*
X124978166Y-82685628D02*
X124787690Y-82638009D01*
X124787690Y-82638009D02*
X124692452Y-82590390D01*
X124692452Y-82590390D02*
X124644833Y-82542771D01*
X124644833Y-82542771D02*
X124597214Y-82447533D01*
X124597214Y-82447533D02*
X124597214Y-82352295D01*
X124597214Y-82352295D02*
X124644833Y-82257057D01*
X124644833Y-82257057D02*
X124692452Y-82209438D01*
X124692452Y-82209438D02*
X124787690Y-82161819D01*
X124787690Y-82161819D02*
X125025785Y-82161819D01*
X125025785Y-82161819D02*
X125168642Y-82209438D01*
X125597214Y-83161819D02*
X125597214Y-82161819D01*
X125597214Y-82161819D02*
X125978166Y-82161819D01*
X125978166Y-82161819D02*
X126073404Y-82209438D01*
X126073404Y-82209438D02*
X126121023Y-82257057D01*
X126121023Y-82257057D02*
X126168642Y-82352295D01*
X126168642Y-82352295D02*
X126168642Y-82495152D01*
X126168642Y-82495152D02*
X126121023Y-82590390D01*
X126121023Y-82590390D02*
X126073404Y-82638009D01*
X126073404Y-82638009D02*
X125978166Y-82685628D01*
X125978166Y-82685628D02*
X125597214Y-82685628D01*
X122478166Y-73779819D02*
X122478166Y-74494104D01*
X122478166Y-74494104D02*
X122430547Y-74636961D01*
X122430547Y-74636961D02*
X122335309Y-74732200D01*
X122335309Y-74732200D02*
X122192452Y-74779819D01*
X122192452Y-74779819D02*
X122097214Y-74779819D01*
X123382928Y-74113152D02*
X123382928Y-74779819D01*
X123144833Y-73732200D02*
X122906738Y-74446485D01*
X122906738Y-74446485D02*
X123525785Y-74446485D01*
X122819785Y-70715819D02*
X122343595Y-70715819D01*
X122343595Y-70715819D02*
X122343595Y-69715819D01*
X123153119Y-70192009D02*
X123486452Y-70192009D01*
X123629309Y-70715819D02*
X123153119Y-70715819D01*
X123153119Y-70715819D02*
X123153119Y-69715819D01*
X123153119Y-69715819D02*
X123629309Y-69715819D01*
X124057881Y-70715819D02*
X124057881Y-69715819D01*
X124057881Y-69715819D02*
X124295976Y-69715819D01*
X124295976Y-69715819D02*
X124438833Y-69763438D01*
X124438833Y-69763438D02*
X124534071Y-69858676D01*
X124534071Y-69858676D02*
X124581690Y-69953914D01*
X124581690Y-69953914D02*
X124629309Y-70144390D01*
X124629309Y-70144390D02*
X124629309Y-70287247D01*
X124629309Y-70287247D02*
X124581690Y-70477723D01*
X124581690Y-70477723D02*
X124534071Y-70572961D01*
X124534071Y-70572961D02*
X124438833Y-70668200D01*
X124438833Y-70668200D02*
X124295976Y-70715819D01*
X124295976Y-70715819D02*
X124057881Y-70715819D01*
X125772167Y-70668200D02*
X125915024Y-70715819D01*
X125915024Y-70715819D02*
X126153119Y-70715819D01*
X126153119Y-70715819D02*
X126248357Y-70668200D01*
X126248357Y-70668200D02*
X126295976Y-70620580D01*
X126295976Y-70620580D02*
X126343595Y-70525342D01*
X126343595Y-70525342D02*
X126343595Y-70430104D01*
X126343595Y-70430104D02*
X126295976Y-70334866D01*
X126295976Y-70334866D02*
X126248357Y-70287247D01*
X126248357Y-70287247D02*
X126153119Y-70239628D01*
X126153119Y-70239628D02*
X125962643Y-70192009D01*
X125962643Y-70192009D02*
X125867405Y-70144390D01*
X125867405Y-70144390D02*
X125819786Y-70096771D01*
X125819786Y-70096771D02*
X125772167Y-70001533D01*
X125772167Y-70001533D02*
X125772167Y-69906295D01*
X125772167Y-69906295D02*
X125819786Y-69811057D01*
X125819786Y-69811057D02*
X125867405Y-69763438D01*
X125867405Y-69763438D02*
X125962643Y-69715819D01*
X125962643Y-69715819D02*
X126200738Y-69715819D01*
X126200738Y-69715819D02*
X126343595Y-69763438D01*
X126629310Y-70049152D02*
X127010262Y-70049152D01*
X126772167Y-69715819D02*
X126772167Y-70572961D01*
X126772167Y-70572961D02*
X126819786Y-70668200D01*
X126819786Y-70668200D02*
X126915024Y-70715819D01*
X126915024Y-70715819D02*
X127010262Y-70715819D01*
X127343596Y-70715819D02*
X127343596Y-70049152D01*
X127343596Y-70239628D02*
X127391215Y-70144390D01*
X127391215Y-70144390D02*
X127438834Y-70096771D01*
X127438834Y-70096771D02*
X127534072Y-70049152D01*
X127534072Y-70049152D02*
X127629310Y-70049152D01*
X127962644Y-70715819D02*
X127962644Y-70049152D01*
X127962644Y-69715819D02*
X127915025Y-69763438D01*
X127915025Y-69763438D02*
X127962644Y-69811057D01*
X127962644Y-69811057D02*
X128010263Y-69763438D01*
X128010263Y-69763438D02*
X127962644Y-69715819D01*
X127962644Y-69715819D02*
X127962644Y-69811057D01*
X128438834Y-70049152D02*
X128438834Y-71049152D01*
X128438834Y-70096771D02*
X128534072Y-70049152D01*
X128534072Y-70049152D02*
X128724548Y-70049152D01*
X128724548Y-70049152D02*
X128819786Y-70096771D01*
X128819786Y-70096771D02*
X128867405Y-70144390D01*
X128867405Y-70144390D02*
X128915024Y-70239628D01*
X128915024Y-70239628D02*
X128915024Y-70525342D01*
X128915024Y-70525342D02*
X128867405Y-70620580D01*
X128867405Y-70620580D02*
X128819786Y-70668200D01*
X128819786Y-70668200D02*
X128724548Y-70715819D01*
X128724548Y-70715819D02*
X128534072Y-70715819D01*
X128534072Y-70715819D02*
X128438834Y-70668200D01*
X117398166Y-91051819D02*
X117398166Y-91766104D01*
X117398166Y-91766104D02*
X117350547Y-91908961D01*
X117350547Y-91908961D02*
X117255309Y-92004200D01*
X117255309Y-92004200D02*
X117112452Y-92051819D01*
X117112452Y-92051819D02*
X117017214Y-92051819D01*
X118398166Y-92051819D02*
X117826738Y-92051819D01*
X118112452Y-92051819D02*
X118112452Y-91051819D01*
X118112452Y-91051819D02*
X118017214Y-91194676D01*
X118017214Y-91194676D02*
X117921976Y-91289914D01*
X117921976Y-91289914D02*
X117826738Y-91337533D01*
X120478167Y-91051819D02*
X120478167Y-91861342D01*
X120478167Y-91861342D02*
X120525786Y-91956580D01*
X120525786Y-91956580D02*
X120573405Y-92004200D01*
X120573405Y-92004200D02*
X120668643Y-92051819D01*
X120668643Y-92051819D02*
X120859119Y-92051819D01*
X120859119Y-92051819D02*
X120954357Y-92004200D01*
X120954357Y-92004200D02*
X121001976Y-91956580D01*
X121001976Y-91956580D02*
X121049595Y-91861342D01*
X121049595Y-91861342D02*
X121049595Y-91051819D01*
X121478167Y-92004200D02*
X121621024Y-92051819D01*
X121621024Y-92051819D02*
X121859119Y-92051819D01*
X121859119Y-92051819D02*
X121954357Y-92004200D01*
X121954357Y-92004200D02*
X122001976Y-91956580D01*
X122001976Y-91956580D02*
X122049595Y-91861342D01*
X122049595Y-91861342D02*
X122049595Y-91766104D01*
X122049595Y-91766104D02*
X122001976Y-91670866D01*
X122001976Y-91670866D02*
X121954357Y-91623247D01*
X121954357Y-91623247D02*
X121859119Y-91575628D01*
X121859119Y-91575628D02*
X121668643Y-91528009D01*
X121668643Y-91528009D02*
X121573405Y-91480390D01*
X121573405Y-91480390D02*
X121525786Y-91432771D01*
X121525786Y-91432771D02*
X121478167Y-91337533D01*
X121478167Y-91337533D02*
X121478167Y-91242295D01*
X121478167Y-91242295D02*
X121525786Y-91147057D01*
X121525786Y-91147057D02*
X121573405Y-91099438D01*
X121573405Y-91099438D02*
X121668643Y-91051819D01*
X121668643Y-91051819D02*
X121906738Y-91051819D01*
X121906738Y-91051819D02*
X122049595Y-91099438D01*
X122811500Y-91528009D02*
X122954357Y-91575628D01*
X122954357Y-91575628D02*
X123001976Y-91623247D01*
X123001976Y-91623247D02*
X123049595Y-91718485D01*
X123049595Y-91718485D02*
X123049595Y-91861342D01*
X123049595Y-91861342D02*
X123001976Y-91956580D01*
X123001976Y-91956580D02*
X122954357Y-92004200D01*
X122954357Y-92004200D02*
X122859119Y-92051819D01*
X122859119Y-92051819D02*
X122478167Y-92051819D01*
X122478167Y-92051819D02*
X122478167Y-91051819D01*
X122478167Y-91051819D02*
X122811500Y-91051819D01*
X122811500Y-91051819D02*
X122906738Y-91099438D01*
X122906738Y-91099438D02*
X122954357Y-91147057D01*
X122954357Y-91147057D02*
X123001976Y-91242295D01*
X123001976Y-91242295D02*
X123001976Y-91337533D01*
X123001976Y-91337533D02*
X122954357Y-91432771D01*
X122954357Y-91432771D02*
X122906738Y-91480390D01*
X122906738Y-91480390D02*
X122811500Y-91528009D01*
X122811500Y-91528009D02*
X122478167Y-91528009D01*
X124240072Y-92051819D02*
X124240072Y-91385152D01*
X124240072Y-91051819D02*
X124192453Y-91099438D01*
X124192453Y-91099438D02*
X124240072Y-91147057D01*
X124240072Y-91147057D02*
X124287691Y-91099438D01*
X124287691Y-91099438D02*
X124240072Y-91051819D01*
X124240072Y-91051819D02*
X124240072Y-91147057D01*
X124716262Y-91385152D02*
X124716262Y-92051819D01*
X124716262Y-91480390D02*
X124763881Y-91432771D01*
X124763881Y-91432771D02*
X124859119Y-91385152D01*
X124859119Y-91385152D02*
X125001976Y-91385152D01*
X125001976Y-91385152D02*
X125097214Y-91432771D01*
X125097214Y-91432771D02*
X125144833Y-91528009D01*
X125144833Y-91528009D02*
X125144833Y-92051819D01*
X129844166Y-69461819D02*
X129844166Y-70176104D01*
X129844166Y-70176104D02*
X129796547Y-70318961D01*
X129796547Y-70318961D02*
X129701309Y-70414200D01*
X129701309Y-70414200D02*
X129558452Y-70461819D01*
X129558452Y-70461819D02*
X129463214Y-70461819D01*
X130748928Y-69461819D02*
X130558452Y-69461819D01*
X130558452Y-69461819D02*
X130463214Y-69509438D01*
X130463214Y-69509438D02*
X130415595Y-69557057D01*
X130415595Y-69557057D02*
X130320357Y-69699914D01*
X130320357Y-69699914D02*
X130272738Y-69890390D01*
X130272738Y-69890390D02*
X130272738Y-70271342D01*
X130272738Y-70271342D02*
X130320357Y-70366580D01*
X130320357Y-70366580D02*
X130367976Y-70414200D01*
X130367976Y-70414200D02*
X130463214Y-70461819D01*
X130463214Y-70461819D02*
X130653690Y-70461819D01*
X130653690Y-70461819D02*
X130748928Y-70414200D01*
X130748928Y-70414200D02*
X130796547Y-70366580D01*
X130796547Y-70366580D02*
X130844166Y-70271342D01*
X130844166Y-70271342D02*
X130844166Y-70033247D01*
X130844166Y-70033247D02*
X130796547Y-69938009D01*
X130796547Y-69938009D02*
X130748928Y-69890390D01*
X130748928Y-69890390D02*
X130653690Y-69842771D01*
X130653690Y-69842771D02*
X130463214Y-69842771D01*
X130463214Y-69842771D02*
X130367976Y-69890390D01*
X130367976Y-69890390D02*
X130320357Y-69938009D01*
X130320357Y-69938009D02*
X130272738Y-70033247D01*
X124676833Y-99322580D02*
X124629214Y-99370200D01*
X124629214Y-99370200D02*
X124486357Y-99417819D01*
X124486357Y-99417819D02*
X124391119Y-99417819D01*
X124391119Y-99417819D02*
X124248262Y-99370200D01*
X124248262Y-99370200D02*
X124153024Y-99274961D01*
X124153024Y-99274961D02*
X124105405Y-99179723D01*
X124105405Y-99179723D02*
X124057786Y-98989247D01*
X124057786Y-98989247D02*
X124057786Y-98846390D01*
X124057786Y-98846390D02*
X124105405Y-98655914D01*
X124105405Y-98655914D02*
X124153024Y-98560676D01*
X124153024Y-98560676D02*
X124248262Y-98465438D01*
X124248262Y-98465438D02*
X124391119Y-98417819D01*
X124391119Y-98417819D02*
X124486357Y-98417819D01*
X124486357Y-98417819D02*
X124629214Y-98465438D01*
X124629214Y-98465438D02*
X124676833Y-98513057D01*
X125629214Y-99417819D02*
X125057786Y-99417819D01*
X125343500Y-99417819D02*
X125343500Y-98417819D01*
X125343500Y-98417819D02*
X125248262Y-98560676D01*
X125248262Y-98560676D02*
X125153024Y-98655914D01*
X125153024Y-98655914D02*
X125057786Y-98703533D01*
X118580833Y-99322580D02*
X118533214Y-99370200D01*
X118533214Y-99370200D02*
X118390357Y-99417819D01*
X118390357Y-99417819D02*
X118295119Y-99417819D01*
X118295119Y-99417819D02*
X118152262Y-99370200D01*
X118152262Y-99370200D02*
X118057024Y-99274961D01*
X118057024Y-99274961D02*
X118009405Y-99179723D01*
X118009405Y-99179723D02*
X117961786Y-98989247D01*
X117961786Y-98989247D02*
X117961786Y-98846390D01*
X117961786Y-98846390D02*
X118009405Y-98655914D01*
X118009405Y-98655914D02*
X118057024Y-98560676D01*
X118057024Y-98560676D02*
X118152262Y-98465438D01*
X118152262Y-98465438D02*
X118295119Y-98417819D01*
X118295119Y-98417819D02*
X118390357Y-98417819D01*
X118390357Y-98417819D02*
X118533214Y-98465438D01*
X118533214Y-98465438D02*
X118580833Y-98513057D01*
X118961786Y-98513057D02*
X119009405Y-98465438D01*
X119009405Y-98465438D02*
X119104643Y-98417819D01*
X119104643Y-98417819D02*
X119342738Y-98417819D01*
X119342738Y-98417819D02*
X119437976Y-98465438D01*
X119437976Y-98465438D02*
X119485595Y-98513057D01*
X119485595Y-98513057D02*
X119533214Y-98608295D01*
X119533214Y-98608295D02*
X119533214Y-98703533D01*
X119533214Y-98703533D02*
X119485595Y-98846390D01*
X119485595Y-98846390D02*
X118914167Y-99417819D01*
X118914167Y-99417819D02*
X119533214Y-99417819D01*
X170992166Y-66413819D02*
X170992166Y-67128104D01*
X170992166Y-67128104D02*
X170944547Y-67270961D01*
X170944547Y-67270961D02*
X170849309Y-67366200D01*
X170849309Y-67366200D02*
X170706452Y-67413819D01*
X170706452Y-67413819D02*
X170611214Y-67413819D01*
X171944547Y-66413819D02*
X171468357Y-66413819D01*
X171468357Y-66413819D02*
X171420738Y-66890009D01*
X171420738Y-66890009D02*
X171468357Y-66842390D01*
X171468357Y-66842390D02*
X171563595Y-66794771D01*
X171563595Y-66794771D02*
X171801690Y-66794771D01*
X171801690Y-66794771D02*
X171896928Y-66842390D01*
X171896928Y-66842390D02*
X171944547Y-66890009D01*
X171944547Y-66890009D02*
X171992166Y-66985247D01*
X171992166Y-66985247D02*
X171992166Y-67223342D01*
X171992166Y-67223342D02*
X171944547Y-67318580D01*
X171944547Y-67318580D02*
X171896928Y-67366200D01*
X171896928Y-67366200D02*
X171801690Y-67413819D01*
X171801690Y-67413819D02*
X171563595Y-67413819D01*
X171563595Y-67413819D02*
X171468357Y-67366200D01*
X171468357Y-67366200D02*
X171420738Y-67318580D01*
%TO.C,U1*%
X151767500Y-70013000D02*
X151767500Y-70613000D01*
D15*
X141607500Y-104213000D02*
X141607500Y-74833000D01*
X151767500Y-73013000D02*
X151767500Y-74833000D01*
X151767500Y-77373000D02*
X151767500Y-74833000D01*
X161927500Y-70013000D02*
X151767500Y-70013000D01*
X161927500Y-74833000D02*
X161927500Y-70013000D01*
X161927500Y-74833000D02*
X161927500Y-77373000D01*
X161927500Y-77373000D02*
X151767500Y-77373000D01*
X169547500Y-74833000D02*
X141607500Y-74833000D01*
X169547500Y-79913000D02*
X169547500Y-74833000D01*
X172087500Y-79913000D02*
X169547500Y-79913000D01*
X172087500Y-104213000D02*
X172087500Y-79913000D01*
D16*
X170817500Y-78643000D02*
X169547500Y-78643000D01*
X169547500Y-76103000D01*
X170817500Y-76103000D01*
X170817500Y-78643000D01*
G36*
X170817500Y-78643000D02*
G01*
X169547500Y-78643000D01*
X169547500Y-76103000D01*
X170817500Y-76103000D01*
X170817500Y-78643000D01*
G37*
D14*
%TO.C,U3*%
X172681500Y-99053000D02*
X184081500Y-99053000D01*
X172681500Y-81053000D02*
X172681500Y-99053000D01*
X183881500Y-81053000D02*
X172681500Y-81053000D01*
D15*
X173551500Y-81123000D02*
X174881500Y-81123000D01*
X173551500Y-82453000D02*
X173551500Y-81123000D01*
X173551500Y-83723000D02*
X173551500Y-99023000D01*
X173551500Y-83723000D02*
X176211500Y-83723000D01*
X173551500Y-99023000D02*
X176211500Y-99023000D01*
X176211500Y-83723000D02*
X176211500Y-99023000D01*
%TO.C,U5*%
X128847500Y-76297000D02*
X130177500Y-76297000D01*
X128847500Y-77627000D02*
X128847500Y-76297000D01*
X128847500Y-78897000D02*
X128847500Y-104357000D01*
X128847500Y-78897000D02*
X131507500Y-78897000D01*
X128847500Y-104357000D02*
X131507500Y-104357000D01*
X131507500Y-78897000D02*
X131507500Y-104357000D01*
D14*
X128577500Y-76147000D02*
X140777500Y-76147000D01*
X140777500Y-104447000D01*
X128577500Y-104447000D01*
X128577500Y-76147000D01*
D15*
X140177500Y-78747000D02*
G75*
G02*
X136177500Y-78747000I-2000000J0D01*
G01*
X136177500Y-78747000D02*
G75*
G02*
X140177500Y-78747000I2000000J0D01*
G01*
X140177500Y-101747000D02*
G75*
G02*
X136177500Y-101747000I-2000000J0D01*
G01*
X136177500Y-101747000D02*
G75*
G02*
X140177500Y-101747000I2000000J0D01*
G01*
%TO.C,J2*%
X116401500Y-86090500D02*
X116401500Y-84760500D01*
X117731500Y-86090500D02*
X116401500Y-86090500D01*
X119001500Y-83430500D02*
X126681500Y-83430500D01*
X119001500Y-86090500D02*
X119001500Y-83430500D01*
X119001500Y-86090500D02*
X126681500Y-86090500D01*
X126681500Y-86090500D02*
X126681500Y-83430500D01*
%TO.C,J4*%
X115235500Y-72877000D02*
X115235500Y-74127000D01*
X115235500Y-74127000D02*
X116485500Y-74127000D01*
X115525500Y-66217000D02*
X115525500Y-73837000D01*
X115525500Y-73837000D02*
X121495500Y-73837000D01*
X115535500Y-66227000D02*
X115535500Y-68027000D01*
X115535500Y-68027000D02*
X116285500Y-68027000D01*
X115535500Y-69527000D02*
X115535500Y-70527000D01*
X115535500Y-70527000D02*
X116285500Y-70527000D01*
X115535500Y-72027000D02*
X115535500Y-73827000D01*
X115535500Y-73827000D02*
X116285500Y-73827000D01*
X116285500Y-66227000D02*
X115535500Y-66227000D01*
X116285500Y-68027000D02*
X116285500Y-66227000D01*
X116285500Y-69527000D02*
X115535500Y-69527000D01*
X116285500Y-70527000D02*
X116285500Y-69527000D01*
X116285500Y-72027000D02*
X115535500Y-72027000D01*
X116285500Y-73827000D02*
X116285500Y-72027000D01*
X117785500Y-66227000D02*
X117785500Y-66977000D01*
X117785500Y-66977000D02*
X120735500Y-66977000D01*
X117785500Y-73077000D02*
X120735500Y-73077000D01*
X117785500Y-73827000D02*
X117785500Y-73077000D01*
X120735500Y-66977000D02*
X120735500Y-70027000D01*
X120735500Y-73077000D02*
X120735500Y-70027000D01*
X121495500Y-66217000D02*
X115525500Y-66217000D01*
X121495500Y-73837000D02*
X121495500Y-66217000D01*
%TO.C,J1*%
X116401500Y-90662500D02*
X116401500Y-89332500D01*
X117731500Y-90662500D02*
X116401500Y-90662500D01*
X119001500Y-88002500D02*
X126681500Y-88002500D01*
X119001500Y-90662500D02*
X119001500Y-88002500D01*
X119001500Y-90662500D02*
X126681500Y-90662500D01*
X126681500Y-90662500D02*
X126681500Y-88002500D01*
%TO.C,J6*%
X131387500Y-71337000D02*
X131387500Y-70007000D01*
X132717500Y-71337000D02*
X131387500Y-71337000D01*
X133987500Y-68677000D02*
X141667500Y-68677000D01*
X133987500Y-71337000D02*
X133987500Y-68677000D01*
X133987500Y-71337000D02*
X141667500Y-71337000D01*
X141667500Y-71337000D02*
X141667500Y-68677000D01*
%TO.C,C1*%
X123803500Y-95391000D02*
X122263500Y-95391000D01*
X123803500Y-95431000D02*
X122263500Y-95431000D01*
X123803500Y-95471000D02*
X122264500Y-95471000D01*
X123803500Y-95511000D02*
X122265500Y-95511000D01*
X123803500Y-95551000D02*
X122267500Y-95551000D01*
X123803500Y-95591000D02*
X122270500Y-95591000D01*
X123803500Y-95631000D02*
X122274500Y-95631000D01*
X123803500Y-95671000D02*
X122278500Y-95671000D01*
X123803500Y-95711000D02*
X122282500Y-95711000D01*
X123803500Y-95751000D02*
X122287500Y-95751000D01*
X123803500Y-95791000D02*
X122293500Y-95791000D01*
X123803500Y-95831000D02*
X122300500Y-95831000D01*
X123803500Y-95871000D02*
X122307500Y-95871000D01*
X123803500Y-95911000D02*
X122315500Y-95911000D01*
X123803500Y-95951000D02*
X122323500Y-95951000D01*
X123803500Y-95991000D02*
X122332500Y-95991000D01*
X123803500Y-96031000D02*
X122342500Y-96031000D01*
X123803500Y-96071000D02*
X122352500Y-96071000D01*
X123803500Y-96112000D02*
X122363500Y-96112000D01*
X123803500Y-96152000D02*
X122375500Y-96152000D01*
X123803500Y-96192000D02*
X122388500Y-96192000D01*
X123803500Y-96232000D02*
X122401500Y-96232000D01*
X123803500Y-96272000D02*
X122415500Y-96272000D01*
X123803500Y-96312000D02*
X122429500Y-96312000D01*
X123803500Y-96352000D02*
X122445500Y-96352000D01*
X123803500Y-96392000D02*
X122461500Y-96392000D01*
X123803500Y-96432000D02*
X122478500Y-96432000D01*
X123803500Y-96472000D02*
X122495500Y-96472000D01*
X123803500Y-96512000D02*
X122514500Y-96512000D01*
X123803500Y-96552000D02*
X122533500Y-96552000D01*
X123803500Y-96592000D02*
X122553500Y-96592000D01*
X123803500Y-96632000D02*
X122575500Y-96632000D01*
X123803500Y-96672000D02*
X122596500Y-96672000D01*
X123803500Y-96712000D02*
X122619500Y-96712000D01*
X123803500Y-96752000D02*
X122643500Y-96752000D01*
X123803500Y-96792000D02*
X122668500Y-96792000D01*
X123803500Y-96832000D02*
X122694500Y-96832000D01*
X123803500Y-96872000D02*
X122721500Y-96872000D01*
X123803500Y-96912000D02*
X122748500Y-96912000D01*
X123803500Y-96952000D02*
X122778500Y-96952000D01*
X123803500Y-96992000D02*
X122808500Y-96992000D01*
X123803500Y-97032000D02*
X122839500Y-97032000D01*
X123803500Y-97072000D02*
X122872500Y-97072000D01*
X123803500Y-97112000D02*
X122906500Y-97112000D01*
X123803500Y-97152000D02*
X122942500Y-97152000D01*
X123803500Y-97192000D02*
X122979500Y-97192000D01*
X123803500Y-97232000D02*
X123017500Y-97232000D01*
X123803500Y-97272000D02*
X123058500Y-97272000D01*
X123803500Y-97312000D02*
X123100500Y-97312000D01*
X123803500Y-97352000D02*
X123144500Y-97352000D01*
X123803500Y-97392000D02*
X123190500Y-97392000D01*
X125127500Y-97992000D02*
X124559500Y-97992000D01*
X125361500Y-97952000D02*
X124325500Y-97952000D01*
X125520500Y-97912000D02*
X124166500Y-97912000D01*
X125648500Y-97872000D02*
X124038500Y-97872000D01*
X125758500Y-97832000D02*
X123928500Y-97832000D01*
X125854500Y-97792000D02*
X123832500Y-97792000D01*
X125941500Y-97752000D02*
X123745500Y-97752000D01*
X126021500Y-97712000D02*
X123665500Y-97712000D01*
X126094500Y-97672000D02*
X123592500Y-97672000D01*
X126162500Y-97632000D02*
X123524500Y-97632000D01*
X126226500Y-97592000D02*
X123460500Y-97592000D01*
X126286500Y-97552000D02*
X123400500Y-97552000D01*
X126318500Y-92586225D02*
X126318500Y-93086225D01*
X126343500Y-97512000D02*
X123343500Y-97512000D01*
X126397500Y-97472000D02*
X123289500Y-97472000D01*
X126448500Y-97432000D02*
X123238500Y-97432000D01*
X126496500Y-97392000D02*
X125883500Y-97392000D01*
X126542500Y-97352000D02*
X125883500Y-97352000D01*
X126568500Y-92836225D02*
X126068500Y-92836225D01*
X126586500Y-97312000D02*
X125883500Y-97312000D01*
X126628500Y-97272000D02*
X125883500Y-97272000D01*
X126669500Y-97232000D02*
X125883500Y-97232000D01*
X126707500Y-97192000D02*
X125883500Y-97192000D01*
X126744500Y-97152000D02*
X125883500Y-97152000D01*
X126780500Y-97112000D02*
X125883500Y-97112000D01*
X126814500Y-97072000D02*
X125883500Y-97072000D01*
X126847500Y-97032000D02*
X125883500Y-97032000D01*
X126878500Y-96992000D02*
X125883500Y-96992000D01*
X126908500Y-96952000D02*
X125883500Y-96952000D01*
X126938500Y-96912000D02*
X125883500Y-96912000D01*
X126965500Y-96872000D02*
X125883500Y-96872000D01*
X126992500Y-96832000D02*
X125883500Y-96832000D01*
X127018500Y-96792000D02*
X125883500Y-96792000D01*
X127043500Y-96752000D02*
X125883500Y-96752000D01*
X127067500Y-96712000D02*
X125883500Y-96712000D01*
X127090500Y-96672000D02*
X125883500Y-96672000D01*
X127111500Y-96632000D02*
X125883500Y-96632000D01*
X127133500Y-96592000D02*
X125883500Y-96592000D01*
X127153500Y-96552000D02*
X125883500Y-96552000D01*
X127172500Y-96512000D02*
X125883500Y-96512000D01*
X127191500Y-96472000D02*
X125883500Y-96472000D01*
X127208500Y-96432000D02*
X125883500Y-96432000D01*
X127225500Y-96392000D02*
X125883500Y-96392000D01*
X127241500Y-96352000D02*
X125883500Y-96352000D01*
X127257500Y-96312000D02*
X125883500Y-96312000D01*
X127271500Y-96272000D02*
X125883500Y-96272000D01*
X127285500Y-96232000D02*
X125883500Y-96232000D01*
X127298500Y-96192000D02*
X125883500Y-96192000D01*
X127311500Y-96152000D02*
X125883500Y-96152000D01*
X127323500Y-96112000D02*
X125883500Y-96112000D01*
X127334500Y-96071000D02*
X125883500Y-96071000D01*
X127344500Y-96031000D02*
X125883500Y-96031000D01*
X127354500Y-95991000D02*
X125883500Y-95991000D01*
X127363500Y-95951000D02*
X125883500Y-95951000D01*
X127371500Y-95911000D02*
X125883500Y-95911000D01*
X127379500Y-95871000D02*
X125883500Y-95871000D01*
X127386500Y-95831000D02*
X125883500Y-95831000D01*
X127393500Y-95791000D02*
X125883500Y-95791000D01*
X127399500Y-95751000D02*
X125883500Y-95751000D01*
X127404500Y-95711000D02*
X125883500Y-95711000D01*
X127408500Y-95671000D02*
X125883500Y-95671000D01*
X127412500Y-95631000D02*
X125883500Y-95631000D01*
X127416500Y-95591000D02*
X125883500Y-95591000D01*
X127419500Y-95551000D02*
X125883500Y-95551000D01*
X127421500Y-95511000D02*
X125883500Y-95511000D01*
X127422500Y-95471000D02*
X125883500Y-95471000D01*
X127423500Y-95391000D02*
X125883500Y-95391000D01*
X127423500Y-95431000D02*
X125883500Y-95431000D01*
X127463500Y-95391000D02*
G75*
G02*
X122223500Y-95391000I-2620000J0D01*
G01*
X122223500Y-95391000D02*
G75*
G02*
X127463500Y-95391000I2620000J0D01*
G01*
%TO.C,C2*%
X117707500Y-95391000D02*
X116167500Y-95391000D01*
X117707500Y-95431000D02*
X116167500Y-95431000D01*
X117707500Y-95471000D02*
X116168500Y-95471000D01*
X117707500Y-95511000D02*
X116169500Y-95511000D01*
X117707500Y-95551000D02*
X116171500Y-95551000D01*
X117707500Y-95591000D02*
X116174500Y-95591000D01*
X117707500Y-95631000D02*
X116178500Y-95631000D01*
X117707500Y-95671000D02*
X116182500Y-95671000D01*
X117707500Y-95711000D02*
X116186500Y-95711000D01*
X117707500Y-95751000D02*
X116191500Y-95751000D01*
X117707500Y-95791000D02*
X116197500Y-95791000D01*
X117707500Y-95831000D02*
X116204500Y-95831000D01*
X117707500Y-95871000D02*
X116211500Y-95871000D01*
X117707500Y-95911000D02*
X116219500Y-95911000D01*
X117707500Y-95951000D02*
X116227500Y-95951000D01*
X117707500Y-95991000D02*
X116236500Y-95991000D01*
X117707500Y-96031000D02*
X116246500Y-96031000D01*
X117707500Y-96071000D02*
X116256500Y-96071000D01*
X117707500Y-96112000D02*
X116267500Y-96112000D01*
X117707500Y-96152000D02*
X116279500Y-96152000D01*
X117707500Y-96192000D02*
X116292500Y-96192000D01*
X117707500Y-96232000D02*
X116305500Y-96232000D01*
X117707500Y-96272000D02*
X116319500Y-96272000D01*
X117707500Y-96312000D02*
X116333500Y-96312000D01*
X117707500Y-96352000D02*
X116349500Y-96352000D01*
X117707500Y-96392000D02*
X116365500Y-96392000D01*
X117707500Y-96432000D02*
X116382500Y-96432000D01*
X117707500Y-96472000D02*
X116399500Y-96472000D01*
X117707500Y-96512000D02*
X116418500Y-96512000D01*
X117707500Y-96552000D02*
X116437500Y-96552000D01*
X117707500Y-96592000D02*
X116457500Y-96592000D01*
X117707500Y-96632000D02*
X116479500Y-96632000D01*
X117707500Y-96672000D02*
X116500500Y-96672000D01*
X117707500Y-96712000D02*
X116523500Y-96712000D01*
X117707500Y-96752000D02*
X116547500Y-96752000D01*
X117707500Y-96792000D02*
X116572500Y-96792000D01*
X117707500Y-96832000D02*
X116598500Y-96832000D01*
X117707500Y-96872000D02*
X116625500Y-96872000D01*
X117707500Y-96912000D02*
X116652500Y-96912000D01*
X117707500Y-96952000D02*
X116682500Y-96952000D01*
X117707500Y-96992000D02*
X116712500Y-96992000D01*
X117707500Y-97032000D02*
X116743500Y-97032000D01*
X117707500Y-97072000D02*
X116776500Y-97072000D01*
X117707500Y-97112000D02*
X116810500Y-97112000D01*
X117707500Y-97152000D02*
X116846500Y-97152000D01*
X117707500Y-97192000D02*
X116883500Y-97192000D01*
X117707500Y-97232000D02*
X116921500Y-97232000D01*
X117707500Y-97272000D02*
X116962500Y-97272000D01*
X117707500Y-97312000D02*
X117004500Y-97312000D01*
X117707500Y-97352000D02*
X117048500Y-97352000D01*
X117707500Y-97392000D02*
X117094500Y-97392000D01*
X119031500Y-97992000D02*
X118463500Y-97992000D01*
X119265500Y-97952000D02*
X118229500Y-97952000D01*
X119424500Y-97912000D02*
X118070500Y-97912000D01*
X119552500Y-97872000D02*
X117942500Y-97872000D01*
X119662500Y-97832000D02*
X117832500Y-97832000D01*
X119758500Y-97792000D02*
X117736500Y-97792000D01*
X119845500Y-97752000D02*
X117649500Y-97752000D01*
X119925500Y-97712000D02*
X117569500Y-97712000D01*
X119998500Y-97672000D02*
X117496500Y-97672000D01*
X120066500Y-97632000D02*
X117428500Y-97632000D01*
X120130500Y-97592000D02*
X117364500Y-97592000D01*
X120190500Y-97552000D02*
X117304500Y-97552000D01*
X120222500Y-92586225D02*
X120222500Y-93086225D01*
X120247500Y-97512000D02*
X117247500Y-97512000D01*
X120301500Y-97472000D02*
X117193500Y-97472000D01*
X120352500Y-97432000D02*
X117142500Y-97432000D01*
X120400500Y-97392000D02*
X119787500Y-97392000D01*
X120446500Y-97352000D02*
X119787500Y-97352000D01*
X120472500Y-92836225D02*
X119972500Y-92836225D01*
X120490500Y-97312000D02*
X119787500Y-97312000D01*
X120532500Y-97272000D02*
X119787500Y-97272000D01*
X120573500Y-97232000D02*
X119787500Y-97232000D01*
X120611500Y-97192000D02*
X119787500Y-97192000D01*
X120648500Y-97152000D02*
X119787500Y-97152000D01*
X120684500Y-97112000D02*
X119787500Y-97112000D01*
X120718500Y-97072000D02*
X119787500Y-97072000D01*
X120751500Y-97032000D02*
X119787500Y-97032000D01*
X120782500Y-96992000D02*
X119787500Y-96992000D01*
X120812500Y-96952000D02*
X119787500Y-96952000D01*
X120842500Y-96912000D02*
X119787500Y-96912000D01*
X120869500Y-96872000D02*
X119787500Y-96872000D01*
X120896500Y-96832000D02*
X119787500Y-96832000D01*
X120922500Y-96792000D02*
X119787500Y-96792000D01*
X120947500Y-96752000D02*
X119787500Y-96752000D01*
X120971500Y-96712000D02*
X119787500Y-96712000D01*
X120994500Y-96672000D02*
X119787500Y-96672000D01*
X121015500Y-96632000D02*
X119787500Y-96632000D01*
X121037500Y-96592000D02*
X119787500Y-96592000D01*
X121057500Y-96552000D02*
X119787500Y-96552000D01*
X121076500Y-96512000D02*
X119787500Y-96512000D01*
X121095500Y-96472000D02*
X119787500Y-96472000D01*
X121112500Y-96432000D02*
X119787500Y-96432000D01*
X121129500Y-96392000D02*
X119787500Y-96392000D01*
X121145500Y-96352000D02*
X119787500Y-96352000D01*
X121161500Y-96312000D02*
X119787500Y-96312000D01*
X121175500Y-96272000D02*
X119787500Y-96272000D01*
X121189500Y-96232000D02*
X119787500Y-96232000D01*
X121202500Y-96192000D02*
X119787500Y-96192000D01*
X121215500Y-96152000D02*
X119787500Y-96152000D01*
X121227500Y-96112000D02*
X119787500Y-96112000D01*
X121238500Y-96071000D02*
X119787500Y-96071000D01*
X121248500Y-96031000D02*
X119787500Y-96031000D01*
X121258500Y-95991000D02*
X119787500Y-95991000D01*
X121267500Y-95951000D02*
X119787500Y-95951000D01*
X121275500Y-95911000D02*
X119787500Y-95911000D01*
X121283500Y-95871000D02*
X119787500Y-95871000D01*
X121290500Y-95831000D02*
X119787500Y-95831000D01*
X121297500Y-95791000D02*
X119787500Y-95791000D01*
X121303500Y-95751000D02*
X119787500Y-95751000D01*
X121308500Y-95711000D02*
X119787500Y-95711000D01*
X121312500Y-95671000D02*
X119787500Y-95671000D01*
X121316500Y-95631000D02*
X119787500Y-95631000D01*
X121320500Y-95591000D02*
X119787500Y-95591000D01*
X121323500Y-95551000D02*
X119787500Y-95551000D01*
X121325500Y-95511000D02*
X119787500Y-95511000D01*
X121326500Y-95471000D02*
X119787500Y-95471000D01*
X121327500Y-95391000D02*
X119787500Y-95391000D01*
X121327500Y-95431000D02*
X119787500Y-95431000D01*
X121367500Y-95391000D02*
G75*
G02*
X116127500Y-95391000I-2620000J0D01*
G01*
X116127500Y-95391000D02*
G75*
G02*
X121367500Y-95391000I2620000J0D01*
G01*
%TO.C,J5*%
X172849500Y-66197000D02*
X174119500Y-66197000D01*
X172849500Y-67467000D02*
X172849500Y-66197000D01*
X175162429Y-69627000D02*
X175559500Y-69627000D01*
X175162429Y-70387000D02*
X175559500Y-70387000D01*
X175162429Y-72167000D02*
X175559500Y-72167000D01*
X175162429Y-72927000D02*
X175559500Y-72927000D01*
X175229500Y-67087000D02*
X175559500Y-67087000D01*
X175229500Y-67847000D02*
X175559500Y-67847000D01*
X175559500Y-66137000D02*
X175559500Y-73877000D01*
X175559500Y-68737000D02*
X178219500Y-68737000D01*
X175559500Y-71277000D02*
X178219500Y-71277000D01*
X175559500Y-73877000D02*
X178219500Y-73877000D01*
X178219500Y-66137000D02*
X175559500Y-66137000D01*
X178219500Y-67087000D02*
X184219500Y-67087000D01*
X178219500Y-67147000D02*
X184219500Y-67147000D01*
X178219500Y-67267000D02*
X184219500Y-67267000D01*
X178219500Y-67387000D02*
X184219500Y-67387000D01*
X178219500Y-67507000D02*
X184219500Y-67507000D01*
X178219500Y-67627000D02*
X184219500Y-67627000D01*
X178219500Y-67747000D02*
X184219500Y-67747000D01*
X178219500Y-69627000D02*
X184219500Y-69627000D01*
X178219500Y-72167000D02*
X184219500Y-72167000D01*
X178219500Y-73877000D02*
X178219500Y-66137000D01*
X184219500Y-67087000D02*
X184219500Y-67847000D01*
X184219500Y-67847000D02*
X178219500Y-67847000D01*
X184219500Y-69627000D02*
X184219500Y-70387000D01*
X184219500Y-70387000D02*
X178219500Y-70387000D01*
X184219500Y-72167000D02*
X184219500Y-72927000D01*
X184219500Y-72927000D02*
X178219500Y-72927000D01*
%TD*%
M02*
