%TF.GenerationSoftware,KiCad,Pcbnew,8.0.4*%
%TF.CreationDate,2025-06-13T09:49:43+02:00*%
%TF.ProjectId,LeoIoT_Goalfinder,4c656f49-6f54-45f4-976f-616c66696e64,01.04 SMD*%
%TF.SameCoordinates,Original*%
%TF.FileFunction,Copper,L2,Bot*%
%TF.FilePolarity,Positive*%
%FSLAX46Y46*%
G04 Gerber Fmt 4.6, Leading zero omitted, Abs format (unit mm)*
G04 Created by KiCad (PCBNEW 8.0.4) date 2025-06-13 09:49:43*
%MOMM*%
%LPD*%
G01*
G04 APERTURE LIST*
G04 Aperture macros list*
%AMRoundRect*
0 Rectangle with rounded corners*
0 $1 Rounding radius*
0 $2 $3 $4 $5 $6 $7 $8 $9 X,Y pos of 4 corners*
0 Add a 4 corners polygon primitive as box body*
4,1,4,$2,$3,$4,$5,$6,$7,$8,$9,$2,$3,0*
0 Add four circle primitives for the rounded corners*
1,1,$1+$1,$2,$3*
1,1,$1+$1,$4,$5*
1,1,$1+$1,$6,$7*
1,1,$1+$1,$8,$9*
0 Add four rect primitives between the rounded corners*
20,1,$1+$1,$2,$3,$4,$5,0*
20,1,$1+$1,$4,$5,$6,$7,0*
20,1,$1+$1,$6,$7,$8,$9,0*
20,1,$1+$1,$8,$9,$2,$3,0*%
G04 Aperture macros list end*
%ADD10C,0.300000*%
%TA.AperFunction,NonConductor*%
%ADD11C,0.300000*%
%TD*%
%TA.AperFunction,EtchedComponent*%
%ADD12C,0.150000*%
%TD*%
%TA.AperFunction,ComponentPad*%
%ADD13R,1.700000X1.700000*%
%TD*%
%TA.AperFunction,ComponentPad*%
%ADD14O,1.700000X1.700000*%
%TD*%
%TA.AperFunction,ComponentPad*%
%ADD15C,1.800000*%
%TD*%
%TA.AperFunction,ComponentPad*%
%ADD16RoundRect,0.250000X0.750000X-0.600000X0.750000X0.600000X-0.750000X0.600000X-0.750000X-0.600000X0*%
%TD*%
%TA.AperFunction,ComponentPad*%
%ADD17O,2.000000X1.700000*%
%TD*%
%TA.AperFunction,ComponentPad*%
%ADD18R,1.600000X1.600000*%
%TD*%
%TA.AperFunction,ComponentPad*%
%ADD19C,1.600000*%
%TD*%
%TA.AperFunction,SMDPad,CuDef*%
%ADD20RoundRect,0.250000X-0.475000X0.337500X-0.475000X-0.337500X0.475000X-0.337500X0.475000X0.337500X0*%
%TD*%
%TA.AperFunction,SMDPad,CuDef*%
%ADD21RoundRect,0.250000X-0.337500X-0.475000X0.337500X-0.475000X0.337500X0.475000X-0.337500X0.475000X0*%
%TD*%
%TA.AperFunction,SMDPad,CuDef*%
%ADD22RoundRect,0.250000X0.450000X-0.350000X0.450000X0.350000X-0.450000X0.350000X-0.450000X-0.350000X0*%
%TD*%
%TA.AperFunction,SMDPad,CuDef*%
%ADD23RoundRect,0.150000X0.587500X0.150000X-0.587500X0.150000X-0.587500X-0.150000X0.587500X-0.150000X0*%
%TD*%
%TA.AperFunction,SMDPad,CuDef*%
%ADD24RoundRect,0.250000X-0.450000X0.350000X-0.450000X-0.350000X0.450000X-0.350000X0.450000X0.350000X0*%
%TD*%
%TA.AperFunction,SMDPad,CuDef*%
%ADD25RoundRect,0.250000X0.475000X-0.337500X0.475000X0.337500X-0.475000X0.337500X-0.475000X-0.337500X0*%
%TD*%
%TA.AperFunction,Conductor*%
%ADD26C,1.000000*%
%TD*%
%TA.AperFunction,Conductor*%
%ADD27C,0.600000*%
%TD*%
%TA.AperFunction,Conductor*%
%ADD28C,0.900000*%
%TD*%
%TA.AperFunction,Conductor*%
%ADD29C,0.800000*%
%TD*%
G04 APERTURE END LIST*
D10*
G36*
X154413153Y-92625054D02*
G01*
X154436861Y-92672469D01*
X154436861Y-92849268D01*
X154413152Y-92896685D01*
X154365737Y-92920393D01*
X154336499Y-92920393D01*
X154397165Y-92617060D01*
X154413153Y-92625054D01*
G37*
G36*
X154374198Y-91460338D02*
G01*
X154401679Y-91487819D01*
X154436861Y-91558183D01*
X154436861Y-91673077D01*
X154401677Y-91743445D01*
X154374197Y-91770925D01*
X154303832Y-91806107D01*
X154003224Y-91806107D01*
X153932857Y-91770923D01*
X153905378Y-91743444D01*
X153870195Y-91673078D01*
X153870195Y-91558184D01*
X153905378Y-91487818D01*
X153932858Y-91460337D01*
X154003224Y-91425155D01*
X154303832Y-91425155D01*
X154374198Y-91460338D01*
G37*
G36*
X154436861Y-89143898D02*
G01*
X154436861Y-89320697D01*
X154401677Y-89391065D01*
X154374197Y-89418545D01*
X154303832Y-89453727D01*
X154003224Y-89453727D01*
X153932857Y-89418543D01*
X153905378Y-89391064D01*
X153870195Y-89320698D01*
X153870195Y-89143899D01*
X153874805Y-89134680D01*
X154432252Y-89134680D01*
X154436861Y-89143898D01*
G37*
G36*
X154436861Y-86172470D02*
G01*
X154436861Y-86349269D01*
X154401677Y-86419637D01*
X154374197Y-86447117D01*
X154303832Y-86482299D01*
X154003224Y-86482299D01*
X153932857Y-86447115D01*
X153905378Y-86419636D01*
X153870195Y-86349270D01*
X153870195Y-86172471D01*
X153874805Y-86163252D01*
X154432252Y-86163252D01*
X154436861Y-86172470D01*
G37*
G36*
X154720219Y-82688112D02*
G01*
X154807530Y-82731768D01*
X154835012Y-82759250D01*
X154870195Y-82829616D01*
X154870195Y-82882604D01*
X154835012Y-82952970D01*
X154807530Y-82980451D01*
X154720223Y-83024105D01*
X154506493Y-83077538D01*
X154233897Y-83077538D01*
X154020169Y-83024106D01*
X153932858Y-82980451D01*
X153905378Y-82952970D01*
X153870195Y-82882604D01*
X153870195Y-82829615D01*
X153905378Y-82759249D01*
X153932858Y-82731768D01*
X154020170Y-82688113D01*
X154233898Y-82634681D01*
X154506493Y-82634681D01*
X154720219Y-82688112D01*
G37*
G36*
X155320195Y-98756108D02*
G01*
X152986861Y-98756108D01*
X152986861Y-97683987D01*
X153573077Y-97683987D01*
X153573077Y-97742515D01*
X153595475Y-97796587D01*
X153636859Y-97837971D01*
X153690931Y-97860369D01*
X153720195Y-97863251D01*
X154251147Y-97863251D01*
X154251147Y-98306108D01*
X153720195Y-98306108D01*
X153690931Y-98308990D01*
X153636859Y-98331388D01*
X153595475Y-98372772D01*
X153573077Y-98426844D01*
X153573077Y-98485372D01*
X153595475Y-98539444D01*
X153636859Y-98580828D01*
X153690931Y-98603226D01*
X153720195Y-98606108D01*
X155020195Y-98606108D01*
X155049459Y-98603226D01*
X155103531Y-98580828D01*
X155144915Y-98539444D01*
X155167313Y-98485372D01*
X155167313Y-98426844D01*
X155144915Y-98372772D01*
X155103531Y-98331388D01*
X155049459Y-98308990D01*
X155020195Y-98306108D01*
X154551147Y-98306108D01*
X154551147Y-97863251D01*
X155020195Y-97863251D01*
X155049459Y-97860369D01*
X155103531Y-97837971D01*
X155144915Y-97796587D01*
X155167313Y-97742515D01*
X155167313Y-97683987D01*
X155144915Y-97629915D01*
X155103531Y-97588531D01*
X155049459Y-97566133D01*
X155020195Y-97563251D01*
X153720195Y-97563251D01*
X153690931Y-97566133D01*
X153636859Y-97588531D01*
X153595475Y-97629915D01*
X153573077Y-97683987D01*
X152986861Y-97683987D01*
X152986861Y-96879224D01*
X153573077Y-96879224D01*
X153573077Y-96937752D01*
X153595475Y-96991824D01*
X153636859Y-97033208D01*
X153690931Y-97055606D01*
X153720195Y-97058488D01*
X154870195Y-97058488D01*
X154870195Y-97279917D01*
X154873077Y-97309181D01*
X154895475Y-97363253D01*
X154936859Y-97404637D01*
X154990931Y-97427035D01*
X155049459Y-97427035D01*
X155103531Y-97404637D01*
X155144915Y-97363253D01*
X155167313Y-97309181D01*
X155170195Y-97279917D01*
X155170195Y-96537060D01*
X155167313Y-96507796D01*
X155144915Y-96453724D01*
X155103531Y-96412340D01*
X155049459Y-96389942D01*
X154990931Y-96389942D01*
X154936859Y-96412340D01*
X154895475Y-96453724D01*
X154873077Y-96507796D01*
X154870195Y-96537060D01*
X154870195Y-96758488D01*
X153720195Y-96758488D01*
X153690931Y-96761370D01*
X153636859Y-96783768D01*
X153595475Y-96825152D01*
X153573077Y-96879224D01*
X152986861Y-96879224D01*
X152986861Y-95484679D01*
X153570195Y-95484679D01*
X153570195Y-96103727D01*
X153573077Y-96132991D01*
X153595475Y-96187063D01*
X153636859Y-96228447D01*
X153690931Y-96250845D01*
X153720195Y-96253727D01*
X155020195Y-96253727D01*
X155049459Y-96250845D01*
X155103531Y-96228447D01*
X155144915Y-96187063D01*
X155167313Y-96132991D01*
X155167313Y-96074463D01*
X155144915Y-96020391D01*
X155103531Y-95979007D01*
X155049459Y-95956609D01*
X155020195Y-95953727D01*
X153870195Y-95953727D01*
X153870195Y-95484679D01*
X153867313Y-95455415D01*
X153844915Y-95401343D01*
X153803531Y-95359959D01*
X153749459Y-95337561D01*
X153690931Y-95337561D01*
X153636859Y-95359959D01*
X153595475Y-95401343D01*
X153573077Y-95455415D01*
X153570195Y-95484679D01*
X152986861Y-95484679D01*
X152986861Y-93441822D01*
X153570195Y-93441822D01*
X153570195Y-94060870D01*
X153573077Y-94090134D01*
X153595475Y-94144206D01*
X153636859Y-94185590D01*
X153690931Y-94207988D01*
X153720195Y-94210870D01*
X155020195Y-94210870D01*
X155049459Y-94207988D01*
X155103531Y-94185590D01*
X155144915Y-94144206D01*
X155167313Y-94090134D01*
X155167313Y-94031606D01*
X155144915Y-93977534D01*
X155103531Y-93936150D01*
X155049459Y-93913752D01*
X155020195Y-93910870D01*
X153870195Y-93910870D01*
X153870195Y-93441822D01*
X153867313Y-93412558D01*
X153844915Y-93358486D01*
X153803531Y-93317102D01*
X153749459Y-93294704D01*
X153690931Y-93294704D01*
X153636859Y-93317102D01*
X153595475Y-93358486D01*
X153573077Y-93412558D01*
X153570195Y-93441822D01*
X152986861Y-93441822D01*
X152986861Y-92637060D01*
X153570195Y-92637060D01*
X153570195Y-92884679D01*
X153573077Y-92913943D01*
X153575138Y-92918920D01*
X153575521Y-92924298D01*
X153586031Y-92951761D01*
X153647936Y-93075571D01*
X153651016Y-93080465D01*
X153651786Y-93082773D01*
X153654278Y-93085646D01*
X153663601Y-93100457D01*
X153677813Y-93112783D01*
X153690133Y-93126988D01*
X153704936Y-93136306D01*
X153707816Y-93138804D01*
X153710127Y-93139574D01*
X153715018Y-93142653D01*
X153838827Y-93204557D01*
X153866290Y-93215067D01*
X153871667Y-93215449D01*
X153876645Y-93217511D01*
X153905909Y-93220393D01*
X154153371Y-93220393D01*
X154401147Y-93220393D01*
X154430411Y-93217511D01*
X154435389Y-93215448D01*
X154440765Y-93215067D01*
X154468228Y-93204558D01*
X154592038Y-93142654D01*
X154596933Y-93139572D01*
X154599242Y-93138803D01*
X154602116Y-93136309D01*
X154616924Y-93126989D01*
X154629247Y-93112779D01*
X154643457Y-93100456D01*
X154652777Y-93085648D01*
X154655271Y-93082774D01*
X154656040Y-93080465D01*
X154659122Y-93075570D01*
X154721025Y-92951760D01*
X154731535Y-92924297D01*
X154731916Y-92918921D01*
X154733979Y-92913943D01*
X154736861Y-92884679D01*
X154736861Y-92637060D01*
X154733979Y-92607796D01*
X154731917Y-92602818D01*
X154731535Y-92597441D01*
X154721025Y-92569978D01*
X154659121Y-92446169D01*
X154656042Y-92441278D01*
X154655272Y-92438967D01*
X154652774Y-92436087D01*
X154643456Y-92421284D01*
X154629251Y-92408964D01*
X154616925Y-92394752D01*
X154602114Y-92385429D01*
X154599241Y-92382937D01*
X154596933Y-92382167D01*
X154592039Y-92379087D01*
X154468229Y-92317182D01*
X154440766Y-92306672D01*
X154435388Y-92306289D01*
X154430411Y-92304228D01*
X154401147Y-92301346D01*
X154277500Y-92301346D01*
X154277495Y-92301345D01*
X154277490Y-92301346D01*
X154277338Y-92301346D01*
X154248074Y-92304228D01*
X154234497Y-92309851D01*
X154220080Y-92312704D01*
X154207721Y-92320943D01*
X154194002Y-92326626D01*
X154183612Y-92337016D01*
X154171384Y-92345168D01*
X154163119Y-92357508D01*
X154152618Y-92368010D01*
X154146994Y-92381586D01*
X154138816Y-92393798D01*
X154130251Y-92421928D01*
X154030558Y-92920393D01*
X153941318Y-92920393D01*
X153893903Y-92896685D01*
X153870195Y-92849269D01*
X153870195Y-92672470D01*
X153916264Y-92580333D01*
X153926774Y-92552870D01*
X153930922Y-92494490D01*
X153912415Y-92438967D01*
X153874068Y-92394752D01*
X153821719Y-92368577D01*
X153763339Y-92364429D01*
X153707817Y-92382936D01*
X153663601Y-92421283D01*
X153647936Y-92446168D01*
X153586031Y-92569978D01*
X153575522Y-92597441D01*
X153575140Y-92602815D01*
X153573077Y-92607796D01*
X153570195Y-92637060D01*
X152986861Y-92637060D01*
X152986861Y-91522774D01*
X153570195Y-91522774D01*
X153570195Y-91708488D01*
X153573077Y-91737752D01*
X153575138Y-91742729D01*
X153575521Y-91748107D01*
X153586031Y-91775570D01*
X153647936Y-91899380D01*
X153655861Y-91911970D01*
X153657378Y-91915632D01*
X153660760Y-91919753D01*
X153663601Y-91924266D01*
X153666594Y-91926862D01*
X153676033Y-91938363D01*
X153737937Y-92000268D01*
X153749439Y-92009707D01*
X153752037Y-92012703D01*
X153756551Y-92015545D01*
X153760668Y-92018923D01*
X153764324Y-92020437D01*
X153776923Y-92028368D01*
X153900733Y-92090271D01*
X153928196Y-92100781D01*
X153933571Y-92101162D01*
X153938550Y-92103225D01*
X153967814Y-92106107D01*
X154339242Y-92106107D01*
X154368506Y-92103225D01*
X154373484Y-92101162D01*
X154378860Y-92100781D01*
X154406323Y-92090272D01*
X154530133Y-92028368D01*
X154542729Y-92020439D01*
X154546387Y-92018924D01*
X154550504Y-92015544D01*
X154555019Y-92012703D01*
X154557616Y-92009708D01*
X154569118Y-92000269D01*
X154631023Y-91938364D01*
X154640462Y-91926862D01*
X154643457Y-91924265D01*
X154646298Y-91919750D01*
X154649678Y-91915633D01*
X154651193Y-91911975D01*
X154659122Y-91899379D01*
X154721025Y-91775569D01*
X154731535Y-91748106D01*
X154731916Y-91742730D01*
X154733979Y-91737752D01*
X154736861Y-91708488D01*
X154736861Y-91522774D01*
X154733979Y-91493510D01*
X154731917Y-91488532D01*
X154731535Y-91483155D01*
X154721025Y-91455692D01*
X154659121Y-91331883D01*
X154651194Y-91319291D01*
X154649678Y-91315630D01*
X154646294Y-91311507D01*
X154643456Y-91306998D01*
X154640464Y-91304403D01*
X154631023Y-91292899D01*
X154569118Y-91230994D01*
X154557616Y-91221555D01*
X154555020Y-91218561D01*
X154550506Y-91215720D01*
X154546387Y-91212339D01*
X154542727Y-91210823D01*
X154530134Y-91202896D01*
X154406324Y-91140991D01*
X154378861Y-91130481D01*
X154373483Y-91130098D01*
X154368506Y-91128037D01*
X154339242Y-91125155D01*
X153967814Y-91125155D01*
X153938550Y-91128037D01*
X153933571Y-91130099D01*
X153928196Y-91130481D01*
X153900732Y-91140991D01*
X153776922Y-91202896D01*
X153764325Y-91210824D01*
X153760668Y-91212340D01*
X153756550Y-91215719D01*
X153752036Y-91218561D01*
X153749439Y-91221555D01*
X153737937Y-91230995D01*
X153676033Y-91292900D01*
X153666594Y-91304401D01*
X153663601Y-91306997D01*
X153660760Y-91311509D01*
X153657378Y-91315631D01*
X153655862Y-91319290D01*
X153647936Y-91331882D01*
X153586031Y-91455692D01*
X153575522Y-91483155D01*
X153575140Y-91488529D01*
X153573077Y-91493510D01*
X153570195Y-91522774D01*
X152986861Y-91522774D01*
X152986861Y-90131606D01*
X153573077Y-90131606D01*
X153573077Y-90190134D01*
X153595475Y-90244206D01*
X153636859Y-90285590D01*
X153690931Y-90307988D01*
X153720195Y-90310870D01*
X154365737Y-90310870D01*
X154413153Y-90334578D01*
X154436861Y-90381993D01*
X154436861Y-90496887D01*
X154401677Y-90567255D01*
X154400920Y-90568013D01*
X153720195Y-90568013D01*
X153690931Y-90570895D01*
X153636859Y-90593293D01*
X153595475Y-90634677D01*
X153573077Y-90688749D01*
X153573077Y-90747277D01*
X153595475Y-90801349D01*
X153636859Y-90842733D01*
X153690931Y-90865131D01*
X153720195Y-90868013D01*
X154586861Y-90868013D01*
X154616125Y-90865131D01*
X154670197Y-90842733D01*
X154711581Y-90801349D01*
X154733979Y-90747277D01*
X154733979Y-90688749D01*
X154711581Y-90634677D01*
X154706111Y-90629207D01*
X154721025Y-90599379D01*
X154731535Y-90571916D01*
X154731916Y-90566540D01*
X154733979Y-90561562D01*
X154736861Y-90532298D01*
X154736861Y-90346584D01*
X154733979Y-90317320D01*
X154731917Y-90312342D01*
X154731535Y-90306965D01*
X154721025Y-90279502D01*
X154659121Y-90155693D01*
X154656042Y-90150802D01*
X154655272Y-90148491D01*
X154652774Y-90145611D01*
X154643456Y-90130808D01*
X154629251Y-90118488D01*
X154616925Y-90104276D01*
X154602114Y-90094953D01*
X154599241Y-90092461D01*
X154596933Y-90091691D01*
X154592039Y-90088611D01*
X154468229Y-90026706D01*
X154440766Y-90016196D01*
X154435388Y-90015813D01*
X154430411Y-90013752D01*
X154401147Y-90010870D01*
X153720195Y-90010870D01*
X153690931Y-90013752D01*
X153636859Y-90036150D01*
X153595475Y-90077534D01*
X153573077Y-90131606D01*
X152986861Y-90131606D01*
X152986861Y-89108489D01*
X153570195Y-89108489D01*
X153570195Y-89356108D01*
X153573077Y-89385372D01*
X153575138Y-89390349D01*
X153575521Y-89395727D01*
X153586031Y-89423190D01*
X153647936Y-89547000D01*
X153655861Y-89559590D01*
X153657378Y-89563252D01*
X153660760Y-89567373D01*
X153663601Y-89571886D01*
X153666594Y-89574482D01*
X153676033Y-89585983D01*
X153737937Y-89647888D01*
X153749439Y-89657327D01*
X153752037Y-89660323D01*
X153756551Y-89663165D01*
X153760668Y-89666543D01*
X153764324Y-89668057D01*
X153776923Y-89675988D01*
X153900733Y-89737891D01*
X153928196Y-89748401D01*
X153933571Y-89748782D01*
X153938550Y-89750845D01*
X153967814Y-89753727D01*
X154339242Y-89753727D01*
X154368506Y-89750845D01*
X154373484Y-89748782D01*
X154378860Y-89748401D01*
X154406323Y-89737892D01*
X154530133Y-89675988D01*
X154542729Y-89668059D01*
X154546387Y-89666544D01*
X154550504Y-89663164D01*
X154555019Y-89660323D01*
X154557616Y-89657328D01*
X154569118Y-89647889D01*
X154631023Y-89585984D01*
X154640462Y-89574482D01*
X154643457Y-89571885D01*
X154646298Y-89567370D01*
X154649678Y-89563253D01*
X154651193Y-89559595D01*
X154659122Y-89546999D01*
X154721025Y-89423189D01*
X154731535Y-89395726D01*
X154731916Y-89390350D01*
X154733979Y-89385372D01*
X154736861Y-89356108D01*
X154736861Y-89134680D01*
X155020195Y-89134680D01*
X155049459Y-89131798D01*
X155103531Y-89109400D01*
X155144915Y-89068016D01*
X155167313Y-89013944D01*
X155167313Y-88955416D01*
X155144915Y-88901344D01*
X155103531Y-88859960D01*
X155049459Y-88837562D01*
X155020195Y-88834680D01*
X153720195Y-88834680D01*
X153690931Y-88837562D01*
X153636859Y-88859960D01*
X153595475Y-88901344D01*
X153573077Y-88955416D01*
X153573077Y-89013944D01*
X153585273Y-89043387D01*
X153575522Y-89068870D01*
X153575140Y-89074244D01*
X153573077Y-89079225D01*
X153570195Y-89108489D01*
X152986861Y-89108489D01*
X152986861Y-88336369D01*
X153573077Y-88336369D01*
X153573077Y-88394897D01*
X153595475Y-88448969D01*
X153636859Y-88490353D01*
X153690931Y-88512751D01*
X153720195Y-88515633D01*
X154586861Y-88515633D01*
X154616125Y-88512751D01*
X154670197Y-88490353D01*
X154711581Y-88448969D01*
X154733979Y-88394897D01*
X154733979Y-88336369D01*
X154749267Y-88336369D01*
X154749267Y-88336370D01*
X154749267Y-88336371D01*
X154749267Y-88394897D01*
X154755438Y-88409794D01*
X154771664Y-88448968D01*
X154771665Y-88448969D01*
X154790320Y-88471700D01*
X154852225Y-88533604D01*
X154874950Y-88552253D01*
X154874954Y-88552257D01*
X154874955Y-88552257D01*
X154874956Y-88552258D01*
X154884232Y-88556100D01*
X154929026Y-88574655D01*
X154929028Y-88574655D01*
X154987552Y-88574655D01*
X155041624Y-88552259D01*
X155064355Y-88533604D01*
X155126260Y-88471700D01*
X155144915Y-88448969D01*
X155144916Y-88448968D01*
X155161142Y-88409794D01*
X155167313Y-88394897D01*
X155167313Y-88336369D01*
X155144916Y-88282299D01*
X155144916Y-88282298D01*
X155126261Y-88259567D01*
X155064356Y-88197662D01*
X155041625Y-88179007D01*
X154987553Y-88156610D01*
X154929027Y-88156610D01*
X154874955Y-88179007D01*
X154852224Y-88197662D01*
X154790319Y-88259567D01*
X154771665Y-88282297D01*
X154771663Y-88282299D01*
X154758543Y-88313973D01*
X154749267Y-88336369D01*
X154733979Y-88336369D01*
X154711581Y-88282297D01*
X154670197Y-88240913D01*
X154616125Y-88218515D01*
X154586861Y-88215633D01*
X153720195Y-88215633D01*
X153690931Y-88218515D01*
X153636859Y-88240913D01*
X153595475Y-88282297D01*
X153573077Y-88336369D01*
X152986861Y-88336369D01*
X152986861Y-87160178D01*
X153573077Y-87160178D01*
X153573077Y-87218706D01*
X153595475Y-87272778D01*
X153636859Y-87314162D01*
X153690931Y-87336560D01*
X153720195Y-87339442D01*
X154365737Y-87339442D01*
X154413153Y-87363150D01*
X154436861Y-87410565D01*
X154436861Y-87525459D01*
X154401677Y-87595827D01*
X154400920Y-87596585D01*
X153720195Y-87596585D01*
X153690931Y-87599467D01*
X153636859Y-87621865D01*
X153595475Y-87663249D01*
X153573077Y-87717321D01*
X153573077Y-87775849D01*
X153595475Y-87829921D01*
X153636859Y-87871305D01*
X153690931Y-87893703D01*
X153720195Y-87896585D01*
X154586861Y-87896585D01*
X154616125Y-87893703D01*
X154670197Y-87871305D01*
X154711581Y-87829921D01*
X154733979Y-87775849D01*
X154733979Y-87717321D01*
X154711581Y-87663249D01*
X154706111Y-87657779D01*
X154721025Y-87627951D01*
X154731535Y-87600488D01*
X154731916Y-87595112D01*
X154733979Y-87590134D01*
X154736861Y-87560870D01*
X154736861Y-87375156D01*
X154733979Y-87345892D01*
X154731917Y-87340914D01*
X154731535Y-87335537D01*
X154721025Y-87308074D01*
X154659121Y-87184265D01*
X154656042Y-87179374D01*
X154655272Y-87177063D01*
X154652774Y-87174183D01*
X154643456Y-87159380D01*
X154629251Y-87147060D01*
X154616925Y-87132848D01*
X154602114Y-87123525D01*
X154599241Y-87121033D01*
X154596933Y-87120263D01*
X154592039Y-87117183D01*
X154468229Y-87055278D01*
X154440766Y-87044768D01*
X154435388Y-87044385D01*
X154430411Y-87042324D01*
X154401147Y-87039442D01*
X153720195Y-87039442D01*
X153690931Y-87042324D01*
X153636859Y-87064722D01*
X153595475Y-87106106D01*
X153573077Y-87160178D01*
X152986861Y-87160178D01*
X152986861Y-86260871D01*
X153136861Y-86260871D01*
X153136861Y-86446585D01*
X153139743Y-86475849D01*
X153141804Y-86480826D01*
X153142187Y-86486204D01*
X153152697Y-86513667D01*
X153214602Y-86637477D01*
X153230267Y-86662363D01*
X153274482Y-86700710D01*
X153330005Y-86719217D01*
X153388385Y-86715069D01*
X153440734Y-86688894D01*
X153479081Y-86644679D01*
X153497588Y-86589157D01*
X153493440Y-86530777D01*
X153482930Y-86503313D01*
X153436861Y-86411175D01*
X153436861Y-86296281D01*
X153472043Y-86225915D01*
X153499524Y-86198435D01*
X153569891Y-86163252D01*
X153570195Y-86163252D01*
X153570195Y-86384680D01*
X153573077Y-86413944D01*
X153575138Y-86418921D01*
X153575521Y-86424299D01*
X153586031Y-86451762D01*
X153647936Y-86575572D01*
X153655861Y-86588162D01*
X153657378Y-86591824D01*
X153660760Y-86595945D01*
X153663601Y-86600458D01*
X153666594Y-86603054D01*
X153676033Y-86614555D01*
X153737937Y-86676460D01*
X153749439Y-86685899D01*
X153752037Y-86688895D01*
X153756551Y-86691737D01*
X153760668Y-86695115D01*
X153764324Y-86696629D01*
X153776923Y-86704560D01*
X153900733Y-86766463D01*
X153928196Y-86776973D01*
X153933571Y-86777354D01*
X153938550Y-86779417D01*
X153967814Y-86782299D01*
X154339242Y-86782299D01*
X154368506Y-86779417D01*
X154373484Y-86777354D01*
X154378860Y-86776973D01*
X154406323Y-86766464D01*
X154530133Y-86704560D01*
X154542729Y-86696631D01*
X154546387Y-86695116D01*
X154550504Y-86691736D01*
X154555019Y-86688895D01*
X154557616Y-86685900D01*
X154569118Y-86676461D01*
X154631023Y-86614556D01*
X154640462Y-86603054D01*
X154643457Y-86600457D01*
X154646298Y-86595942D01*
X154649678Y-86591825D01*
X154651193Y-86588167D01*
X154659122Y-86575571D01*
X154721025Y-86451761D01*
X154731535Y-86424298D01*
X154731916Y-86418922D01*
X154733979Y-86413944D01*
X154736861Y-86384680D01*
X154736861Y-86137061D01*
X154733979Y-86107797D01*
X154731917Y-86102819D01*
X154731535Y-86097442D01*
X154721782Y-86071959D01*
X154733979Y-86042516D01*
X154733979Y-85983988D01*
X154711581Y-85929916D01*
X154670197Y-85888532D01*
X154616125Y-85866134D01*
X154586861Y-85863252D01*
X153534480Y-85863252D01*
X153505216Y-85866134D01*
X153500238Y-85868195D01*
X153494861Y-85868578D01*
X153467398Y-85879088D01*
X153343589Y-85940993D01*
X153330993Y-85948921D01*
X153327337Y-85950436D01*
X153323219Y-85953815D01*
X153318703Y-85956658D01*
X153316105Y-85959653D01*
X153304606Y-85969090D01*
X153242701Y-86030994D01*
X153233261Y-86042495D01*
X153230267Y-86045093D01*
X153227425Y-86049607D01*
X153224046Y-86053725D01*
X153222530Y-86057383D01*
X153214602Y-86069979D01*
X153152697Y-86193789D01*
X153142187Y-86221252D01*
X153141804Y-86226629D01*
X153139743Y-86231607D01*
X153136861Y-86260871D01*
X152986861Y-86260871D01*
X152986861Y-83722776D01*
X153570195Y-83722776D01*
X153570195Y-84527538D01*
X153573077Y-84556801D01*
X153595474Y-84610873D01*
X153636860Y-84652259D01*
X153668534Y-84665378D01*
X153690931Y-84674656D01*
X153690932Y-84674656D01*
X153749458Y-84674656D01*
X153749459Y-84674656D01*
X153771856Y-84665378D01*
X153803530Y-84652259D01*
X153826261Y-84633604D01*
X154544080Y-83915785D01*
X154673107Y-83872776D01*
X154737166Y-83872776D01*
X154807530Y-83907958D01*
X154835012Y-83935440D01*
X154870195Y-84005806D01*
X154870195Y-84244509D01*
X154835012Y-84314874D01*
X154790320Y-84359566D01*
X154771665Y-84382297D01*
X154749267Y-84436369D01*
X154749267Y-84494895D01*
X154771663Y-84548967D01*
X154813049Y-84590353D01*
X154867121Y-84612751D01*
X154925647Y-84612751D01*
X154979719Y-84590355D01*
X155002450Y-84571700D01*
X155064355Y-84509796D01*
X155073794Y-84498293D01*
X155076789Y-84495697D01*
X155079630Y-84491182D01*
X155083010Y-84487065D01*
X155084525Y-84483407D01*
X155092454Y-84470811D01*
X155154359Y-84347001D01*
X155164869Y-84319537D01*
X155165250Y-84314161D01*
X155167313Y-84309183D01*
X155170195Y-84279919D01*
X155170195Y-83970395D01*
X155167313Y-83941131D01*
X155165251Y-83936153D01*
X155164869Y-83930776D01*
X155154359Y-83903313D01*
X155092454Y-83779504D01*
X155084526Y-83766910D01*
X155083011Y-83763251D01*
X155079629Y-83759131D01*
X155076789Y-83754618D01*
X155073794Y-83752021D01*
X155064356Y-83740520D01*
X155002451Y-83678615D01*
X154990949Y-83669175D01*
X154988353Y-83666182D01*
X154983839Y-83663340D01*
X154979720Y-83659960D01*
X154976061Y-83658444D01*
X154963468Y-83650517D01*
X154839658Y-83588612D01*
X154812195Y-83578103D01*
X154806820Y-83577721D01*
X154801840Y-83575658D01*
X154772576Y-83572776D01*
X154648766Y-83572776D01*
X154633954Y-83574234D01*
X154630005Y-83573954D01*
X154624810Y-83575135D01*
X154619502Y-83575658D01*
X154615839Y-83577175D01*
X154601332Y-83580474D01*
X154415618Y-83642379D01*
X154388767Y-83654367D01*
X154384696Y-83657896D01*
X154379716Y-83659960D01*
X154356986Y-83678615D01*
X153870195Y-84165406D01*
X153870195Y-83722776D01*
X153867313Y-83693512D01*
X153844915Y-83639440D01*
X153803531Y-83598056D01*
X153749459Y-83575658D01*
X153690931Y-83575658D01*
X153636859Y-83598056D01*
X153595475Y-83639440D01*
X153573077Y-83693512D01*
X153570195Y-83722776D01*
X152986861Y-83722776D01*
X152986861Y-82794205D01*
X153570195Y-82794205D01*
X153570195Y-82918015D01*
X153573077Y-82947279D01*
X153575140Y-82952259D01*
X153575522Y-82957634D01*
X153586031Y-82985097D01*
X153647936Y-83108907D01*
X153655862Y-83121498D01*
X153657378Y-83125158D01*
X153660760Y-83129279D01*
X153663601Y-83133792D01*
X153666594Y-83136387D01*
X153676033Y-83147889D01*
X153737937Y-83209794D01*
X153749439Y-83219233D01*
X153752036Y-83222228D01*
X153756550Y-83225069D01*
X153760668Y-83228449D01*
X153764325Y-83229964D01*
X153776922Y-83237893D01*
X153900732Y-83299798D01*
X153902872Y-83300617D01*
X153903743Y-83301262D01*
X153916007Y-83305643D01*
X153928196Y-83310308D01*
X153929278Y-83310384D01*
X153931434Y-83311155D01*
X154179053Y-83373060D01*
X154184127Y-83373810D01*
X154186169Y-83374656D01*
X154197185Y-83375740D01*
X154208143Y-83377361D01*
X154210330Y-83377035D01*
X154215433Y-83377538D01*
X154524957Y-83377538D01*
X154530060Y-83377035D01*
X154532248Y-83377361D01*
X154543198Y-83375741D01*
X154554221Y-83374656D01*
X154556265Y-83373808D01*
X154561337Y-83373059D01*
X154808956Y-83311155D01*
X154811114Y-83310383D01*
X154812195Y-83310307D01*
X154824361Y-83305651D01*
X154836648Y-83301262D01*
X154837519Y-83300616D01*
X154839658Y-83299798D01*
X154963468Y-83237893D01*
X154976061Y-83229965D01*
X154979720Y-83228450D01*
X154983839Y-83225069D01*
X154988353Y-83222228D01*
X154990949Y-83219234D01*
X155002451Y-83209795D01*
X155064356Y-83147890D01*
X155073794Y-83136388D01*
X155076789Y-83133792D01*
X155079629Y-83129278D01*
X155083011Y-83125159D01*
X155084526Y-83121499D01*
X155092454Y-83108906D01*
X155154359Y-82985097D01*
X155164869Y-82957634D01*
X155165251Y-82952256D01*
X155167313Y-82947279D01*
X155170195Y-82918015D01*
X155170195Y-82794205D01*
X155167313Y-82764941D01*
X155165251Y-82759963D01*
X155164869Y-82754586D01*
X155154359Y-82727123D01*
X155092454Y-82603314D01*
X155084526Y-82590720D01*
X155083011Y-82587061D01*
X155079629Y-82582941D01*
X155076789Y-82578428D01*
X155073794Y-82575831D01*
X155064356Y-82564330D01*
X155002451Y-82502425D01*
X154990949Y-82492985D01*
X154988353Y-82489992D01*
X154983839Y-82487150D01*
X154979720Y-82483770D01*
X154976061Y-82482254D01*
X154963468Y-82474327D01*
X154839658Y-82412422D01*
X154837519Y-82411603D01*
X154836648Y-82410958D01*
X154824355Y-82406566D01*
X154812195Y-82401913D01*
X154811115Y-82401836D01*
X154808957Y-82401065D01*
X154561337Y-82339160D01*
X154556265Y-82338410D01*
X154554221Y-82337563D01*
X154543198Y-82336477D01*
X154532248Y-82334858D01*
X154530060Y-82335183D01*
X154524957Y-82334681D01*
X154215433Y-82334681D01*
X154210329Y-82335183D01*
X154208142Y-82334858D01*
X154197191Y-82336477D01*
X154186169Y-82337563D01*
X154184124Y-82338410D01*
X154179053Y-82339160D01*
X153931434Y-82401065D01*
X153929278Y-82401835D01*
X153928196Y-82401912D01*
X153916015Y-82406573D01*
X153903742Y-82410958D01*
X153902870Y-82411603D01*
X153900732Y-82412422D01*
X153776922Y-82474327D01*
X153764325Y-82482255D01*
X153760668Y-82483771D01*
X153756550Y-82487150D01*
X153752036Y-82489992D01*
X153749439Y-82492986D01*
X153737937Y-82502426D01*
X153676033Y-82564331D01*
X153666594Y-82575832D01*
X153663601Y-82578428D01*
X153660760Y-82582940D01*
X153657378Y-82587062D01*
X153655862Y-82590721D01*
X153647936Y-82603313D01*
X153586031Y-82727123D01*
X153575522Y-82754586D01*
X153575140Y-82759960D01*
X153573077Y-82764941D01*
X153570195Y-82794205D01*
X152986861Y-82794205D01*
X152986861Y-81246586D01*
X153570195Y-81246586D01*
X153570195Y-82051348D01*
X153573077Y-82080611D01*
X153595474Y-82134683D01*
X153636860Y-82176069D01*
X153668534Y-82189188D01*
X153690931Y-82198466D01*
X153690932Y-82198466D01*
X153749458Y-82198466D01*
X153749459Y-82198466D01*
X153771856Y-82189188D01*
X153803530Y-82176069D01*
X153826261Y-82157414D01*
X154544080Y-81439595D01*
X154673107Y-81396586D01*
X154737166Y-81396586D01*
X154807530Y-81431768D01*
X154835012Y-81459250D01*
X154870195Y-81529616D01*
X154870195Y-81768319D01*
X154835012Y-81838684D01*
X154790320Y-81883376D01*
X154771665Y-81906107D01*
X154749267Y-81960179D01*
X154749267Y-82018705D01*
X154771663Y-82072777D01*
X154813049Y-82114163D01*
X154867121Y-82136561D01*
X154925647Y-82136561D01*
X154979719Y-82114165D01*
X155002450Y-82095510D01*
X155064355Y-82033606D01*
X155073794Y-82022103D01*
X155076789Y-82019507D01*
X155079630Y-82014992D01*
X155083010Y-82010875D01*
X155084525Y-82007217D01*
X155092454Y-81994621D01*
X155154359Y-81870811D01*
X155164869Y-81843347D01*
X155165250Y-81837971D01*
X155167313Y-81832993D01*
X155170195Y-81803729D01*
X155170195Y-81494205D01*
X155167313Y-81464941D01*
X155165251Y-81459963D01*
X155164869Y-81454586D01*
X155154359Y-81427123D01*
X155092454Y-81303314D01*
X155084526Y-81290720D01*
X155083011Y-81287061D01*
X155079629Y-81282941D01*
X155076789Y-81278428D01*
X155073794Y-81275831D01*
X155064356Y-81264330D01*
X155002451Y-81202425D01*
X154990949Y-81192985D01*
X154988353Y-81189992D01*
X154983839Y-81187150D01*
X154979720Y-81183770D01*
X154976061Y-81182254D01*
X154963468Y-81174327D01*
X154839658Y-81112422D01*
X154812195Y-81101913D01*
X154806820Y-81101531D01*
X154801840Y-81099468D01*
X154772576Y-81096586D01*
X154648766Y-81096586D01*
X154633954Y-81098044D01*
X154630005Y-81097764D01*
X154624810Y-81098945D01*
X154619502Y-81099468D01*
X154615839Y-81100985D01*
X154601332Y-81104284D01*
X154415618Y-81166189D01*
X154388767Y-81178177D01*
X154384696Y-81181706D01*
X154379716Y-81183770D01*
X154356986Y-81202425D01*
X153870195Y-81689216D01*
X153870195Y-81246586D01*
X153867313Y-81217322D01*
X153844915Y-81163250D01*
X153803531Y-81121866D01*
X153749459Y-81099468D01*
X153690931Y-81099468D01*
X153636859Y-81121866D01*
X153595475Y-81163250D01*
X153573077Y-81217322D01*
X153570195Y-81246586D01*
X152986861Y-81246586D01*
X152986861Y-80256110D01*
X153570195Y-80256110D01*
X153570195Y-80565634D01*
X153573077Y-80594898D01*
X153575138Y-80599875D01*
X153575521Y-80605253D01*
X153586031Y-80632716D01*
X153647936Y-80756526D01*
X153655863Y-80769119D01*
X153657379Y-80772779D01*
X153660760Y-80776898D01*
X153663601Y-80781412D01*
X153666595Y-80784008D01*
X153676034Y-80795510D01*
X153737938Y-80857414D01*
X153760668Y-80876069D01*
X153814741Y-80898465D01*
X153873267Y-80898465D01*
X153927339Y-80876069D01*
X153968725Y-80834683D01*
X153991121Y-80780611D01*
X153991121Y-80722085D01*
X153968725Y-80668012D01*
X153950070Y-80645282D01*
X153905378Y-80600590D01*
X153870195Y-80530224D01*
X153870195Y-80291520D01*
X153905378Y-80221154D01*
X153932858Y-80193673D01*
X154003224Y-80158491D01*
X154241928Y-80158491D01*
X154312292Y-80193673D01*
X154339774Y-80221155D01*
X154374957Y-80291521D01*
X154374957Y-80530224D01*
X154339774Y-80600589D01*
X154295082Y-80645281D01*
X154276427Y-80668012D01*
X154273535Y-80674991D01*
X154268754Y-80680836D01*
X154262420Y-80701824D01*
X154254029Y-80722084D01*
X154254029Y-80729636D01*
X154251847Y-80736868D01*
X154254029Y-80758686D01*
X154254029Y-80780610D01*
X154256919Y-80787588D01*
X154257671Y-80795105D01*
X154268033Y-80814422D01*
X154276425Y-80834682D01*
X154281767Y-80840024D01*
X154285338Y-80846680D01*
X154302305Y-80860562D01*
X154317811Y-80876068D01*
X154324790Y-80878959D01*
X154330635Y-80883741D01*
X154351623Y-80890074D01*
X154371883Y-80898466D01*
X154379436Y-80898466D01*
X154386667Y-80900648D01*
X154416072Y-80900604D01*
X155035120Y-80838700D01*
X155045785Y-80836562D01*
X155049459Y-80836562D01*
X155052904Y-80835134D01*
X155063952Y-80832920D01*
X155083273Y-80822555D01*
X155103531Y-80814164D01*
X155108871Y-80808823D01*
X155115527Y-80805253D01*
X155129410Y-80788284D01*
X155144915Y-80772780D01*
X155147805Y-80765802D01*
X155152588Y-80759957D01*
X155158920Y-80738968D01*
X155167313Y-80718708D01*
X155168417Y-80707491D01*
X155169494Y-80703924D01*
X155169128Y-80700270D01*
X155170195Y-80689444D01*
X155170195Y-80070396D01*
X155167313Y-80041132D01*
X155144915Y-79987060D01*
X155103531Y-79945676D01*
X155049459Y-79923278D01*
X154990931Y-79923278D01*
X154936859Y-79945676D01*
X154895475Y-79987060D01*
X154873077Y-80041132D01*
X154870195Y-80070396D01*
X154870195Y-80553695D01*
X154674202Y-80573294D01*
X154674957Y-80565634D01*
X154674957Y-80256110D01*
X154672075Y-80226846D01*
X154670013Y-80221868D01*
X154669631Y-80216491D01*
X154659121Y-80189028D01*
X154597216Y-80065219D01*
X154589288Y-80052625D01*
X154587773Y-80048966D01*
X154584391Y-80044846D01*
X154581551Y-80040333D01*
X154578556Y-80037736D01*
X154569118Y-80026235D01*
X154507213Y-79964330D01*
X154495711Y-79954890D01*
X154493115Y-79951897D01*
X154488601Y-79949055D01*
X154484482Y-79945675D01*
X154480823Y-79944159D01*
X154468230Y-79936232D01*
X154344420Y-79874327D01*
X154316957Y-79863818D01*
X154311582Y-79863436D01*
X154306602Y-79861373D01*
X154277338Y-79858491D01*
X153967814Y-79858491D01*
X153938550Y-79861373D01*
X153933571Y-79863435D01*
X153928196Y-79863817D01*
X153900732Y-79874327D01*
X153776922Y-79936232D01*
X153764325Y-79944160D01*
X153760668Y-79945676D01*
X153756550Y-79949055D01*
X153752036Y-79951897D01*
X153749439Y-79954891D01*
X153737937Y-79964331D01*
X153676033Y-80026236D01*
X153666594Y-80037737D01*
X153663601Y-80040333D01*
X153660760Y-80044845D01*
X153657378Y-80048967D01*
X153655862Y-80052626D01*
X153647936Y-80065218D01*
X153586031Y-80189028D01*
X153575522Y-80216491D01*
X153575140Y-80221865D01*
X153573077Y-80226846D01*
X153570195Y-80256110D01*
X152986861Y-80256110D01*
X152986861Y-79708491D01*
X155320195Y-79708491D01*
X155320195Y-98756108D01*
G37*
G36*
X156798960Y-95372910D02*
G01*
X156835964Y-95409914D01*
X156880671Y-95499327D01*
X156880671Y-95642792D01*
X156835963Y-95732206D01*
X156798958Y-95769211D01*
X156709547Y-95813917D01*
X156351795Y-95813917D01*
X156262382Y-95769211D01*
X156225378Y-95732207D01*
X156180671Y-95642792D01*
X156180671Y-95499327D01*
X156225378Y-95409913D01*
X156262382Y-95372909D01*
X156351795Y-95328203D01*
X156709547Y-95328203D01*
X156798960Y-95372910D01*
G37*
G36*
X156452100Y-94357078D02*
G01*
X156418867Y-94423542D01*
X156352404Y-94456774D01*
X156280367Y-94456774D01*
X156213903Y-94423542D01*
X156180671Y-94357078D01*
X156180671Y-94070756D01*
X156194805Y-94042489D01*
X156452100Y-94042489D01*
X156452100Y-94357078D01*
G37*
G36*
X156880671Y-88999327D02*
G01*
X156880671Y-89214220D01*
X156835963Y-89303634D01*
X156798958Y-89340639D01*
X156709547Y-89385345D01*
X156351795Y-89385345D01*
X156262382Y-89340639D01*
X156225378Y-89303635D01*
X156180671Y-89214220D01*
X156180671Y-88999327D01*
X156194805Y-88971060D01*
X156866537Y-88971060D01*
X156880671Y-88999327D01*
G37*
G36*
X156847438Y-87647148D02*
G01*
X156880671Y-87713612D01*
X156880671Y-87928506D01*
X156847438Y-87994970D01*
X156780975Y-88028202D01*
X156713641Y-88028202D01*
X156795087Y-87620972D01*
X156847438Y-87647148D01*
G37*
G36*
X157917589Y-97780584D02*
G01*
X155714004Y-97780584D01*
X155714004Y-96821060D01*
X155880671Y-96821060D01*
X155880671Y-96963917D01*
X155882129Y-96978728D01*
X155881849Y-96982678D01*
X155883030Y-96987872D01*
X155883553Y-96993181D01*
X155885070Y-96996843D01*
X155888369Y-97011351D01*
X155959797Y-97225637D01*
X155971786Y-97252488D01*
X155975316Y-97256558D01*
X155977379Y-97261538D01*
X155996034Y-97284269D01*
X156138891Y-97427126D01*
X156150393Y-97436566D01*
X156152989Y-97439559D01*
X156157498Y-97442397D01*
X156161621Y-97445781D01*
X156165283Y-97447297D01*
X156177875Y-97455224D01*
X156320731Y-97526653D01*
X156322873Y-97527472D01*
X156323743Y-97528117D01*
X156336014Y-97532501D01*
X156348195Y-97537162D01*
X156349275Y-97537238D01*
X156351434Y-97538010D01*
X156637148Y-97609438D01*
X156642219Y-97610187D01*
X156644264Y-97611035D01*
X156655286Y-97612120D01*
X156666237Y-97613740D01*
X156668424Y-97613414D01*
X156673528Y-97613917D01*
X156887814Y-97613917D01*
X156892917Y-97613414D01*
X156895105Y-97613740D01*
X156906055Y-97612120D01*
X156917078Y-97611035D01*
X156919122Y-97610187D01*
X156924194Y-97609438D01*
X157209908Y-97538010D01*
X157212066Y-97537238D01*
X157213147Y-97537162D01*
X157225321Y-97532503D01*
X157237599Y-97528117D01*
X157238469Y-97527472D01*
X157240610Y-97526653D01*
X157383467Y-97455224D01*
X157396060Y-97447296D01*
X157399720Y-97445781D01*
X157403839Y-97442399D01*
X157408353Y-97439559D01*
X157410949Y-97436565D01*
X157422451Y-97427126D01*
X157565308Y-97284269D01*
X157583963Y-97261539D01*
X157586026Y-97256557D01*
X157589556Y-97252488D01*
X157601544Y-97225637D01*
X157672973Y-97011352D01*
X157676272Y-96996842D01*
X157677789Y-96993181D01*
X157678311Y-96987872D01*
X157679493Y-96982678D01*
X157679212Y-96978728D01*
X157680671Y-96963917D01*
X157680671Y-96749632D01*
X157677789Y-96720368D01*
X157675727Y-96715390D01*
X157675345Y-96710013D01*
X157664835Y-96682550D01*
X157593406Y-96539692D01*
X157577741Y-96514806D01*
X157533526Y-96476460D01*
X157478004Y-96457952D01*
X157419623Y-96462100D01*
X157367274Y-96488275D01*
X157328928Y-96532490D01*
X157310420Y-96588012D01*
X157314568Y-96646393D01*
X157325078Y-96673856D01*
X157380671Y-96785042D01*
X157380671Y-96939574D01*
X157328137Y-97097175D01*
X157227531Y-97197781D01*
X157121171Y-97250962D01*
X156869350Y-97313917D01*
X156691992Y-97313917D01*
X156440170Y-97250961D01*
X156333811Y-97197782D01*
X156233204Y-97097175D01*
X156180671Y-96939576D01*
X156180671Y-96845400D01*
X156233204Y-96687801D01*
X156235660Y-96685346D01*
X156523528Y-96685346D01*
X156523528Y-96821060D01*
X156526410Y-96850324D01*
X156548808Y-96904396D01*
X156590192Y-96945780D01*
X156644264Y-96968178D01*
X156702792Y-96968178D01*
X156756864Y-96945780D01*
X156798248Y-96904396D01*
X156820646Y-96850324D01*
X156823528Y-96821060D01*
X156823528Y-96535346D01*
X156820646Y-96506082D01*
X156798248Y-96452010D01*
X156756864Y-96410626D01*
X156702792Y-96388228D01*
X156673528Y-96385346D01*
X156173528Y-96385346D01*
X156144264Y-96388228D01*
X156112589Y-96401348D01*
X156090192Y-96410625D01*
X156067462Y-96429280D01*
X155996034Y-96500708D01*
X155977379Y-96523439D01*
X155975316Y-96528418D01*
X155971786Y-96532489D01*
X155959797Y-96559340D01*
X155888369Y-96773626D01*
X155885070Y-96788133D01*
X155883553Y-96791796D01*
X155883030Y-96797104D01*
X155881849Y-96802299D01*
X155882129Y-96806248D01*
X155880671Y-96821060D01*
X155714004Y-96821060D01*
X155714004Y-95463917D01*
X155880671Y-95463917D01*
X155880671Y-95678203D01*
X155883553Y-95707467D01*
X155885616Y-95712447D01*
X155885998Y-95717822D01*
X155896507Y-95745285D01*
X155967936Y-95888142D01*
X155975864Y-95900737D01*
X155977379Y-95904394D01*
X155980758Y-95908511D01*
X155983601Y-95913028D01*
X155986595Y-95915625D01*
X155996033Y-95927125D01*
X156067461Y-95998554D01*
X156078966Y-96007996D01*
X156081561Y-96010988D01*
X156086071Y-96013827D01*
X156090192Y-96017209D01*
X156093851Y-96018724D01*
X156106446Y-96026653D01*
X156249304Y-96098081D01*
X156276767Y-96108591D01*
X156282142Y-96108972D01*
X156287121Y-96111035D01*
X156316385Y-96113917D01*
X156744957Y-96113917D01*
X156774221Y-96111035D01*
X156779199Y-96108972D01*
X156784575Y-96108591D01*
X156812039Y-96098081D01*
X156954896Y-96026653D01*
X156967491Y-96018724D01*
X156971150Y-96017209D01*
X156975267Y-96013829D01*
X156979782Y-96010988D01*
X156982378Y-96007993D01*
X156993881Y-95998554D01*
X157065309Y-95927125D01*
X157074747Y-95915624D01*
X157077741Y-95913028D01*
X157080581Y-95908515D01*
X157083963Y-95904395D01*
X157085478Y-95900735D01*
X157093406Y-95888142D01*
X157164835Y-95745286D01*
X157175344Y-95717822D01*
X157175725Y-95712447D01*
X157177789Y-95707467D01*
X157180671Y-95678203D01*
X157180671Y-95463917D01*
X157177789Y-95434653D01*
X157175725Y-95429672D01*
X157175344Y-95424298D01*
X157164835Y-95396834D01*
X157093406Y-95253978D01*
X157085479Y-95241386D01*
X157083963Y-95237724D01*
X157080579Y-95233601D01*
X157077741Y-95229092D01*
X157074748Y-95226496D01*
X157065308Y-95214994D01*
X156993880Y-95143566D01*
X156982378Y-95134126D01*
X156979782Y-95131133D01*
X156975268Y-95128292D01*
X156971149Y-95124911D01*
X156967489Y-95123395D01*
X156954896Y-95115468D01*
X156812039Y-95044039D01*
X156784576Y-95033530D01*
X156779201Y-95033148D01*
X156774221Y-95031085D01*
X156744957Y-95028203D01*
X156316385Y-95028203D01*
X156287121Y-95031085D01*
X156282140Y-95033148D01*
X156276766Y-95033530D01*
X156249302Y-95044039D01*
X156106446Y-95115468D01*
X156093854Y-95123394D01*
X156090192Y-95124911D01*
X156086069Y-95128294D01*
X156081560Y-95131133D01*
X156078964Y-95134125D01*
X156067462Y-95143566D01*
X155996034Y-95214994D01*
X155986594Y-95226495D01*
X155983601Y-95229092D01*
X155980760Y-95233605D01*
X155977379Y-95237725D01*
X155975863Y-95241384D01*
X155967936Y-95253978D01*
X155896507Y-95396835D01*
X155885998Y-95424298D01*
X155885616Y-95429672D01*
X155883553Y-95434653D01*
X155880671Y-95463917D01*
X155714004Y-95463917D01*
X155714004Y-94035346D01*
X155880671Y-94035346D01*
X155880671Y-94392489D01*
X155883553Y-94421753D01*
X155885616Y-94426733D01*
X155885998Y-94432108D01*
X155896507Y-94459571D01*
X155967936Y-94602428D01*
X155971016Y-94607322D01*
X155971786Y-94609630D01*
X155974278Y-94612503D01*
X155983601Y-94627314D01*
X155997812Y-94639638D01*
X156010133Y-94653845D01*
X156024940Y-94663166D01*
X156027816Y-94665660D01*
X156030124Y-94666429D01*
X156035018Y-94669510D01*
X156177876Y-94740938D01*
X156205339Y-94751448D01*
X156210714Y-94751829D01*
X156215693Y-94753892D01*
X156244957Y-94756774D01*
X156387814Y-94756774D01*
X156417078Y-94753892D01*
X156422056Y-94751829D01*
X156427432Y-94751448D01*
X156454896Y-94740938D01*
X156597753Y-94669510D01*
X156602643Y-94666431D01*
X156604955Y-94665661D01*
X156607833Y-94663164D01*
X156622639Y-94653845D01*
X156634960Y-94639637D01*
X156649170Y-94627314D01*
X156658492Y-94612504D01*
X156660985Y-94609630D01*
X156661754Y-94607322D01*
X156664835Y-94602428D01*
X156736264Y-94459572D01*
X156746773Y-94432108D01*
X156747154Y-94426733D01*
X156749218Y-94421753D01*
X156752100Y-94392489D01*
X156752100Y-94070755D01*
X156766233Y-94042489D01*
X156780975Y-94042489D01*
X156847438Y-94075720D01*
X156880671Y-94142184D01*
X156880671Y-94357078D01*
X156825078Y-94468264D01*
X156814569Y-94495727D01*
X156810420Y-94554107D01*
X156828927Y-94609630D01*
X156867274Y-94653845D01*
X156919623Y-94680019D01*
X156978003Y-94684168D01*
X157033526Y-94665661D01*
X157077741Y-94627314D01*
X157093406Y-94602428D01*
X157164835Y-94459572D01*
X157175344Y-94432108D01*
X157175725Y-94426733D01*
X157177789Y-94421753D01*
X157180671Y-94392489D01*
X157180671Y-94106774D01*
X157177789Y-94077510D01*
X157175725Y-94072529D01*
X157175344Y-94067155D01*
X157164835Y-94039691D01*
X157093406Y-93896835D01*
X157090325Y-93891940D01*
X157089556Y-93889633D01*
X157087063Y-93886758D01*
X157077741Y-93871949D01*
X157063531Y-93859625D01*
X157051210Y-93845418D01*
X157036404Y-93836098D01*
X157033526Y-93833602D01*
X157031214Y-93832831D01*
X157026324Y-93829753D01*
X156883467Y-93758325D01*
X156856003Y-93747815D01*
X156850627Y-93747433D01*
X156845649Y-93745371D01*
X156816385Y-93742489D01*
X156030671Y-93742489D01*
X156001407Y-93745371D01*
X155947335Y-93767769D01*
X155905951Y-93809153D01*
X155883553Y-93863225D01*
X155883553Y-93921753D01*
X155899959Y-93961359D01*
X155896507Y-93968264D01*
X155885998Y-93995727D01*
X155885616Y-94001101D01*
X155883553Y-94006082D01*
X155880671Y-94035346D01*
X155714004Y-94035346D01*
X155714004Y-92945156D01*
X155881849Y-92945156D01*
X155885998Y-93003536D01*
X155896507Y-93030999D01*
X155967936Y-93173856D01*
X155971014Y-93178746D01*
X155971785Y-93181058D01*
X155974281Y-93183936D01*
X155983601Y-93198742D01*
X155997808Y-93211063D01*
X156010132Y-93225273D01*
X156024941Y-93234595D01*
X156027816Y-93237088D01*
X156030123Y-93237857D01*
X156035018Y-93240938D01*
X156177874Y-93312367D01*
X156205338Y-93322876D01*
X156210712Y-93323257D01*
X156215693Y-93325321D01*
X156244957Y-93328203D01*
X157530671Y-93328203D01*
X157559935Y-93325321D01*
X157614007Y-93302923D01*
X157655391Y-93261539D01*
X157677789Y-93207467D01*
X157677789Y-93148939D01*
X157655391Y-93094867D01*
X157614007Y-93053483D01*
X157559935Y-93031085D01*
X157530671Y-93028203D01*
X156280367Y-93028203D01*
X156213903Y-92994971D01*
X156164835Y-92896835D01*
X156149170Y-92871949D01*
X156104955Y-92833602D01*
X156049432Y-92815095D01*
X155991052Y-92819244D01*
X155938703Y-92845418D01*
X155900356Y-92889633D01*
X155881849Y-92945156D01*
X155714004Y-92945156D01*
X155714004Y-92363225D01*
X155883553Y-92363225D01*
X155883553Y-92421753D01*
X155905951Y-92475825D01*
X155947335Y-92517209D01*
X156001407Y-92539607D01*
X156030671Y-92542489D01*
X156880671Y-92542489D01*
X156880671Y-92606774D01*
X156883553Y-92636038D01*
X156905951Y-92690110D01*
X156947335Y-92731494D01*
X157001407Y-92753892D01*
X157059935Y-92753892D01*
X157114007Y-92731494D01*
X157155391Y-92690110D01*
X157177789Y-92636038D01*
X157180671Y-92606774D01*
X157180671Y-92542489D01*
X157316385Y-92542489D01*
X157345649Y-92539607D01*
X157350629Y-92537543D01*
X157356004Y-92537162D01*
X157383467Y-92526653D01*
X157526324Y-92455224D01*
X157531214Y-92452145D01*
X157533526Y-92451375D01*
X157536404Y-92448878D01*
X157551210Y-92439559D01*
X157563531Y-92425351D01*
X157577741Y-92413028D01*
X157587063Y-92398218D01*
X157589556Y-92395344D01*
X157590325Y-92393036D01*
X157593406Y-92388142D01*
X157664835Y-92245286D01*
X157675344Y-92217822D01*
X157675725Y-92212447D01*
X157677789Y-92207467D01*
X157680671Y-92178203D01*
X157680671Y-92035346D01*
X157677789Y-92006082D01*
X157655391Y-91952010D01*
X157614007Y-91910626D01*
X157559935Y-91888228D01*
X157501407Y-91888228D01*
X157447335Y-91910626D01*
X157405951Y-91952010D01*
X157383553Y-92006082D01*
X157380671Y-92035346D01*
X157380671Y-92142792D01*
X157347439Y-92209256D01*
X157280975Y-92242489D01*
X157180671Y-92242489D01*
X157180671Y-92035346D01*
X157177789Y-92006082D01*
X157155391Y-91952010D01*
X157114007Y-91910626D01*
X157059935Y-91888228D01*
X157001407Y-91888228D01*
X156947335Y-91910626D01*
X156905951Y-91952010D01*
X156883553Y-92006082D01*
X156880671Y-92035346D01*
X156880671Y-92242489D01*
X156030671Y-92242489D01*
X156001407Y-92245371D01*
X155947335Y-92267769D01*
X155905951Y-92309153D01*
X155883553Y-92363225D01*
X155714004Y-92363225D01*
X155714004Y-91506082D01*
X155883553Y-91506082D01*
X155883553Y-91564610D01*
X155905951Y-91618682D01*
X155947335Y-91660066D01*
X156001407Y-91682464D01*
X156030671Y-91685346D01*
X157030671Y-91685346D01*
X157059935Y-91682464D01*
X157114007Y-91660066D01*
X157155391Y-91618682D01*
X157177789Y-91564610D01*
X157177789Y-91506082D01*
X157240696Y-91506082D01*
X157240696Y-91564610D01*
X157242922Y-91569983D01*
X157263093Y-91618681D01*
X157281748Y-91641412D01*
X157353176Y-91712840D01*
X157375906Y-91731495D01*
X157398303Y-91740771D01*
X157429978Y-91753892D01*
X157488504Y-91753892D01*
X157520180Y-91740771D01*
X157542577Y-91731495D01*
X157542581Y-91731490D01*
X157565307Y-91712841D01*
X157636736Y-91641413D01*
X157655391Y-91618682D01*
X157655392Y-91618681D01*
X157675563Y-91569983D01*
X157677789Y-91564610D01*
X157677789Y-91506082D01*
X157655392Y-91452012D01*
X157655392Y-91452011D01*
X157636737Y-91429280D01*
X157565308Y-91357851D01*
X157542577Y-91339196D01*
X157488505Y-91316799D01*
X157429979Y-91316799D01*
X157375907Y-91339196D01*
X157375906Y-91339197D01*
X157353175Y-91357852D01*
X157281747Y-91429281D01*
X157263097Y-91452006D01*
X157263093Y-91452011D01*
X157263093Y-91452012D01*
X157240696Y-91506082D01*
X157177789Y-91506082D01*
X157155391Y-91452010D01*
X157114007Y-91410626D01*
X157059935Y-91388228D01*
X157030671Y-91385346D01*
X156030671Y-91385346D01*
X156001407Y-91388228D01*
X155947335Y-91410626D01*
X155905951Y-91452010D01*
X155883553Y-91506082D01*
X155714004Y-91506082D01*
X155714004Y-90148939D01*
X155883553Y-90148939D01*
X155883553Y-90207467D01*
X155905951Y-90261539D01*
X155947335Y-90302923D01*
X156001407Y-90325321D01*
X156030671Y-90328203D01*
X156780975Y-90328203D01*
X156847438Y-90361434D01*
X156880671Y-90427898D01*
X156880671Y-90571363D01*
X156835963Y-90660777D01*
X156825681Y-90671060D01*
X156030671Y-90671060D01*
X156001407Y-90673942D01*
X155947335Y-90696340D01*
X155905951Y-90737724D01*
X155883553Y-90791796D01*
X155883553Y-90850324D01*
X155905951Y-90904396D01*
X155947335Y-90945780D01*
X156001407Y-90968178D01*
X156030671Y-90971060D01*
X157030671Y-90971060D01*
X157059935Y-90968178D01*
X157114007Y-90945780D01*
X157155391Y-90904396D01*
X157177789Y-90850324D01*
X157177789Y-90791796D01*
X157155391Y-90737724D01*
X157140397Y-90722730D01*
X157164835Y-90673857D01*
X157175344Y-90646393D01*
X157175725Y-90641018D01*
X157177789Y-90636038D01*
X157180671Y-90606774D01*
X157180671Y-90392488D01*
X157177789Y-90363224D01*
X157175725Y-90358243D01*
X157175344Y-90352869D01*
X157164835Y-90325405D01*
X157093406Y-90182549D01*
X157090325Y-90177654D01*
X157089556Y-90175347D01*
X157087063Y-90172472D01*
X157077741Y-90157663D01*
X157063531Y-90145339D01*
X157051210Y-90131132D01*
X157036404Y-90121812D01*
X157033526Y-90119316D01*
X157031214Y-90118545D01*
X157026324Y-90115467D01*
X156883467Y-90044039D01*
X156856003Y-90033529D01*
X156850627Y-90033147D01*
X156845649Y-90031085D01*
X156816385Y-90028203D01*
X156030671Y-90028203D01*
X156001407Y-90031085D01*
X155947335Y-90053483D01*
X155905951Y-90094867D01*
X155883553Y-90148939D01*
X155714004Y-90148939D01*
X155714004Y-88963917D01*
X155880671Y-88963917D01*
X155880671Y-89249631D01*
X155883553Y-89278895D01*
X155885616Y-89283875D01*
X155885998Y-89289250D01*
X155896507Y-89316713D01*
X155967936Y-89459570D01*
X155975864Y-89472165D01*
X155977379Y-89475822D01*
X155980758Y-89479939D01*
X155983601Y-89484456D01*
X155986595Y-89487053D01*
X155996033Y-89498553D01*
X156067461Y-89569982D01*
X156078966Y-89579424D01*
X156081561Y-89582416D01*
X156086071Y-89585255D01*
X156090192Y-89588637D01*
X156093851Y-89590152D01*
X156106446Y-89598081D01*
X156249304Y-89669509D01*
X156276767Y-89680019D01*
X156282142Y-89680400D01*
X156287121Y-89682463D01*
X156316385Y-89685345D01*
X156744957Y-89685345D01*
X156774221Y-89682463D01*
X156779199Y-89680400D01*
X156784575Y-89680019D01*
X156812039Y-89669509D01*
X156954896Y-89598081D01*
X156967491Y-89590152D01*
X156971150Y-89588637D01*
X156975267Y-89585257D01*
X156979782Y-89582416D01*
X156982378Y-89579421D01*
X156993881Y-89569982D01*
X157065309Y-89498553D01*
X157074747Y-89487052D01*
X157077741Y-89484456D01*
X157080581Y-89479943D01*
X157083963Y-89475823D01*
X157085478Y-89472163D01*
X157093406Y-89459570D01*
X157164835Y-89316714D01*
X157175344Y-89289250D01*
X157175725Y-89283875D01*
X157177789Y-89278895D01*
X157180671Y-89249631D01*
X157180671Y-88971060D01*
X157530671Y-88971060D01*
X157559935Y-88968178D01*
X157614007Y-88945780D01*
X157655391Y-88904396D01*
X157677789Y-88850324D01*
X157677789Y-88791796D01*
X157655391Y-88737724D01*
X157614007Y-88696340D01*
X157559935Y-88673942D01*
X157530671Y-88671060D01*
X156030671Y-88671060D01*
X156001407Y-88673942D01*
X155947335Y-88696340D01*
X155905951Y-88737724D01*
X155883553Y-88791796D01*
X155883553Y-88850324D01*
X155899959Y-88889930D01*
X155896507Y-88896835D01*
X155885998Y-88924298D01*
X155885616Y-88929672D01*
X155883553Y-88934653D01*
X155880671Y-88963917D01*
X155714004Y-88963917D01*
X155714004Y-87678202D01*
X155880671Y-87678202D01*
X155880671Y-87963917D01*
X155883553Y-87993181D01*
X155885616Y-87998161D01*
X155885998Y-88003536D01*
X155896507Y-88030999D01*
X155967936Y-88173856D01*
X155971016Y-88178750D01*
X155971786Y-88181058D01*
X155974278Y-88183931D01*
X155983601Y-88198742D01*
X155997812Y-88211066D01*
X156010133Y-88225273D01*
X156024940Y-88234594D01*
X156027816Y-88237088D01*
X156030124Y-88237857D01*
X156035018Y-88240938D01*
X156177876Y-88312366D01*
X156205339Y-88322876D01*
X156210714Y-88323257D01*
X156215693Y-88325320D01*
X156244957Y-88328202D01*
X156530514Y-88328202D01*
X156816385Y-88328202D01*
X156845649Y-88325320D01*
X156850627Y-88323257D01*
X156856003Y-88322876D01*
X156883467Y-88312366D01*
X157026324Y-88240938D01*
X157031214Y-88237859D01*
X157033526Y-88237089D01*
X157036404Y-88234592D01*
X157051210Y-88225273D01*
X157063531Y-88211065D01*
X157077741Y-88198742D01*
X157087063Y-88183932D01*
X157089556Y-88181058D01*
X157090325Y-88178750D01*
X157093406Y-88173856D01*
X157164835Y-88031000D01*
X157175344Y-88003536D01*
X157175725Y-87998161D01*
X157177789Y-87993181D01*
X157180671Y-87963917D01*
X157180671Y-87678202D01*
X157177789Y-87648938D01*
X157175725Y-87643957D01*
X157175344Y-87638583D01*
X157164835Y-87611119D01*
X157093406Y-87468263D01*
X157090325Y-87463368D01*
X157089556Y-87461061D01*
X157087063Y-87458186D01*
X157077741Y-87443377D01*
X157063531Y-87431053D01*
X157051210Y-87416846D01*
X157036404Y-87407526D01*
X157033526Y-87405030D01*
X157031214Y-87404259D01*
X157026324Y-87401181D01*
X156883467Y-87329753D01*
X156856003Y-87319243D01*
X156850627Y-87318861D01*
X156845649Y-87316799D01*
X156816385Y-87313917D01*
X156673690Y-87313917D01*
X156673685Y-87313916D01*
X156673680Y-87313917D01*
X156673528Y-87313917D01*
X156644264Y-87316799D01*
X156630687Y-87322422D01*
X156616270Y-87325275D01*
X156603911Y-87333514D01*
X156590192Y-87339197D01*
X156579802Y-87349587D01*
X156567574Y-87357739D01*
X156559309Y-87370079D01*
X156548808Y-87380581D01*
X156543184Y-87394157D01*
X156535006Y-87406369D01*
X156526441Y-87434499D01*
X156407701Y-88028202D01*
X156280367Y-88028202D01*
X156213903Y-87994970D01*
X156180671Y-87928506D01*
X156180671Y-87713612D01*
X156236264Y-87602428D01*
X156246773Y-87574964D01*
X156250922Y-87516584D01*
X156232415Y-87461062D01*
X156194068Y-87416846D01*
X156141719Y-87390672D01*
X156083339Y-87386523D01*
X156027816Y-87405031D01*
X155983601Y-87443377D01*
X155967936Y-87468263D01*
X155896507Y-87611120D01*
X155885998Y-87638583D01*
X155885616Y-87643957D01*
X155883553Y-87648938D01*
X155880671Y-87678202D01*
X155714004Y-87678202D01*
X155714004Y-86791796D01*
X155883553Y-86791796D01*
X155883553Y-86850324D01*
X155905951Y-86904396D01*
X155947335Y-86945780D01*
X156001407Y-86968178D01*
X156030671Y-86971060D01*
X157030671Y-86971060D01*
X157059935Y-86968178D01*
X157114007Y-86945780D01*
X157155391Y-86904396D01*
X157177789Y-86850324D01*
X157177789Y-86791796D01*
X157155391Y-86737724D01*
X157116588Y-86698921D01*
X157164835Y-86602427D01*
X157175345Y-86574964D01*
X157175727Y-86569586D01*
X157177789Y-86564609D01*
X157180671Y-86535345D01*
X157180671Y-86392488D01*
X157177789Y-86363224D01*
X157155391Y-86309152D01*
X157114007Y-86267768D01*
X157059935Y-86245370D01*
X157001407Y-86245370D01*
X156947335Y-86267768D01*
X156905951Y-86309152D01*
X156883553Y-86363224D01*
X156880671Y-86392488D01*
X156880671Y-86499935D01*
X156835964Y-86589349D01*
X156798960Y-86626352D01*
X156709547Y-86671060D01*
X156030671Y-86671060D01*
X156001407Y-86673942D01*
X155947335Y-86696340D01*
X155905951Y-86737724D01*
X155883553Y-86791796D01*
X155714004Y-86791796D01*
X155714004Y-84720368D01*
X155883553Y-84720368D01*
X155883553Y-84778896D01*
X155905951Y-84832968D01*
X155947335Y-84874352D01*
X156001407Y-84896750D01*
X156030671Y-84899632D01*
X157030671Y-84899632D01*
X157059935Y-84896750D01*
X157114007Y-84874352D01*
X157155391Y-84832968D01*
X157177789Y-84778896D01*
X157177789Y-84720368D01*
X157155391Y-84666296D01*
X157116588Y-84627493D01*
X157164835Y-84530999D01*
X157175345Y-84503536D01*
X157175727Y-84498158D01*
X157177789Y-84493181D01*
X157180671Y-84463917D01*
X157180671Y-84321060D01*
X157177789Y-84291796D01*
X157155391Y-84237724D01*
X157114007Y-84196340D01*
X157059935Y-84173942D01*
X157001407Y-84173942D01*
X156947335Y-84196340D01*
X156905951Y-84237724D01*
X156883553Y-84291796D01*
X156880671Y-84321060D01*
X156880671Y-84428507D01*
X156835964Y-84517921D01*
X156798960Y-84554924D01*
X156709547Y-84599632D01*
X156030671Y-84599632D01*
X156001407Y-84602514D01*
X155947335Y-84624912D01*
X155905951Y-84666296D01*
X155883553Y-84720368D01*
X155714004Y-84720368D01*
X155714004Y-83035346D01*
X155880671Y-83035346D01*
X155880671Y-83892489D01*
X155883553Y-83921753D01*
X155905951Y-83975825D01*
X155947335Y-84017209D01*
X156001407Y-84039607D01*
X156059935Y-84039607D01*
X156114007Y-84017209D01*
X156155391Y-83975825D01*
X156177789Y-83921753D01*
X156180671Y-83892489D01*
X156180671Y-83613918D01*
X157097110Y-83613918D01*
X157067462Y-83643566D01*
X157058022Y-83655067D01*
X157055029Y-83657664D01*
X157052188Y-83662177D01*
X157048807Y-83666297D01*
X157047291Y-83669956D01*
X157039364Y-83682550D01*
X156967936Y-83825407D01*
X156957426Y-83852871D01*
X156953278Y-83911251D01*
X156971786Y-83966773D01*
X157010133Y-84010988D01*
X157062482Y-84037163D01*
X157120862Y-84041311D01*
X157176384Y-84022803D01*
X157220599Y-83984456D01*
X157236264Y-83959571D01*
X157296805Y-83838486D01*
X157411947Y-83723344D01*
X157613876Y-83588725D01*
X157613956Y-83588658D01*
X157614007Y-83588638D01*
X157614118Y-83588526D01*
X157636627Y-83570095D01*
X157644892Y-83557752D01*
X157655391Y-83547254D01*
X157661014Y-83533677D01*
X157669193Y-83521465D01*
X157672105Y-83506903D01*
X157677789Y-83493182D01*
X157677789Y-83478485D01*
X157680671Y-83464075D01*
X157677789Y-83449505D01*
X157677789Y-83434654D01*
X157672166Y-83421079D01*
X157669314Y-83406661D01*
X157661073Y-83394300D01*
X157655391Y-83380582D01*
X157645002Y-83370193D01*
X157636848Y-83357962D01*
X157624505Y-83349696D01*
X157614007Y-83339198D01*
X157600430Y-83333574D01*
X157588218Y-83325396D01*
X157573655Y-83322483D01*
X157559935Y-83316800D01*
X157530982Y-83313948D01*
X157530829Y-83313918D01*
X157530776Y-83313928D01*
X157530671Y-83313918D01*
X156180671Y-83313918D01*
X156180671Y-83035346D01*
X156177789Y-83006082D01*
X156155391Y-82952010D01*
X156114007Y-82910626D01*
X156059935Y-82888228D01*
X156001407Y-82888228D01*
X155947335Y-82910626D01*
X155905951Y-82952010D01*
X155883553Y-83006082D01*
X155880671Y-83035346D01*
X155714004Y-83035346D01*
X155714004Y-82363226D01*
X155883553Y-82363226D01*
X155883553Y-82363227D01*
X155883553Y-82363228D01*
X155883553Y-82421754D01*
X155885779Y-82427127D01*
X155905950Y-82475825D01*
X155905951Y-82475826D01*
X155924606Y-82498557D01*
X155996035Y-82569985D01*
X156018764Y-82588638D01*
X156018765Y-82588639D01*
X156072837Y-82611036D01*
X156072838Y-82611036D01*
X156131363Y-82611036D01*
X156185435Y-82588639D01*
X156208166Y-82569984D01*
X156279594Y-82498556D01*
X156298249Y-82475826D01*
X156307525Y-82453428D01*
X156320646Y-82421754D01*
X156320646Y-82363226D01*
X156298249Y-82309156D01*
X156298249Y-82309155D01*
X156279595Y-82286425D01*
X156208167Y-82214996D01*
X156185436Y-82196341D01*
X156185435Y-82196340D01*
X156153761Y-82183220D01*
X156131364Y-82173943D01*
X156131363Y-82173943D01*
X156072837Y-82173943D01*
X156018765Y-82196340D01*
X155996034Y-82214995D01*
X155924605Y-82286424D01*
X155905950Y-82309155D01*
X155905950Y-82309156D01*
X155883553Y-82363226D01*
X155714004Y-82363226D01*
X155714004Y-81006083D01*
X155883553Y-81006083D01*
X155883553Y-81064611D01*
X155905951Y-81118683D01*
X155947335Y-81160067D01*
X156001407Y-81182465D01*
X156030671Y-81185347D01*
X156380671Y-81185347D01*
X156380671Y-81749632D01*
X156382129Y-81764443D01*
X156381849Y-81768393D01*
X156382799Y-81771244D01*
X156383553Y-81778896D01*
X156392754Y-81801110D01*
X156400357Y-81823917D01*
X156403888Y-81827988D01*
X156405951Y-81832968D01*
X156422952Y-81849969D01*
X156438704Y-81868131D01*
X156443524Y-81870541D01*
X156447335Y-81874352D01*
X156469546Y-81883552D01*
X156491051Y-81894305D01*
X156496426Y-81894687D01*
X156501407Y-81896750D01*
X156525455Y-81896750D01*
X156549432Y-81898454D01*
X156556926Y-81896750D01*
X156559935Y-81896750D01*
X156563597Y-81895232D01*
X156578105Y-81891934D01*
X157649534Y-81534792D01*
X157676385Y-81522803D01*
X157720599Y-81484456D01*
X157746773Y-81432109D01*
X157750922Y-81373729D01*
X157732414Y-81318204D01*
X157694066Y-81273990D01*
X157641719Y-81247816D01*
X157583339Y-81243667D01*
X157554666Y-81250187D01*
X156680671Y-81541518D01*
X156680671Y-81185347D01*
X157030671Y-81185347D01*
X157059935Y-81182465D01*
X157114007Y-81160067D01*
X157155391Y-81118683D01*
X157177789Y-81064611D01*
X157177789Y-81006083D01*
X157155391Y-80952011D01*
X157114007Y-80910627D01*
X157059935Y-80888229D01*
X157030671Y-80885347D01*
X156680671Y-80885347D01*
X156680671Y-80821061D01*
X156677789Y-80791797D01*
X156655391Y-80737725D01*
X156614007Y-80696341D01*
X156559935Y-80673943D01*
X156501407Y-80673943D01*
X156447335Y-80696341D01*
X156405951Y-80737725D01*
X156383553Y-80791797D01*
X156380671Y-80821061D01*
X156380671Y-80885347D01*
X156030671Y-80885347D01*
X156001407Y-80888229D01*
X155947335Y-80910627D01*
X155905951Y-80952011D01*
X155883553Y-81006083D01*
X155714004Y-81006083D01*
X155714004Y-80507276D01*
X157917589Y-80507276D01*
X157917589Y-97780584D01*
G37*
D11*
X118446989Y-67204400D02*
X117304132Y-67204400D01*
D10*
D11*
X118446989Y-73300400D02*
X117304132Y-73300400D01*
X117875560Y-73871828D02*
X117875560Y-72728971D01*
D12*
%TO.C,MH4*%
X119003185Y-102015000D02*
G75*
G02*
X117871815Y-102015000I-565685J0D01*
G01*
X117871815Y-102015000D02*
G75*
G02*
X119003185Y-102015000I565685J0D01*
G01*
X119003185Y-102015000D02*
X119837500Y-102015000D01*
X118437500Y-102580685D02*
X118437500Y-103415000D01*
X118437500Y-101449315D02*
X118437500Y-100615000D01*
X117871815Y-102015000D02*
X117037500Y-102015000D01*
%TO.C,MH3*%
X182003185Y-102015000D02*
G75*
G02*
X180871815Y-102015000I-565685J0D01*
G01*
X180871815Y-102015000D02*
G75*
G02*
X182003185Y-102015000I565685J0D01*
G01*
X181437500Y-102580685D02*
X181437500Y-103415000D01*
X180871815Y-102015000D02*
X180037500Y-102015000D01*
X182003185Y-102015000D02*
X182837500Y-102015000D01*
X181437500Y-101449315D02*
X181437500Y-100615000D01*
%TO.C,MH2*%
X182003185Y-78015000D02*
G75*
G02*
X180871815Y-78015000I-565685J0D01*
G01*
X180871815Y-78015000D02*
G75*
G02*
X182003185Y-78015000I565685J0D01*
G01*
X181437500Y-78580685D02*
X181437500Y-79415000D01*
X180871815Y-78015000D02*
X180037500Y-78015000D01*
X182003185Y-78015000D02*
X182837500Y-78015000D01*
X181437500Y-77449315D02*
X181437500Y-76615000D01*
%TO.C,MH1*%
X119003185Y-78015000D02*
G75*
G02*
X117871815Y-78015000I-565685J0D01*
G01*
X117871815Y-78015000D02*
G75*
G02*
X119003185Y-78015000I565685J0D01*
G01*
X118437500Y-78580685D02*
X118437500Y-79415000D01*
X117871815Y-78015000D02*
X117037500Y-78015000D01*
X119003185Y-78015000D02*
X119837500Y-78015000D01*
X118437500Y-77449315D02*
X118437500Y-76615000D01*
%TD*%
D13*
%TO.P,U2,1,VCC*%
%TO.N,3V3*%
X143789500Y-71785000D03*
D14*
%TO.P,U2,2,GND*%
%TO.N,GND*%
X146329500Y-71785000D03*
%TO.P,U2,3,SDA*%
%TO.N,Net-(J6-Pin_2)*%
X148869500Y-71785000D03*
%TO.P,U2,4,SCL*%
%TO.N,Net-(J6-Pin_3)*%
X151409500Y-71785000D03*
%TO.P,U2,5,XSHUT*%
%TO.N,unconnected-(U2-XSHUT-Pad5)*%
X153949500Y-71785000D03*
%TO.P,U2,6,GPIO1*%
%TO.N,unconnected-(U2-GPIO1-Pad6)*%
X156489500Y-71785000D03*
%TD*%
D15*
%TO.P,U1,1,GND*%
%TO.N,GND*%
X170817500Y-104043000D03*
%TO.P,U1,8,IO_18/CLK*%
%TO.N,Net-(U1-IO_18{slash}CLK)*%
X168277500Y-96423000D03*
%TO.P,U1,10,IO_19/MISO*%
%TO.N,Net-(U1-IO_19{slash}MISO)*%
X168277500Y-93883000D03*
%TO.P,U1,12,IO_23/MOSI*%
%TO.N,Net-(U1-IO_23{slash}MOSI)*%
X168277500Y-91343000D03*
%TO.P,U1,14,IO_05/SS*%
%TO.N,Net-(U1-IO_05{slash}SS)*%
X168277500Y-88803000D03*
%TO.P,U1,16,3V3*%
%TO.N,3V3*%
X168277500Y-86263000D03*
%TO.P,U1,18,IO_13/TCK*%
%TO.N,Net-(J5-Pin_2)*%
X168277500Y-83723000D03*
%TO.P,U1,20,SD3*%
%TO.N,unconnected-(U1-SD3-Pad20)*%
X168277500Y-81183000D03*
%TO.P,U1,22,GND*%
%TO.N,GND*%
X142877500Y-104043000D03*
%TO.P,U1,25,IO_22/SCL_1*%
%TO.N,Net-(J6-Pin_3)*%
X145417500Y-98963000D03*
%TO.P,U1,27,IO_21/SDA_1*%
%TO.N,Net-(J6-Pin_2)*%
X145417500Y-96423000D03*
%TO.P,U1,29,IO_17/U2_TXC*%
%TO.N,Net-(U1-IO_17{slash}U2_TXC)*%
X145417500Y-93883000D03*
%TO.P,U1,30,IO_12/TDI*%
%TO.N,Net-(U1-IO_12{slash}TDI)*%
X142877500Y-93883000D03*
%TO.P,U1,31,IO_16/U2_RX*%
%TO.N,Net-(U1-IO_16{slash}U2_RX)*%
X145417500Y-91343000D03*
%TO.P,U1,32,IO_04*%
%TO.N,Net-(U1-IO_04)*%
X142877500Y-91343000D03*
%TO.P,U1,33,GND*%
%TO.N,GND*%
X145417500Y-88803000D03*
%TO.P,U1,39,SD0*%
%TO.N,unconnected-(U1-SD0-Pad39)*%
X145417500Y-81183000D03*
%TO.P,U1,40,CLK*%
%TO.N,unconnected-(U1-CLK-Pad40)*%
X142877500Y-81183000D03*
%TD*%
D13*
%TO.P,U3,1,LRCLK*%
%TO.N,Net-(U1-IO_05{slash}SS)*%
X174881500Y-82453000D03*
D14*
%TO.P,U3,2,BCLK*%
%TO.N,Net-(U1-IO_23{slash}MOSI)*%
X174881500Y-84993000D03*
%TO.P,U3,3,DIN*%
%TO.N,Net-(U1-IO_19{slash}MISO)*%
X174881500Y-87533000D03*
%TO.P,U3,4,GAIN_SLOT*%
%TO.N,Net-(U3-GAIN_SLOT)*%
X174881500Y-90073000D03*
%TO.P,U3,5,~{SD_MODE}*%
%TO.N,Net-(U1-IO_18{slash}CLK)*%
X174881500Y-92613000D03*
%TO.P,U3,6,GND*%
%TO.N,GND*%
X174881500Y-95153000D03*
%TO.P,U3,7,VDD*%
%TO.N,5V*%
X174881500Y-97693000D03*
%TD*%
D13*
%TO.P,U5,1,VCC*%
%TO.N,3V3*%
X130177500Y-77627000D03*
D14*
%TO.P,U5,2,GND*%
%TO.N,GND*%
X130177500Y-80167000D03*
%TO.P,U5,3,SCL/SPC*%
%TO.N,Net-(U1-IO_16{slash}U2_RX)*%
X130177500Y-82707000D03*
%TO.P,U5,4,SDA/SDI/SDO*%
%TO.N,Net-(U1-IO_04)*%
X130177500Y-85247000D03*
%TO.P,U5,6,CS*%
%TO.N,Net-(U5-CS)*%
X130177500Y-90327000D03*
%TO.P,U5,7,INT1*%
%TO.N,Net-(U1-IO_12{slash}TDI)*%
X130177500Y-92867000D03*
%TD*%
D13*
%TO.P,J2,1,Pin_1*%
%TO.N,5V*%
X117731500Y-84760500D03*
D14*
%TO.P,J2,2,Pin_2*%
%TO.N,Net-(J1-Pin_2)*%
X120271500Y-84760500D03*
%TO.P,J2,3,Pin_3*%
%TO.N,Net-(J1-Pin_3)*%
X122811500Y-84760500D03*
%TO.P,J2,4,Pin_4*%
%TO.N,GND*%
X125351500Y-84760500D03*
%TD*%
D16*
%TO.P,J4,1,Pin_1*%
%TO.N,5V*%
X117985500Y-71277000D03*
D17*
%TO.P,J4,2,Pin_2*%
%TO.N,/LED_PWR*%
X117985500Y-68777000D03*
%TD*%
D13*
%TO.P,J1,1,Pin_1*%
%TO.N,5V*%
X117731500Y-89332500D03*
D14*
%TO.P,J1,2,Pin_2*%
%TO.N,Net-(J1-Pin_2)*%
X120271500Y-89332500D03*
%TO.P,J1,3,Pin_3*%
%TO.N,Net-(J1-Pin_3)*%
X122811500Y-89332500D03*
%TO.P,J1,4,Pin_4*%
%TO.N,GND*%
X125351500Y-89332500D03*
%TD*%
D13*
%TO.P,J6,1,Pin_1*%
%TO.N,3V3*%
X132717500Y-70007000D03*
D14*
%TO.P,J6,2,Pin_2*%
%TO.N,Net-(J6-Pin_2)*%
X135257500Y-70007000D03*
%TO.P,J6,3,Pin_3*%
%TO.N,Net-(J6-Pin_3)*%
X137797500Y-70007000D03*
%TO.P,J6,4,Pin_4*%
%TO.N,GND*%
X140337500Y-70007000D03*
%TD*%
D18*
%TO.P,C1,1*%
%TO.N,5V*%
X124843500Y-94391000D03*
D19*
%TO.P,C1,2*%
%TO.N,GND*%
X124843500Y-96391000D03*
%TD*%
D18*
%TO.P,C2,1*%
%TO.N,5V*%
X118747500Y-94391000D03*
D19*
%TO.P,C2,2*%
%TO.N,GND*%
X118747500Y-96391000D03*
%TD*%
D13*
%TO.P,J5,1,Pin_1*%
%TO.N,3V3*%
X174119500Y-67467000D03*
D14*
%TO.P,J5,2,Pin_2*%
%TO.N,Net-(J5-Pin_2)*%
X174119500Y-70007000D03*
%TO.P,J5,3,Pin_3*%
%TO.N,GND*%
X174119500Y-72547000D03*
%TD*%
D20*
%TO.P,C9,1*%
%TO.N,3V3*%
X132717500Y-77627000D03*
%TO.P,C9,2*%
%TO.N,GND*%
X132717500Y-79702000D03*
%TD*%
D21*
%TO.P,C6,1*%
%TO.N,3V3*%
X143872000Y-74833000D03*
%TO.P,C6,2*%
%TO.N,GND*%
X145947000Y-74833000D03*
%TD*%
D20*
%TO.P,C3,1*%
%TO.N,5V*%
X121795500Y-94369500D03*
%TO.P,C3,2*%
%TO.N,GND*%
X121795500Y-96444500D03*
%TD*%
D22*
%TO.P,R2,1*%
%TO.N,GND*%
X177929500Y-92105000D03*
%TO.P,R2,2*%
%TO.N,Net-(U3-GAIN_SLOT)*%
X177929500Y-90105000D03*
%TD*%
%TO.P,R4,1*%
%TO.N,Net-(U1-IO_17{slash}U2_TXC)*%
X130177500Y-72277000D03*
%TO.P,R4,2*%
%TO.N,Net-(Q1-G)*%
X130177500Y-70277000D03*
%TD*%
D23*
%TO.P,Q1,1,G*%
%TO.N,Net-(Q1-G)*%
X125019000Y-70245000D03*
%TO.P,Q1,2,S*%
%TO.N,GND*%
X125019000Y-72145000D03*
%TO.P,Q1,3,D*%
%TO.N,/LED_PWR*%
X123144000Y-71195000D03*
%TD*%
D24*
%TO.P,R5,1*%
%TO.N,Net-(Q1-G)*%
X127637500Y-70261000D03*
%TO.P,R5,2*%
%TO.N,GND*%
X127637500Y-72261000D03*
%TD*%
%TO.P,R3,1*%
%TO.N,3V3*%
X127383500Y-77659000D03*
%TO.P,R3,2*%
%TO.N,Net-(U5-CS)*%
X127383500Y-79659000D03*
%TD*%
D20*
%TO.P,C8,1*%
%TO.N,3V3*%
X164975500Y-86474000D03*
%TO.P,C8,2*%
%TO.N,GND*%
X164975500Y-88549000D03*
%TD*%
%TO.P,C5,1*%
%TO.N,3V3*%
X176913500Y-67953500D03*
%TO.P,C5,2*%
%TO.N,GND*%
X176913500Y-70028500D03*
%TD*%
D25*
%TO.P,C4,1*%
%TO.N,5V*%
X177929500Y-97460500D03*
%TO.P,C4,2*%
%TO.N,GND*%
X177929500Y-95385500D03*
%TD*%
D26*
%TO.N,GND*%
X149481500Y-87613944D02*
X149481500Y-100233000D01*
X142047500Y-84925000D02*
X146792556Y-84925000D01*
X149481500Y-100233000D02*
X149041500Y-100673000D01*
X140337500Y-83215000D02*
X142047500Y-84925000D01*
X146792556Y-84925000D02*
X149481500Y-87613944D01*
X140337500Y-70007000D02*
X140337500Y-83215000D01*
D27*
%TO.N,Net-(J6-Pin_3)*%
X137797500Y-84390096D02*
X137797500Y-70007000D01*
X139532404Y-86125000D02*
X137797500Y-84390096D01*
X146295500Y-86125000D02*
X139532404Y-86125000D01*
X148211500Y-88041000D02*
X146295500Y-86125000D01*
X148211500Y-96169000D02*
X148211500Y-88041000D01*
X145417500Y-98963000D02*
X148211500Y-96169000D01*
%TO.N,Net-(J6-Pin_2)*%
X135257500Y-83122888D02*
X135257500Y-70007000D01*
X147195500Y-88318258D02*
X145902242Y-87025000D01*
X145902242Y-87025000D02*
X139159612Y-87025000D01*
X139159612Y-87025000D02*
X135257500Y-83122888D01*
X147195500Y-94645000D02*
X147195500Y-88318258D01*
X145417500Y-96423000D02*
X147195500Y-94645000D01*
D26*
%TO.N,GND*%
X171325500Y-98709000D02*
X174881500Y-95153000D01*
X167261500Y-98201000D02*
X167769500Y-98709000D01*
X167769500Y-98709000D02*
X171325500Y-98709000D01*
D28*
%TO.N,5V*%
X117731500Y-94645000D02*
X117731500Y-89332500D01*
X117477500Y-98455000D02*
X116715500Y-97693000D01*
X116715500Y-95661000D02*
X117731500Y-94645000D01*
X116715500Y-97693000D02*
X116715500Y-95661000D01*
X126367500Y-104043000D02*
X120779500Y-98455000D01*
X139829500Y-104043000D02*
X126367500Y-104043000D01*
X141607500Y-102265000D02*
X139829500Y-104043000D01*
X170309500Y-102265000D02*
X141607500Y-102265000D01*
X174881500Y-97693000D02*
X170309500Y-102265000D01*
X120779500Y-98455000D02*
X117477500Y-98455000D01*
D29*
%TO.N,GND*%
X129669500Y-100995000D02*
X164467500Y-100995000D01*
X126875500Y-98201000D02*
X129669500Y-100995000D01*
X126243500Y-96423000D02*
X126875500Y-97055000D01*
X126875500Y-97055000D02*
X126875500Y-98201000D01*
X164467500Y-100995000D02*
X167261500Y-98201000D01*
D26*
%TO.N,3V3*%
X159139500Y-70347944D02*
X159139500Y-73557000D01*
X148879500Y-66357000D02*
X151329500Y-68807000D01*
X151329500Y-68807000D02*
X157598556Y-68807000D01*
X135097500Y-66357000D02*
X148879500Y-66357000D01*
X157598556Y-68807000D02*
X159139500Y-70347944D01*
X132717500Y-68737000D02*
X135097500Y-66357000D01*
X132717500Y-70007000D02*
X132717500Y-68737000D01*
D27*
%TO.N,Net-(J6-Pin_2)*%
X148869500Y-72697000D02*
X148869500Y-71785000D01*
X157101500Y-73563000D02*
X149735500Y-73563000D01*
X157939500Y-72725000D02*
X157101500Y-73563000D01*
X148382444Y-67557000D02*
X150832444Y-70007000D01*
X150832444Y-70007000D02*
X157101500Y-70007000D01*
X136691500Y-67557000D02*
X148382444Y-67557000D01*
X157939500Y-70845000D02*
X157939500Y-72725000D01*
X135257500Y-68991000D02*
X136691500Y-67557000D01*
X135257500Y-70007000D02*
X135257500Y-68991000D01*
X149735500Y-73563000D02*
X148869500Y-72697000D01*
X157101500Y-70007000D02*
X157939500Y-70845000D01*
%TO.N,Net-(J6-Pin_3)*%
X147931500Y-68457000D02*
X151259500Y-71785000D01*
X138331500Y-68457000D02*
X147931500Y-68457000D01*
X151259500Y-71785000D02*
X151409500Y-71785000D01*
X137797500Y-68991000D02*
X138331500Y-68457000D01*
X137797500Y-70007000D02*
X137797500Y-68991000D01*
%TO.N,Net-(Q1-G)*%
X127637500Y-70261000D02*
X130161500Y-70261000D01*
X125019000Y-70245000D02*
X127621500Y-70245000D01*
%TO.N,Net-(U1-IO_17{slash}U2_TXC)*%
X125859500Y-75849000D02*
X126621500Y-75087000D01*
X143893500Y-95407000D02*
X129669500Y-95407000D01*
X128907500Y-75087000D02*
X130177500Y-73817000D01*
X126621500Y-75087000D02*
X128907500Y-75087000D01*
X128399500Y-89821792D02*
X127499500Y-88921792D01*
X128399500Y-94137000D02*
X128399500Y-89821792D01*
X129669500Y-95407000D02*
X128399500Y-94137000D01*
X127499500Y-88921792D02*
X127499500Y-82315000D01*
X127499500Y-82315000D02*
X125859500Y-80675000D01*
X130177500Y-73817000D02*
X130177500Y-72277000D01*
X125859500Y-80675000D02*
X125859500Y-75849000D01*
X145417500Y-93883000D02*
X143893500Y-95407000D01*
%TO.N,Net-(U1-IO_19{slash}MISO)*%
X168531500Y-93883000D02*
X174881500Y-87533000D01*
%TO.N,Net-(U1-IO_05{slash}SS)*%
X168277500Y-88803000D02*
X174627500Y-82453000D01*
%TO.N,Net-(U3-GAIN_SLOT)*%
X174881500Y-90073000D02*
X177897500Y-90073000D01*
D26*
%TO.N,3V3*%
X143789500Y-71785000D02*
X143789500Y-74750500D01*
X165991500Y-80421000D02*
X170817500Y-75595000D01*
X163959500Y-80421000D02*
X165991500Y-80421000D01*
X159139500Y-73557000D02*
X159133500Y-73563000D01*
X147094500Y-76712000D02*
X148973500Y-74833000D01*
X148973500Y-74833000D02*
X157863500Y-74833000D01*
X159133500Y-75595000D02*
X163959500Y-80421000D01*
X127383500Y-77659000D02*
X130145500Y-77659000D01*
X145010500Y-76712000D02*
X147094500Y-76712000D01*
X170817500Y-75595000D02*
X170817500Y-68991000D01*
X143872000Y-74833000D02*
X143872000Y-75573500D01*
X159139500Y-73557000D02*
X157863500Y-74833000D01*
X130177500Y-77627000D02*
X132717500Y-77627000D01*
X132717500Y-77627000D02*
X132717500Y-70007000D01*
X158371500Y-74833000D02*
X159133500Y-75595000D01*
X157863500Y-74833000D02*
X158371500Y-74833000D01*
X143872000Y-75573500D02*
X145010500Y-76712000D01*
X164975500Y-86474000D02*
X164975500Y-81437000D01*
X174119500Y-67467000D02*
X176427000Y-67467000D01*
X172341500Y-67467000D02*
X174119500Y-67467000D01*
X165186500Y-86263000D02*
X164975500Y-86474000D01*
X159133500Y-73563000D02*
X159133500Y-75595000D01*
X163959500Y-80421000D02*
X164975500Y-81437000D01*
X168277500Y-86263000D02*
X165186500Y-86263000D01*
X164975500Y-81437000D02*
X165991500Y-80421000D01*
X170817500Y-68991000D02*
X172341500Y-67467000D01*
X176427000Y-67467000D02*
X176913500Y-67953500D01*
D27*
%TO.N,Net-(U1-IO_23{slash}MOSI)*%
X168277500Y-91343000D02*
X174627500Y-84993000D01*
%TO.N,Net-(U1-IO_18{slash}CLK)*%
X173357500Y-92613000D02*
X174881500Y-92613000D01*
X169547500Y-96423000D02*
X173357500Y-92613000D01*
X168277500Y-96423000D02*
X169547500Y-96423000D01*
D26*
%TO.N,5V*%
X117731500Y-89332500D02*
X117731500Y-84760500D01*
X121795500Y-74325000D02*
X118747500Y-71277000D01*
X174881500Y-97693000D02*
X177697000Y-97693000D01*
X117731500Y-84760500D02*
X117731500Y-84231000D01*
X118747500Y-71277000D02*
X117985500Y-71277000D01*
X118747500Y-94412500D02*
X124843500Y-94412500D01*
X121795500Y-80167000D02*
X121795500Y-74325000D01*
X177697000Y-97693000D02*
X177929500Y-97460500D01*
X117731500Y-84231000D02*
X121795500Y-80167000D01*
%TO.N,GND*%
X179529500Y-89271726D02*
X178862774Y-88605000D01*
X146329500Y-71344919D02*
X146329500Y-71785000D01*
X125351500Y-89332500D02*
X126875500Y-90856500D01*
X145233500Y-88619000D02*
X145417500Y-88803000D01*
X132717500Y-82279944D02*
X139056556Y-88619000D01*
X175897500Y-72547000D02*
X176913500Y-71531000D01*
X178924000Y-95385500D02*
X177929500Y-95385500D01*
X126875500Y-95791000D02*
X126243500Y-96423000D01*
X125637500Y-72261000D02*
X127637500Y-72261000D01*
X124589500Y-73309000D02*
X125637500Y-72261000D01*
X178239500Y-88605000D02*
X177167500Y-87533000D01*
X179961500Y-98455000D02*
X179961500Y-96423000D01*
X178362774Y-92105000D02*
X179529500Y-90938274D01*
X124589500Y-83469000D02*
X124589500Y-73309000D01*
X125351500Y-84760500D02*
X125351500Y-89332500D01*
X146329500Y-71785000D02*
X146329500Y-74450500D01*
X179529500Y-90938274D02*
X179529500Y-89271726D01*
X177929500Y-95385500D02*
X177929500Y-92105000D01*
X164975500Y-88549000D02*
X164975500Y-95915000D01*
X130177500Y-80167000D02*
X132252500Y-80167000D01*
X174119500Y-77373000D02*
X174119500Y-72547000D01*
X132717500Y-79702000D02*
X132717500Y-82279944D01*
X140337500Y-70007000D02*
X144991581Y-70007000D01*
X139056556Y-88619000D02*
X145233500Y-88619000D01*
X177167500Y-80421000D02*
X174119500Y-77373000D01*
X125351500Y-84231000D02*
X124589500Y-83469000D01*
X146329500Y-74450500D02*
X145947000Y-74833000D01*
X126243500Y-96423000D02*
X124843500Y-96423000D01*
X179961500Y-96423000D02*
X178924000Y-95385500D01*
X124843500Y-96412500D02*
X118747500Y-96412500D01*
X174373500Y-104043000D02*
X179961500Y-98455000D01*
X178862774Y-88605000D02*
X178239500Y-88605000D01*
X142877500Y-104043000D02*
X170817500Y-104043000D01*
X177167500Y-87533000D02*
X177167500Y-80421000D01*
X177929500Y-95385500D02*
X175114000Y-95385500D01*
X170817500Y-104043000D02*
X174373500Y-104043000D01*
X132252500Y-80167000D02*
X132717500Y-79702000D01*
X174119500Y-72547000D02*
X175897500Y-72547000D01*
X144991581Y-70007000D02*
X146329500Y-71344919D01*
X176913500Y-71531000D02*
X176913500Y-70028500D01*
X164975500Y-95915000D02*
X167261500Y-98201000D01*
X126875500Y-90856500D02*
X126875500Y-95791000D01*
X125351500Y-84760500D02*
X125351500Y-84231000D01*
X177929500Y-92105000D02*
X178362774Y-92105000D01*
D27*
%TO.N,Net-(J1-Pin_2)*%
X120271500Y-89332500D02*
X120271500Y-84760500D01*
%TO.N,Net-(J1-Pin_3)*%
X122811500Y-89332500D02*
X122811500Y-84760500D01*
%TO.N,Net-(J5-Pin_2)*%
X172569500Y-79431000D02*
X172569500Y-71557000D01*
X168277500Y-83723000D02*
X172569500Y-79431000D01*
X172569500Y-71557000D02*
X174119500Y-70007000D01*
%TO.N,Net-(U5-CS)*%
X127383500Y-79659000D02*
X127383500Y-80926208D01*
X128399500Y-88549000D02*
X130177500Y-90327000D01*
X128399500Y-81942208D02*
X128399500Y-88549000D01*
X127383500Y-80926208D02*
X128399500Y-81942208D01*
D26*
%TO.N,/LED_PWR*%
X118660500Y-68777000D02*
X117985500Y-68777000D01*
X123144000Y-71195000D02*
X121078500Y-71195000D01*
X121078500Y-71195000D02*
X118660500Y-68777000D01*
D27*
%TO.N,Net-(U1-IO_12{slash}TDI)*%
X131193500Y-93883000D02*
X130177500Y-92867000D01*
X142877500Y-93883000D02*
X131193500Y-93883000D01*
%TO.N,Net-(U1-IO_04)*%
X142877500Y-91343000D02*
X138559500Y-91343000D01*
X132463500Y-85247000D02*
X130177500Y-85247000D01*
X138559500Y-91343000D02*
X132463500Y-85247000D01*
%TO.N,Net-(U1-IO_16{slash}U2_RX)*%
X138559500Y-89819000D02*
X131447500Y-82707000D01*
X145417500Y-91343000D02*
X143893500Y-89819000D01*
X131447500Y-82707000D02*
X130177500Y-82707000D01*
X143893500Y-89819000D02*
X138559500Y-89819000D01*
%TD*%
%TA.AperFunction,Conductor*%
%TO.N,GND*%
G36*
X169528955Y-103235185D02*
G01*
X169574710Y-103287989D01*
X169584654Y-103357147D01*
X169575472Y-103389310D01*
X169488817Y-103586864D01*
X169431861Y-103811781D01*
X169412702Y-104042994D01*
X169412702Y-104043005D01*
X169431861Y-104274218D01*
X169488817Y-104499135D01*
X169546742Y-104631190D01*
X169555645Y-104700490D01*
X169525668Y-104763602D01*
X169466328Y-104800489D01*
X169433186Y-104805000D01*
X144261814Y-104805000D01*
X144194775Y-104785315D01*
X144149020Y-104732511D01*
X144139076Y-104663353D01*
X144148258Y-104631190D01*
X144206182Y-104499135D01*
X144263138Y-104274218D01*
X144282298Y-104043005D01*
X144282298Y-104042994D01*
X144263138Y-103811781D01*
X144206182Y-103586864D01*
X144119528Y-103389310D01*
X144110625Y-103320010D01*
X144140603Y-103256897D01*
X144199942Y-103220011D01*
X144233084Y-103215500D01*
X169461916Y-103215500D01*
X169528955Y-103235185D01*
G37*
%TD.AperFunction*%
%TA.AperFunction,Conductor*%
G36*
X184630039Y-65705185D02*
G01*
X184675794Y-65757989D01*
X184687000Y-65809500D01*
X184687000Y-104681000D01*
X184667315Y-104748039D01*
X184614511Y-104793794D01*
X184563000Y-104805000D01*
X172201814Y-104805000D01*
X172134775Y-104785315D01*
X172089020Y-104732511D01*
X172079076Y-104663353D01*
X172088258Y-104631190D01*
X172146182Y-104499135D01*
X172203138Y-104274218D01*
X172222298Y-104043005D01*
X172222298Y-104042994D01*
X172203138Y-103811781D01*
X172146182Y-103586864D01*
X172052983Y-103374390D01*
X171926085Y-103180157D01*
X171768941Y-103009454D01*
X171768937Y-103009451D01*
X171585855Y-102866952D01*
X171585846Y-102866946D01*
X171385554Y-102758554D01*
X171335963Y-102709334D01*
X171320855Y-102641118D01*
X171345025Y-102575562D01*
X171356878Y-102561831D01*
X171979475Y-101939234D01*
X179462000Y-101939234D01*
X179462000Y-102090765D01*
X179501219Y-102237136D01*
X179539102Y-102302750D01*
X179576985Y-102368365D01*
X179576987Y-102368367D01*
X179607338Y-102398718D01*
X179639432Y-102454305D01*
X179681446Y-102611100D01*
X179774270Y-102835200D01*
X179774273Y-102835205D01*
X179774276Y-102835212D01*
X179895564Y-103045289D01*
X179895566Y-103045292D01*
X179895567Y-103045293D01*
X180043233Y-103237736D01*
X180043239Y-103237743D01*
X180214756Y-103409260D01*
X180214762Y-103409265D01*
X180407211Y-103556936D01*
X180617288Y-103678224D01*
X180766696Y-103740110D01*
X180841397Y-103771053D01*
X180841398Y-103771053D01*
X180841400Y-103771054D01*
X180998193Y-103813066D01*
X181053780Y-103845160D01*
X181084135Y-103875515D01*
X181215365Y-103951281D01*
X181361734Y-103990500D01*
X181361736Y-103990500D01*
X181513264Y-103990500D01*
X181513266Y-103990500D01*
X181659635Y-103951281D01*
X181790865Y-103875515D01*
X181821219Y-103845160D01*
X181876805Y-103813066D01*
X182033600Y-103771054D01*
X182257712Y-103678224D01*
X182467789Y-103556936D01*
X182660238Y-103409265D01*
X182831765Y-103237738D01*
X182979436Y-103045289D01*
X183100724Y-102835212D01*
X183193554Y-102611100D01*
X183235566Y-102454305D01*
X183267661Y-102398718D01*
X183298015Y-102368365D01*
X183373781Y-102237135D01*
X183413000Y-102090766D01*
X183413000Y-101939234D01*
X183373781Y-101792865D01*
X183298015Y-101661635D01*
X183267659Y-101631279D01*
X183235566Y-101575692D01*
X183194565Y-101422675D01*
X183193554Y-101418900D01*
X183100724Y-101194788D01*
X182979436Y-100984711D01*
X182831765Y-100792262D01*
X182831760Y-100792256D01*
X182660243Y-100620739D01*
X182660236Y-100620733D01*
X182467793Y-100473067D01*
X182467792Y-100473066D01*
X182467789Y-100473064D01*
X182257712Y-100351776D01*
X182257700Y-100351770D01*
X182033600Y-100258946D01*
X181876805Y-100216932D01*
X181821218Y-100184838D01*
X181790867Y-100154487D01*
X181790865Y-100154485D01*
X181725250Y-100116602D01*
X181659636Y-100078719D01*
X181586450Y-100059109D01*
X181513266Y-100039500D01*
X181361734Y-100039500D01*
X181215365Y-100078719D01*
X181215364Y-100078719D01*
X181215362Y-100078720D01*
X181215361Y-100078720D01*
X181084133Y-100154485D01*
X181053779Y-100184839D01*
X180998194Y-100216931D01*
X180841404Y-100258944D01*
X180617299Y-100351770D01*
X180617285Y-100351777D01*
X180407206Y-100473067D01*
X180214763Y-100620733D01*
X180214756Y-100620739D01*
X180043239Y-100792256D01*
X180043233Y-100792263D01*
X179895567Y-100984706D01*
X179774277Y-101194785D01*
X179774270Y-101194799D01*
X179681444Y-101418904D01*
X179639431Y-101575694D01*
X179607339Y-101631279D01*
X179576985Y-101661633D01*
X179501220Y-101792861D01*
X179501220Y-101792862D01*
X179462000Y-101939234D01*
X171979475Y-101939234D01*
X174837040Y-99081668D01*
X174898361Y-99048185D01*
X174913908Y-99045823D01*
X175116908Y-99028063D01*
X175345163Y-98966903D01*
X175559330Y-98867035D01*
X175752901Y-98731495D01*
X175754577Y-98729819D01*
X175755495Y-98729317D01*
X175757044Y-98728018D01*
X175757305Y-98728329D01*
X175815900Y-98696334D01*
X175842258Y-98693500D01*
X177795542Y-98693500D01*
X177814870Y-98689655D01*
X177892188Y-98674275D01*
X177988836Y-98655051D01*
X178042165Y-98632961D01*
X178170914Y-98579632D01*
X178180041Y-98573533D01*
X178186234Y-98569396D01*
X178252912Y-98548519D01*
X178255123Y-98548499D01*
X178454502Y-98548499D01*
X178454508Y-98548499D01*
X178557297Y-98537999D01*
X178723834Y-98482814D01*
X178873156Y-98390712D01*
X178997212Y-98266656D01*
X179089314Y-98117334D01*
X179144499Y-97950797D01*
X179155000Y-97848009D01*
X179154999Y-97072992D01*
X179144499Y-96970203D01*
X179089314Y-96803666D01*
X178997212Y-96654344D01*
X178873156Y-96530288D01*
X178869842Y-96528243D01*
X178868046Y-96526248D01*
X178867489Y-96525807D01*
X178867564Y-96525711D01*
X178823118Y-96476297D01*
X178811897Y-96407334D01*
X178839740Y-96343252D01*
X178869848Y-96317165D01*
X178872842Y-96315318D01*
X178996815Y-96191345D01*
X179088856Y-96042124D01*
X179088858Y-96042119D01*
X179144005Y-95875697D01*
X179144006Y-95875690D01*
X179154499Y-95772986D01*
X179154499Y-94998028D01*
X179154498Y-94998012D01*
X179144005Y-94895302D01*
X179088858Y-94728880D01*
X179088856Y-94728875D01*
X178996815Y-94579654D01*
X178872845Y-94455684D01*
X178723624Y-94363643D01*
X178723619Y-94363641D01*
X178557197Y-94308494D01*
X178557190Y-94308493D01*
X178454480Y-94298000D01*
X177404528Y-94298000D01*
X177404512Y-94298001D01*
X177301802Y-94308494D01*
X177135380Y-94363641D01*
X177135375Y-94363643D01*
X176986154Y-94455684D01*
X176862184Y-94579654D01*
X176770143Y-94728875D01*
X176770141Y-94728880D01*
X176714994Y-94895302D01*
X176714993Y-94895309D01*
X176704500Y-94998013D01*
X176704500Y-95772971D01*
X176704501Y-95772987D01*
X176714994Y-95875697D01*
X176770141Y-96042119D01*
X176770143Y-96042124D01*
X176862184Y-96191345D01*
X176986155Y-96315316D01*
X176986159Y-96315319D01*
X176989156Y-96317168D01*
X176990779Y-96318972D01*
X176991823Y-96319798D01*
X176991681Y-96319976D01*
X177035881Y-96369116D01*
X177047102Y-96438079D01*
X177019259Y-96502161D01*
X176989161Y-96528241D01*
X176985849Y-96530283D01*
X176985843Y-96530288D01*
X176859951Y-96656181D01*
X176798628Y-96689666D01*
X176772270Y-96692500D01*
X175842258Y-96692500D01*
X175775219Y-96672815D01*
X175754577Y-96656181D01*
X175752902Y-96654506D01*
X175752901Y-96654505D01*
X175572583Y-96528245D01*
X175566905Y-96524269D01*
X175523281Y-96469692D01*
X175516088Y-96400193D01*
X175547610Y-96337839D01*
X175566905Y-96321119D01*
X175752582Y-96191105D01*
X175919605Y-96024082D01*
X176055100Y-95830578D01*
X176154929Y-95616492D01*
X176154933Y-95616483D01*
X176216067Y-95388326D01*
X176216069Y-95388315D01*
X176236657Y-95153001D01*
X176236657Y-95152998D01*
X176216069Y-94917684D01*
X176216067Y-94917673D01*
X176154933Y-94689516D01*
X176154929Y-94689507D01*
X176055100Y-94475422D01*
X176055099Y-94475420D01*
X175919613Y-94281926D01*
X175919608Y-94281920D01*
X175752578Y-94114890D01*
X175566905Y-93984879D01*
X175523280Y-93930302D01*
X175516088Y-93860804D01*
X175547610Y-93798449D01*
X175566906Y-93781730D01*
X175752615Y-93651695D01*
X175752901Y-93651495D01*
X175919995Y-93484401D01*
X176055535Y-93290830D01*
X176155403Y-93076663D01*
X176216563Y-92848408D01*
X176237159Y-92613000D01*
X176236694Y-92607690D01*
X176216563Y-92377596D01*
X176216563Y-92377592D01*
X176155403Y-92149337D01*
X176055535Y-91935171D01*
X176054830Y-91934163D01*
X175919994Y-91741597D01*
X175752902Y-91574506D01*
X175752896Y-91574501D01*
X175567342Y-91444575D01*
X175523717Y-91389998D01*
X175516523Y-91320500D01*
X175548046Y-91258145D01*
X175567342Y-91241425D01*
X175618648Y-91205500D01*
X175752901Y-91111495D01*
X175919995Y-90944401D01*
X175932616Y-90926375D01*
X175987193Y-90882752D01*
X176034191Y-90873500D01*
X176787097Y-90873500D01*
X176854136Y-90893185D01*
X176884363Y-90920589D01*
X176886788Y-90923656D01*
X176980804Y-91017672D01*
X177014289Y-91078995D01*
X177009305Y-91148687D01*
X176980805Y-91193034D01*
X176887182Y-91286657D01*
X176795143Y-91435875D01*
X176795141Y-91435880D01*
X176739994Y-91602302D01*
X176739993Y-91602309D01*
X176729500Y-91705013D01*
X176729500Y-92504971D01*
X176729501Y-92504987D01*
X176739994Y-92607697D01*
X176795141Y-92774119D01*
X176795143Y-92774124D01*
X176887184Y-92923345D01*
X177011154Y-93047315D01*
X177160375Y-93139356D01*
X177160380Y-93139358D01*
X177326802Y-93194505D01*
X177326809Y-93194506D01*
X177429519Y-93204999D01*
X178429471Y-93204999D01*
X178429487Y-93204998D01*
X178532197Y-93194505D01*
X178698619Y-93139358D01*
X178698624Y-93139356D01*
X178847845Y-93047315D01*
X178971815Y-92923345D01*
X179063856Y-92774124D01*
X179063858Y-92774119D01*
X179119005Y-92607697D01*
X179119006Y-92607690D01*
X179129499Y-92504986D01*
X179129499Y-91705028D01*
X179129498Y-91705012D01*
X179119005Y-91602302D01*
X179063858Y-91435880D01*
X179063856Y-91435875D01*
X178971815Y-91286654D01*
X178878195Y-91193034D01*
X178844710Y-91131711D01*
X178849694Y-91062019D01*
X178878191Y-91017676D01*
X178972212Y-90923656D01*
X179064314Y-90774334D01*
X179119499Y-90607797D01*
X179130000Y-90505009D01*
X179129999Y-89704992D01*
X179119499Y-89602203D01*
X179064314Y-89435666D01*
X178972212Y-89286344D01*
X178848156Y-89162288D01*
X178698834Y-89070186D01*
X178532297Y-89015001D01*
X178532295Y-89015000D01*
X178429510Y-89004500D01*
X177429498Y-89004500D01*
X177429480Y-89004501D01*
X177326703Y-89015000D01*
X177326700Y-89015001D01*
X177160168Y-89070185D01*
X177160163Y-89070187D01*
X177010842Y-89162289D01*
X176936951Y-89236181D01*
X176875628Y-89269666D01*
X176849270Y-89272500D01*
X176034191Y-89272500D01*
X175967152Y-89252815D01*
X175932616Y-89219624D01*
X175922813Y-89205624D01*
X175919995Y-89201599D01*
X175919993Y-89201597D01*
X175919991Y-89201594D01*
X175752902Y-89034506D01*
X175752896Y-89034501D01*
X175567342Y-88904575D01*
X175523717Y-88849998D01*
X175516523Y-88780500D01*
X175548046Y-88718145D01*
X175567342Y-88701425D01*
X175634113Y-88654671D01*
X175752901Y-88571495D01*
X175919995Y-88404401D01*
X176055535Y-88210830D01*
X176155403Y-87996663D01*
X176216563Y-87768408D01*
X176237159Y-87533000D01*
X176216563Y-87297592D01*
X176155403Y-87069337D01*
X176055535Y-86855171D01*
X175919995Y-86661599D01*
X175919994Y-86661597D01*
X175752902Y-86494506D01*
X175752896Y-86494501D01*
X175567342Y-86364575D01*
X175523717Y-86309998D01*
X175516523Y-86240500D01*
X175548046Y-86178145D01*
X175567342Y-86161425D01*
X175632705Y-86115657D01*
X175752901Y-86031495D01*
X175919995Y-85864401D01*
X176055535Y-85670830D01*
X176155403Y-85456663D01*
X176216563Y-85228408D01*
X176237159Y-84993000D01*
X176216563Y-84757592D01*
X176155403Y-84529337D01*
X176055535Y-84315171D01*
X176042697Y-84296837D01*
X175919996Y-84121600D01*
X175859132Y-84060736D01*
X175798067Y-83999671D01*
X175764584Y-83938351D01*
X175769568Y-83868659D01*
X175811439Y-83812725D01*
X175842415Y-83795810D01*
X175973831Y-83746796D01*
X176089046Y-83660546D01*
X176175296Y-83545331D01*
X176225591Y-83410483D01*
X176232000Y-83350873D01*
X176231999Y-81555128D01*
X176225591Y-81495517D01*
X176186122Y-81389696D01*
X176175297Y-81360671D01*
X176175293Y-81360664D01*
X176089047Y-81245455D01*
X176089044Y-81245452D01*
X175973835Y-81159206D01*
X175973828Y-81159202D01*
X175838982Y-81108908D01*
X175838983Y-81108908D01*
X175779383Y-81102501D01*
X175779381Y-81102500D01*
X175779373Y-81102500D01*
X175779364Y-81102500D01*
X173983629Y-81102500D01*
X173983623Y-81102501D01*
X173924016Y-81108908D01*
X173789171Y-81159202D01*
X173789164Y-81159206D01*
X173673955Y-81245452D01*
X173673952Y-81245455D01*
X173587706Y-81360664D01*
X173587702Y-81360671D01*
X173537408Y-81495517D01*
X173532812Y-81538269D01*
X173531001Y-81555123D01*
X173531000Y-81555135D01*
X173531000Y-82366059D01*
X173511315Y-82433098D01*
X173494681Y-82453740D01*
X169869089Y-86079331D01*
X169807766Y-86112816D01*
X169738074Y-86107832D01*
X169682141Y-86065960D01*
X169661202Y-86022091D01*
X169633624Y-85913190D01*
X169606657Y-85806700D01*
X169513424Y-85594151D01*
X169459672Y-85511877D01*
X169386483Y-85399852D01*
X169386480Y-85399849D01*
X169386479Y-85399847D01*
X169229284Y-85229087D01*
X169051680Y-85090853D01*
X169010868Y-85034143D01*
X169007193Y-84964370D01*
X169041824Y-84903687D01*
X169051681Y-84895146D01*
X169229284Y-84756913D01*
X169386479Y-84586153D01*
X169513424Y-84391849D01*
X169606657Y-84179300D01*
X169663634Y-83954305D01*
X169664956Y-83938351D01*
X169682800Y-83723006D01*
X169682800Y-83722994D01*
X169666639Y-83527963D01*
X169680720Y-83459527D01*
X169702531Y-83430045D01*
X173191289Y-79941289D01*
X173278894Y-79810179D01*
X173339238Y-79664497D01*
X173370000Y-79509842D01*
X173370000Y-79352157D01*
X173370000Y-77939234D01*
X179462000Y-77939234D01*
X179462000Y-78090766D01*
X179469109Y-78117297D01*
X179501219Y-78237136D01*
X179528179Y-78283831D01*
X179576985Y-78368365D01*
X179576987Y-78368367D01*
X179607338Y-78398718D01*
X179639432Y-78454305D01*
X179681446Y-78611100D01*
X179774270Y-78835200D01*
X179774277Y-78835214D01*
X179777239Y-78840344D01*
X179895564Y-79045289D01*
X179895566Y-79045292D01*
X179895567Y-79045293D01*
X180043233Y-79237736D01*
X180043239Y-79237743D01*
X180214756Y-79409260D01*
X180214762Y-79409265D01*
X180407211Y-79556936D01*
X180617288Y-79678224D01*
X180694029Y-79710011D01*
X180841397Y-79771053D01*
X180841398Y-79771053D01*
X180841400Y-79771054D01*
X180998193Y-79813066D01*
X181053780Y-79845160D01*
X181084135Y-79875515D01*
X181215365Y-79951281D01*
X181361734Y-79990500D01*
X181361736Y-79990500D01*
X181513264Y-79990500D01*
X181513266Y-79990500D01*
X181659635Y-79951281D01*
X181790865Y-79875515D01*
X181821219Y-79845160D01*
X181876805Y-79813066D01*
X182033600Y-79771054D01*
X182257712Y-79678224D01*
X182467789Y-79556936D01*
X182660238Y-79409265D01*
X182831765Y-79237738D01*
X182979436Y-79045289D01*
X183100724Y-78835212D01*
X183193554Y-78611100D01*
X183235566Y-78454305D01*
X183267661Y-78398718D01*
X183298015Y-78368365D01*
X183373781Y-78237135D01*
X183413000Y-78090766D01*
X183413000Y-77939234D01*
X183373781Y-77792865D01*
X183298015Y-77661635D01*
X183267659Y-77631279D01*
X183235566Y-77575692D01*
X183212374Y-77489139D01*
X183193554Y-77418900D01*
X183100724Y-77194788D01*
X182979436Y-76984711D01*
X182831765Y-76792262D01*
X182831760Y-76792256D01*
X182660243Y-76620739D01*
X182660236Y-76620733D01*
X182467793Y-76473067D01*
X182467792Y-76473066D01*
X182467789Y-76473064D01*
X182296161Y-76373974D01*
X182257714Y-76351777D01*
X182257700Y-76351770D01*
X182033600Y-76258946D01*
X181876805Y-76216932D01*
X181821218Y-76184838D01*
X181790867Y-76154487D01*
X181790865Y-76154485D01*
X181725250Y-76116602D01*
X181659636Y-76078719D01*
X181542824Y-76047420D01*
X181513266Y-76039500D01*
X181361734Y-76039500D01*
X181215365Y-76078719D01*
X181215364Y-76078719D01*
X181215362Y-76078720D01*
X181215361Y-76078720D01*
X181084133Y-76154485D01*
X181053779Y-76184839D01*
X180998194Y-76216931D01*
X180841404Y-76258944D01*
X180617299Y-76351770D01*
X180617285Y-76351777D01*
X180407206Y-76473067D01*
X180214763Y-76620733D01*
X180214756Y-76620739D01*
X180043239Y-76792256D01*
X180043233Y-76792263D01*
X179895567Y-76984706D01*
X179774277Y-77194785D01*
X179774270Y-77194799D01*
X179681444Y-77418904D01*
X179639431Y-77575694D01*
X179607339Y-77631279D01*
X179576985Y-77661633D01*
X179501220Y-77792861D01*
X179501220Y-77792862D01*
X179501220Y-77792863D01*
X179501219Y-77792865D01*
X179462000Y-77939234D01*
X173370000Y-77939234D01*
X173370000Y-73881703D01*
X173389685Y-73814664D01*
X173442489Y-73768909D01*
X173511647Y-73758965D01*
X173546405Y-73769321D01*
X173656007Y-73820430D01*
X173656016Y-73820433D01*
X173884173Y-73881567D01*
X173884184Y-73881569D01*
X174119498Y-73902157D01*
X174119502Y-73902157D01*
X174354815Y-73881569D01*
X174354826Y-73881567D01*
X174582983Y-73820433D01*
X174582992Y-73820429D01*
X174797078Y-73720600D01*
X174990582Y-73585105D01*
X175157605Y-73418082D01*
X175293100Y-73224578D01*
X175392929Y-73010492D01*
X175392933Y-73010483D01*
X175454067Y-72782326D01*
X175454069Y-72782315D01*
X175474657Y-72547001D01*
X175474657Y-72546998D01*
X175454069Y-72311684D01*
X175454067Y-72311673D01*
X175392933Y-72083516D01*
X175392929Y-72083507D01*
X175293100Y-71869422D01*
X175293099Y-71869420D01*
X175157613Y-71675926D01*
X175157608Y-71675920D01*
X174990578Y-71508890D01*
X174804905Y-71378879D01*
X174761280Y-71324302D01*
X174754088Y-71254804D01*
X174785610Y-71192449D01*
X174804906Y-71175730D01*
X174990901Y-71045495D01*
X175157995Y-70878401D01*
X175293535Y-70684830D01*
X175393403Y-70470663D01*
X175393452Y-70470483D01*
X175423680Y-70357666D01*
X175444726Y-70279120D01*
X175481089Y-70219461D01*
X175543936Y-70188931D01*
X175613312Y-70197225D01*
X175667190Y-70241710D01*
X175688465Y-70308262D01*
X175688500Y-70311213D01*
X175688500Y-70415970D01*
X175688501Y-70415987D01*
X175698994Y-70518697D01*
X175754141Y-70685119D01*
X175754143Y-70685124D01*
X175846184Y-70834345D01*
X175970154Y-70958315D01*
X176119375Y-71050356D01*
X176119380Y-71050358D01*
X176285802Y-71105505D01*
X176285809Y-71105506D01*
X176388519Y-71115999D01*
X177438471Y-71115999D01*
X177438487Y-71115998D01*
X177541197Y-71105505D01*
X177707619Y-71050358D01*
X177707624Y-71050356D01*
X177856845Y-70958315D01*
X177980815Y-70834345D01*
X178072856Y-70685124D01*
X178072858Y-70685119D01*
X178128005Y-70518697D01*
X178128006Y-70518690D01*
X178138499Y-70415986D01*
X178138499Y-69641028D01*
X178138498Y-69641012D01*
X178128005Y-69538302D01*
X178072858Y-69371880D01*
X178072856Y-69371875D01*
X177980815Y-69222654D01*
X177856844Y-69098683D01*
X177856841Y-69098681D01*
X177853839Y-69096829D01*
X177852213Y-69095021D01*
X177851177Y-69094202D01*
X177851317Y-69094024D01*
X177807117Y-69044880D01*
X177795897Y-68975917D01*
X177823743Y-68911836D01*
X177853844Y-68885754D01*
X177857156Y-68883712D01*
X177981212Y-68759656D01*
X178073314Y-68610334D01*
X178128499Y-68443797D01*
X178139000Y-68341009D01*
X178138999Y-67565992D01*
X178128499Y-67463203D01*
X178073314Y-67296666D01*
X177981212Y-67147344D01*
X177857156Y-67023288D01*
X177707834Y-66931186D01*
X177541297Y-66876001D01*
X177541295Y-66876000D01*
X177438516Y-66865500D01*
X177438509Y-66865500D01*
X177291784Y-66865500D01*
X177224745Y-66845815D01*
X177204103Y-66829181D01*
X177064785Y-66689863D01*
X177064781Y-66689860D01*
X176900916Y-66580369D01*
X176900911Y-66580366D01*
X176824944Y-66548900D01*
X176772165Y-66527038D01*
X176718836Y-66504949D01*
X176718832Y-66504948D01*
X176718828Y-66504946D01*
X176622188Y-66485724D01*
X176525544Y-66466500D01*
X176525541Y-66466500D01*
X175533641Y-66466500D01*
X175466602Y-66446815D01*
X175420847Y-66394011D01*
X175417469Y-66385859D01*
X175413296Y-66374669D01*
X175413293Y-66374665D01*
X175413293Y-66374664D01*
X175327047Y-66259455D01*
X175327044Y-66259452D01*
X175211835Y-66173206D01*
X175211828Y-66173202D01*
X175076982Y-66122908D01*
X175076983Y-66122908D01*
X175017383Y-66116501D01*
X175017381Y-66116500D01*
X175017373Y-66116500D01*
X175017364Y-66116500D01*
X173221629Y-66116500D01*
X173221623Y-66116501D01*
X173162016Y-66122908D01*
X173027171Y-66173202D01*
X173027164Y-66173206D01*
X172911955Y-66259452D01*
X172911952Y-66259455D01*
X172825706Y-66374664D01*
X172825704Y-66374668D01*
X172825704Y-66374669D01*
X172821539Y-66385834D01*
X172779671Y-66441766D01*
X172714207Y-66466184D01*
X172705359Y-66466500D01*
X172242956Y-66466500D01*
X172049671Y-66504946D01*
X172049667Y-66504948D01*
X172049665Y-66504948D01*
X172049664Y-66504949D01*
X171974245Y-66536188D01*
X171974243Y-66536189D01*
X171867585Y-66580368D01*
X171867585Y-66580369D01*
X171867584Y-66580369D01*
X171703722Y-66689857D01*
X171703714Y-66689863D01*
X170559486Y-67834093D01*
X170179720Y-68213859D01*
X170179718Y-68213861D01*
X170134991Y-68258588D01*
X170040359Y-68353219D01*
X169930871Y-68517080D01*
X169930867Y-68517087D01*
X169922119Y-68538208D01*
X169913370Y-68559331D01*
X169864026Y-68678459D01*
X169862441Y-68682285D01*
X169855450Y-68699160D01*
X169855447Y-68699169D01*
X169817000Y-68892456D01*
X169817000Y-75129217D01*
X169797315Y-75196256D01*
X169780681Y-75216898D01*
X165613399Y-79384181D01*
X165552076Y-79417666D01*
X165525718Y-79420500D01*
X164425283Y-79420500D01*
X164358244Y-79400815D01*
X164337602Y-79384181D01*
X160170319Y-75216898D01*
X160136834Y-75155575D01*
X160134000Y-75129217D01*
X160134000Y-73697921D01*
X160136383Y-73673727D01*
X160140001Y-73655539D01*
X160140001Y-73453349D01*
X160140000Y-73453323D01*
X160140000Y-70249400D01*
X160139999Y-70249398D01*
X160101553Y-70056117D01*
X160101552Y-70056115D01*
X160101551Y-70056109D01*
X160096742Y-70044500D01*
X160052215Y-69937001D01*
X160050165Y-69932051D01*
X160026135Y-69874036D01*
X160026133Y-69874032D01*
X160026132Y-69874030D01*
X159993719Y-69825520D01*
X159916639Y-69710161D01*
X159774186Y-69567708D01*
X159774155Y-69567679D01*
X158380035Y-68173559D01*
X158380015Y-68173537D01*
X158236341Y-68029863D01*
X158236337Y-68029860D01*
X158072476Y-67920371D01*
X158072467Y-67920366D01*
X157999871Y-67890296D01*
X157943721Y-67867038D01*
X157890392Y-67844949D01*
X157890388Y-67844948D01*
X157890384Y-67844946D01*
X157793744Y-67825724D01*
X157697100Y-67806500D01*
X157697097Y-67806500D01*
X151795282Y-67806500D01*
X151728243Y-67786815D01*
X151707601Y-67770181D01*
X149834601Y-65897181D01*
X149801116Y-65835858D01*
X149806100Y-65766166D01*
X149847972Y-65710233D01*
X149913436Y-65685816D01*
X149922282Y-65685500D01*
X184563000Y-65685500D01*
X184630039Y-65705185D01*
G37*
%TD.AperFunction*%
%TA.AperFunction,Conductor*%
G36*
X147615599Y-69277185D02*
G01*
X147636241Y-69293819D01*
X148607044Y-70264622D01*
X148640529Y-70325945D01*
X148635545Y-70395637D01*
X148593673Y-70451570D01*
X148551457Y-70472078D01*
X148405841Y-70511095D01*
X148405835Y-70511098D01*
X148191671Y-70610964D01*
X148191669Y-70610965D01*
X147998097Y-70746505D01*
X147831008Y-70913594D01*
X147700769Y-71099595D01*
X147646192Y-71143219D01*
X147576693Y-71150412D01*
X147514339Y-71118890D01*
X147497619Y-71099594D01*
X147367613Y-70913926D01*
X147367608Y-70913920D01*
X147200582Y-70746894D01*
X147007078Y-70611399D01*
X146792992Y-70511570D01*
X146792983Y-70511566D01*
X146564826Y-70450432D01*
X146564815Y-70450430D01*
X146329502Y-70429843D01*
X146329498Y-70429843D01*
X146094184Y-70450430D01*
X146094173Y-70450432D01*
X145866016Y-70511566D01*
X145866007Y-70511570D01*
X145651922Y-70611399D01*
X145651920Y-70611400D01*
X145458426Y-70746886D01*
X145336365Y-70868947D01*
X145275042Y-70902431D01*
X145205350Y-70897447D01*
X145149417Y-70855575D01*
X145132502Y-70824598D01*
X145083297Y-70692671D01*
X145083293Y-70692664D01*
X144997047Y-70577455D01*
X144997044Y-70577452D01*
X144881835Y-70491206D01*
X144881828Y-70491202D01*
X144746982Y-70440908D01*
X144746983Y-70440908D01*
X144687383Y-70434501D01*
X144687381Y-70434500D01*
X144687373Y-70434500D01*
X144687364Y-70434500D01*
X142891629Y-70434500D01*
X142891623Y-70434501D01*
X142832016Y-70440908D01*
X142697171Y-70491202D01*
X142697164Y-70491206D01*
X142581955Y-70577452D01*
X142581952Y-70577455D01*
X142495706Y-70692664D01*
X142495702Y-70692671D01*
X142445408Y-70827517D01*
X142439001Y-70887116D01*
X142439000Y-70887135D01*
X142439000Y-72682870D01*
X142439001Y-72682876D01*
X142445408Y-72742483D01*
X142495702Y-72877328D01*
X142495706Y-72877335D01*
X142581952Y-72992544D01*
X142581955Y-72992547D01*
X142697165Y-73078794D01*
X142697167Y-73078794D01*
X142697169Y-73078796D01*
X142708330Y-73082958D01*
X142764264Y-73124826D01*
X142788684Y-73190289D01*
X142789000Y-73199141D01*
X142789000Y-74252730D01*
X142788358Y-74265333D01*
X142784000Y-74307983D01*
X142784000Y-75358001D01*
X142784001Y-75358019D01*
X142794500Y-75460796D01*
X142794501Y-75460799D01*
X142849685Y-75627331D01*
X142849689Y-75627340D01*
X142857035Y-75639249D01*
X142873112Y-75680147D01*
X142875776Y-75693536D01*
X142875777Y-75693543D01*
X142909947Y-75865333D01*
X142909949Y-75865336D01*
X142929405Y-75912309D01*
X142932038Y-75918664D01*
X142985366Y-76047411D01*
X142985371Y-76047420D01*
X143094860Y-76211281D01*
X143094863Y-76211285D01*
X143238537Y-76354959D01*
X143238559Y-76354979D01*
X144230235Y-77346655D01*
X144230264Y-77346686D01*
X144372714Y-77489136D01*
X144372718Y-77489139D01*
X144536579Y-77598628D01*
X144536592Y-77598635D01*
X144665333Y-77651961D01*
X144688684Y-77661633D01*
X144718664Y-77674051D01*
X144815312Y-77693275D01*
X144863635Y-77702887D01*
X144911958Y-77712500D01*
X144911959Y-77712500D01*
X147193042Y-77712500D01*
X147212370Y-77708655D01*
X147289688Y-77693275D01*
X147386336Y-77674051D01*
X147439665Y-77651961D01*
X147568414Y-77598632D01*
X147732282Y-77489139D01*
X147871639Y-77349782D01*
X147871639Y-77349780D01*
X147881847Y-77339573D01*
X147881848Y-77339570D01*
X149351602Y-75869819D01*
X149412925Y-75836334D01*
X149439283Y-75833500D01*
X157764959Y-75833500D01*
X157764960Y-75833500D01*
X157905718Y-75833500D01*
X157972757Y-75853185D01*
X157993398Y-75869818D01*
X158192493Y-76068914D01*
X158356360Y-76232781D01*
X158502783Y-76379204D01*
X158502789Y-76379209D01*
X163326038Y-81202460D01*
X163326060Y-81202480D01*
X163938681Y-81815101D01*
X163972166Y-81876424D01*
X163975000Y-81902782D01*
X163975000Y-85549270D01*
X163955315Y-85616309D01*
X163938681Y-85636951D01*
X163907789Y-85667842D01*
X163815687Y-85817163D01*
X163815685Y-85817168D01*
X163799441Y-85866189D01*
X163760501Y-85983703D01*
X163760501Y-85983704D01*
X163760500Y-85983704D01*
X163750000Y-86086483D01*
X163750000Y-86861501D01*
X163750001Y-86861519D01*
X163760500Y-86964296D01*
X163760501Y-86964299D01*
X163795307Y-87069335D01*
X163815686Y-87130834D01*
X163907788Y-87280156D01*
X164031844Y-87404212D01*
X164035128Y-87406237D01*
X164035153Y-87406253D01*
X164036945Y-87408246D01*
X164037511Y-87408693D01*
X164037434Y-87408789D01*
X164081879Y-87458199D01*
X164093103Y-87527161D01*
X164065261Y-87591244D01*
X164035165Y-87617326D01*
X164032160Y-87619179D01*
X164032155Y-87619183D01*
X163908184Y-87743154D01*
X163816143Y-87892375D01*
X163816141Y-87892380D01*
X163760994Y-88058802D01*
X163760993Y-88058809D01*
X163750500Y-88161513D01*
X163750500Y-88936471D01*
X163750501Y-88936487D01*
X163760994Y-89039197D01*
X163816141Y-89205619D01*
X163816143Y-89205624D01*
X163908184Y-89354845D01*
X164032154Y-89478815D01*
X164181375Y-89570856D01*
X164181380Y-89570858D01*
X164347802Y-89626005D01*
X164347809Y-89626006D01*
X164450519Y-89636499D01*
X165500471Y-89636499D01*
X165500487Y-89636498D01*
X165603197Y-89626005D01*
X165769619Y-89570858D01*
X165769624Y-89570856D01*
X165918845Y-89478815D01*
X166042815Y-89354845D01*
X166134856Y-89205624D01*
X166134858Y-89205619D01*
X166190005Y-89039197D01*
X166190006Y-89039190D01*
X166200499Y-88936486D01*
X166200499Y-88161528D01*
X166200498Y-88161512D01*
X166190005Y-88058802D01*
X166134858Y-87892380D01*
X166134856Y-87892375D01*
X166042815Y-87743154D01*
X165918844Y-87619183D01*
X165918841Y-87619181D01*
X165915839Y-87617329D01*
X165914213Y-87615521D01*
X165913177Y-87614702D01*
X165913317Y-87614524D01*
X165869117Y-87565380D01*
X165857897Y-87496417D01*
X165885743Y-87432336D01*
X165915844Y-87406254D01*
X165919156Y-87404212D01*
X166023550Y-87299818D01*
X166084873Y-87266334D01*
X166111231Y-87263500D01*
X167241036Y-87263500D01*
X167308075Y-87283185D01*
X167325021Y-87296272D01*
X167325707Y-87296903D01*
X167325716Y-87296913D01*
X167420653Y-87370805D01*
X167503318Y-87435146D01*
X167544131Y-87491856D01*
X167547806Y-87561629D01*
X167513174Y-87622312D01*
X167503319Y-87630852D01*
X167325718Y-87769085D01*
X167325716Y-87769086D01*
X167325716Y-87769087D01*
X167290352Y-87807503D01*
X167168516Y-87939852D01*
X167041575Y-88134151D01*
X166948342Y-88346699D01*
X166891366Y-88571691D01*
X166891364Y-88571702D01*
X166872200Y-88802993D01*
X166872200Y-88803006D01*
X166891364Y-89034297D01*
X166891366Y-89034308D01*
X166948342Y-89259300D01*
X167041575Y-89471848D01*
X167168516Y-89666147D01*
X167168519Y-89666151D01*
X167168521Y-89666153D01*
X167325716Y-89836913D01*
X167325719Y-89836915D01*
X167325722Y-89836918D01*
X167503318Y-89975147D01*
X167544131Y-90031857D01*
X167547806Y-90101630D01*
X167513174Y-90162313D01*
X167503318Y-90170853D01*
X167325722Y-90309081D01*
X167325719Y-90309084D01*
X167168516Y-90479852D01*
X167041575Y-90674151D01*
X166948342Y-90886699D01*
X166891366Y-91111691D01*
X166891364Y-91111702D01*
X166872200Y-91342993D01*
X166872200Y-91343006D01*
X166891364Y-91574297D01*
X166891366Y-91574308D01*
X166948342Y-91799300D01*
X167041575Y-92011848D01*
X167168516Y-92206147D01*
X167168519Y-92206150D01*
X167168521Y-92206153D01*
X167325716Y-92376913D01*
X167325719Y-92376915D01*
X167325722Y-92376918D01*
X167503318Y-92515147D01*
X167544131Y-92571857D01*
X167547806Y-92641630D01*
X167513174Y-92702313D01*
X167503318Y-92710853D01*
X167325722Y-92849081D01*
X167325719Y-92849084D01*
X167168516Y-93019852D01*
X167041575Y-93214151D01*
X166948342Y-93426699D01*
X166891366Y-93651691D01*
X166891364Y-93651702D01*
X166872200Y-93882993D01*
X166872200Y-93883006D01*
X166891364Y-94114297D01*
X166891366Y-94114308D01*
X166948342Y-94339300D01*
X167041575Y-94551848D01*
X167168516Y-94746147D01*
X167168519Y-94746151D01*
X167168521Y-94746153D01*
X167325716Y-94916913D01*
X167325719Y-94916915D01*
X167325722Y-94916918D01*
X167503318Y-95055147D01*
X167544131Y-95111857D01*
X167547806Y-95181630D01*
X167513174Y-95242313D01*
X167503318Y-95250853D01*
X167325722Y-95389081D01*
X167325719Y-95389084D01*
X167325716Y-95389086D01*
X167325716Y-95389087D01*
X167284988Y-95433330D01*
X167168516Y-95559852D01*
X167041575Y-95754151D01*
X166948342Y-95966699D01*
X166891366Y-96191691D01*
X166891364Y-96191702D01*
X166872200Y-96422993D01*
X166872200Y-96423006D01*
X166891364Y-96654297D01*
X166891366Y-96654308D01*
X166948342Y-96879300D01*
X167041575Y-97091848D01*
X167168516Y-97286147D01*
X167168519Y-97286150D01*
X167168521Y-97286153D01*
X167325716Y-97456913D01*
X167325719Y-97456915D01*
X167325722Y-97456918D01*
X167508865Y-97599464D01*
X167508871Y-97599468D01*
X167508874Y-97599470D01*
X167712997Y-97709936D01*
X167793169Y-97737459D01*
X167932515Y-97785297D01*
X167932517Y-97785297D01*
X167932519Y-97785298D01*
X168161451Y-97823500D01*
X168161452Y-97823500D01*
X168393548Y-97823500D01*
X168393549Y-97823500D01*
X168622481Y-97785298D01*
X168842003Y-97709936D01*
X169046126Y-97599470D01*
X169229284Y-97456913D01*
X169386479Y-97286153D01*
X169390709Y-97279679D01*
X169443855Y-97234322D01*
X169494518Y-97223500D01*
X169626344Y-97223500D01*
X169626345Y-97223499D01*
X169780997Y-97192737D01*
X169926679Y-97132394D01*
X170057789Y-97044789D01*
X173645920Y-93456657D01*
X173707241Y-93423174D01*
X173776933Y-93428158D01*
X173832866Y-93470030D01*
X173835156Y-93473191D01*
X173842386Y-93483517D01*
X173843008Y-93484405D01*
X174010097Y-93651493D01*
X174010103Y-93651498D01*
X174196094Y-93781730D01*
X174239719Y-93836307D01*
X174246913Y-93905805D01*
X174215390Y-93968160D01*
X174196095Y-93984880D01*
X174010422Y-94114890D01*
X174010420Y-94114891D01*
X173843391Y-94281920D01*
X173843386Y-94281926D01*
X173707900Y-94475420D01*
X173707899Y-94475422D01*
X173608070Y-94689507D01*
X173608066Y-94689516D01*
X173546932Y-94917673D01*
X173546930Y-94917684D01*
X173526343Y-95152998D01*
X173526343Y-95153001D01*
X173546930Y-95388315D01*
X173546932Y-95388326D01*
X173608066Y-95616483D01*
X173608070Y-95616492D01*
X173707899Y-95830578D01*
X173843394Y-96024082D01*
X174010417Y-96191105D01*
X174196095Y-96321119D01*
X174239719Y-96375696D01*
X174246912Y-96445195D01*
X174215390Y-96507549D01*
X174196095Y-96524269D01*
X174010094Y-96654508D01*
X173843005Y-96821597D01*
X173707465Y-97015169D01*
X173707464Y-97015171D01*
X173607598Y-97229335D01*
X173607594Y-97229344D01*
X173546438Y-97457586D01*
X173546436Y-97457596D01*
X173528676Y-97660586D01*
X173503223Y-97725655D01*
X173492829Y-97737459D01*
X169952109Y-101278181D01*
X169890786Y-101311666D01*
X169864428Y-101314500D01*
X141513879Y-101314500D01*
X141330256Y-101351024D01*
X141330252Y-101351026D01*
X141330250Y-101351026D01*
X141330249Y-101351027D01*
X141258599Y-101380705D01*
X141258597Y-101380706D01*
X141157272Y-101422675D01*
X141157263Y-101422680D01*
X141001592Y-101526697D01*
X141001588Y-101526700D01*
X139472109Y-103056181D01*
X139410786Y-103089666D01*
X139384428Y-103092500D01*
X126812572Y-103092500D01*
X126745533Y-103072815D01*
X126724891Y-103056181D01*
X121412391Y-97743680D01*
X121378906Y-97682357D01*
X121383890Y-97612665D01*
X121425762Y-97556732D01*
X121491226Y-97532315D01*
X121500072Y-97531999D01*
X122320471Y-97531999D01*
X122320487Y-97531998D01*
X122423197Y-97521505D01*
X122589619Y-97466358D01*
X122589624Y-97466356D01*
X122738845Y-97374315D01*
X122862815Y-97250345D01*
X122954856Y-97101124D01*
X122954858Y-97101119D01*
X123010005Y-96934697D01*
X123010006Y-96934690D01*
X123020499Y-96831986D01*
X123020499Y-96057028D01*
X123020498Y-96057012D01*
X123010005Y-95954302D01*
X122954858Y-95787880D01*
X122954856Y-95787875D01*
X122862815Y-95638654D01*
X122848842Y-95624681D01*
X122815357Y-95563358D01*
X122820341Y-95493666D01*
X122862213Y-95437733D01*
X122927677Y-95413316D01*
X122936523Y-95413000D01*
X123522415Y-95413000D01*
X123589454Y-95432685D01*
X123621680Y-95462687D01*
X123685954Y-95548546D01*
X123695045Y-95555351D01*
X123736916Y-95611282D01*
X123741902Y-95680974D01*
X123722313Y-95725736D01*
X123713371Y-95738507D01*
X123713368Y-95738512D01*
X123617234Y-95944673D01*
X123617230Y-95944682D01*
X123558360Y-96164389D01*
X123558358Y-96164400D01*
X123538534Y-96390997D01*
X123538534Y-96391002D01*
X123558358Y-96617599D01*
X123558360Y-96617610D01*
X123617230Y-96837317D01*
X123617234Y-96837326D01*
X123713365Y-97043482D01*
X123843842Y-97229820D01*
X124004679Y-97390657D01*
X124191017Y-97521134D01*
X124397173Y-97617265D01*
X124397182Y-97617269D01*
X124616889Y-97676139D01*
X124616900Y-97676141D01*
X124843498Y-97695966D01*
X124843502Y-97695966D01*
X125070099Y-97676141D01*
X125070110Y-97676139D01*
X125289817Y-97617269D01*
X125289826Y-97617265D01*
X125495982Y-97521134D01*
X125682320Y-97390657D01*
X125843157Y-97229820D01*
X125973634Y-97043482D01*
X126069765Y-96837326D01*
X126069769Y-96837317D01*
X126128639Y-96617610D01*
X126128641Y-96617599D01*
X126148466Y-96391002D01*
X126148466Y-96390997D01*
X126128641Y-96164400D01*
X126128639Y-96164389D01*
X126069769Y-95944682D01*
X126069765Y-95944673D01*
X125973634Y-95738518D01*
X125973630Y-95738512D01*
X125964688Y-95725740D01*
X125942361Y-95659534D01*
X125959373Y-95591767D01*
X125991954Y-95555351D01*
X126001046Y-95548546D01*
X126087296Y-95433331D01*
X126137591Y-95298483D01*
X126144000Y-95238873D01*
X126143999Y-93543128D01*
X126138799Y-93494757D01*
X126137591Y-93483516D01*
X126087297Y-93348671D01*
X126087293Y-93348664D01*
X126001047Y-93233455D01*
X126001044Y-93233452D01*
X125885835Y-93147206D01*
X125885828Y-93147202D01*
X125750982Y-93096908D01*
X125750983Y-93096908D01*
X125691383Y-93090501D01*
X125691381Y-93090500D01*
X125691373Y-93090500D01*
X125691364Y-93090500D01*
X123995629Y-93090500D01*
X123995623Y-93090501D01*
X123936016Y-93096908D01*
X123801171Y-93147202D01*
X123801164Y-93147206D01*
X123685955Y-93233452D01*
X123685952Y-93233455D01*
X123594388Y-93355769D01*
X123593044Y-93354763D01*
X123550979Y-93396831D01*
X123491550Y-93412000D01*
X122730081Y-93412000D01*
X122664985Y-93393539D01*
X122589840Y-93347189D01*
X122589835Y-93347187D01*
X122589834Y-93347186D01*
X122423297Y-93292001D01*
X122423295Y-93292000D01*
X122320510Y-93281500D01*
X121270498Y-93281500D01*
X121270480Y-93281501D01*
X121167703Y-93292000D01*
X121167700Y-93292001D01*
X121001168Y-93347185D01*
X121001159Y-93347189D01*
X120926015Y-93393539D01*
X120860919Y-93412000D01*
X120099450Y-93412000D01*
X120032411Y-93392315D01*
X119997657Y-93354986D01*
X119996612Y-93355769D01*
X119905047Y-93233455D01*
X119905044Y-93233452D01*
X119789835Y-93147206D01*
X119789828Y-93147202D01*
X119654982Y-93096908D01*
X119654983Y-93096908D01*
X119595383Y-93090501D01*
X119595381Y-93090500D01*
X119595373Y-93090500D01*
X119595365Y-93090500D01*
X118806000Y-93090500D01*
X118738961Y-93070815D01*
X118693206Y-93018011D01*
X118682000Y-92966500D01*
X118682000Y-90765290D01*
X118701685Y-90698251D01*
X118754489Y-90652496D01*
X118762646Y-90649116D01*
X118823831Y-90626296D01*
X118939046Y-90540046D01*
X119025296Y-90424831D01*
X119074310Y-90293416D01*
X119116181Y-90237484D01*
X119181645Y-90213066D01*
X119249918Y-90227917D01*
X119278173Y-90249069D01*
X119400099Y-90370995D01*
X119496884Y-90438765D01*
X119593665Y-90506532D01*
X119593667Y-90506533D01*
X119593670Y-90506535D01*
X119807837Y-90606403D01*
X119807843Y-90606404D01*
X119807844Y-90606405D01*
X119862785Y-90621126D01*
X120036092Y-90667563D01*
X120224418Y-90684039D01*
X120271499Y-90688159D01*
X120271500Y-90688159D01*
X120271501Y-90688159D01*
X120310734Y-90684726D01*
X120506908Y-90667563D01*
X120735163Y-90606403D01*
X120949330Y-90506535D01*
X121142901Y-90370995D01*
X121309995Y-90203901D01*
X121439925Y-90018342D01*
X121494502Y-89974717D01*
X121564000Y-89967523D01*
X121626355Y-89999046D01*
X121643075Y-90018342D01*
X121772781Y-90203582D01*
X121773005Y-90203901D01*
X121940099Y-90370995D01*
X122036884Y-90438765D01*
X122133665Y-90506532D01*
X122133667Y-90506533D01*
X122133670Y-90506535D01*
X122347837Y-90606403D01*
X122347843Y-90606404D01*
X122347844Y-90606405D01*
X122402785Y-90621126D01*
X122576092Y-90667563D01*
X122764418Y-90684039D01*
X122811499Y-90688159D01*
X122811500Y-90688159D01*
X122811501Y-90688159D01*
X122850734Y-90684726D01*
X123046908Y-90667563D01*
X123275163Y-90606403D01*
X123489330Y-90506535D01*
X123682901Y-90370995D01*
X123849995Y-90203901D01*
X123980230Y-90017905D01*
X124034807Y-89974281D01*
X124104305Y-89967087D01*
X124166660Y-89998610D01*
X124183379Y-90017905D01*
X124313390Y-90203578D01*
X124480417Y-90370605D01*
X124673921Y-90506100D01*
X124888007Y-90605929D01*
X124888016Y-90605933D01*
X125116173Y-90667067D01*
X125116184Y-90667069D01*
X125351498Y-90687657D01*
X125351502Y-90687657D01*
X125586815Y-90667069D01*
X125586826Y-90667067D01*
X125814983Y-90605933D01*
X125814992Y-90605929D01*
X126029078Y-90506100D01*
X126222582Y-90370605D01*
X126389605Y-90203582D01*
X126525100Y-90010078D01*
X126624929Y-89795992D01*
X126624933Y-89795983D01*
X126686067Y-89567826D01*
X126686069Y-89567815D01*
X126689230Y-89531685D01*
X126714681Y-89466616D01*
X126771272Y-89425637D01*
X126841034Y-89421758D01*
X126900439Y-89454810D01*
X127562681Y-90117051D01*
X127596166Y-90178374D01*
X127599000Y-90204732D01*
X127599000Y-94215846D01*
X127629761Y-94370489D01*
X127629764Y-94370501D01*
X127690102Y-94516172D01*
X127690109Y-94516185D01*
X127777710Y-94647288D01*
X127777713Y-94647292D01*
X129047711Y-95917289D01*
X129154504Y-96024082D01*
X129159212Y-96028790D01*
X129290314Y-96116390D01*
X129290327Y-96116397D01*
X129428287Y-96173541D01*
X129436003Y-96176737D01*
X129436007Y-96176737D01*
X129436008Y-96176738D01*
X129590654Y-96207500D01*
X143895356Y-96207500D01*
X143962395Y-96227185D01*
X144008150Y-96279989D01*
X144018933Y-96341738D01*
X144012524Y-96419097D01*
X144012200Y-96423004D01*
X144012200Y-96423006D01*
X144031364Y-96654297D01*
X144031366Y-96654308D01*
X144088342Y-96879300D01*
X144181575Y-97091848D01*
X144308516Y-97286147D01*
X144308519Y-97286150D01*
X144308521Y-97286153D01*
X144465716Y-97456913D01*
X144465719Y-97456915D01*
X144465722Y-97456918D01*
X144643318Y-97595147D01*
X144684131Y-97651857D01*
X144687806Y-97721630D01*
X144653174Y-97782313D01*
X144643318Y-97790853D01*
X144465722Y-97929081D01*
X144465719Y-97929084D01*
X144465716Y-97929086D01*
X144465716Y-97929087D01*
X144445731Y-97950797D01*
X144308516Y-98099852D01*
X144181575Y-98294151D01*
X144088342Y-98506699D01*
X144031366Y-98731691D01*
X144031364Y-98731702D01*
X144012200Y-98962993D01*
X144012200Y-98963006D01*
X144031364Y-99194297D01*
X144031366Y-99194308D01*
X144088342Y-99419300D01*
X144181575Y-99631848D01*
X144308516Y-99826147D01*
X144308519Y-99826151D01*
X144308521Y-99826153D01*
X144465716Y-99996913D01*
X144465719Y-99996915D01*
X144465722Y-99996918D01*
X144648865Y-100139464D01*
X144648871Y-100139468D01*
X144648874Y-100139470D01*
X144852997Y-100249936D01*
X144966987Y-100289068D01*
X145072515Y-100325297D01*
X145072517Y-100325297D01*
X145072519Y-100325298D01*
X145301451Y-100363500D01*
X145301452Y-100363500D01*
X145533548Y-100363500D01*
X145533549Y-100363500D01*
X145762481Y-100325298D01*
X145982003Y-100249936D01*
X146186126Y-100139470D01*
X146369284Y-99996913D01*
X146526479Y-99826153D01*
X146653424Y-99631849D01*
X146746657Y-99419300D01*
X146803634Y-99194305D01*
X146812967Y-99081670D01*
X146822800Y-98963006D01*
X146822800Y-98962994D01*
X146806639Y-98767963D01*
X146820720Y-98699527D01*
X146842531Y-98670045D01*
X146901468Y-98611108D01*
X153130136Y-98611108D01*
X155177394Y-98611108D01*
X155177394Y-97621621D01*
X155873946Y-97621621D01*
X157758824Y-97621621D01*
X157758824Y-80666061D01*
X155873946Y-80666061D01*
X155873946Y-97621621D01*
X155177394Y-97621621D01*
X155177394Y-79851766D01*
X153130136Y-79851766D01*
X153130136Y-98611108D01*
X146901468Y-98611108D01*
X148833289Y-96679289D01*
X148920894Y-96548179D01*
X148981238Y-96402497D01*
X149012000Y-96247842D01*
X149012000Y-96090157D01*
X149012000Y-87962158D01*
X149002058Y-87912179D01*
X148999235Y-87897989D01*
X148981238Y-87807508D01*
X148981236Y-87807500D01*
X148975950Y-87794739D01*
X148969540Y-87779263D01*
X148950953Y-87734390D01*
X148920897Y-87661827D01*
X148920890Y-87661814D01*
X148833290Y-87530712D01*
X148794434Y-87491856D01*
X148721789Y-87419211D01*
X147797079Y-86494501D01*
X146805792Y-85503213D01*
X146805788Y-85503210D01*
X146674685Y-85415609D01*
X146674672Y-85415602D01*
X146529001Y-85355264D01*
X146528989Y-85355261D01*
X146374345Y-85324500D01*
X146374342Y-85324500D01*
X139915344Y-85324500D01*
X139848305Y-85304815D01*
X139827663Y-85288181D01*
X138634319Y-84094837D01*
X138600834Y-84033514D01*
X138598000Y-84007156D01*
X138598000Y-81182993D01*
X141472200Y-81182993D01*
X141472200Y-81183006D01*
X141491364Y-81414297D01*
X141491366Y-81414308D01*
X141548342Y-81639300D01*
X141641575Y-81851848D01*
X141768516Y-82046147D01*
X141768519Y-82046151D01*
X141768521Y-82046153D01*
X141925716Y-82216913D01*
X141925719Y-82216915D01*
X141925722Y-82216918D01*
X142108865Y-82359464D01*
X142108871Y-82359468D01*
X142108874Y-82359470D01*
X142312997Y-82469936D01*
X142426987Y-82509068D01*
X142532515Y-82545297D01*
X142532517Y-82545297D01*
X142532519Y-82545298D01*
X142761451Y-82583500D01*
X142761452Y-82583500D01*
X142993548Y-82583500D01*
X142993549Y-82583500D01*
X143222481Y-82545298D01*
X143442003Y-82469936D01*
X143646126Y-82359470D01*
X143829284Y-82216913D01*
X143986479Y-82046153D01*
X144043691Y-81958582D01*
X144096837Y-81913226D01*
X144166068Y-81903802D01*
X144229404Y-81933304D01*
X144251309Y-81958583D01*
X144308516Y-82046147D01*
X144308519Y-82046151D01*
X144308521Y-82046153D01*
X144465716Y-82216913D01*
X144465719Y-82216915D01*
X144465722Y-82216918D01*
X144648865Y-82359464D01*
X144648871Y-82359468D01*
X144648874Y-82359470D01*
X144852997Y-82469936D01*
X144966987Y-82509068D01*
X145072515Y-82545297D01*
X145072517Y-82545297D01*
X145072519Y-82545298D01*
X145301451Y-82583500D01*
X145301452Y-82583500D01*
X145533548Y-82583500D01*
X145533549Y-82583500D01*
X145762481Y-82545298D01*
X145982003Y-82469936D01*
X146186126Y-82359470D01*
X146369284Y-82216913D01*
X146526479Y-82046153D01*
X146653424Y-81851849D01*
X146746657Y-81639300D01*
X146803634Y-81414305D01*
X146803635Y-81414297D01*
X146822800Y-81183006D01*
X146822800Y-81182993D01*
X146803635Y-80951702D01*
X146803633Y-80951691D01*
X146746657Y-80726699D01*
X146653424Y-80514151D01*
X146526483Y-80319852D01*
X146526480Y-80319849D01*
X146526479Y-80319847D01*
X146369284Y-80149087D01*
X146369279Y-80149083D01*
X146369277Y-80149081D01*
X146186134Y-80006535D01*
X146186128Y-80006531D01*
X145982004Y-79896064D01*
X145981995Y-79896061D01*
X145762484Y-79820702D01*
X145590782Y-79792050D01*
X145533549Y-79782500D01*
X145301451Y-79782500D01*
X145255664Y-79790140D01*
X145072515Y-79820702D01*
X144853004Y-79896061D01*
X144852995Y-79896064D01*
X144648871Y-80006531D01*
X144648865Y-80006535D01*
X144465722Y-80149081D01*
X144465719Y-80149084D01*
X144465716Y-80149086D01*
X144465716Y-80149087D01*
X144454018Y-80161795D01*
X144308516Y-80319852D01*
X144251309Y-80407416D01*
X144198162Y-80452773D01*
X144128931Y-80462197D01*
X144065595Y-80432695D01*
X144043691Y-80407416D01*
X143986483Y-80319852D01*
X143986480Y-80319849D01*
X143986479Y-80319847D01*
X143829284Y-80149087D01*
X143829279Y-80149083D01*
X143829277Y-80149081D01*
X143646134Y-80006535D01*
X143646128Y-80006531D01*
X143442004Y-79896064D01*
X143441995Y-79896061D01*
X143222484Y-79820702D01*
X143050782Y-79792050D01*
X142993549Y-79782500D01*
X142761451Y-79782500D01*
X142715664Y-79790140D01*
X142532515Y-79820702D01*
X142313004Y-79896061D01*
X142312995Y-79896064D01*
X142108871Y-80006531D01*
X142108865Y-80006535D01*
X141925722Y-80149081D01*
X141925719Y-80149084D01*
X141925716Y-80149086D01*
X141925716Y-80149087D01*
X141914018Y-80161795D01*
X141768516Y-80319852D01*
X141641575Y-80514151D01*
X141548342Y-80726699D01*
X141491366Y-80951691D01*
X141491364Y-80951702D01*
X141472200Y-81182993D01*
X138598000Y-81182993D01*
X138598000Y-71159690D01*
X138617685Y-71092651D01*
X138650875Y-71058116D01*
X138668901Y-71045495D01*
X138835995Y-70878401D01*
X138966230Y-70692405D01*
X139020807Y-70648781D01*
X139090305Y-70641587D01*
X139152660Y-70673110D01*
X139169379Y-70692405D01*
X139299390Y-70878078D01*
X139466417Y-71045105D01*
X139659921Y-71180600D01*
X139874007Y-71280429D01*
X139874016Y-71280433D01*
X140102173Y-71341567D01*
X140102184Y-71341569D01*
X140337498Y-71362157D01*
X140337502Y-71362157D01*
X140572815Y-71341569D01*
X140572826Y-71341567D01*
X140800983Y-71280433D01*
X140800992Y-71280429D01*
X141015078Y-71180600D01*
X141208582Y-71045105D01*
X141375605Y-70878082D01*
X141511100Y-70684578D01*
X141610929Y-70470492D01*
X141610933Y-70470483D01*
X141672067Y-70242326D01*
X141672069Y-70242315D01*
X141692657Y-70007001D01*
X141692657Y-70006998D01*
X141672069Y-69771684D01*
X141672067Y-69771673D01*
X141610933Y-69543516D01*
X141610930Y-69543507D01*
X141559821Y-69433905D01*
X141549329Y-69364828D01*
X141577848Y-69301044D01*
X141636325Y-69262804D01*
X141672203Y-69257500D01*
X147548560Y-69257500D01*
X147615599Y-69277185D01*
G37*
%TD.AperFunction*%
%TA.AperFunction,Conductor*%
G36*
X120721516Y-95432685D02*
G01*
X120767271Y-95485489D01*
X120777215Y-95554647D01*
X120748190Y-95618203D01*
X120742158Y-95624681D01*
X120728184Y-95638654D01*
X120636143Y-95787875D01*
X120636141Y-95787880D01*
X120580994Y-95954302D01*
X120580993Y-95954309D01*
X120570500Y-96057013D01*
X120570500Y-96831971D01*
X120570501Y-96831987D01*
X120580994Y-96934697D01*
X120636141Y-97101119D01*
X120636143Y-97101124D01*
X120728184Y-97250345D01*
X120770658Y-97292819D01*
X120804143Y-97354142D01*
X120799159Y-97423834D01*
X120757287Y-97479767D01*
X120691823Y-97504184D01*
X120682977Y-97504500D01*
X119771840Y-97504500D01*
X119704801Y-97484815D01*
X119659046Y-97432011D01*
X119649102Y-97362853D01*
X119678127Y-97299297D01*
X119684159Y-97292819D01*
X119747157Y-97229820D01*
X119877634Y-97043482D01*
X119973765Y-96837326D01*
X119973769Y-96837317D01*
X120032639Y-96617610D01*
X120032641Y-96617599D01*
X120052466Y-96391002D01*
X120052466Y-96390997D01*
X120032641Y-96164400D01*
X120032639Y-96164389D01*
X119973769Y-95944682D01*
X119973765Y-95944673D01*
X119877634Y-95738518D01*
X119877630Y-95738512D01*
X119868688Y-95725740D01*
X119846361Y-95659534D01*
X119863373Y-95591767D01*
X119895954Y-95555351D01*
X119905046Y-95548546D01*
X119905049Y-95548542D01*
X119969320Y-95462689D01*
X120025253Y-95420818D01*
X120068586Y-95413000D01*
X120654477Y-95413000D01*
X120721516Y-95432685D01*
G37*
%TD.AperFunction*%
%TA.AperFunction,Conductor*%
G36*
X134235918Y-70902417D02*
G01*
X134264170Y-70923566D01*
X134386099Y-71045495D01*
X134404122Y-71058115D01*
X134447747Y-71112689D01*
X134457000Y-71159690D01*
X134457000Y-83201734D01*
X134487761Y-83356377D01*
X134487764Y-83356389D01*
X134548102Y-83502060D01*
X134548109Y-83502073D01*
X134635710Y-83633176D01*
X134635713Y-83633180D01*
X138649319Y-87646786D01*
X138649323Y-87646789D01*
X138780426Y-87734390D01*
X138780430Y-87734392D01*
X138780433Y-87734394D01*
X138926115Y-87794738D01*
X139080765Y-87825499D01*
X139080769Y-87825500D01*
X139080770Y-87825500D01*
X139238455Y-87825500D01*
X144154693Y-87825500D01*
X144221732Y-87845185D01*
X144267487Y-87897989D01*
X144277431Y-87967147D01*
X144258502Y-88017322D01*
X144182015Y-88134393D01*
X144088817Y-88346864D01*
X144031861Y-88571781D01*
X144012702Y-88802994D01*
X144012702Y-88803004D01*
X144019435Y-88884260D01*
X144005354Y-88952696D01*
X143956509Y-89002655D01*
X143895859Y-89018500D01*
X138942440Y-89018500D01*
X138875401Y-88998815D01*
X138854759Y-88982181D01*
X131957792Y-82085213D01*
X131957788Y-82085210D01*
X131826685Y-81997609D01*
X131826672Y-81997602D01*
X131681001Y-81937264D01*
X131680989Y-81937261D01*
X131526345Y-81906500D01*
X131526342Y-81906500D01*
X131330191Y-81906500D01*
X131263152Y-81886815D01*
X131228616Y-81853624D01*
X131227373Y-81851849D01*
X131215995Y-81835599D01*
X131215993Y-81835597D01*
X131215991Y-81835594D01*
X131048902Y-81668506D01*
X131048901Y-81668505D01*
X130862905Y-81538269D01*
X130819281Y-81483692D01*
X130812088Y-81414193D01*
X130843610Y-81351839D01*
X130862905Y-81335119D01*
X131048582Y-81205105D01*
X131215605Y-81038082D01*
X131351100Y-80844578D01*
X131450929Y-80630492D01*
X131450935Y-80630478D01*
X131463368Y-80584075D01*
X131499731Y-80524414D01*
X131562578Y-80493883D01*
X131631953Y-80502177D01*
X131670824Y-80528485D01*
X131774154Y-80631815D01*
X131923375Y-80723856D01*
X131923380Y-80723858D01*
X132089802Y-80779005D01*
X132089809Y-80779006D01*
X132192519Y-80789499D01*
X133242471Y-80789499D01*
X133242487Y-80789498D01*
X133345197Y-80779005D01*
X133511619Y-80723858D01*
X133511624Y-80723856D01*
X133660845Y-80631815D01*
X133784815Y-80507845D01*
X133876856Y-80358624D01*
X133876858Y-80358619D01*
X133932005Y-80192197D01*
X133932006Y-80192190D01*
X133942499Y-80089486D01*
X133942499Y-79314528D01*
X133942498Y-79314512D01*
X133932005Y-79211802D01*
X133876858Y-79045380D01*
X133876856Y-79045375D01*
X133784815Y-78896154D01*
X133660844Y-78772183D01*
X133660841Y-78772181D01*
X133657839Y-78770329D01*
X133656213Y-78768521D01*
X133655177Y-78767702D01*
X133655317Y-78767524D01*
X133611117Y-78718380D01*
X133599897Y-78649417D01*
X133627743Y-78585336D01*
X133657844Y-78559254D01*
X133661156Y-78557212D01*
X133785212Y-78433156D01*
X133877314Y-78283834D01*
X133932499Y-78117297D01*
X133943000Y-78014509D01*
X133942999Y-77239492D01*
X133938432Y-77194788D01*
X133932499Y-77136703D01*
X133932498Y-77136700D01*
X133877314Y-76970166D01*
X133785212Y-76820844D01*
X133754319Y-76789951D01*
X133720834Y-76728628D01*
X133718000Y-76702270D01*
X133718000Y-71421141D01*
X133737685Y-71354102D01*
X133790489Y-71308347D01*
X133798649Y-71304966D01*
X133809831Y-71300796D01*
X133837033Y-71280433D01*
X133918145Y-71219712D01*
X133925046Y-71214546D01*
X134011296Y-71099331D01*
X134060310Y-70967916D01*
X134102181Y-70911984D01*
X134167645Y-70887566D01*
X134235918Y-70902417D01*
G37*
%TD.AperFunction*%
%TA.AperFunction,Conductor*%
G36*
X124166660Y-85426610D02*
G01*
X124183379Y-85445905D01*
X124313390Y-85631578D01*
X124480417Y-85798605D01*
X124673921Y-85934100D01*
X124888007Y-86033929D01*
X124888016Y-86033933D01*
X125116173Y-86095067D01*
X125116184Y-86095069D01*
X125351498Y-86115657D01*
X125351502Y-86115657D01*
X125586815Y-86095069D01*
X125586826Y-86095067D01*
X125814983Y-86033933D01*
X125814992Y-86033929D01*
X126029078Y-85934100D01*
X126222582Y-85798605D01*
X126389605Y-85631582D01*
X126473425Y-85511877D01*
X126528003Y-85468252D01*
X126597501Y-85461060D01*
X126659856Y-85492582D01*
X126695269Y-85552812D01*
X126699000Y-85583001D01*
X126699000Y-88509998D01*
X126679315Y-88577037D01*
X126626511Y-88622792D01*
X126557353Y-88632736D01*
X126493797Y-88603711D01*
X126473425Y-88581122D01*
X126389609Y-88461422D01*
X126389608Y-88461420D01*
X126222582Y-88294394D01*
X126029078Y-88158899D01*
X125814992Y-88059070D01*
X125814983Y-88059066D01*
X125586826Y-87997932D01*
X125586815Y-87997930D01*
X125351502Y-87977343D01*
X125351498Y-87977343D01*
X125116184Y-87997930D01*
X125116173Y-87997932D01*
X124888016Y-88059066D01*
X124888007Y-88059070D01*
X124673922Y-88158899D01*
X124673920Y-88158900D01*
X124480426Y-88294386D01*
X124480420Y-88294391D01*
X124313391Y-88461420D01*
X124313390Y-88461422D01*
X124183380Y-88647095D01*
X124128803Y-88690719D01*
X124059304Y-88697912D01*
X123996950Y-88666390D01*
X123980230Y-88647094D01*
X123849994Y-88461097D01*
X123682904Y-88294008D01*
X123682901Y-88294005D01*
X123664874Y-88281382D01*
X123621251Y-88226806D01*
X123612000Y-88179809D01*
X123612000Y-85913190D01*
X123631685Y-85846151D01*
X123664875Y-85811616D01*
X123682901Y-85798995D01*
X123849995Y-85631901D01*
X123980230Y-85445905D01*
X124034807Y-85402281D01*
X124104305Y-85395087D01*
X124166660Y-85426610D01*
G37*
%TD.AperFunction*%
%TA.AperFunction,Conductor*%
G36*
X124295126Y-72932255D02*
G01*
X124329011Y-72942100D01*
X124329010Y-72942100D01*
X124365850Y-72944999D01*
X124365866Y-72945000D01*
X124719500Y-72945000D01*
X124786539Y-72964685D01*
X124832294Y-73017489D01*
X124843500Y-73069000D01*
X124843500Y-76357000D01*
X124935000Y-76357000D01*
X125002039Y-76376685D01*
X125047794Y-76429489D01*
X125059000Y-76481000D01*
X125059000Y-80753846D01*
X125089761Y-80908489D01*
X125089764Y-80908501D01*
X125150102Y-81054172D01*
X125150109Y-81054185D01*
X125237710Y-81185288D01*
X125237713Y-81185292D01*
X126662681Y-82610259D01*
X126696166Y-82671582D01*
X126699000Y-82697940D01*
X126699000Y-83937998D01*
X126679315Y-84005037D01*
X126626511Y-84050792D01*
X126557353Y-84060736D01*
X126493797Y-84031711D01*
X126473425Y-84009122D01*
X126389609Y-83889422D01*
X126389608Y-83889420D01*
X126222582Y-83722394D01*
X126029078Y-83586899D01*
X125814992Y-83487070D01*
X125814983Y-83487066D01*
X125586826Y-83425932D01*
X125586815Y-83425930D01*
X125351502Y-83405343D01*
X125351498Y-83405343D01*
X125116184Y-83425930D01*
X125116173Y-83425932D01*
X124888016Y-83487066D01*
X124888007Y-83487070D01*
X124673922Y-83586899D01*
X124673920Y-83586900D01*
X124480426Y-83722386D01*
X124480420Y-83722391D01*
X124313391Y-83889420D01*
X124313390Y-83889422D01*
X124183380Y-84075095D01*
X124128803Y-84118719D01*
X124059304Y-84125912D01*
X123996950Y-84094390D01*
X123980230Y-84075094D01*
X123849994Y-83889097D01*
X123682902Y-83722006D01*
X123682895Y-83722001D01*
X123489334Y-83586467D01*
X123489330Y-83586465D01*
X123419035Y-83553686D01*
X123275163Y-83486597D01*
X123275159Y-83486596D01*
X123275155Y-83486594D01*
X123046913Y-83425438D01*
X123046903Y-83425436D01*
X122811501Y-83404841D01*
X122811499Y-83404841D01*
X122576096Y-83425436D01*
X122576086Y-83425438D01*
X122347844Y-83486594D01*
X122347835Y-83486598D01*
X122133671Y-83586464D01*
X122133669Y-83586465D01*
X121940097Y-83722005D01*
X121773005Y-83889097D01*
X121643075Y-84074658D01*
X121588498Y-84118283D01*
X121519000Y-84125477D01*
X121456645Y-84093954D01*
X121439925Y-84074658D01*
X121309994Y-83889097D01*
X121142902Y-83722006D01*
X121142895Y-83722001D01*
X120949334Y-83586467D01*
X120949330Y-83586465D01*
X120879035Y-83553686D01*
X120735163Y-83486597D01*
X120735159Y-83486596D01*
X120735155Y-83486594D01*
X120506913Y-83425438D01*
X120506903Y-83425436D01*
X120266106Y-83404369D01*
X120266211Y-83403159D01*
X120204901Y-83385156D01*
X120159146Y-83332352D01*
X120149202Y-83263194D01*
X120178227Y-83199638D01*
X120184259Y-83193160D01*
X121292209Y-82085210D01*
X122433278Y-80944141D01*
X122433282Y-80944139D01*
X122572639Y-80804782D01*
X122682132Y-80640914D01*
X122730387Y-80524414D01*
X122749754Y-80477659D01*
X122749756Y-80477653D01*
X122757551Y-80458836D01*
X122776775Y-80362188D01*
X122796000Y-80265541D01*
X122796000Y-74391861D01*
X122815685Y-74324822D01*
X122832314Y-74304185D01*
X124172852Y-72963647D01*
X124234171Y-72930165D01*
X124295126Y-72932255D01*
G37*
%TD.AperFunction*%
%TD*%
M02*
