<?xml version="1.0" encoding="UTF-8"?>
<svg version="1.1" xmlns="http://www.w3.org/2000/svg" width="512" height="512">
<path d="M0 0 C0.8456308 -0.00297112 1.69126161 -0.00594224 2.56251758 -0.0090034 C5.37713276 -0.01762838 8.19170509 -0.01919337 11.0063324 -0.02069092 C13.03241058 -0.02532353 15.05848789 -0.03034879 17.08456421 -0.03573608 C22.5766577 -0.04882042 28.06873898 -0.05529743 33.56084561 -0.05974674 C36.9976367 -0.06268423 40.43442449 -0.06679033 43.87121391 -0.07125092 C54.64017202 -0.08491617 65.40912255 -0.09458726 76.17808872 -0.09845281 C88.57922766 -0.10292956 100.98025617 -0.12046385 113.38136154 -0.1494534 C122.98677561 -0.17112254 132.59215873 -0.1811599 142.19759697 -0.18249393 C147.92518648 -0.18353832 153.65267205 -0.18936785 159.38023567 -0.20731354 C164.7737613 -0.2238846 170.16710583 -0.22590614 175.56064796 -0.21717453 C177.5297418 -0.21640894 179.49884574 -0.22068305 181.46791458 -0.23063278 C205.77189307 -0.34614552 226.52524015 4.46647181 244.82835388 21.63653564 C259.58641762 36.9438477 266.40395094 55.5735268 266.38285828 76.61297607 C266.38731496 78.01489787 266.38731496 78.01489787 266.39186168 79.44514132 C266.40051094 82.5668913 266.40205374 85.68860277 266.40354919 88.81036377 C266.40818012 91.05304038 266.41320515 93.2957162 266.41859436 95.53839111 C266.43169581 101.62556619 266.43815918 107.71273025 266.44260502 113.79991722 C266.44554 117.60740175 266.44964566 121.41488331 266.45410919 125.22236633 C266.46621453 135.78257877 266.47659719 146.34278861 266.47998428 156.90300751 C266.48020385 157.57803882 266.48042342 158.25307013 266.48064964 158.94855693 C266.48086791 159.62512638 266.48108619 160.30169582 266.48131108 160.99876738 C266.48175454 162.36955992 266.4822011 163.74035247 266.48265076 165.11114502 C266.48287219 165.79109325 266.48309362 166.47104148 266.48332176 167.1715942 C266.48726443 178.17354095 266.504704 189.17542124 266.52801028 200.17734236 C266.55179418 211.49697562 266.56393202 222.81656445 266.5653522 234.13622713 C266.56639742 240.48198565 266.57224476 246.82765042 266.59017181 253.17338562 C266.6067245 259.14882274 266.60877316 265.12409637 266.60003281 271.09954834 C266.59926622 273.28311096 266.60355476 275.46668263 266.61349106 277.65022278 C266.72284682 303.19610438 262.16223243 324.25349768 244.04319763 343.49981689 C228.63829575 358.02382481 209.72466401 364.39873507 188.80491638 364.20294189 C187.88259216 364.19843018 186.96026794 364.19391846 186.00999451 364.18927002 C183.7540659 364.17758127 181.49827671 364.16119645 179.24241638 364.14044189 C179.22042175 365.06034912 179.22042175 365.06034912 179.19798279 365.99884033 C178.581027 382.87725506 167.88418916 398.56274292 156.01194763 409.79669189 C141.10339314 422.41324012 123.95501414 428.3026303 104.48483276 428.28088379 C103.21638656 428.28534047 103.21638656 428.28534047 101.92231518 428.28988719 C99.10770001 428.29851217 96.29312767 428.30007716 93.47850037 428.30157471 C91.45242219 428.30620732 89.42634487 428.31123258 87.40026855 428.31661987 C81.90817507 428.32970421 76.41609378 428.33618122 70.92398715 428.34063053 C67.48719607 428.34356802 64.05040827 428.34767412 60.61361885 428.3521347 C49.84466075 428.36579996 39.07571021 428.37547105 28.30674404 428.3793366 C15.9056051 428.38381335 3.5045766 428.40134764 -8.89652878 428.43033719 C-18.50194285 428.45200632 -28.10732597 428.46204368 -37.7127642 428.46337771 C-43.44035372 428.46442211 -49.16783928 428.47025163 -54.89540291 428.48819733 C-60.28892853 428.50476839 -65.68227307 428.50678993 -71.0758152 428.49805832 C-73.04490903 428.49729273 -75.01401297 428.50156684 -76.98308182 428.51151657 C-101.28706031 428.6270293 -122.04040738 423.81441198 -140.34352112 406.64434814 C-154.80497098 391.64468898 -161.92093471 373.1562024 -161.89802551 352.46514893 C-161.90099663 351.616289 -161.90396776 350.76742907 -161.90702891 349.89284611 C-161.91566893 347.0613054 -161.91722018 344.22980721 -161.91871643 341.39825439 C-161.92334803 339.36247163 -161.92837315 337.32668972 -161.9337616 335.29090881 C-161.94685693 329.76776536 -161.95332526 324.24463405 -161.95777225 318.72147751 C-161.96070835 315.26576323 -161.96481422 311.81005222 -161.96927643 308.3543396 C-161.98294543 297.52771298 -161.99261433 286.70109391 -161.99647832 275.87445927 C-162.00095408 263.40425992 -162.01848215 250.93417046 -162.04747891 238.46400452 C-162.069148 228.80765563 -162.07918543 219.15133753 -162.08051944 209.4949646 C-162.08156396 203.73606129 -162.08739614 197.97726136 -162.10533905 192.21838379 C-162.12190969 186.79450302 -162.12393185 181.37080232 -162.11520004 175.94690514 C-162.11443439 173.96652428 -162.11870937 171.98613338 -162.12865829 170.00577736 C-162.23246761 148.0372093 -158.93993045 129.7530718 -144.75758362 112.14044189 C-144.28836487 111.50751221 -143.81914612 110.87458252 -143.33570862 110.22247314 C-134.06455097 98.30630875 -118.07916253 89.87028483 -103.49586487 86.56231689 C-94.31290191 85.52599506 -84.98270241 85.92223494 -75.75758362 86.14044189 C-75.78900452 85.16772339 -75.78900452 85.16772339 -75.82106018 84.175354 C-76.49017242 60.25882649 -72.55999482 41.15651864 -56.44508362 22.85528564 C-41.09903685 7.35310177 -21.58914116 -0.02411321 0 0 Z M-25.75758362 55.14044189 C-31.39722343 62.43035799 -33.09803986 69.52049278 -32.88258362 78.57794189 C-32.87356018 79.30948486 -32.86453674 80.04102783 -32.85523987 80.79473877 C-32.83194515 82.57678487 -32.79608552 84.35865948 -32.75758362 86.14044189 C-31.98712141 86.14190845 -31.2166592 86.14337502 -30.42284966 86.14488602 C-11.62443526 86.18203341 7.17379453 86.24115273 25.97206306 86.32434464 C35.06299741 86.36405383 44.15384622 86.39648739 53.24485779 86.41143799 C61.17405971 86.42449678 69.10307276 86.45156852 77.03216827 86.49505496 C81.22563938 86.51757527 85.41887837 86.53335829 89.61241531 86.53232574 C93.57045461 86.5315735 97.52798263 86.54974735 101.48588943 86.58160973 C102.92806155 86.59003442 104.37029152 86.59191004 105.81247711 86.58624458 C124.63745452 86.52222063 142.05466495 92.49543625 156.24241638 105.14044189 C156.91659607 105.72180908 157.59077576 106.30317627 158.28538513 106.90216064 C170.02765305 117.73593588 178.36836472 134.82955869 179.50412941 150.82662964 C179.50966017 152.09501678 179.51519093 153.36340393 179.52088928 154.67022705 C179.52668168 155.38351701 179.53247409 156.09680696 179.53844202 156.83171177 C179.55531035 159.19768983 179.55830702 161.56347129 179.56126404 163.92950439 C179.57057133 165.63510102 179.58074119 167.34069313 179.59170532 169.04627991 C179.61892907 173.65928585 179.63413207 178.27226138 179.64713335 182.88532639 C179.66279733 187.71266911 179.68957711 192.53995005 179.71516418 197.36724854 C179.76189419 206.50073678 179.79866624 215.63423671 179.83183706 224.76778316 C179.87009931 235.16926008 179.91949871 245.57067484 179.96982121 255.9720993 C180.07305511 277.3615009 180.16234325 298.75094187 180.24241638 320.14044189 C183.12409545 320.18448872 186.00509339 320.21663571 188.88694763 320.24200439 C190.10323853 320.26242798 190.10323853 320.26242798 191.34410095 320.28326416 C200.26713411 320.34213218 207.12252241 317.99711174 213.71116638 311.84356689 C220.44019222 304.35924223 222.5452753 296.70169043 222.50984192 286.83044434 C222.51663859 285.43676309 222.51663859 285.43676309 222.52357256 284.01492667 C222.5362184 280.90599817 222.53459606 277.79724481 222.53294373 274.68829346 C222.53892889 272.45735448 222.54573441 270.22641758 222.55329895 267.9954834 C222.57096825 261.93749814 222.57565476 255.87956939 222.57693052 249.82156086 C222.57835226 246.03538997 222.58262231 242.24923343 222.58792496 238.4630661 C222.60547408 225.93220768 222.61476483 213.40138137 222.61326401 200.87051323 C222.61314414 199.85799022 222.61314414 199.85799022 222.61302185 198.82501221 C222.61289921 197.81124613 222.61289921 197.81124613 222.61277409 196.77699992 C222.61196159 185.82978203 222.63109142 174.88270185 222.65929858 163.93552378 C222.6880636 152.68261515 222.70147104 141.42977154 222.70011103 130.17681861 C222.69960151 123.86415679 222.70527968 117.55165082 222.72646713 111.2390213 C222.74585729 105.29967887 222.74596836 99.36064082 222.73143387 93.42128754 C222.7293456 91.24530085 222.73404769 89.06929507 222.74615479 86.89334106 C222.76165059 83.91466357 222.75227011 80.93702994 222.7368927 77.95837402 C222.74717983 77.10445894 222.75746695 76.25054387 222.76806581 75.37075257 C222.67055455 66.77877355 219.85432183 58.9982649 213.94554138 52.67169189 C206.77968581 46.22899606 199.3507026 43.83482885 189.7676239 43.87301636 C188.92834122 43.86848524 188.08905855 43.86395413 187.22434306 43.85928571 C184.41943871 43.8466522 181.6147288 43.84826141 178.80979919 43.84991455 C176.79560599 43.8439286 174.78141507 43.8371229 172.76722717 43.82955933 C167.30013096 43.81189774 161.83309736 43.80720384 156.36597538 43.80592775 C152.94832522 43.80450555 149.53069095 43.80023462 146.11304474 43.79493332 C134.18415314 43.77643169 122.25530623 43.76826277 110.32640076 43.76983643 C99.21672117 43.77103748 88.10723597 43.7499425 76.99760556 43.7183491 C67.45175046 43.69217265 57.90595879 43.68146973 48.36006808 43.68274724 C42.66220437 43.68325652 36.96451337 43.67759215 31.26668549 43.65639114 C25.90515875 43.63698615 20.54396909 43.63689994 15.18243027 43.65142441 C13.21930065 43.65351086 11.25614981 43.6488214 9.29305649 43.63670349 C-4.67284461 43.55610673 -15.78922793 44.21743299 -25.75758362 55.14044189 Z M-110.75758362 140.14044189 C-111.52070862 140.92419189 -112.28383362 141.70794189 -113.07008362 142.51544189 C-117.15047961 148.86272454 -118.20327526 155.55811372 -118.14526367 162.97599792 C-118.15064921 163.81784388 -118.15603475 164.65968983 -118.16158348 165.52704626 C-118.17578867 168.32272854 -118.16877789 171.11793234 -118.16163635 173.91363525 C-118.1673438 175.92827228 -118.1743095 177.94290607 -118.18243408 179.95753479 C-118.20033871 185.41209162 -118.1992022 190.86648735 -118.1934917 196.32106471 C-118.1903961 200.88116278 -118.1964964 205.44123007 -118.20253044 210.00132376 C-118.21656508 220.76183397 -118.21502306 231.52226476 -118.20362854 242.28277588 C-118.19214685 253.37037467 -118.20622638 264.45773159 -118.23302501 275.54529852 C-118.2552009 285.07848337 -118.26181516 294.6115924 -118.2559486 304.1448012 C-118.25258255 309.83254927 -118.25497092 315.52014229 -118.27219963 321.20786858 C-118.28769682 326.55713898 -118.28368225 331.90605173 -118.26489449 337.25530815 C-118.26121638 339.21359693 -118.26429425 341.17191238 -118.27478027 343.13017654 C-118.33533974 355.37876397 -118.30965022 366.13456755 -109.46070862 375.60919189 C-102.2917668 382.05466252 -94.86353932 384.44771664 -85.27606201 384.40113831 C-84.43607377 384.40496385 -83.59608553 384.4087894 -82.73064309 384.41273087 C-79.92339701 384.42302782 -77.11635673 384.41907499 -74.30909729 384.4151001 C-72.29328218 384.41944844 -70.27746872 384.424632 -68.26165771 384.43058777 C-62.79049019 384.44397698 -57.31939176 384.44455643 -51.84821105 384.44202447 C-47.27823402 384.44095453 -42.70827095 384.44583881 -38.1382969 384.45062989 C-27.35439942 384.46172519 -16.57053678 384.46216259 -5.78663635 384.45611572 C5.33098387 384.45007745 16.44847748 384.46238322 27.5660761 384.48368579 C37.11700999 384.50131224 46.66790362 384.50730143 56.21885318 384.50404805 C61.92056291 384.50223644 67.62218236 384.5048591 73.32387733 384.51876259 C78.68782161 384.53135291 84.05156887 384.5293853 89.41551018 384.5163517 C91.38066805 384.51398886 93.34583984 384.51671007 95.31098175 384.52497482 C98.00086274 384.535469 100.69008597 384.52732025 103.37994385 384.5146637 C104.15117091 384.52203798 104.92239796 384.52941227 105.71699554 384.53701001 C115.33388331 384.44230567 122.08091725 381.276756 129.00413513 374.68731689 C135.51429207 367.27959905 137.39370396 359.66473361 137.38285828 350.05801392 C137.3858294 349.2367743 137.38880052 348.41553468 137.39186168 347.56940901 C137.40054306 344.81361671 137.40205647 342.05786788 137.40354919 339.30206299 C137.40817784 337.32757474 137.41320257 335.35308739 137.41859436 333.37860107 C137.43171772 328.01056944 137.43816345 322.64255031 137.44260502 317.27450514 C137.44553645 313.9195193 137.44964145 310.56453688 137.45410919 307.20955276 C137.46778529 296.70916108 137.47745083 286.20877721 137.48131108 275.70837724 C137.48578923 263.59409957 137.50332539 251.47993487 137.53231168 239.36569154 C137.55394604 229.99822617 137.56401634 220.63079253 137.5653522 211.26330245 C137.56639917 205.67051007 137.57228374 200.07782387 137.59017181 194.48505783 C137.60668227 189.22046116 137.6087935 183.95605014 137.60003281 178.69143677 C137.59926397 176.76378506 137.60358484 174.83612326 137.61349106 172.90849686 C137.73302161 154.00714109 137.73302161 154.00714109 128.24241638 138.14044189 C117.48890452 127.94195 104.6351006 128.70006626 90.73875427 128.73638916 C88.76500056 128.7306802 86.79125014 128.72371391 84.81750488 128.71559143 C79.47863783 128.69770363 74.13993554 128.69882011 68.80104756 128.70453382 C64.33543582 128.70763183 59.86985545 128.70152644 55.40424818 128.69549507 C44.86565838 128.68146599 34.32714968 128.68299784 23.78855896 128.69439697 C12.93442054 128.70587833 2.0805292 128.69179843 -8.77357668 128.6650005 C-18.11062096 128.64281542 -27.44758783 128.63621241 -36.78465658 128.64207691 C-42.35337435 128.64544074 -47.92193372 128.64306943 -53.4906292 128.62582588 C-58.72829298 128.61031396 -63.96559176 128.61435947 -69.20324135 128.63313103 C-71.11918444 128.63680506 -73.03515484 128.63374325 -74.95107269 128.62324524 C-89.17285543 128.55130142 -100.37768004 129.34239054 -110.75758362 140.14044189 Z " transform="translate(203.75758361816406,41.85955810546875)"/>
</svg>
