# Object Export From Tinkercad Server 2015

mtllib obj.mtl

o obj_0
v -53 		83 		4
v -53 		83 		0
v -53 		68.2 		0
v -53 		68.2 		4
v -53 		46 		0
v -53 		46 		4
v -53 		60.8 		4
v -53 		60.8 		0
v 17.264 		75.411 		4
v 17.264 		75.411 		2.998
v -44.8 		75.6 		0
v 18.021 		75.411 		2.998
v -49.2 		75.6 		0
v 18.021 		75.411 		4
v 16.18 		73.608 		2.998
v -49.2 		68.2 		0
v -44.8 		60.8 		0
v 16.224 		73.66 		4
v -49.2 		53.4 		0
v 4.557 		72.397 		4
v -49.2 		46 		0
v 4.557 		72.397 		2.998
v 4.507 		72.698 		2.998
v -44.8 		53.4 		0
v -44.8 		46 		0
v 15.958 		72.773 		4
v -44.8 		75.6 		4
v 15.963 		72.747 		2.998
v 4.73 		71.996 		2.998
v 4.814 		71.879 		2.998
v 4.967 		71.72 		2.998
v 17.014 		73.764 		4
v -14.014 		73.534 		3.608
v 15.956 		73.023 		2.998
v 4.601 		72.255 		2.998
v -49.2 		75.6 		4
v 16.848 		73.824 		4
v -49.2 		68.2 		4
v 16.002 		73.27 		4
v -44.8 		60.8 		4
v -49.2 		46 		4
v -49.2 		53.4 		4
v 16.672 		73.833 		4
v -44.8 		53.4 		4
v 6.347 		71.351 		2.998
v 15.952 		72.973 		4
v -14.019 		73.533 		3.584
v 6.19 		71.327 		4
v 6.347 		71.351 		4
v -44.8 		46 		4
v 16.58 		73.821 		4
v 6.684 		71.456 		4
v -14.016 		73.5336 		3.5972
v 6.684 		71.456 		2.998
v 15.171 		72.772 		4
v -14.976 		72.636 		3.955
v -14.971 		72.626 		4
v -14.972 		72.627 		3.84
v 15.165 		73.054 		2.998
v 6.833 		71.534 		2.998
v 15.175 		73.146 		4
v 6.833 		71.534 		4
v -14.976 		72.636 		3.968
v 15.222 		73.418 		4
v 6.97 		71.629 		2.998
v 15.222 		73.418 		2.998
v 6.97 		71.629 		4
v -14.975 		72.634 		3.84
v -14.973 		72.628 		4
v 15.28 		73.594 		4
v 15.28 		73.594 		2.998
v -14.976 		72.637 		4
v 5.503 		71.401 		4
v 43.8 		42 		0
v 5.726 		71.341 		4
v 43.8 		42 		4
v 5.726 		71.341 		2.998
v 29.4 		42 		4
v 29.4 		42 		0
v 15.448 		71.909 		4
v 5.43 		71.427 		2.998
v 14.2 		42 		0
v 14.2 		42 		4
v -14.997 		72.684 		4
v 5.286 		71.494 		2.998
v 67 		68.2 		0
v 5.286 		71.494 		4
v 67 		83 		0
v -14.016 		73.5339 		3.6343
v 67 		46 		0
v -14.0168 		73.5338 		3.648
v 67 		60.8 		0
v 15.61 		71.713 		4
v 43.8 		87 		0
v 43.8 		83 		0
v 5.146 		71.578 		2.998
v 5.022 		71.67 		4
v 58.8 		60.8 		0
v 58.8 		75.6 		0
v 63.2 		68.2 		0
v 63.2 		75.6 		0
v 5.146 		71.578 		4
v 16.044 		72.407 		4
v 43.8 		46 		0
v 16.119 		72.256 		4
v 58.8 		53.4 		0
v 58.8 		46 		0
v 5.956 		71.319 		4
v 63.2 		46 		0
v 63.2 		53.4 		0
v 16.006 		72.53 		4
v 17.263 		65.985 		0
v 17.002 		66.003 		0
v 17.52 		65.934 		0
v 17.768 		65.85 		0
v 18.002 		65.734 		0
v 18.22 		65.589 		0
v 5.956 		71.319 		2.998
v 16.298 		72.083 		4
v 16.199 		72.161 		4
v 4.064 		72.108 		4
v 4.064 		72.108 		2.998
v 4.064 		71.418 		4
v 4.064 		71.418 		2.998
v 3 		69.001 		4
v 16.437 		73.786 		4
v 15.486 		71.859 		2.998
v 29.4 		46 		0
v 29.4 		46 		4
v 18.417 		65.417 		0
v 18.589 		65.22 		0
v 18.734 		65.002 		0
v 16.911 		74.452 		4
v 18.85 		64.767 		0
v 16.712 		74.483 		4
v 16.099 		72.292 		2.998
v 18.934 		64.52 		0
v 16.409 		74.479 		4
v 18.985 		64.263 		0
v 19.003 		64.002 		0
v 15.994 		72.572 		2.998
v 18.417 		65.417 		4
v 18.589 		65.22 		4
v 16.511 		74.486 		4
v 18.734 		65.002 		4
v -13.915 		75.178 		4
v 18.85 		64.767 		4
v 27.999 		77.403 		0
v 18.934 		64.52 		4
v 18.985 		64.263 		4
v 19.003 		64.002 		4
v -14.996 		72.695 		4
v 16.199 		72.161 		2.998
v 27.999 		69.001 		0
v 16.339 		72.063 		2.998
v 15.274 		72.239 		4
v 15.351 		72.069 		4
v 15.351 		72.069 		2.998
v 15.274 		72.239 		2.998
v 18.734 		50.998 		0
v 18.589 		50.78 		0
v 18.417 		50.583 		0
v 15.222 		72.423 		2.998
v 15.207 		72.486 		4
v 15.178 		72.678 		2.998
v 18.22 		50.411 		0
v 28.003 		77.403 		0
v 18.002 		50.266 		0
v 28.003 		68.998 		0
v -14.874 		72.518 		4
v 17.768 		50.15 		0
v 29.4 		83 		0
v 17.52 		50.066 		0
v 29.4 		87 		0
v -14.123 		73.5 		4
v -14.123 		73.5 		3.648
v 17.263 		50.015 		0
v 14.2 		87 		0
v 14.2 		83 		0
v 15.705 		71.622 		2.998
v 17.002 		49.998 		0
v 19.003 		51.998 		0
v 18.985 		51.737 		0
v 18.934 		51.48 		0
v 15.705 		71.622 		4
v 15.843 		71.519 		2.998
v 18.85 		51.233 		0
v 15.843 		71.519 		4
v 15.984 		71.438 		4
v 15.984 		71.438 		2.998
v 16.279 		71.34 		2.998
v 16.279 		71.34 		4
v 18.734 		50.998 		4
v -14.118 		73.502 		3.584
v -14.868 		72.501 		4
v 18.589 		50.78 		4
v 18.417 		50.583 		4
v 16.129 		71.379 		2.998
v 18.22 		50.411 		4
v 18.002 		50.266 		4
v 16.129 		71.379 		4
v -14.974 		72.631 		3.712
v 17.768 		50.15 		4
v -14.123 		73.5 		3.584
v 15.002 		69.001 		4
v 17.52 		50.066 		4
v -14.117 		73.502 		3.584
v 17.263 		50.015 		4
v 17.002 		49.998 		4
v 18.985 		51.737 		4
v 19.003 		51.998 		4
v 14.375 		73.924 		2.998
v 18.934 		51.48 		4
v 14.418 		73.822 		2.998
v 18.85 		51.233 		4
v -14.972 		72.627 		3.712
v 14.349 		73.972 		4
v -14.25 		73.407 		4
v -14.252 		73.405 		4
v -14.253 		73.405 		4
v -14.249 		73.407 		4
v 13.321 		73.775 		4
v -14.249 		73.408 		4
v 13.923 		74.374 		4
v 13.581 		74.477 		4
v 13.412 		74.498 		4
v -13.928 		73.27 		4
v -13.999 		73.248 		4
v 14.154 		74.226 		4
v 14.024 		74.323 		4
v 14.263 		74.109 		4
v -14.013 		73.534 		3.584
v -14.0121 		73.534 		3.584
v -14.0132 		73.534 		3.584
v 14.2 		46 		4
v 14.2 		46 		0
v -14.0132 		73.534 		3.584
v -0.2 		83 		4
v -15.4 		83 		4
v -0.2 		87 		4
v 13.581 		74.477 		2.998
v 13.923 		74.374 		2.998
v -15.4 		87 		4
v 13.412 		74.498 		2.998
v -29.8 		87 		4
v -29.8 		83 		4
v -14.996 		72.695 		3.737
v 14.024 		74.323 		2.998
v -4.22 		65.589 		4
v 13.321 		73.775 		2.998
v -4.002 		65.734 		4
v -3.768 		65.85 		4
v -3.52 		65.934 		4
v 14.154 		74.226 		2.998
v -3.263 		65.985 		4
v 14.263 		74.109 		2.998
v -3.002 		66.003 		4
v -14.0131 		73.534 		3.5831
v -14.0136 		73.5339 		3.5824
v -14.013 		73.534 		3.5829
v -14.013 		73.534 		3.583
v -14.013 		73.534 		3.5823
v -16.403 		68.998 		4
v -14.013 		73.534 		3.583
v -29.8 		46 		4
v -0.2 		46 		4
v -0.2 		42 		4
v -14.012 		73.534 		3.553
v -4.22 		50.411 		4
v -4.417 		50.583 		4
v -4.589 		50.78 		4
v -4.734 		50.998 		4
v -4.85 		51.233 		4
v 12.912 		73.761 		4
v 13.046 		73.793 		4
v -4.934 		51.48 		4
v -4.985 		51.737 		4
v -5.003 		51.998 		4
v 13.185 		73.798 		4
v -3.002 		49.998 		4
v -3.263 		50.015 		4
v -3.52 		50.066 		4
v -3.768 		50.15 		4
v 12.398 		74.101 		4
v -4.002 		50.266 		4
v 12.752 		74.353 		4
v 12.536 		74.213 		4
v -5.003 		64.002 		4
v -4.985 		64.263 		4
v -4.934 		64.52 		4
v -4.85 		64.767 		4
v -4.734 		65.002 		4
v 12.914 		74.425 		4
v -13.642 		75.05 		4
v -13.616 		75.368 		4
v -13.802 		75.264 		4
v 13.078 		74.472 		4
v -14.0131 		73.534 		3.5831
v -13.85 		75.244 		4
v -13.617 		75.375 		4
v 13.244 		74.496 		4
v -14.015 		73.534 		3.584
v -13.874 		75.636 		4
v 12.398 		74.392 		4
v 12.752 		74.353 		2.998
v -14.0119 		73.534 		3.52
v -13.802 		75.264 		2.998
v 12.914 		74.425 		2.998
v -4.589 		65.22 		4
v 13.078 		74.472 		2.998
v -4.417 		65.417 		4
v 67 		83 		4
v 67 		68.2 		4
v 67 		60.8 		4
v 67 		46 		4
v -13.642 		75.05 		2.998
v 43.8 		87 		4
v 29.4 		87 		4
v 13.244 		74.496 		2.998
v 14.2 		87 		4
v -14.012 		73.534 		3.584
v 12.398 		74.392 		2.998
v 43.8 		83 		4
v 58.8 		60.8 		4
v 58.8 		75.6 		4
v 63.2 		75.6 		4
v 63.2 		68.2 		4
v 43.8 		46 		4
v -15.4 		46 		4
v 58.8 		46 		4
v 58.8 		53.4 		4
v -14.973 		72.628 		3.584
v 17.264 		74.305 		4
v 17.121 		74.387 		4
v -15.4 		42 		4
v -29.8 		42 		4
v 12.912 		73.761 		2.998
v 63.2 		53.4 		4
v 63.2 		46 		4
v 13.046 		73.793 		2.998
v 17.002 		66.003 		4
v 17.263 		65.985 		4
v 1.61 		75.409 		4
v 2.34 		75.409 		4
v 13.185 		73.798 		2.998
v 17.52 		65.934 		4
v 17.768 		65.85 		4
v 18.002 		65.734 		4
v 1.61 		71.418 		4
v 0.018 		72.108 		4
v 18.22 		65.589 		4
v 17.264 		74.305 		2.998
v 17.121 		74.387 		2.998
v 12.398 		74.101 		2.998
v 16.96 		74.439 		2.998
v 16.737 		74.478 		2.998
v 16.46 		74.482 		2.998
v 2.34 		72.108 		4
v 0.018 		71.412 		4
v 16.384 		77.403 		4
v 18.977 		74.837 		4
v 18.977 		74.392 		4
v 18.977 		75.496 		4
v -2.457 		75.409 		4
v -1.71 		75.409 		4
v -3.075 		75.41 		4
v -3.075 		74.725 		4
v 10.27 		74.287 		4
v 10.27 		74.287 		2.998
v -4.346 		74.725 		4
v 10.455 		74.161 		4
v 10.455 		74.161 		2.998
v 10.619 		74.006 		2.998
v 10.757 		73.823 		2.998
v 10.757 		73.823 		4
v 10.619 		74.006 		4
v 11.736 		74.392 		2.998
v 16.933 		73.801 		2.998
v 11.736 		74.392 		4
v -13.415 		75.22 		2.998
v -13.616 		75.368 		2.998
v 10.064 		74.383 		4
v 9.842 		74.449 		4
v 16.717 		73.834 		2.998
v 9.607 		74.483 		4
v 16.533 		73.81 		2.998
v 16.848 		73.824 		2.998
v 9.383 		74.485 		4
v 9.711 		73.769 		4
v -13.85 		75.244 		2.998
v -14.994 		72.688 		3.678
v 9.592 		73.792 		4
v 17.36 		72.769 		4
v 9.471 		73.792 		4
v 17.344 		73.235 		4
v 17.32 		73.373 		4
v 17.288 		73.46 		4
v 17.195 		73.608 		4
v 17.091 		73.713 		4
v -13.617 		75.375 		2.998
v -5.079 		74.699 		4
v 9.28 		73.772 		4
v -6.331 		74.699 		4
v 16.445 		72.025 		4
v 16.687 		72 		4
v 16.85 		72.003 		4
v 17.033 		72.066 		4
v 17.175 		72.186 		4
v -7.657 		73.776 		4
v 17.231 		72.263 		4
v 17.312 		72.444 		4
v 17.343 		72.583 		4
v -6.899 		75.347 		4
v 9.842 		74.449 		2.998
v 10.064 		74.383 		2.998
v -6.331 		75.41 		4
v 18.977 		71.418 		4
v -7.657 		75.416 		4
v 9.607 		74.483 		2.998
v -6.943 		75.412 		4
v 17.357 		71.417 		4
v 17.357 		71.545 		4
v 18.021 		71.417 		4
v 9.427 		74.488 		2.998
v 16.432 		71.321 		4
v 16.938 		71.377 		4
v 16.747 		71.337 		4
v -11.84 		73.797 		4
v -10.204 		75.411 		4
v -14.023 		73.532 		3.56
v -9.453 		75.411 		4
v -9.453 		73.776 		4
v 9.592 		73.792 		2.998
v 9.471 		73.792 		2.998
v 27.999 		77.403 		4
v 9.28 		73.772 		2.998
v -15.8292 		77.403 		4
v 27.004 		74.394 		4
v -15.868 		77.076 		4
v -15.877 		77.043 		4
v 17.187 		73.621 		2.998
v -15.687 		77.285 		4
v 26.004 		73.752 		4
v 25.905 		73.795 		4
v 25.792 		73.82 		4
v 25.649 		73.827 		4
v -16.134 		77.357 		4
v 25.875 		74.459 		4
v 25.968 		74.433 		4
v 25.686 		74.486 		4
v -16.1152 		77.403 		4
v 17.244 		73.544 		2.998
v 17.304 		73.417 		2.998
v 8.41 		74.054 		4
v 8.464 		74.102 		2.998
v 26.355 		74.236 		4
v 8.273 		73.886 		4
v 8.193 		73.762 		2.998
v -15.161 		76.797 		4
v 26.355 		74.394 		4
v 8.315 		73.946 		2.998
v 24.736 		74.237 		4
v 24.996 		74.381 		4
v -13.33 		75.149 		4
v 17.36 		72.769 		2.998
v 8.764 		74.312 		4
v 25.52 		73.815 		4
v 25.404 		73.784 		4
v 8.764 		74.312 		2.998
v 25.301 		73.736 		4
v 17.344 		73.235 		2.998
v 8.635 		74.236 		4
v 25.495 		74.486 		4
v 25.302 		74.464 		4
v 20.48 		77.403 		4
v 9.205 		74.464 		2.998
v 8.967 		74.399 		2.998
v 24.57 		74.087 		4
v -12.882 		74.734 		4
v 24.427 		73.91 		4
v 24.346 		73.773 		4
v 9.14 		74.449 		4
v -16.085 		75.016 		4
v -16.135 		75.14 		4
v 8.903 		74.376 		4
v -16.115 		75.06 		4
v 22.855 		74.377 		4
v 23.048 		74.25 		4
v 23.312 		73.901 		4
v 23.23 		74.044 		4
v -15.875 		75.261 		4
v -15.862 		75.21 		4
v -15.782 		75.122 		4
v 23.129 		74.174 		4
v -14.776 		74.392 		4
v 7.231 		73.796 		2.998
v 7.172 		73.9 		2.998
v -14.974 		72.631 		3.456
v -14.878 		74.299 		4
v -15.349 		74.737 		4
v -14.973 		72.628 		3.563
v 7.256 		73.741 		4
v 6.342 		73.792 		2.998
v 6.3 		73.808 		4
v -14.966 		72.62 		3.51
v 17.277 		72.35 		2.998
v 17.312 		72.444 		2.998
v -14.656 		74.138 		4
v 6.165 		73.844 		4
v 6.211 		73.834 		2.998
v 17.343 		72.583 		2.998
v -14.99 		74.066 		4
v -14.992 		74.121 		4
v -14.971 		74.183 		4
v 6.604 		74.369 		2.998
v 6.833 		74.248 		4
v 6.704 		74.326 		4
v 6.934 		74.172 		2.998
v -14.985 		74.155 		4
v 7.138 		73.948 		4
v 7.064 		74.042 		2.998
v -14.996 		74.109 		4
v -14.993 		74.073 		4
v 7.024 		74.088 		4
v -14.964 		72.618 		3.484
v 17.071 		72.093 		2.998
v -14.969 		72.624 		3.456
v 17.175 		72.186 		2.998
v -14.962 		72.616 		3.456
v 16.85 		72.003 		2.998
v 16.634 		72.002 		2.998
v 16.445 		72.025 		2.998
v 6.437 		74.434 		4
v 6.299 		74.466 		4
v 6.229 		74.475 		2.998
v -14.976 		72.637 		3.456
v 5.248 		74.302 		4
v 5.248 		74.302 		2.998
v 5.394 		74.372 		2.998
v 6.016 		74.489 		2.998
v 5.724 		74.463 		4
v 5.394 		74.372 		4
v -14.08 		73.514 		3.574
v 5.854 		73.838 		4
v 5.727 		73.801 		2.998
v 5.687 		73.782 		4
v 18.977 		71.418 		2.998
v 6.03 		73.855 		2.998
v 5.985 		73.856 		4
v 17.357 		71.545 		2.998
v 17.357 		71.417 		2.998
v 5.897 		73.847 		2.998
v 18.021 		71.417 		2.998
v -14.9948 		72.704 		3.456
v -14.992 		72.691 		3.456
v -14.9943 		72.704 		3.456
v 16.588 		71.32 		2.998
v 16.909 		71.369 		2.998
v -14.0116 		73.534 		3.456
v 6.016 		74.489 		4
v -14.994 		72.688 		3.456
v 4.735 		73.784 		2.998
v 5.113 		74.215 		2.998
v 4.99 		74.112 		2.998
v 4.879 		73.993 		2.998
v 27.004 		74.394 		2.998
v 4.879 		73.993 		4
v 4.99 		74.112 		4
v 5.113 		74.215 		4
v -14.993 		72.684 		3.456
v 14.542 		73.036 		2.998
v 14.542 		73.036 		4
v 14.53 		73.281 		2.998
v 14.467 		73.667 		4
v 14.489 		73.572 		2.998
v 14.517 		73.403 		4
v 13.748 		73.292 		4
v 13.763 		73.174 		2.998
v 13.705 		73.442 		2.998
v -14.017 		73.534 		3.328
v -14.034 		73.531 		3.328
v 13.718 		73.405 		4
v -14.011 		73.534 		3.328
v 13.653 		73.543 		2.998
v 13.632 		73.575 		4
v 13.551 		73.658 		2.998
v 13.521 		73.684 		4
v 13.45 		73.726 		2.998
v 13.45 		73.726 		4
v 13.78 		72.822 		2.998
v 25.828 		74.467 		2.998
v -14.975 		72.634 		3.328
v -14.9712 		72.6276 		3.4094
v 26.355 		74.394 		2.998
v -14.006 		73.534 		3.328
v 12.787 		73.699 		2.998
v 26.088 		74.381 		2.998
v 12.787 		73.699 		4
v 12.533 		73.327 		2.998
v 12.592 		73.483 		2.998
v 12.592 		73.483 		4
v 12.533 		73.327 		4
v 12.678 		73.607 		2.998
v 12.678 		73.607 		4
v 25.649 		73.827 		2.998
v -2.457 		71.412 		4
v 12.488 		72.809 		4
v 12.488 		72.809 		2.998
v -1.71 		72.108 		4
v 25.792 		73.82 		2.998
v 12.497 		73.11 		4
v 26.004 		73.752 		2.998
v 25.905 		73.795 		2.998
v 12.5 		73.128 		2.998
v -7.654 		71.417 		4
v -7.654 		73.051 		4
v -6.899 		71.417 		4
v -4.346 		71.417 		4
v -5.079 		71.417 		4
v 26.355 		74.236 		2.998
v -9.45 		73.051 		4
v -11.496 		73.345 		4
v 13.785 		72.58 		4
v -11.569 		73.533 		4
v 24.799 		74.276 		2.998
v 14.542 		71.396 		4
v 14.542 		71.396 		2.998
v -11.572 		73.54 		4
v 24.996 		74.381 		2.998
v -11.484 		73.434 		4
v -11.479 		73.39 		4
v -14.9703 		72.6261 		3.429
v 12.487 		71.418 		2.998
v 22.698 		74.439 		4
v 24.622 		74.142 		2.998
v 12.487 		71.418 		4
v 22.578 		74.466 		4
v -13.844 		75.241 		2.998
v -11.954 		73.542 		4
v 25.52 		73.815 		2.998
v -12.058 		73.271 		4
v 25.404 		73.784 		2.998
v -12.017 		73.232 		4
v -12.003 		73.268 		4
v -12.007 		73.276 		4
v 25.301 		73.736 		2.998
v 13.785 		71.396 		2.998
v 21.631 		74.332 		4
v 21.746 		74.39 		4
v 13.785 		71.396 		4
v -9.45 		71.417 		4
v -10.204 		71.417 		4
v 25.543 		74.484 		2.998
v -14.953 		72.606 		3.328
v 10.955 		73.342 		4
v 10.955 		73.342 		2.998
v 21.866 		74.434 		4
v 11 		73.092 		2.998
v 11.007 		73.028 		4
v 22.118 		74.481 		4
v 11.007 		72.841 		2.998
v 22.248 		73.789 		4
v 11.004 		72.763 		4
v 22.061 		73.797 		4
v 21.844 		73.76 		4
v 22.414 		74.484 		4
v 21.307 		74.094 		4
v 20.671 		74.392 		4
v 10.868 		73.612 		2.998
v 21.307 		74.392 		4
v 10.868 		73.612 		4
v 24.473 		73.971 		2.998
v -14.088 		73.514 		3.347
v 19.706 		74.392 		4
v 19.707 		74.837 		4
v 19.707 		75.496 		4
v 24.346 		73.773 		2.998
v 10.737 		71.964 		2.998
v 10.838 		72.133 		4
v 10.69 		71.895 		4
v 10.937 		72.39 		2.998
v 10.937 		72.39 		4
v 26.348 		72.862 		4
v 26.336 		73.077 		4
v 26.303 		73.292 		4
v 26.261 		73.441 		4
v 26.124 		73.655 		4
v 25.212 		73.67 		4
v 25.069 		73.492 		4
v 24.955 		73.181 		4
v 24.932 		73.029 		4
v 24.926 		72.875 		4
v 10.861 		72.183 		2.998
v 25.802 		71.998 		4
v 25.887 		72.015 		4
v 26.008 		72.072 		4
v 26.118 		72.155 		4
v 26.206 		72.265 		4
v 26.269 		72.393 		4
v 26.3 		72.496 		4
v 26.331 		72.652 		4
v 25.058 		72.325 		4
v 24.948 		72.668 		4
v 10.983 		72.601 		2.998
v 10.983 		72.601 		4
v 25.099 		72.254 		4
v 25.177 		72.161 		4
v 25.275 		72.085 		4
v 25.375 		72.039 		4
v 25.554 		72.008 		4
v 26.81 		70.464 		4
v 26.704 		70.346 		4
v 26.893 		70.598 		4
v 9.862 		73.707 		2.998
v 9.907 		73.683 		4
v 10.018 		73.584 		4
v 26.99 		70.917 		4
v 26.953 		70.749 		4
v 27.003 		71.103 		4
v 9.985 		73.621 		2.998
v -14.975 		72.634 		3.325
v 10.125 		73.412 		2.998
v 10.125 		73.412 		4
v 25.617 		71.317 		4
v 25.945 		71.381 		4
v 10.22 		72.829 		4
v 10.222 		72.889 		2.998
v 10.177 		73.257 		4
v 10.177 		73.257 		2.998
v 26.11 		71.44 		4
v -13.83 		73.535 		4
v 10.21 		72.709 		2.998
v 25.86 		70.724 		4
v 25.988 		70.772 		4
v 26.096 		70.839 		4
v 26.177 		70.927 		4
v 26.22 		71.017 		4
v 26.259 		71.174 		4
v 26.271 		71.294 		4
v 26.268 		71.512 		4
v -13.974 		73.536 		4
v 24.977 		71.436 		4
v 24.823 		71.522 		4
v 24.647 		71.657 		4
v -13.995 		73.535 		4
v 25.454 		71.315 		4
v 25.294 		71.333 		4
v 25.135 		71.373 		4
v 25.068 		70.939 		4
v 25.337 		70.741 		4
v 25.452 		70.706 		4
v 25.583 		70.691 		4
v 26.021 		70.023 		4
v 25.678 		69.979 		4
v 9.146 		73.719 		2.998
v 26.165 		70.06 		4
v 9.146 		73.719 		4
v -14.006 		73.534 		3.3273
v -14.0089 		73.5333 		3.1451
v 26.577 		70.245 		4
v 26.429 		70.16 		4
v 9.021 		73.638 		4
v -14.006 		73.534 		3.3275
v 8.985 		73.601 		2.998
v 8.89 		73.475 		2.998
v 8.89 		73.475 		4
v -14.01 		73.533 		3.072
v -14.0084 		73.5331 		3.1086
v 8.845 		73.37 		4
v -14.006 		73.534 		3.3275
v 8.821 		73.289 		2.998
v 25.155 		70.047 		4
v 24.868 		70.174 		4
v 8.786 		73.128 		4
v -14.045 		73.53 		3.072
v -14.0456 		73.53 		3.072
v 8.781 		73.087 		2.998
v -14.046 		73.53 		3.072
v 24.617 		70.367 		4
v 8.77 		72.925 		2.998
v 24.738 		70.263 		4
v 8.773 		72.843 		4
v -14.0462 		73.5299 		3.072
v -14.0464 		73.5299 		3.072
v 8.78 		72.76 		2.998
v 25.479 		69.985 		4
v -14.0415 		73.5303 		3.072
v -14.0433 		73.5301 		3.072
v 27.999 		69.001 		4
v -14.0617 		73.5247 		3.1074
v -14.918 		74.246 		3.072
v 24.144 		72.797 		4
v 24.15 		73.131 		4
v 24.175 		73.295 		4
v -14.891 		74.282 		3
v 23.442 		73.439 		4
v 23.475 		73.013 		4
v -14.08 		73.5199 		3.0739
v -14.07 		73.5231 		3.0801
v 22.698 		73.121 		4
v 22.657 		73.321 		4
v 22.613 		73.449 		4
v -14.885 		74.289 		2.998
v 22.545 		73.584 		4
v 23.379 		73.717 		4
v -14.0733 		73.5214 		3.1227
v -14.0746 		73.5211 		3.1216
v -14.08 		73.5197 		3.0897
v -14.89 		74.283 		2.998
v 10.172 		72.531 		4
v -14.0684 		73.5234 		3.0911
v 10.065 		72.3 		4
v 24.311 		72.113 		4
v 24.232 		72.315 		4
v 24.454 		71.869 		4
v 9.836 		72.089 		4
v 10 		72.214 		4
v 24.178 		72.543 		4
v 22.724 		72.465 		4
v 9.744 		72.051 		4
v 9.233 		72.072 		4
v -13.999 		73.535 		4
v 9.412 		72.025 		4
v 21.744 		73.717 		4
v 9.6 		72.021 		4
v 21.659 		73.659 		4
v -14.037 		73.533 		4
v 21.561 		73.548 		4
v 22.482 		73.664 		4
v 22.411 		73.724 		4
v -14.008 		73.533 		3.072
v 21.491 		73.416 		4
v 21.443 		73.187 		4
v 10.172 		72.531 		2.998
v 21.422 		72.547 		4
v -14.016 		73.532 		3.072
v 10 		72.214 		2.998
v 21.422 		71.412 		4
v -14.0506 		73.5287 		3.0742
v -14.0529 		73.528 		3.0845
v -14.05 		73.529 		3.072
v 22.72 		71.398 		4
v 20.671 		71.412 		4
v -14.0493 		73.5291 		3.0736
v 23.477 		71.398 		4
v 24.403 		70.625 		4
v -14.0502 		73.5288 		3.072
v -14.0493 		73.5291 		3.072
v -13.164 		71.818 		4
v 9.79 		72.07 		2.998
v -13.704 		71.81 		4
v -13.649 		71.798 		4
v -13.586 		71.815 		4
v -14.9755 		72.635 		3.264
v 19.706 		71.418 		4
v 9.6 		72.021 		2.998
v -14.993 		72.755 		4
v 9.233 		72.072 		2.998
v 28.003 		77.403 		4
v 9.412 		72.025 		2.998
v -14.067 		73.524 		3.082
v -14.06 		73.526 		3.072
v 28.003 		68.998 		4
v 29.4 		83 		4
v 14.2 		83 		4
v 15.673 		74.173 		4
v 15.822 		74.287 		4
v 15.499 		73.985 		4
v -15.324 		74.346 		2.998
v 8.332 		71.838 		4
v -14.999 		72.751 		4
v 16.05 		74.399 		4
v 16.346 		73.748 		4
v 8.476 		71.689 		4
v -16.384 		72.704 		4
v -14.598 		72.258 		4
v 16.175 		74.438 		4
v -14.653 		72.687 		4
v -14.609 		72.637 		4
v 9.029 		72.18 		4
v 8.954 		72.252 		4
v -14.047 		73.5297 		3.072
v 8.895 		72.34 		4
v 15.358 		73.766 		4
v 8.812 		72.571 		4
v -14.965 		72.612 		4
v 8.954 		72.252 		2.998
v 16.146 		73.563 		4
v 16.057 		73.411 		4
v -14.9485 		72.601 		3.264
v 8.895 		72.34 		2.998
v 8.812 		72.571 		2.998
v 8.211 		72.001 		2.998
v -14.093 		73.514 		3.218
v 8.426 		71.737 		2.998
v 8.288 		71.89 		2.998
v -16.065 		71.822 		4
v 9.029 		72.18 		2.998
v -14.097 		73.512 		3.277
v -16.121 		71.746 		4
v -14.878 		74.299 		2.998
v 11.736 		71.418 		2.998
v 11.736 		71.418 		4
v 10.29 		71.528 		2.998
v 10.476 		71.662 		2.998
v 10.476 		71.662 		4
v -14.944 		72.596 		3.2
v -14.656 		74.138 		2.998
v 8.655 		71.555 		2.998
v 8.587 		71.6 		4
v 8.934 		71.414 		2.998
v 9.769 		71.346 		4
v 9.888 		71.374 		2.998
v 9.455 		71.323 		2.998
v 9.455 		71.323 		4
v -14.09 		73.514 		3.282
v 9.227 		71.34 		4
v 9.152 		71.351 		2.998
v -14.091 		73.514 		3.252
v 8.862 		71.44 		4
v -14.976 		72.636 		3.2
v 10.225 		71.489 		4
v 10.083 		71.426 		4
v 8.072 		73.492 		4
v 8.003 		73.234 		4
v 7.973 		72.973 		4
v 8.192 		77.403 		4
v 7.974 		72.776 		4
v -15.712 		71.762 		4
v -15.79 		71.682 		4
v -14.083 		73.519 		3.072
v -14.0808 		73.5197 		3.0733
v -13.72 		71.509 		4
v -13.613 		71.453 		4
v -13.837 		71.57 		4
v -14.0815 		73.5194 		3.0811
v 8.156 		73.697 		4
v -13.606 		71.454 		4
v -14.093 		73.514 		3.1933
v -14.093 		73.514 		3.197
v -13.86 		71.594 		4
v -14.093 		73.514 		3.072
v 7.418 		72.814 		4
v 7.374 		73.349 		4
v -15.866 		71.541 		4
v -15.884 		71.389 		4
v -16.138 		71.665 		4
v 7.322 		73.573 		4
v -14.087 		73.517 		3.072
v -15.55 		69.67 		4
v -15.876 		69.829 		4
v -15.871 		69.729 		4
v 8.049 		73.428 		2.998
v -14.097 		73.514 		3.072
v 7.975 		73.039 		2.998
v 8.094 		73.557 		2.998
v -14.088 		73.514 		3.072
v 7.402 		73.137 		2.998
v 7.421 		72.848 		2.998
v -14.935 		72.587 		3.072
v -14.9376 		72.5896 		3.1085
v -15.92 		69.345 		4
v 7.37 		73.384 		2.998
v 7.322 		73.573 		2.998
v -16.042 		69.319 		4
v -16.086 		69.351 		4
v -15.991 		69.316 		4
v -16.133 		69.45 		4
v -16.403 		69.001 		4
v -16.403 		77.403 		4
v 6.485 		73.688 		4
v 6.564 		73.579 		4
v 6.541 		73.618 		2.998
v 6.452 		73.717 		2.998
v 6.629 		73.407 		2.998
v 6.629 		73.407 		4
v 6.643 		73.263 		4
v 6.643 		73.263 		2.998
v 8.066 		72.308 		4
v 8.177 		72.06 		4
v 8.01 		72.511 		4
v 7.301 		72.018 		4
v 7.384 		72.183 		4
v 7.205 		71.871 		4
v 7.404 		72.701 		4
v -14.987 		74.136 		2.998
v -14.985 		74.155 		2.998
v 7.999 		72.577 		2.998
v -15.4 		83 		0
v -0.2 		83 		0
v 8.088 		72.243 		2.998
v -0.2 		87 		0
v -15.4 		87 		0
v 8.044 		72.374 		2.998
v -29.8 		83 		0
v -29.8 		87 		0
v 7.404 		72.701 		2.998
v 7.384 		72.183 		2.998
v 7.301 		72.018 		2.998
v -4.22 		65.589 		0
v -4.002 		65.734 		0
v -3.768 		65.85 		0
v 7.205 		71.871 		2.998
v -3.52 		65.934 		0
v -3.263 		65.985 		0
v -3.002 		66.003 		0
v -16.403 		68.998 		0
v -29.8 		46 		0
v -0.2 		42 		0
v -0.2 		46 		0
v -14.086 		73.518 		3.072
v -4.22 		50.411 		0
v 7.094 		71.741 		4
v -4.417 		50.583 		0
v -4.589 		50.78 		0
v 6.688 		72.383 		4
v 6.628 		72.358 		4
v -14.086 		73.5175 		3.072
v -14.977 		72.639 		3.072
v 6.545 		72.247 		4
v 6.455 		72.165 		4
v 6.3 		72.079 		4
v -14.086 		73.514 		3.072
v 7.094 		71.741 		2.998
v 6.628 		72.358 		2.998
v 6.688 		72.383 		2.998
v 6.545 		72.247 		2.998
v 6.455 		72.165 		2.998
v 6.3 		72.079 		2.998
v -14.977 		74.166 		2.998
v -14.0465 		73.5299 		3.0512
v -14.046 		73.53 		3.052
v -14.0464 		73.5299 		3.0526
v -14.0432 		73.5302 		3.0644
v 5.541 		73.693 		4
v 5.541 		73.693 		2.998
v 8.192 		69.632 		4
v -14.983 		74.171 		2.998
v -13.83 		75.594 		2.998
v 5.449 		73.599 		4
v 5.384 		73.485 		2.998
v 5.384 		73.485 		4
v 5.35 		73.39 		4
v -14.609 		72.637 		2.998
v -14.653 		72.687 		2.998
v 5.323 		73.252 		2.998
v -14.991 		74.093 		2.998
v -14.993 		74.073 		2.998
v 5.323 		73.252 		4
v 4.536 		73.287 		4
v 4.512 		73.142 		2.998
v 4.498 		72.848 		4
v -14.99 		74.066 		2.998
v 4.555 		73.358 		2.998
v 4.625 		73.571 		2.998
v 4.6 		73.501 		4
v -14.047 		73.53 		3.008
v 4.69 		73.71 		4
v -14.048 		73.53 		3.008
v -14.0497 		73.5295 		3.008
v -14.93 		72.581 		2.998
v -14.0464 		73.5299 		3.0539
v 5.311 		72.701 		4
v 5.772 		72.051 		4
v 5.669 		72.092 		4
v -4.734 		50.998 		0
v 6.01 		72.021 		4
v -4.85 		51.233 		0
v 6.129 		72.03 		4
v 5.342 		72.509 		4
v 5.407 		72.362 		4
v -2.457 		71.412 		2.998
v 5.5 		72.227 		4
v -1.71 		72.108 		2.998
v -14.0473 		73.5296 		3.0497
v 5.311 		72.701 		2.998
v -14.0472 		73.5297 		3.0537
v 5.33 		72.558 		2.998
v 4.73 		71.996 		4
v -14.973 		72.628 		2.998
v -7.654 		73.051 		2.998
v -7.654 		71.417 		2.998
v 5.407 		72.362 		2.998
v 4.863 		71.825 		4
v -6.899 		71.417 		2.998
v 5.5 		72.227 		2.998
v 4.526 		72.548 		4
v -4.346 		71.417 		2.998
v -5.079 		71.417 		2.998
v -4.934 		51.48 		0
v -4.985 		51.737 		0
v -5.003 		51.998 		0
v -3.263 		50.015 		0
v -3.002 		49.998 		0
v -3.52 		50.066 		0
v -3.768 		50.15 		0
v -4.002 		50.266 		0
v -4.985 		64.263 		0
v -5.003 		64.002 		0
v -4.934 		64.52 		0
v -4.85 		64.767 		0
v 5.772 		72.051 		2.998
v 5.669 		72.092 		2.998
v -4.734 		65.002 		0
v -4.589 		65.22 		0
v -4.417 		65.417 		0
v -14.0506 		73.5292 		3.008
v 6.07 		72.025 		2.998
v -14.0471 		73.5297 		3.0574
v -15.4 		46 		0
v -29.8 		42 		0
v -15.4 		42 		0
v -16.085 		75.016 		2.998
v -16.135 		75.14 		2.998
v -15.862 		75.21 		2.998
v -14.991 		72.658 		2.998
v -14.08 		73.5199 		3.0655
v -14.0717 		73.5226 		3.0475
v -14.0663 		73.5242 		3.0485
v -14.994 		72.688 		2.998
v 23.312 		73.901 		2.998
v 23.26 		73.999 		2.998
v 23.164 		74.132 		2.998
v 22.855 		74.377 		2.998
v -14.077 		73.521 		3.008
v -15.875 		75.261 		2.998
v 23.003 		74.284 		2.998
v -14.977 		72.64 		2.998
v -14.977 		72.6397 		3.0214
v 22.658 		74.449 		2.998
v -16.403 		69.001 		0
v -16.403 		77.403 		0
v 18.977 		74.837 		2.998
v 18.977 		74.392 		2.998
v 18.977 		75.496 		2.998
v -14.874 		72.518 		2.998
v -14.868 		72.501 		2.998
v 21.515 		74.251 		2.998
v 21.991 		74.46 		2.998
v 21.746 		74.39 		2.998
v 22.248 		74.486 		2.998
v -14.0616 		73.5258 		3.0257
v -14.0676 		73.5239 		3.0388
v -9.45 		73.051 		2.998
v -14.064 		73.525 		3.0508
v -14.0524 		73.5287 		3.008
v 22.203 		73.794 		2.998
v 22.011 		73.791 		2.998
v 22.333 		73.764 		2.998
v 21.844 		73.76 		2.998
v -16.127 		71.727 		2.998
v -16.085 		71.802 		2.998
v -14.079 		73.521 		3.008
v -14.072 		73.523 		3.008
v -15.712 		71.762 		2.998
v 21.307 		74.094 		2.998
v 20.671 		74.392 		2.998
v -13.613 		71.453 		2.998
v -13.837 		71.57 		2.998
v 21.307 		74.392 		2.998
v 19.707 		74.837 		2.998
v 19.706 		74.392 		2.998
v 19.707 		75.496 		2.998
v -13.606 		71.454 		2.998
v -13.842 		71.576 		2.998
v 26.239 		73.487 		2.998
v 26.293 		73.343 		2.998
v -16.138 		71.665 		2.998
v -15.875 		71.481 		2.998
v -15.836 		71.617 		2.998
v 26.124 		73.655 		2.998
v 26.336 		73.077 		2.998
v 26.348 		72.862 		2.998
v -11.569 		73.533 		2.998
v -15.875 		69.807 		2.998
v -14.91 		74.259 		3.2
v -15.871 		69.729 		2.998
v 25.102 		73.54 		2.998
v 25.016 		73.381 		2.998
v -15.523 		69.694 		2.998
v 24.932 		73.029 		2.998
v -11.509 		73.328 		2.998
v 24.933 		72.797 		2.998
v -11.479 		73.39 		2.998
v 24.968 		73.231 		2.998
v -11.492 		73.449 		2.998
v -14.919 		74.247 		3.328
v -14.9248 		74.24 		3.2
v -16.133 		69.45 		2.998
v -16.099 		69.367 		2.998
v -16.042 		69.317 		2.998
v -15.996 		69.315 		2.998
v -15.92 		69.345 		2.998
v -13.974 		73.536 		2.998
v -14.049 		73.53 		2.998
v -11.572 		73.54 		2.998
v -14.012 		73.533 		2.998
v -14.9224 		74.24 		3.084
v 26.206 		72.265 		2.998
v -14.9237 		74.24 		3.2
v -16.1151 		77.403 		3.5481
v 26.331 		72.652 		2.998
v -15.8275 		77.403 		2.998
v -15.8259 		77.403 		3.1614
v -16.1233 		77.403 		2.998
v -11.954 		73.542 		2.998
v 26.118 		72.155 		2.998
v 25.887 		72.015 		2.998
v 25.802 		71.998 		2.998
v 26.047 		72.096 		2.998
v -14.971 		74.183 		3.84
v -12.058 		73.271 		2.998
v -12.007 		73.276 		2.998
v -12.003 		73.268 		2.998
v -12.017 		73.232 		2.998
v -14.992 		74.121 		3.902
v -14.078 		73.521 		2.998
v -9.45 		71.417 		2.998
v -10.204 		71.417 		2.998
v 25.04 		72.363 		2.998
v 1.61 		75.409 		2.998
v 2.34 		75.409 		2.998
v 24.983 		72.522 		2.998
v 1.61 		71.418 		2.998
v 0.018 		72.108 		2.998
v 2.34 		72.108 		2.998
v 25.124 		72.222 		2.998
v 0.018 		71.412 		2.998
v 25.375 		72.039 		2.998
v 25.508 		72.013 		2.998
v -2.457 		75.409 		2.998
v -1.71 		75.409 		2.998
v 25.206 		72.133 		2.998
v -3.075 		75.41 		2.998
v -3.075 		74.725 		2.998
v -14.086 		73.518 		3.066
v -4.346 		74.725 		2.998
v -5.079 		74.699 		2.998
v 26.81 		70.464 		2.998
v 26.704 		70.346 		2.998
v 26.893 		70.598 		2.998
v -6.331 		74.699 		2.998
v 26.99 		70.917 		2.998
v 26.953 		70.749 		2.998
v -6.331 		75.41 		2.998
v 27.003 		71.103 		2.998
v -7.657 		73.776 		2.998
v -13.998 		73.535 		4
v -13.999 		73.535 		3.998
v -6.899 		75.347 		2.998
v -14.086 		73.517 		3.008
v -7.657 		75.416 		2.998
v -14.0002 		73.5349 		3.968
v -14.971 		74.183 		3.712
v -6.943 		75.412 		2.998
v 26.11 		71.44 		2.998
v 25.863 		71.36 		2.998
v 25.617 		71.317 		2.998
v -14.0352 		73.5331 		3.968
v 26.268 		71.512 		2.998
v -9.453 		73.776 		2.998
v -10.204 		75.411 		2.998
v 26.267 		71.228 		2.998
v -9.453 		75.411 		2.998
v 26.226 		71.035 		2.998
v 26.177 		70.927 		2.998
v 26.096 		70.839 		2.998
v -15.877 		77.043 		2.998
v -15.868 		77.076 		2.998
v 25.988 		70.772 		2.998
v 25.86 		70.724 		2.998
v -15.274 		76.903 		2.998
v -13.999 		73.535 		3.916
v -16.134 		77.357 		2.998
v -16.125 		77.4 		2.998
v -14.0027 		73.5347 		3.904
v 24.977 		71.436 		2.998
v 24.701 		71.609 		2.998
v -14.086 		73.527 		3.008
v -13.9998 		73.5349 		3.904
v 25.454 		71.315 		2.998
v -14.987 		74.136 		3.771
v -13.9995 		73.535 		3.904
v 25.294 		71.333 		2.998
v 25.135 		71.373 		2.998
v -14.086 		73.527 		2.998
v 25.583 		70.691 		2.998
v 25.452 		70.706 		2.998
v 25.337 		70.741 		2.998
v -14.0315 		73.5332 		3.904
v -14.123 		73.5 		2.998
v 25.068 		70.939 		2.998
v 25.85 		69.995 		2.998
v 26.069 		70.034 		2.998
v 26.577 		70.245 		2.998
v 26.429 		70.16 		2.998
v -14.086 		73.514 		2.998
v -14.088 		73.514 		2.998
v 24.868 		70.174 		2.998
v 25.234 		70.027 		2.998
v -14.086 		73.517 		2.998
v 24.738 		70.263 		2.998
v 25.479 		69.985 		2.998
v 24.142 		72.881 		2.998
v 24.15 		73.131 		2.998
v -13.979 		73.258 		2.998
v -13.928 		73.27 		2.998
v 24.175 		73.295 		2.998
v -14.0053 		73.5345 		3.84
v 24.244 		73.536 		2.998
v -14.9616 		74.1932 		3.584
v -14.9625 		74.1922 		3.608
v -14.965 		74.19 		3.584
v -14.9611 		74.1937 		3.5985
v -14.9602 		74.1948 		3.584
v -14.971 		74.183 		3.666
v -14.252 		73.405 		2.998
v -14.25 		73.407 		2.998
v -14.0038 		73.5347 		3.84
v -14.253 		73.405 		2.998
v 23.442 		73.439 		2.998
v 23.475 		73.013 		2.998
v -14.0023 		73.5348 		3.84
v -14.249 		73.407 		2.998
v 22.545 		73.584 		2.998
v -14.249 		73.408 		2.998
v 22.613 		73.449 		2.998
v -14.9608 		74.1941 		3.584
v 22.711 		73.003 		2.998
v -14.972 		74.181 		3.584
v 22.688 		73.188 		2.998
v -14.054 		73.204 		2.998
v 23.39 		73.686 		2.998
v -12.699 		72.246 		2.998
v 24.232 		72.315 		2.998
v -14.972 		74.179 		3.584
v 24.496 		71.811 		2.998
v -14.0278 		73.5334 		3.84
v 24.341 		72.048 		2.998
v 24.162 		72.628 		2.998
v -14.959 		74.196 		3.584
v 22.723 		72.578 		2.998
v -13.586 		71.815 		2.998
v -13.704 		71.81 		2.998
v -13.635 		71.799 		2.998
v 22.411 		73.724 		2.998
v 22.482 		73.664 		2.998
v -14.995 		72.708 		3.457
v -14.995 		72.708 		3.456
v 21.659 		73.659 		2.998
v 21.744 		73.717 		2.998
v 21.533 		73.507 		2.998
v -14.006 		73.5345 		3.804
v -14.0072 		73.5344 		3.776
v -14.0078 		73.5344 		3.776
v 21.491 		73.416 		2.998
v -14.0044 		73.5346 		3.7893
v 21.443 		73.187 		2.998
v -14.005 		73.5345 		3.776
v -14.993 		72.755 		2.998
v 21.422 		71.412 		2.998
v -14.995 		72.708 		2.998
v -14.999 		72.751 		2.998
v 20.671 		71.412 		2.998
v 22.72 		71.398 		2.998
v 23.477 		71.398 		2.998
v 24.403 		70.625 		2.998
v -14.0241 		73.5335 		3.776
v 19.706 		71.418 		2.998
v -14.959 		74.196 		3.512
v -14.947 		74.212 		3.456
v -14.95 		74.207 		3.456
v -14.9546 		74.2013 		3.456
v 15.673 		74.173 		2.998
v 15.822 		74.287 		2.998
v 15.538 		74.038 		2.998
v 16.175 		74.438 		2.998
v -14.972 		74.18 		3.456
v -14.972 		74.18 		3.543
v 16.332 		73.736 		2.998
v -14.01 		73.5342 		3.712
v -14.0103 		73.5342 		3.712
v -14.0077 		73.5343 		3.712
v -14.972 		74.179 		3.544
v 15.358 		73.766 		2.998
v 15.99 		73.221 		2.998
v -14.973 		74.177 		3.456
v -14.0205 		73.5337 		3.712
v -14.957 		74.198 		3.456
v -14.0114 		73.5341 		3.6796
v -14.0128 		73.534 		3.648
v -14.0128 		73.534 		3.648
v -14.0114 		73.5341 		3.6833
v -14.0094 		73.5342 		3.6728
v -14.0105 		73.5341 		3.648
v -14.984 		74.164 		3.456
v -14.984 		74.162 		3.456
v -14.973 		74.176 		3.425
v -14.951 		74.204 		3.328
v -14.9389 		74.2214 		3.3851
v -14.9482 		74.2097 		3.4189
v -14.93 		74.233 		3.328
v -14.985 		74.159 		3.335
v -14.0146 		73.5339 		3.6003
v -14.0143 		73.5339 		3.6036
v -14.0143 		73.5339 		3.6042
v -14.0142 		73.5339 		3.6028
v -14.013 		73.534 		3.5848
v -14.0141 		73.534 		3.6047
v -14.0143 		73.5339 		3.6047
v -14.014 		73.534 		3.606
v -14.0146 		73.5339 		3.6036
v -14.013 		73.534 		3.644
v -14.0141 		73.534 		3.606
v -14.013 		73.534 		3.608
v -14.012 		73.534 		3.612
v -14.985 		74.158 		3.211
v -14.985 		74.158 		3.2
v -14.985 		74.159 		3.2
v -14.0142 		73.534 		3.6052
v -14.942 		74.213 		3.2
v -14.949 		74.204 		3.2
v -14.975 		74.17 		3.2
v -14.014 		73.534 		3.605
v -14.981 		74.163 		3.2
v -14.975 		74.171 		3.2
v -14.975 		74.171 		3.2
v -14.9748 		74.1713 		3.2
v -14.9743 		74.1718 		3.2
v -14.984 		74.164 		3.2
v -14.9465 		74.2082 		3.2
v -14.946 		74.209 		3.2
v -14.991 		74.093 		3.249
v -14.968 		74.179 		3.2
v -14.964 		74.184 		3.2
v -14.985 		74.157 		3.2
v -14.977 		74.168 		3.2
v -14.9743 		74.1719 		3.1919
v -14.943 		74.212 		3.14
v -14.975 		74.171 		3.193
v -14.975 		74.171 		3.194
# 1441 vertices

g group_0_15277357

usemtl color_15277357
s 0

f 1 	2 	4
f 3 	4 	2
f 7 	8 	6
f 5 	6 	8
f 11 	13 	2
f 12 	14 	9
f 12 	9 	10
f 16 	3 	13
f 2 	13 	3
f 5 	19 	21
f 20 	22 	23
f 24 	19 	17
f 8 	17 	19
f 8 	19 	5
f 96 	85 	1103
f 1083 	1078 	35
f 30 	1083 	29
f 4 	38 	36
f 27 	1 	36
f 4 	36 	1
f 31 	1086 	30
f 44 	263 	40
f 29 	1083 	35
f 41 	42 	6
f 44 	40 	42
f 40 	7 	42
f 6 	42 	7
f 34 	28 	46
f 45 	48 	49
f 28 	26 	46
f 45 	49 	52
f 45 	52 	54
f 17 	27 	11
f 56 	57 	58
f 11 	27 	13
f 60 	54 	52
f 60 	52 	62
f 61 	55 	59
f 64 	61 	66
f 27 	36 	13
f 65 	60 	62
f 65 	62 	67
f 13 	36 	38
f 13 	38 	16
f 66 	61 	59
f 56 	58 	68
f 4 	3 	16
f 4 	16 	38
f 6 	5 	21
f 6 	21 	41
f 17 	40 	27
f 71 	70 	64
f 71 	64 	66
f 40 	17 	8
f 40 	8 	7
f 1025 	1027 	1024
f 42 	41 	21
f 42 	21 	19
f 42 	19 	24
f 42 	24 	44
f 60 	1028 	54
f 44 	24 	25
f 44 	25 	50
f 74 	76 	79
f 73 	75 	77
f 63 	72 	84
f 79 	76 	78
f 73 	77 	81
f 81 	85 	87
f 73 	81 	87
f 91 	1404 	89
f 89 	1411 	91
f 88 	86 	101
f 100 	101 	86
f 96 	97 	102
f 47 	91 	89
f 95 	88 	99
f 101 	99 	88
f 87 	85 	96
f 87 	96 	102
f 108 	77 	75
f 106 	107 	104
f 92 	90 	110
f 109 	110 	90
f 111 	26 	141
f 104 	169 	106
f 110 	106 	98
f 92 	110 	98
f 1108 	1102 	118
f 81 	77 	1102
f 118 	45 	1108
f 113 	169 	112
f 84 	56 	63
f 45 	108 	48
f 114 	169 	115
f 54 	1029 	45
f 118 	77 	108
f 116 	169 	117
f 45 	118 	108
f 123 	121 	122
f 123 	122 	124
f 158 	80 	127
f 128 	79 	78
f 128 	78 	129
f 1420 	89 	91
f 80 	180 	127
f 142 	351 	130
f 130 	131 	143
f 143 	131 	132
f 132 	134 	147
f 127 	136 	158
f 153 	136 	127
f 165 	163 	28
f 147 	134 	137
f 53 	1412 	543
f 103 	136 	105
f 28 	34 	165
f 142 	130 	143
f 66 	59 	34
f 28 	141 	26
f 143 	132 	145
f 115 	169 	116
f 114 	112 	169
f 145 	132 	147
f 137 	149 	147
f 136 	103 	111
f 149 	137 	139
f 149 	139 	150
f 140 	151 	139
f 150 	139 	151
f 141 	136 	111
f 152 	72 	63
f 120 	153 	119
f 120 	105 	153
f 247 	152 	56
f 63 	56 	152
f 136 	153 	105
f 180 	186 	153
f 211 	151 	182
f 155 	119 	153
f 182 	151 	140
f 156 	157 	158
f 156 	158 	159
f 80 	158 	157
f 161 	162 	197
f 156 	159 	163
f 164 	163 	165
f 197 	162 	166
f 179 	172 	148
f 167 	148 	172
f 55 	164 	165
f 134 	132 	169
f 156 	163 	164
f 55 	165 	59
f 172 	95 	167
f 169 	167 	98
f 171 	173 	206
f 94 	95 	174
f 172 	174 	95
f 98 	167 	95
f 159 	158 	141
f 136 	141 	158
f 163 	159 	141
f 141 	28 	163
f 206 	173 	177
f 180 	80 	93
f 177 	181 	209
f 180 	93 	185
f 186 	180 	185
f 186 	185 	188
f 186 	188 	189
f 186 	189 	190
f 215 	187 	193
f 161 	196 	160
f 193 	160 	196
f 196 	161 	197
f 155 	153 	186
f 186 	190 	155
f 190 	198 	155
f 191 	532 	198
f 166 	199 	197
f 127 	180 	153
f 199 	166 	168
f 199 	168 	200
f 198 	190 	189
f 198 	189 	201
f 171 	203 	168
f 200 	168 	203
f 192 	191 	198
f 192 	198 	201
f 194 	204 	176
f 203 	171 	206
f 177 	208 	206
f 202 	68 	58
f 208 	177 	209
f 68 	84 	202
f 210 	211 	183
f 182 	183 	211
f 184 	213 	183
f 210 	183 	213
f 213 	184 	187
f 213 	187 	215
f 207 	176 	204
f 160 	193 	187
f 170 	332 	216
f 202 	58 	216
f 230 	254 	229
f 229 	254 	231
f 236 	128 	235
f 129 	235 	128
f 237 	232 	234
f 233 	234 	232
f 83 	82 	236
f 83 	236 	235
f 224 	225 	241
f 224 	241 	242
f 243 	245 	239
f 246 	239 	245
f 69 	332 	58
f 207 	204 	194
f 241 	225 	226
f 241 	226 	244
f 246 	1 	27
f 230 	248 	254
f 27 	969 	246
f 244 	250 	241
f 241 	588 	242
f 267 	83 	266
f 248 	230 	242
f 224 	242 	230
f 253 	263 	252
f 252 	263 	251
f 257 	263 	255
f 255 	263 	253
f 212 	217 	256
f 256 	217 	231
f 258 	259 	260
f 258 	260 	261
f 341 	863 	257
f 260 	262 	261
f 263 	44 	265
f 256 	231 	254
f 27 	40 	263
f 260 	259 	264
f 260 	259 	262
f 268 	262 	259
f 214 	212 	584
f 254 	248 	586
f 248 	242 	586
f 588 	586 	242
f 260 	430 	259
f 588 	241 	250
f 586 	584 	256
f 270 	329 	269
f 271 	329 	270
f 276 	329 	273
f 990 	179 	148
f 47 	264 	232
f 79 	128 	74
f 250 	279 	222
f 117 	169 	130
f 261 	233 	258
f 283 	329 	282
f 130 	169 	131
f 237 	258 	232
f 132 	131 	169
f 285 	329 	283
f 262 	233 	261
f 139 	137 	169
f 134 	169 	137
f 128 	182 	169
f 104 	128 	169
f 140 	139 	169
f 98 	106 	169
f 99 	98 	95
f 232 	258 	233
f 233 	262 	268
f 259 	258 	237
f 297 	293 	310
f 258 	237 	298
f 234 	298 	237
f 258 	298 	259
f 161 	160 	128
f 268 	259 	298
f 166 	162 	128
f 168 	166 	128
f 171 	168 	128
f 173 	171 	128
f 247 	1363 	1348
f 237 	258 	302
f 301 	297 	310
f 140 	169 	182
f 247 	391 	84
f 84 	1363 	247
f 258 	259 	302
f 304 	379 	322
f 162 	161 	128
f 160 	187 	128
f 187 	184 	128
f 184 	183 	128
f 183 	182 	128
f 74 	128 	104
f 286 	287 	305
f 181 	177 	236
f 177 	173 	236
f 128 	236 	173
f 501 	332 	170
f 305 	287 	284
f 234 	233 	298
f 233 	268 	298
f 305 	308 	286
f 293 	286 	308
f 310 	293 	308
f 311 	263 	309
f 1010 	1094 	236
f 82 	1010 	236
f 88 	312 	313
f 88 	313 	86
f 92 	314 	315
f 92 	315 	90
f 1174 	268 	306
f 174 	318 	94
f 317 	94 	318
f 244 	226 	301
f 244 	301 	319
f 178 	992 	320
f 319 	301 	310
f 1174 	321 	268
f 317 	318 	323
f 309 	263 	292
f 249 	263 	311
f 251 	263 	249
f 327 	313 	326
f 312 	326 	313
f 281 	282 	266
f 329 	266 	282
f 285 	269 	329
f 272 	329 	271
f 272 	273 	329
f 277 	329 	276
f 280 	281 	266
f 312 	323 	325
f 312 	325 	326
f 305 	340 	308
f 308 	340 	310
f 310 	345 	319
f 329 	277 	278
f 288 	263 	278
f 290 	263 	289
f 265 	329 	263
f 291 	263 	290
f 292 	263 	291
f 289 	263 	288
f 330 	331 	328
f 329 	278 	263
f 335 	329 	265
f 335 	265 	336
f 339 	315 	338
f 314 	338 	315
f 337 	274 	275
f 337 	275 	340
f 324 	863 	331
f 331 	338 	324
f 314 	324 	338
f 50 	265 	44
f 596 	274 	337
f 344 	927 	343
f 345 	340 	279
f 275 	279 	340
f 346 	863 	342
f 250 	345 	279
f 347 	863 	346
f 351 	863 	348
f 348 	863 	347
f 343 	927 	365
f 350 	343 	365
f 349 	343 	350
f 284 	354 	305
f 387 	378 	353
f 384 	387 	356
f 357 	384 	356
f 143 	145 	863
f 354 	284 	322
f 304 	322 	284
f 356 	355 	133
f 350 	359 	349
f 359 	125 	349
f 356 	133 	135
f 305 	354 	596
f 305 	337 	340
f 345 	310 	340
f 244 	319 	250
f 356 	135 	144
f 365 	927 	364
f 337 	305 	596
f 357 	356 	144
f 363 	14 	361
f 250 	319 	345
f 364 	366 	367
f 362 	361 	14
f 364 	367 	606
f 357 	144 	138
f 364 	927 	366
f 202 	216 	332
f 333 	334 	352
f 353 	352 	334
f 363 	360 	14
f 9 	14 	360
f 332 	886 	216
f 371 	368 	369
f 371 	369 	372
f 423 	362 	14
f 373 	374 	375
f 373 	375 	376
f 126 	888 	51
f 373 	376 	371
f 373 	371 	372
f 133 	355 	334
f 216 	58 	332
f 334 	355 	353
f 372 	720 	373
f 352 	10 	333
f 9 	333 	10
f 393 	395 	889
f 889 	32 	37
f 889 	37 	43
f 889 	43 	51
f 126 	873 	888
f 332 	391 	202
f 10 	352 	12
f 354 	322 	377
f 202 	84 	332
f 379 	377 	322
f 133 	9 	135
f 378 	37 	32
f 9 	360 	144
f 144 	135 	9
f 37 	384 	43
f 69 	202 	332
f 384 	386 	51
f 384 	51 	43
f 334 	9 	133
f 333 	9 	334
f 387 	384 	37
f 380 	381 	316
f 307 	316 	381
f 638 	316 	307
f 387 	37 	378
f 296 	307 	381
f 296 	381 	295
f 378 	441 	352
f 300 	400 	299
f 390 	299 	400
f 397 	889 	396
f 395 	396 	889
f 398 	889 	397
f 399 	889 	398
f 32 	889 	399
f 353 	355 	387
f 384 	357 	386
f 352 	353 	378
f 405 	406 	408
f 407 	408 	406
f 408 	410 	405
f 410 	411 	405
f 404 	405 	411
f 119 	404 	411
f 412 	103 	411
f 393 	111 	412
f 1348 	554 	391
f 382 	383 	414
f 382 	414 	415
f 413 	403 	416
f 414 	383 	385
f 414 	385 	419
f 417 	362 	423
f 423 	205 	417
f 420 	413 	416
f 415 	369 	382
f 368 	382 	369
f 416 	366 	437
f 416 	437 	420
f 927 	437 	366
f 385 	388 	424
f 12 	553 	14
f 419 	385 	424
f 424 	388 	476
f 268 	595 	306
f 421 	426 	205
f 426 	427 	205
f 422 	426 	421
f 418 	431 	409
f 432 	409 	431
f 302 	430 	47
f 477 	436 	476
f 433 	714 	414
f 423 	421 	205
f 418 	437 	431
f 420 	437 	418
f 392 	433 	434
f 392 	434 	394
f 302 	259 	430
f 263 	257 	863
f 342 	863 	341
f 389 	433 	392
f 430 	260 	47
f 264 	47 	260
f 68 	202 	391
f 434 	436 	402
f 434 	402 	394
f 56 	68 	391
f 436 	755 	402
f 441 	452 	352
f 414 	419 	433
f 415 	414 	714
f 399 	441 	378
f 369 	720 	372
f 445 	686 	444
f 446 	686 	445
f 378 	32 	399
f 434 	433 	419
f 423 	14 	553
f 442 	429 	437
f 449 	435 	448
f 448 	435 	450
f 453 	12 	452
f 553 	12 	471
f 369 	415 	714
f 451 	970 	447
f 453 	452 	397
f 303 	429 	459
f 459 	429 	442
f 452 	398 	397
f 457 	455 	454
f 460 	449 	456
f 461 	455 	457
f 247 	56 	391
f 399 	398 	441
f 458 	461 	457
f 460 	435 	449
f 438 	435 	460
f 397 	396 	453
f 300 	295 	464
f 452 	441 	398
f 479 	429 	464
f 402 	755 	757
f 466 	455 	469
f 683 	684 	470
f 684 	685 	470
f 471 	395 	393
f 471 	393 	465
f 466 	472 	455
f 473 	450 	435
f 296 	299 	146
f 453 	396 	471
f 455 	472 	454
f 84 	592 	498
f 396 	395 	471
f 474 	435 	463
f 474 	473 	435
f 439 	440 	299
f 300 	299 	296
f 300 	296 	295
f 666 	637 	475
f 465 	553 	471
f 352 	452 	12
f 435 	488 	463
f 455 	764 	469
f 436 	477 	755
f 419 	424 	434
f 436 	434 	476
f 424 	476 	434
f 469 	755 	477
f 464 	429 	300
f 300 	429 	303
f 458 	765 	461
f 501 	332 	84
f 453 	471 	12
f 431 	437 	429
f 429 	479 	428
f 463 	488 	462
f 639 	294 	731
f 508 	741 	294
f 482 	476 	388
f 477 	476 	482
f 477 	482 	485
f 447 	970 	484
f 485 	466 	469
f 475 	637 	435
f 634 	487 	435
f 487 	488 	435
f 494 	462 	488
f 462 	494 	478
f 489 	481 	480
f 478 	490 	480
f 875 	483 	486
f 486 	484 	875
f 469 	477 	485
f 465 	393 	412
f 458 	457 	937
f 492 	493 	146
f 491 	492 	146
f 491 	146 	440
f 146 	299 	440
f 530 	407 	406
f 493 	500 	146
f 496 	520 	497
f 502 	520 	496
f 886 	332 	501
f 404 	119 	155
f 499 	495 	500
f 495 	146 	500
f 971 	503 	504
f 505 	501 	170
f 410 	506 	507
f 504 	510 	509
f 507 	411 	410
f 411 	507 	412
f 511 	412 	507
f 503 	510 	504
f 465 	412 	511
f 515 	516 	517
f 195 	501 	505
f 515 	518 	516
f 506 	553 	507
f 465 	511 	553
f 513 	514 	519
f 507 	553 	511
f 521 	497 	520
f 522 	523 	513
f 522 	513 	519
f 521 	520 	524
f 518 	521 	524
f 408 	526 	528
f 527 	505 	525
f 513 	523 	512
f 483 	875 	523
f 528 	410 	408
f 516 	518 	524
f 495 	499 	514
f 407 	526 	408
f 506 	410 	528
f 525 	529 	527
f 512 	523 	875
f 532 	531 	404
f 531 	405 	404
f 503 	974 	515
f 531 	530 	405
f 527 	1080 	505
f 518 	515 	974
f 404 	155 	532
f 543 	47 	53
f 530 	406 	405
f 407 	530 	526
f 515 	517 	533
f 534 	515 	533
f 526 	550 	528
f 506 	528 	553
f 550 	553 	528
f 540 	548 	535
f 548 	510 	535
f 501 	391 	332
f 534 	535 	515
f 501 	498 	536
f 191 	557 	532
f 535 	534 	560
f 155 	198 	532
f 539 	540 	541
f 539 	541 	542
f 539 	542 	537
f 539 	537 	538
f 544 	545 	546
f 362 	417 	547
f 549 	509 	548
f 501 	84 	498
f 422 	421 	551
f 422 	551 	550
f 509 	510 	548
f 544 	549 	548
f 550 	526 	530
f 531 	557 	530
f 531 	532 	557
f 552 	544 	548
f 551 	553 	550
f 552 	545 	544
f 543 	430 	47
f 423 	553 	551
f 423 	551 	421
f 391 	570 	555
f 538 	1036 	539
f 540 	539 	552
f 552 	548 	540
f 191 	192 	425
f 545 	552 	539
f 557 	191 	425
f 515 	535 	510
f 510 	503 	515
f 391 	555 	1348
f 558 	530 	557
f 427 	426 	558
f 558 	557 	427
f 581 	268 	580
f 427 	557 	425
f 391 	501 	536
f 268 	581 	306
f 559 	306 	581
f 422 	558 	426
f 535 	560 	540
f 550 	530 	558
f 268 	306 	580
f 559 	580 	306
f 550 	558 	422
f 561 	391 	554
f 541 	540 	560
f 564 	1036 	563
f 567 	562 	565
f 568 	567 	565
f 568 	565 	564
f 569 	568 	564
f 569 	564 	563
f 460 	566 	438
f 569 	563 	538
f 569 	538 	537
f 148 	435 	789
f 573 	571 	572
f 574 	212 	214
f 446 	445 	610
f 446 	610 	605
f 574 	217 	212
f 575 	576 	574
f 575 	574 	214
f 573 	572 	576
f 306 	559 	1174
f 573 	576 	575
f 444 	610 	445
f 575 	578 	573
f 626 	572 	571
f 595 	559 	306
f 579 	577 	578
f 579 	582 	577
f 559 	581 	583
f 584 	585 	579
f 585 	582 	579
f 583 	580 	559
f 554 	556 	555
f 586 	585 	584
f 586 	587 	585
f 554 	555 	561
f 586 	588 	587
f 543 	581 	430
f 561 	555 	570
f 588 	589 	587
f 589 	250 	222
f 588 	250 	589
f 590 	578 	577
f 498 	527 	536
f 584 	579 	214
f 575 	579 	578
f 590 	571 	578
f 573 	578 	571
f 575 	214 	579
f 212 	256 	584
f 583 	770 	559
f 591 	448 	450
f 450 	653 	591
f 256 	254 	586
f 498 	592 	593
f 593 	632 	498
f 594 	620 	566
f 721 	592 	84
f 583 	559 	595
f 593 	529 	592
f 274 	596 	598
f 597 	620 	449
f 592 	721 	391
f 448 	597 	449
f 377 	599 	600
f 603 	354 	600
f 592 	391 	536
f 591 	610 	597
f 601 	600 	599
f 601 	599 	602
f 448 	591 	597
f 596 	354 	603
f 594 	566 	460
f 596 	603 	604
f 596 	604 	598
f 529 	654 	592
f 603 	600 	601
f 603 	601 	604
f 609 	350 	365
f 443 	612 	613
f 443 	613 	444
f 607 	611 	608
f 606 	367 	618
f 615 	616 	621
f 613 	610 	444
f 611 	614 	608
f 614 	611 	602
f 370 	618 	367
f 614 	602 	599
f 413 	617 	403
f 401 	403 	619
f 619 	403 	617
f 620 	456 	449
f 619 	617 	125
f 615 	962 	617
f 619 	125 	618
f 618 	125 	606
f 608 	614 	377
f 594 	460 	620
f 456 	620 	460
f 606 	125 	359
f 651 	652 	962
f 599 	377 	614
f 592 	536 	593
f 591 	653 	605
f 605 	610 	591
f 613 	612 	597
f 610 	613 	597
f 377 	902 	608
f 633 	636 	608
f 620 	597 	612
f 647 	627 	590
f 1171 	1166 	620
f 612 	1171 	620
f 566 	620 	1166
f 577 	623 	590
f 463 	462 	625
f 647 	626 	627
f 428 	628 	429
f 463 	625 	629
f 489 	480 	490
f 630 	429 	624
f 571 	627 	626
f 490 	478 	494
f 593 	592 	1080
f 628 	624 	429
f 652 	429 	631
f 607 	608 	636
f 622 	652 	631
f 630 	631 	429
f 571 	590 	627
f 446 	605 	467
f 605 	640 	467
f 590 	623 	647
f 640 	642 	468
f 640 	468 	467
f 645 	641 	644
f 643 	644 	641
f 634 	435 	637
f 632 	527 	529
f 632 	529 	593
f 642 	646 	470
f 642 	470 	468
f 731 	624 	639
f 628 	639 	624
f 636 	633 	903
f 593 	536 	632
f 849 	652 	622
f 849 	938 	652
f 650 	626 	647
f 623 	650 	647
f 635 	1178 	625
f 640 	605 	653
f 629 	642 	653
f 655 	656 	658
f 950 	962 	652
f 621 	651 	615
f 659 	655 	658
f 660 	475 	657
f 649 	657 	475
f 659 	658 	661
f 640 	653 	642
f 629 	625 	646
f 642 	629 	646
f 529 	1136 	654
f 641 	227 	853
f 663 	659 	661
f 824 	802 	665
f 665 	802 	664
f 475 	660 	666
f 1080 	654 	529
f 450 	473 	653
f 661 	658 	727
f 722 	729 	669
f 669 	374 	722
f 374 	373 	722
f 474 	629 	653
f 474 	653 	473
f 669 	656 	655
f 669 	655 	671
f 529 	654 	1137
f 463 	629 	474
f 670 	667 	648
f 649 	475 	648
f 374 	669 	671
f 374 	671 	375
f 670 	648 	475
f 668 	670 	475
f 478 	625 	462
f 377 	600 	354
f 635 	625 	478
f 377 	379 	902
f 903 	902 	379
f 478 	672 	635
f 633 	608 	902
f 675 	361 	674
f 362 	674 	361
f 527 	632 	1080
f 632 	593 	1080
f 672 	478 	480
f 360 	363 	475
f 363 	676 	475
f 480 	481 	677
f 581 	194 	673
f 672 	480 	677
f 475 	676 	668
f 674 	668 	675
f 675 	668 	676
f 632 	527 	498
f 543 	207 	194
f 680 	679 	678
f 435 	438 	789
f 719 	789 	438
f 677 	481 	1310
f 581 	543 	194
f 681 	679 	682
f 468 	470 	685
f 467 	468 	685
f 446 	467 	685
f 446 	685 	686
f 687 	443 	686
f 444 	686 	443
f 957 	916 	673
f 527 	632 	536
f 689 	690 	688
f 470 	688 	690
f 470 	690 	691
f 470 	691 	692
f 693 	678 	679
f 681 	693 	679
f 696 	470 	695
f 697 	470 	696
f 698 	470 	697
f 699 	470 	698
f 700 	470 	699
f 701 	470 	700
f 683 	470 	701
f 694 	695 	470
f 1317 	218 	219
f 732 	834 	681
f 661 	732 	704
f 219 	220 	1317
f 704 	732 	681
f 704 	705 	663
f 709 	470 	708
f 707 	708 	470
f 706 	707 	470
f 710 	470 	709
f 694 	470 	710
f 702 	706 	470
f 692 	703 	470
f 702 	470 	703
f 661 	704 	663
f 705 	704 	681
f 705 	681 	682
f 714 	715 	716
f 718 	789 	717
f 583 	581 	580
f 714 	716 	720
f 389 	715 	714
f 711 	789 	713
f 712 	789 	711
f 716 	722 	720
f 716 	723 	722
f 719 	717 	789
f 713 	789 	718
f 714 	433 	389
f 726 	727 	728
f 727 	729 	728
f 733 	734 	724
f 729 	722 	723
f 729 	723 	728
f 731 	294 	741
f 732 	727 	726
f 737 	738 	725
f 725 	724 	737
f 736 	737 	724
f 738 	739 	725
f 730 	725 	739
f 740 	730 	739
f 735 	736 	724
f 734 	735 	724
f 741 	745 	731
f 714 	720 	369
f 720 	722 	373
f 658 	656 	729
f 656 	669 	729
f 746 	751 	724
f 729 	727 	658
f 750 	747 	749
f 747 	750 	746
f 721 	570 	391
f 693 	681 	834
f 721 	561 	570
f 727 	732 	661
f 751 	746 	750
f 752 	724 	751
f 733 	724 	752
f 748 	749 	747
f 749 	748 	742
f 743 	846 	742
f 845 	846 	744
f 754 	789 	753
f 583 	758 	759
f 755 	762 	757
f 756 	789 	761
f 763 	759 	758
f 755 	764 	762
f 765 	766 	764
f 758 	1194 	759
f 761 	789 	760
f 712 	760 	789
f 766 	762 	764
f 765 	769 	766
f 583 	759 	770
f 763 	770 	759
f 756 	753 	789
f 765 	771 	769
f 767 	768 	759
f 771 	774 	769
f 771 	777 	774
f 778 	581 	776
f 775 	776 	581
f 777 	780 	774
f 780 	782 	774
f 780 	785 	782
f 784 	844 	783
f 772 	773 	205
f 781 	205 	773
f 581 	767 	787
f 581 	787 	788
f 581 	788 	775
f 772 	205 	786
f 754 	786 	789
f 205 	789 	786
f 765 	764 	461
f 755 	469 	764
f 796 	797 	793
f 481 	796 	794
f 455 	461 	764
f 765 	458 	771
f 792 	793 	797
f 793 	794 	796
f 771 	953 	777
f 777 	955 	780
f 804 	664 	802
f 795 	803 	791
f 955 	988 	780
f 802 	833 	801
f 489 	805 	481
f 807 	808 	806
f 798 	799 	811
f 796 	481 	805
f 798 	936 	799
f 807 	861 	808
f 894 	808 	807
f 814 	818 	845
f 811 	807 	806
f 792 	797 	818
f 806 	790 	894
f 807 	806 	894
f 801 	833 	800
f 819 	800 	835
f 811 	790 	806
f 797 	845 	818
f 813 	814 	845
f 860 	823 	821
f 808 	827 	807
f 827 	581 	807
f 806 	807 	581
f 825 	823 	860
f 806 	581 	811
f 828 	802 	826
f 832 	802 	828
f 826 	802 	824
f 830 	664 	829
f 662 	664 	830
f 820 	825 	856
f 833 	802 	832
f 768 	1174 	759
f 810 	732 	726
f 768 	767 	831
f 835 	800 	833
f 829 	664 	804
f 834 	810 	812
f 581 	836 	767
f 837 	678 	834
f 842 	819 	838
f 812 	837 	834
f 827 	175 	822
f 218 	512 	220
f 219 	218 	220
f 815 	813 	845
f 815 	845 	744
f 840 	841 	839
f 835 	838 	819
f 732 	810 	834
f 839 	844 	840
f 581 	840 	844
f 223 	512 	218
f 221 	223 	218
f 743 	744 	846
f 227 	228 	853
f 749 	742 	846
f 851 	852 	228
f 837 	817 	816
f 845 	842 	846
f 812 	817 	837
f 844 	839 	847
f 844 	847 	848
f 938 	950 	652
f 838 	779 	842
f 205 	779 	838
f 781 	779 	205
f 850 	904 	837
f 693 	834 	678
f 860 	858 	918
f 843 	205 	838
f 853 	228 	852
f 643 	641 	853
f 816 	850 	837
f 721 	1116 	854
f 847 	839 	919
f 840 	919 	839
f 674 	855 	668
f 843 	668 	855
f 856 	913 	850
f 820 	850 	816
f 878 	879 	228
f 205 	855 	417
f 581 	841 	840
f 856 	850 	820
f 846 	842 	779
f 855 	205 	843
f 857 	220 	512
f 859 	864 	435
f 435 	864 	475
f 864 	865 	475
f 721 	1120 	561
f 1118 	861 	862
f 821 	858 	860
f 142 	863 	351
f 721 	854 	1120
f 799 	861 	1118
f 856 	825 	860
f 325 	323 	863
f 859 	863 	323
f 864 	859 	323
f 318 	864 	323
f 799 	862 	861
f 240 	238 	320
f 901 	795 	791
f 799 	861 	811
f 799 	808 	861
f 809 	803 	795
f 909 	911 	858
f 911 	918 	858
f 861 	807 	811
f 790 	811 	861
f 862 	790 	861
f 811 	581 	861
f 897 	871 	875
f 857 	512 	871
f 839 	861 	840
f 581 	840 	861
f 867 	360 	866
f 872 	360 	867
f 861 	839 	862
f 847 	862 	839
f 581 	844 	841
f 848 	841 	844
f 18 	888 	873
f 152 	857 	871
f 875 	871 	512
f 848 	836 	844
f 581 	844 	836
f 851 	228 	879
f 778 	844 	581
f 195 	929 	876
f 360 	231 	866
f 877 	138 	360
f 872 	877 	360
f 138 	144 	360
f 848 	844 	882
f 778 	783 	844
f 882 	844 	784
f 770 	758 	583
f 785 	885 	782
f 770 	763 	758
f 866 	231 	868
f 1061 	854 	721
f 858 	821 	880
f 195 	170 	886
f 1136 	529 	525
f 763 	559 	770
f 1174 	559 	763
f 57 	72 	69
f 880 	881 	887
f 889 	51 	888
f 46 	393 	39
f 26 	393 	46
f 111 	393 	26
f 889 	39 	393
f 907 	721 	890
f 988 	994 	892
f 892 	785 	988
f 883 	891 	887
f 883 	887 	881
f 890 	654 	1136
f 84 	152 	871
f 770 	583 	595
f 785 	780 	988
f 654 	1080 	890
f 72 	152 	84
f 868 	217 	884
f 595 	268 	1194
f 785 	892 	885
f 1080 	529 	525
f 70 	884 	574
f 57 	886 	170
f 1194 	758 	763
f 1194 	763 	595
f 595 	763 	770
f 195 	876 	170
f 883 	885 	891
f 892 	891 	885
f 654 	890 	1137
f 896 	893 	870
f 895 	896 	870
f 103 	412 	111
f 105 	411 	103
f 120 	411 	105
f 119 	411 	120
f 895 	870 	874
f 895 	874 	910
f 876 	929 	941
f 895 	910 	909
f 157 	626 	80
f 156 	626 	157
f 898 	880 	887
f 897 	875 	900
f 858 	880 	898
f 721 	592 	654
f 654 	890 	721
f 164 	626 	156
f 898 	887 	895
f 887 	891 	896
f 896 	895 	887
f 809 	901 	869
f 909 	898 	895
f 894 	919 	940
f 80 	626 	93
f 525 	529 	1137
f 858 	898 	909
f 185 	93 	205
f 633 	902 	903
f 1137 	505 	525
f 1115 	869 	901
f 188 	185 	205
f 189 	188 	205
f 795 	901 	809
f 678 	837 	905
f 201 	205 	192
f 201 	189 	205
f 425 	192 	205
f 906 	905 	904
f 425 	205 	427
f 360 	475 	865
f 803 	908 	638
f 680 	905 	906
f 508 	294 	908
f 678 	905 	680
f 890 	1136 	907
f 909 	910 	920
f 909 	920 	911
f 890 	1080 	907
f 927 	301 	360
f 217 	868 	231
f 574 	884 	217
f 809 	908 	803
f 194 	1291 	673
f 907 	1137 	890
f 912 	913 	914
f 915 	912 	914
f 957 	919 	916
f 917 	915 	914
f 581 	673 	916
f 918 	911 	917
f 225 	360 	226
f 894 	790 	919
f 229 	360 	230
f 911 	920 	917
f 918 	917 	914
f 231 	360 	229
f 224 	360 	225
f 230 	360 	224
f 1038 	791 	795
f 840 	581 	919
f 856 	860 	914
f 918 	914 	860
f 913 	856 	914
f 905 	837 	904
f 904 	850 	913
f 275 	602 	279
f 922 	904 	913
f 916 	919 	581
f 304 	284 	287
f 913 	912 	923
f 913 	923 	922
f 927 	304 	293
f 904 	922 	906
f 154 	205 	125
f 287 	286 	304
f 226 	360 	301
f 297 	927 	293
f 301 	927 	297
f 286 	293 	304
f 947 	900 	875
f 939 	940 	957
f 957 	940 	919
f 930 	941 	929
f 921 	1120 	854
f 941 	935 	933
f 934 	933 	935
f 376 	379 	371
f 375 	379 	376
f 368 	371 	379
f 931 	806 	936
f 933 	934 	938
f 854 	1061 	921
f 924 	458 	937
f 304 	927 	379
f 953 	924 	925
f 931 	932 	806
f 934 	950 	938
f 615 	651 	962
f 1116 	721 	84
f 956 	458 	924
f 382 	368 	927
f 936 	932 	931
f 956 	924 	953
f 941 	951 	935
f 379 	927 	368
f 894 	931 	936
f 936 	808 	894
f 385 	383 	927
f 383 	382 	927
f 931 	894 	827
f 951 	941 	946
f 946 	941 	945
f 930 	945 	941
f 388 	385 	927
f 827 	936 	931
f 949 	940 	939
f 963 	944 	948
f 715 	389 	392
f 715 	392 	394
f 715 	394 	402
f 939 	942 	949
f 952 	935 	951
f 170 	1136 	505
f 505 	1136 	525
f 757 	762 	715
f 953 	925 	955
f 940 	949 	954
f 955 	925 	926
f 955 	928 	988
f 472 	927 	454
f 928 	955 	926
f 939 	1291 	940
f 942 	1291 	939
f 388 	927 	482
f 485 	927 	466
f 942 	939 	954
f 954 	939 	940
f 458 	956 	771
f 953 	771 	956
f 955 	777 	953
f 485 	482 	927
f 466 	927 	472
f 927 	520 	454
f 505 	1137 	195
f 560 	534 	927
f 517 	516 	927
f 957 	673 	1291
f 958 	959 	943
f 958 	943 	944
f 931 	1077 	932
f 932 	1077 	798
f 936 	806 	808
f 798 	811 	806
f 932 	798 	806
f 961 	960 	721
f 958 	978 	959
f 975 	978 	963
f 963 	964 	975
f 496 	975 	964
f 125 	617 	962
f 942 	939 	957
f 962 	967 	125
f 524 	520 	927
f 937 	457 	502
f 964 	948 	502
f 932 	936 	798
f 808 	799 	936
f 965 	969 	967
f 966 	969 	965
f 502 	496 	964
f 549 	977 	509
f 968 	969 	966
f 948 	964 	963
f 958 	944 	963
f 125 	967 	969
f 969 	968 	947
f 969 	947 	875
f 875 	484 	970
f 969 	875 	970
f 502 	948 	937
f 936 	827 	808
f 972 	973 	974
f 961 	721 	907
f 974 	971 	972
f 975 	972 	976
f 524 	927 	516
f 907 	1080 	961
f 976 	977 	978
f 976 	978 	975
f 974 	503 	971
f 517 	927 	533
f 534 	533 	927
f 975 	973 	972
f 542 	541 	927
f 568 	569 	344
f 521 	518 	973
f 497 	521 	973
f 541 	560 	927
f 973 	975 	497
f 496 	497 	975
f 228 	227 	1306
f 958 	963 	978
f 544 	977 	549
f 907 	961 	1137
f 927 	344 	542
f 974 	973 	518
f 1317 	220 	1320
f 537 	542 	344
f 1076 	997 	978
f 979 	980 	991
f 569 	537 	344
f 567 	568 	344
f 567 	344 	1058
f 1326 	223 	221
f 893 	980 	870
f 61 	572 	55
f 981 	988 	928
f 246 	970 	239
f 970 	451 	239
f 451 	437 	239
f 927 	238 	437
f 239 	437 	238
f 576 	64 	574
f 970 	246 	969
f 27 	263 	969
f 61 	64 	576
f 572 	61 	576
f 64 	70 	574
f 626 	164 	572
f 55 	572 	164
f 776 	783 	778
f 582 	585 	602
f 587 	602 	585
f 589 	602 	587
f 222 	602 	589
f 788 	787 	778
f 787 	848 	788
f 795 	809 	1038
f 997 	1063 	985
f 778 	841 	783
f 604 	601 	598
f 274 	598 	601
f 275 	274 	602
f 611 	577 	602
f 607 	623 	611
f 601 	602 	274
f 279 	602 	222
f 986 	987 	869
f 987 	1038 	869
f 582 	602 	577
f 577 	611 	623
f 636 	623 	607
f 991 	980 	893
f 1120 	1116 	561
f 882 	784 	841
f 783 	841 	784
f 205 	93 	626
f 979 	988 	981
f 990 	992 	179
f 650 	623 	636
f 778 	776 	788
f 775 	788 	776
f 178 	179 	992
f 626 	650 	205
f 993 	989 	996
f 783 	776 	784
f 775 	784 	776
f 994 	988 	979
f 636 	205 	650
f 903 	205 	636
f 996 	989 	995
f 994 	979 	991
f 943 	959 	997
f 11 	2 	995
f 788 	848 	775
f 997 	985 	943
f 663 	903 	659
f 836 	848 	787
f 655 	659 	379
f 982 	983 	999
f 998 	999 	983
f 671 	655 	379
f 375 	671 	379
f 882 	841 	848
f 921 	854 	1116
f 1003 	984 	999
f 982 	999 	984
f 1002 	1001 	1007
f 1001 	1000 	1007
f 1004 	1002 	1007
f 984 	1003 	1024
f 882 	775 	848
f 784 	775 	882
f 903 	679 	680
f 836 	831 	767
f 893 	896 	891
f 891 	892 	991
f 994 	991 	892
f 1005 	1007 	1006
f 169 	1006 	1007
f 1005 	1004 	1007
f 921 	1080 	854
f 113 	1006 	169
f 991 	893 	891
f 959 	978 	997
f 1110 	1008 	1007
f 25 	24 	1008
f 705 	903 	663
f 682 	903 	705
f 379 	659 	903
f 682 	679 	903
f 1009 	1010 	82
f 998 	1026 	999
f 1003 	999 	1026
f 1013 	984 	1024
f 942 	954 	949
f 67 	1013 	1024
f 519 	987 	1282
f 1018 	931 	1011
f 726 	728 	715
f 728 	723 	715
f 723 	716 	715
f 402 	757 	715
f 1017 	1020 	1027
f 1020 	1021 	1027
f 1011 	949 	1018
f 942 	957 	949
f 766 	715 	762
f 769 	715 	766
f 774 	715 	769
f 782 	715 	774
f 721 	960 	1061
f 957 	1023 	949
f 1018 	949 	1023
f 983 	1016 	998
f 825 	715 	823
f 820 	715 	825
f 816 	715 	820
f 817 	715 	816
f 812 	715 	817
f 810 	715 	812
f 726 	715 	810
f 821 	823 	715
f 997 	1076 	1063
f 921 	1116 	1019
f 1030 	908 	809
f 65 	67 	1024
f 1016 	1017 	1025
f 1016 	1025 	1026
f 1030 	795 	791
f 1026 	1025 	1024
f 1024 	1003 	1026
f 65 	1024 	1027
f 1027 	1028 	65
f 60 	65 	1028
f 809 	795 	1030
f 1027 	1025 	1017
f 881 	715 	883
f 880 	715 	881
f 885 	883 	715
f 821 	715 	880
f 782 	885 	715
f 1021 	1028 	1027
f 1028 	1021 	1029
f 1022 	1029 	1021
f 205 	903 	922
f 680 	906 	903
f 906 	922 	903
f 922 	923 	205
f 1029 	54 	1028
f 907 	1136 	961
f 908 	1030 	986
f 1016 	1026 	998
f 910 	874 	1037
f 982 	984 	870
f 1035 	1036 	1040
f 1032 	778 	1034
f 920 	910 	1037
f 917 	920 	1037
f 1035 	545 	1036
f 915 	917 	1037
f 538 	563 	1036
f 1037 	205 	912
f 912 	915 	1037
f 923 	912 	205
f 545 	539 	1036
f 545 	1035 	546
f 125 	205 	1037
f 1034 	767 	1032
f 809 	869 	1038
f 948 	944 	924
f 565 	562 	1041
f 925 	924 	944
f 1039 	390 	400
f 1042 	1041 	1043
f 457 	454 	520
f 1039 	400 	300
f 1041 	1046 	1043
f 300 	303 	1039
f 1036 	564 	1041
f 1036 	1041 	1042
f 1038 	987 	1419
f 944 	943 	926
f 1036 	1042 	1040
f 479 	464 	380
f 876 	941 	1165
f 639 	1206 	294
f 316 	908 	294
f 924 	937 	948
f 1047 	908 	986
f 1194 	741 	908
f 928 	926 	943
f 926 	925 	944
f 520 	502 	457
f 1055 	1054 	1046
f 1046 	1076 	978
f 1048 	1047 	869
f 986 	869 	1047
f 1046 	978 	1049
f 977 	1049 	978
f 976 	509 	977
f 972 	504 	976
f 971 	504 	972
f 509 	976 	504
f 1049 	1043 	1046
f 1050 	23 	1051
f 1050 	1052 	23
f 983 	982 	980
f 981 	928 	985
f 1054 	1055 	1056
f 1054 	1056 	1050
f 928 	943 	985
f 1031 	1033 	1032
f 1047 	1053 	908
f 1054 	1050 	1051
f 870 	980 	982
f 1032 	1031 	1057
f 1031 	1075 	1057
f 1058 	1055 	562
f 1047 	1433 	1053
f 1056 	1055 	1058
f 1060 	1075 	1059
f 1032 	1059 	1031
f 1057 	1059 	1032
f 1033 	1032 	790
f 1051 	23 	1076
f 23 	22 	1076
f 1078 	1076 	22
f 1046 	1041 	1055
f 562 	1055 	1041
f 565 	1041 	564
f 567 	1058 	562
f 778 	783 	1109
f 1109 	1062 	778
f 979 	983 	980
f 979 	981 	983
f 981 	985 	983
f 1017 	1016 	1063
f 1013 	1037 	984
f 1032 	778 	1062
f 1061 	1019 	921
f 67 	1037 	1013
f 778 	1032 	776
f 775 	776 	1032
f 1032 	1034 	775
f 1014 	1012 	1110
f 1017 	1063 	1020
f 1015 	1014 	1110
f 985 	1063 	1016
f 983 	985 	1016
f 1021 	1020 	1063
f 1032 	841 	778
f 1029 	1022 	1069
f 1042 	977 	1040
f 1035 	1040 	977
f 1043 	977 	1042
f 1049 	977 	1043
f 546 	1035 	977
f 544 	546 	977
f 1062 	841 	1032
f 1080 	1061 	960
f 919 	1032 	1062
f 869 	1115 	1113
f 1050 	358 	1052
f 919 	790 	1032
f 961 	1080 	960
f 1033 	1062 	1032
f 1056 	344 	1050
f 1058 	344 	1056
f 358 	1050 	344
f 1073 	1086 	1065
f 609 	1074 	1225
f 931 	1117 	1032
f 1031 	1032 	1117
f 359 	1072 	606
f 606 	1072 	1231
f 1063 	1070 	1071
f 1063 	1071 	1073
f 1065 	1064 	1063
f 1064 	1067 	1063
f 1067 	1069 	1063
f 1069 	1022 	1063
f 1021 	1063 	1022
f 1073 	1065 	1063
f 1077 	931 	1033
f 1032 	1033 	931
f 1078 	1063 	1076
f 1072 	1074 	1231
f 1078 	1070 	1063
f 1072 	1228 	1074
f 1034 	787 	788
f 1081 	616 	615
f 1081 	615 	1082
f 1078 	1083 	1070
f 621 	616 	1081
f 1034 	778 	787
f 1083 	1071 	1070
f 1082 	615 	617
f 1082 	617 	1085
f 1082 	1085 	1081
f 1032 	836 	1034
f 358 	121 	1052
f 1085 	617 	413
f 1073 	1071 	1086
f 1083 	1086 	1071
f 20 	121 	1079
f 1054 	1051 	1046
f 1076 	1046 	1051
f 1083 	30 	1086
f 1066 	1015 	1110
f 1061 	1137 	960
f 20 	1087 	121
f 1087 	1052 	121
f 1068 	1066 	1110
f 787 	767 	1034
f 1090 	1068 	1110
f 1091 	1090 	1110
f 22 	35 	1078
f 48 	108 	1037
f 1137 	961 	960
f 52 	49 	1037
f 62 	52 	1037
f 1010 	1110 	1095
f 1097 	1096 	1110
f 1096 	1095 	1110
f 62 	1037 	67
f 870 	984 	1037
f 1037 	874 	870
f 1075 	1145 	1031
f 1031 	1145 	1033
f 1102 	1103 	81
f 85 	81 	1103
f 1103 	1086 	96
f 31 	96 	1086
f 1104 	1101 	1007
f 1084 	123 	97
f 1060 	1107 	1075
f 1031 	1059 	1075
f 1065 	1103 	1102
f 1065 	1102 	1064
f 1128 	1129 	1061
f 1106 	1105 	1007
f 1105 	1104 	1007
f 1106 	1007 	1000
f 1108 	45 	1029
f 1077 	1033 	790
f 1102 	1067 	1064
f 1109 	783 	784
f 73 	87 	125
f 87 	102 	125
f 102 	97 	125
f 505 	1080 	525
f 1012 	1097 	1110
f 1095 	1093 	1010
f 1093 	1094 	1010
f 181 	236 	1094
f 1067 	1108 	1069
f 882 	848 	1109
f 882 	1109 	784
f 125 	1037 	108
f 75 	125 	108
f 49 	48 	1037
f 75 	73 	125
f 1101 	1100 	1007
f 1098 	1099 	1007
f 1100 	1098 	1007
f 1099 	1092 	1007
f 1110 	1007 	1092
f 1092 	1091 	1110
f 788 	775 	1034
f 1069 	1108 	1029
f 1008 	24 	1007
f 1111 	1008 	1110
f 1111 	1110 	1112
f 125 	97 	123
f 1084 	1079 	123
f 121 	123 	1079
f 77 	118 	1102
f 17 	1007 	24
f 123 	349 	125
f 1080 	592 	721
f 1102 	1108 	1067
f 721 	854 	1080
f 927 	360 	865
f 320 	238 	865
f 927 	865 	238
f 841 	1062 	1109
f 1065 	1086 	1103
f 328 	129 	78
f 328 	78 	76
f 1062 	1109 	919
f 1079 	22 	20
f 1019 	1080 	921
f 143 	863 	142
f 35 	22 	1079
f 147 	863 	145
f 1077 	1109 	1062
f 1077 	1062 	1033
f 29 	35 	1079
f 149 	863 	147
f 1019 	1129 	1080
f 1079 	1084 	30
f 151 	211 	863
f 150 	151 	863
f 29 	1079 	30
f 31 	30 	1084
f 149 	150 	863
f 211 	129 	863
f 97 	96 	31
f 1019 	1061 	1129
f 97 	31 	1084
f 196 	129 	193
f 1128 	1061 	1045
f 197 	129 	196
f 1114 	483 	1113
f 484 	486 	1114
f 1114 	486 	483
f 1087 	23 	1052
f 206 	129 	203
f 1114 	1113 	1115
f 1115 	1126 	1114
f 23 	1087 	20
f 208 	235 	206
f 209 	235 	208
f 1115 	500 	493
f 759 	1194 	767
f 193 	129 	215
f 1118 	1119 	1117
f 1075 	1031 	1119
f 84 	391 	1116
f 325 	863 	324
f 210 	129 	211
f 213 	129 	210
f 215 	129 	213
f 199 	129 	197
f 200 	129 	199
f 203 	129 	200
f 129 	328 	863
f 328 	331 	863
f 1116 	1120 	1152
f 677 	1178 	672
f 799 	798 	862
f 862 	798 	1077
f 391 	561 	1116
f 787 	1034 	836
f 280 	235 	209
f 266 	235 	280
f 1032 	1197 	836
f 129 	206 	235
f 266 	83 	235
f 1130 	1141 	1149
f 862 	1119 	1118
f 1122 	1121 	489
f 95 	94 	317
f 95 	317 	323
f 489 	1121 	805
f 88 	95 	323
f 88 	323 	312
f 325 	324 	98
f 1122 	489 	490
f 1115 	492 	491
f 1115 	491 	1126
f 313 	327 	100
f 313 	100 	86
f 1115 	493 	492
f 1123 	1122 	490
f 98 	99 	325
f 101 	100 	327
f 101 	327 	326
f 1123 	490 	494
f 101 	326 	325
f 101 	325 	99
f 92 	98 	324
f 92 	324 	314
f 439 	299 	390
f 76 	74 	104
f 76 	104 	328
f 107 	330 	328
f 107 	328 	104
f 488 	1123 	494
f 315 	339 	109
f 315 	109 	90
f 1147 	1149 	1141
f 331 	330 	107
f 331 	107 	106
f 110 	109 	339
f 110 	339 	338
f 495 	803 	638
f 1127 	1123 	488
f 110 	338 	331
f 110 	331 	106
f 1128 	1116 	1155
f 154 	1131 	148
f 1127 	488 	487
f 179 	864 	172
f 1124 	1127 	487
f 316 	638 	908
f 112 	342 	113
f 1124 	487 	634
f 1129 	1128 	1120
f 114 	342 	112
f 115 	347 	114
f 1132 	148 	1131
f 347 	115 	116
f 1019 	1116 	1129
f 117 	351 	116
f 1120 	1019 	1129
f 1149 	1346 	1130
f 117 	130 	351
f 1130 	1124 	634
f 342 	341 	113
f 1130 	634 	637
f 114 	346 	342
f 347 	346 	114
f 116 	348 	347
f 351 	348 	116
f 1128 	1045 	1120
f 148 	1132 	990
f 989 	990 	1132
f 995 	989 	1132
f 1131 	17 	1132
f 1007 	17 	1131
f 995 	1132 	17
f 995 	17 	11
f 240 	320 	992
f 361 	1161 	1133
f 996 	243 	993
f 1129 	1128 	1080
f 243 	996 	245
f 1162 	362 	1134
f 990 	989 	239
f 990 	239 	238
f 992 	990 	238
f 992 	238 	240
f 363 	1135 	676
f 1163 	676 	1135
f 239 	989 	993
f 239 	993 	243
f 996 	995 	246
f 996 	246 	245
f 1163 	1135 	1161
f 1133 	1161 	1135
f 995 	2 	1
f 995 	1 	246
f 547 	1162 	1134
f 267 	82 	83
f 82 	267 	1009
f 1135 	363 	361
f 1135 	361 	1133
f 1112 	335 	336
f 1112 	336 	1111
f 1134 	362 	547
f 280 	209 	181
f 921 	1019 	1120
f 1002 	252 	1001
f 1128 	1129 	1116
f 252 	1002 	1004
f 1152 	1155 	1116
f 649 	648 	1138
f 249 	1000 	251
f 1001 	251 	1000
f 252 	251 	1001
f 1004 	253 	252
f 1138 	1140 	649
f 253 	1004 	255
f 1005 	255 	1004
f 657 	649 	1139
f 255 	1005 	1006
f 255 	1006 	257
f 1165 	1044 	1136
f 341 	257 	113
f 660 	657 	1139
f 1061 	1080 	1155
f 1006 	113 	257
f 664 	662 	1148
f 263 	863 	169
f 1007 	263 	169
f 265 	25 	1008
f 265 	1008 	1111
f 265 	1111 	336
f 1010 	1009 	267
f 1010 	267 	266
f 1080 	1128 	1155
f 329 	1010 	266
f 1010 	329 	1110
f 1150 	824 	665
f 1148 	665 	664
f 269 	1012 	1014
f 1141 	637 	666
f 1141 	1130 	637
f 1093 	1095 	282
f 1096 	283 	1095
f 282 	1095 	283
f 649 	1140 	1139
f 283 	1096 	1097
f 960 	961 	1136
f 1141 	660 	1139
f 1012 	269 	1097
f 1136 	1045 	1061
f 1136 	1061 	960
f 1014 	270 	269
f 401 	619 	1089
f 1125 	1119 	1118
f 270 	1014 	271
f 1015 	271 	1014
f 618 	1088 	1089
f 618 	1089 	619
f 1139 	1147 	1141
f 1066 	272 	271
f 1066 	271 	1015
f 195 	1137 	1155
f 1117 	1119 	1031
f 1119 	1143 	1075
f 1142 	1075 	1143
f 1138 	1150 	1140
f 1140 	1148 	1139
f 272 	1066 	273
f 1068 	273 	1066
f 1090 	276 	273
f 1090 	273 	1068
f 1081 	1144 	621
f 862 	1077 	1145
f 1077 	1033 	1145
f 1142 	1145 	1075
f 1124 	1130 	1346
f 651 	621 	1144
f 276 	1090 	277
f 1091 	277 	1090
f 1075 	1142 	1057
f 660 	1141 	666
f 277 	1091 	1092
f 277 	1092 	278
f 1146 	1142 	1107
f 1075 	1107 	1142
f 1148 	662 	1147
f 281 	280 	1093
f 1094 	1093 	280
f 1145 	1143 	1119
f 1145 	1119 	862
f 281 	1093 	282
f 1137 	1061 	1155
f 1154 	1143 	1125
f 1119 	1125 	1143
f 428 	1196 	628
f 1143 	1118 	1119
f 1097 	285 	283
f 929 	195 	1155
f 1097 	269 	285
f 1118 	1117 	799
f 798 	799 	1117
f 1150 	665 	1148
f 1125 	1118 	1117
f 1104 	292 	1101
f 900 	1151 	1152
f 1147 	1139 	1148
f 1127 	1124 	1346
f 897 	900 	1152
f 1346 	1347 	1127
f 1154 	1142 	1143
f 1154 	1145 	1142
f 1123 	1127 	1347
f 1151 	1170 	1152
f 1142 	1154 	1057
f 1148 	1140 	1150
f 1146 	1154 	1142
f 1143 	1145 	1154
f 901 	499 	500
f 1174 	630 	624
f 648 	667 	1138
f 1156 	1138 	667
f 1154 	1117 	1118
f 1143 	1154 	1118
f 930 	929 	1155
f 1157 	1156 	1160
f 1160 	1156 	667
f 1160 	667 	670
f 934 	1159 	1158
f 668 	1157 	1160
f 668 	1160 	670
f 790 	862 	1077
f 935 	1159 	934
f 361 	675 	1161
f 847 	1109 	848
f 1162 	674 	362
f 628 	1196 	639
f 841 	1109 	847
f 839 	841 	847
f 1161 	675 	676
f 1161 	676 	1163
f 933 	938 	1164
f 1109 	847 	919
f 1334 	1343 	1164
f 719 	438 	566
f 862 	847 	1109
f 862 	1109 	1077
f 952 	1159 	935
f 1174 	768 	831
f 154 	148 	789
f 933 	1164 	1165
f 941 	933 	1165
f 1166 	1167 	566
f 1167 	1172 	566
f 1199 	1260 	1246
f 685 	1167 	1166
f 831 	836 	1197
f 1168 	1170 	1151
f 1169 	1170 	1168
f 1155 	1152 	1170
f 1173 	566 	1172
f 1169 	945 	1170
f 1166 	686 	685
f 945 	930 	1170
f 645 	1212 	641
f 1171 	687 	1166
f 1214 	645 	644
f 930 	1155 	1170
f 687 	686 	1166
f 1060 	1059 	1279
f 1169 	946 	945
f 644 	643 	1214
f 731 	1174 	624
f 612 	443 	687
f 1171 	612 	687
f 622 	1182 	1334
f 1107 	1060 	1057
f 1060 	1059 	1057
f 622 	1334 	849
f 1180 	1158 	1159
f 684 	1172 	685
f 1060 	1279 	1107
f 1107 	1279 	1146
f 934 	1158 	1180
f 1172 	1167 	685
f 684 	683 	1173
f 684 	1173 	1172
f 500 	1115 	901
f 947 	1168 	1151
f 1146 	1057 	1154
f 947 	1151 	900
f 1154 	1125 	1153
f 1189 	1175 	1168
f 1169 	1168 	1175
f 672 	1178 	635
f 1185 	1179 	1310
f 1175 	951 	1169
f 1107 	1057 	1146
f 646 	688 	470
f 646 	625 	1178
f 1175 	1189 	1177
f 499 	901 	1176
f 646 	1178 	688
f 1178 	689 	688
f 1169 	951 	946
f 1178 	1179 	689
f 1177 	1180 	1159
f 1146 	1279 	1154
f 950 	934 	1180
f 1181 	1183 	691
f 691 	1183 	692
f 1159 	952 	1177
f 689 	1179 	1185
f 952 	1175 	1177
f 1182 	622 	1184
f 952 	951 	1175
f 1185 	690 	689
f 1174 	1186 	630
f 950 	1180 	1193
f 1176 	1402 	1187
f 962 	950 	1193
f 1176 	1188 	1402
f 1189 	1168 	968
f 947 	968 	1168
f 1153 	1154 	1279
f 1185 	1181 	690
f 1181 	691 	690
f 1190 	1191 	1177
f 1189 	1190 	1177
f 1192 	1177 	1191
f 1193 	1177 	1192
f 1180 	1177 	1193
f 1190 	1189 	968
f 1178 	677 	1179
f 1059 	1060 	1195
f 1191 	1190 	966
f 1191 	966 	965
f 499 	1176 	1187
f 1181 	1185 	1308
f 965 	1192 	1191
f 967 	962 	1193
f 1059 	1195 	1279
f 677 	1310 	1179
f 967 	1193 	1192
f 1184 	631 	630
f 969 	1131 	125
f 154 	125 	1131
f 1184 	630 	1186
f 965 	967 	1192
f 631 	1184 	622
f 1190 	968 	966
f 1439 	901 	1198
f 791 	1198 	901
f 1032 	767 	1197
f 1176 	901 	1439
f 698 	1199 	699
f 1439 	1200 	1176
f 1205 	1204 	1201
f 1173 	1202 	1246
f 1186 	1213 	1184
f 1174 	1213 	1186
f 1213 	1174 	1212
f 1203 	1204 	1205
f 1204 	437 	1201
f 451 	1201 	437
f 1030 	791 	1198
f 1173 	683 	1202
f 701 	1202 	683
f 263 	1007 	969
f 1131 	969 	1007
f 1105 	292 	1104
f 1198 	791 	803
f 701 	700 	1202
f 1106 	311 	1105
f 1260 	1263 	1246
f 311 	1106 	1000
f 1199 	1202 	700
f 288 	1099 	289
f 1098 	289 	1099
f 1199 	700 	699
f 1176 	1200 	1188
f 1100 	290 	289
f 1100 	289 	1098
f 1207 	1260 	1199
f 290 	1100 	291
f 1101 	291 	1100
f 1206 	639 	1196
f 292 	291 	1101
f 698 	697 	1207
f 698 	1207 	1199
f 1105 	309 	292
f 1208 	695 	694
f 1208 	694 	1209
f 311 	309 	1105
f 1000 	249 	311
f 696 	1210 	697
f 1207 	697 	1210
f 696 	1208 	1210
f 1094 	280 	181
f 696 	695 	1208
f 1209 	1257 	1208
f 1208 	1260 	1210
f 1210 	1260 	1207
f 514 	1211 	495
f 1314 	1211 	514
f 1197 	1212 	1174
f 1099 	278 	1092
f 1183 	703 	692
f 645 	1213 	1212
f 645 	1214 	1213
f 514 	1211 	519
f 1214 	643 	1215
f 1182 	1184 	1213
f 1182 	1213 	1214
f 1182 	1214 	1215
f 1194 	1197 	767
f 710 	1209 	694
f 1060 	1107 	1195
f 1217 	1154 	1153
f 1218 	1219 	652
f 1218 	652 	651
f 519 	1216 	522
f 1218 	651 	1144
f 1154 	1217 	1195
f 1219 	1218 	1144
f 1107 	1146 	1195
f 1154 	1195 	1146
f 1216 	514 	513
f 758 	759 	1174
f 1282 	1211 	514
f 1153 	1301 	1217
f 1174 	831 	1197
f 278 	1099 	288
f 335 	1112 	1110
f 335 	1110 	329
f 703 	1220 	702
f 50 	25 	265
f 344 	343 	1221
f 344 	1221 	1222
f 1222 	1221 	1226
f 344 	1222 	1226
f 344 	1226 	358
f 1223 	1340 	1335
f 1197 	908 	1195
f 1194 	908 	1197
f 609 	1225 	350
f 122 	121 	358
f 122 	358 	1226
f 1217 	1307 	1195
f 1220 	703 	1223
f 1224 	1221 	349
f 343 	349 	1221
f 703 	1183 	1223
f 1224 	124 	1226
f 122 	1226 	124
f 1197 	1195 	1307
f 702 	1220 	1227
f 1221 	1224 	1226
f 1227 	706 	702
f 123 	124 	1224
f 123 	1224 	349
f 1225 	1074 	1228
f 1227 	707 	706
f 359 	350 	1228
f 1225 	1228 	350
f 359 	1228 	1072
f 1230 	709 	1229
f 1286 	908 	1291
f 1053 	1326 	908
f 365 	364 	1231
f 365 	1231 	1232
f 1232 	1074 	365
f 609 	365 	1074
f 1233 	1229 	709
f 606 	1231 	364
f 708 	1233 	709
f 1234 	1235 	367
f 1234 	367 	366
f 1233 	707 	1227
f 367 	1235 	370
f 1230 	1209 	710
f 1074 	1232 	1231
f 708 	707 	1233
f 370 	1237 	1088
f 758 	1174 	763
f 710 	709 	1230
f 370 	1235 	1237
f 1223 	1183 	1340
f 370 	1088 	618
f 1220 	1337 	1227
f 401 	1089 	1238
f 1291 	942 	1236
f 1229 	1233 	1277
f 1277 	1285 	1229
f 1285 	1284 	1229
f 1216 	513 	512
f 949 	1011 	1236
f 1278 	1277 	1233
f 508 	908 	741
f 1227 	1278 	1233
f 1088 	1237 	1238
f 1234 	1245 	1237
f 1011 	931 	1236
f 1235 	1234 	1237
f 1238 	1237 	1245
f 1238 	1089 	1088
f 931 	1018 	1236
f 1239 	1240 	712
f 1239 	712 	711
f 942 	949 	1236
f 1245 	1234 	366
f 1241 	1239 	711
f 1241 	711 	713
f 403 	401 	1238
f 403 	1238 	1242
f 1243 	1244 	718
f 1243 	718 	717
f 1242 	1238 	1245
f 1246 	1243 	717
f 1246 	717 	719
f 416 	403 	1242
f 416 	1242 	1245
f 718 	1244 	1241
f 718 	1241 	713
f 712 	1240 	1295
f 1297 	1023 	957
f 1297 	957 	1298
f 413 	1250 	1085
f 1246 	719 	566
f 1085 	1250 	1081
f 1247 	1081 	1250
f 1250 	1255 	1247
f 1247 	1261 	1144
f 1144 	1081 	1247
f 366 	416 	1245
f 1244 	1243 	1265
f 1241 	1244 	1265
f 1202 	1199 	1246
f 566 	1173 	1246
f 1265 	1266 	1241
f 1239 	1241 	1266
f 1018 	1023 	1236
f 1297 	1251 	1023
f 1236 	1023 	1251
f 418 	409 	1247
f 418 	1247 	1252
f 931 	932 	1117
f 798 	1117 	932
f 724 	1258 	1281
f 724 	725 	1257
f 1258 	724 	1257
f 1256 	725 	730
f 1266 	737 	736
f 1253 	1248 	1249
f 523 	1113 	483
f 735 	734 	1270
f 1249 	176 	1253
f 734 	733 	1270
f 1252 	1247 	1255
f 413 	420 	1250
f 1255 	1250 	420
f 725 	1256 	1257
f 418 	1252 	1255
f 418 	1255 	420
f 822 	175 	1249
f 429 	652 	1219
f 1259 	827 	1404
f 1411 	827 	1259
f 1256 	730 	1260
f 740 	1260 	730
f 1261 	1247 	432
f 409 	432 	1247
f 827 	1259 	47
f 429 	1219 	1262
f 1260 	739 	1263
f 1249 	1253 	827
f 479 	1196 	428
f 740 	739 	1260
f 479 	380 	1196
f 739 	738 	1263
f 1420 	1259 	827
f 432 	431 	1264
f 432 	1264 	1261
f 47 	430 	827
f 1219 	1144 	1261
f 1257 	1209 	1258
f 1256 	1208 	1257
f 1260 	1208 	1256
f 1263 	1265 	1246
f 380 	1206 	1196
f 827 	822 	1249
f 1262 	1219 	1261
f 1262 	1261 	1264
f 1243 	1246 	1265
f 1240 	1239 	1266
f 1264 	431 	429
f 1264 	429 	1262
f 737 	1265 	738
f 1266 	736 	1267
f 735 	1267 	736
f 737 	1266 	1265
f 1263 	738 	1265
f 440 	439 	1269
f 440 	1269 	1268
f 1270 	1267 	735
f 176 	175 	827
f 733 	1271 	1270
f 827 	194 	176
f 442 	437 	1204
f 1411 	1409 	827
f 1295 	1240 	1267
f 1266 	1267 	1240
f 1203 	1272 	1204
f 442 	1204 	1272
f 1296 	1295 	1267
f 1114 	1274 	447
f 1275 	1274 	1269
f 1268 	1269 	1274
f 1205 	1275 	1269
f 1203 	1205 	1269
f 1203 	1269 	1272
f 1273 	1283 	731
f 1323 	731 	1283
f 447 	1201 	451
f 1114 	1268 	1274
f 1275 	1205 	1201
f 1275 	1201 	447
f 447 	1274 	1275
f 1273 	1249 	1248
f 1277 	743 	742
f 1126 	491 	1268
f 440 	1268 	491
f 390 	1269 	439
f 1278 	1337 	744
f 745 	1273 	731
f 1039 	459 	1272
f 459 	442 	1272
f 1039 	303 	459
f 447 	484 	1114
f 1273 	745 	741
f 1268 	1114 	1126
f 746 	724 	1281
f 1039 	1272 	390
f 1269 	390 	1272
f 747 	746 	1281
f 1323 	1283 	741
f 748 	747 	1285
f 748 	1285 	742
f 1277 	742 	1285
f 1292 	749 	1367
f 1316 	495 	1254
f 1287 	752 	751
f 846 	1367 	749
f 1211 	1282 	1254
f 1211 	1254 	519
f 1316 	519 	1254
f 1117 	931 	1125
f 1276 	1253 	1273
f 1249 	1273 	1253
f 1287 	1271 	752
f 733 	752 	1271
f 1248 	1253 	1276
f 931 	1153 	1125
f 514 	499 	1314
f 750 	749 	1292
f 1117 	1154 	931
f 1211 	1254 	495
f 931 	1154 	1153
f 1253 	176 	1276
f 1278 	744 	743
f 1278 	743 	1277
f 1280 	1273 	1248
f 747 	1281 	1284
f 1273 	741 	1283
f 1285 	747 	1284
f 1413 	1283 	1273
f 1283 	33 	1273
f 1230 	1229 	1284
f 1230 	1258 	1209
f 1284 	1281 	1230
f 1281 	1258 	1230
f 1153 	1279 	1251
f 1276 	1273 	1280
f 1280 	1390 	1273
f 1282 	514 	1216
f 751 	1288 	1287
f 33 	1280 	1273
f 1286 	1279 	1195
f 1289 	1288 	750
f 751 	750 	1288
f 1290 	1259 	1404
f 750 	1292 	1289
f 1259 	1290 	1411
f 1195 	908 	1286
f 1302 	1299 	1289
f 1289 	1292 	1302
f 1299 	1300 	1289
f 1289 	1300 	1288
f 1259 	1290 	47
f 1367 	1302 	1292
f 899 	894 	1291
f 1271 	1287 	1293
f 894 	940 	1291
f 1293 	754 	753
f 1291 	194 	899
f 1294 	1293 	753
f 1294 	753 	756
f 1298 	957 	1291
f 1259 	1420 	1290
f 761 	760 	1295
f 761 	1295 	1296
f 756 	761 	1296
f 1294 	756 	1296
f 712 	1295 	760
f 1291 	1306 	1298
f 1324 	1332 	1291
f 519 	1282 	1216
f 1291 	1236 	1251
f 1267 	1270 	1296
f 1294 	1296 	1270
f 1270 	1271 	1294
f 1293 	1294 	1271
f 1299 	773 	772
f 1299 	772 	1300
f 1251 	1297 	1301
f 1367 	781 	1302
f 1301 	1297 	1217
f 1251 	1301 	1153
f 1302 	781 	773
f 1302 	773 	1299
f 1251 	1301 	1291
f 1287 	1288 	1303
f 1303 	1288 	1300
f 1293 	1287 	1303
f 1303 	1300 	786
f 1291 	1301 	1286
f 786 	1300 	772
f 1303 	786 	754
f 1286 	1301 	1251
f 1286 	1251 	1279
f 1293 	1303 	754
f 316 	294 	1206
f 1291 	908 	1326
f 316 	1206 	380
f 1304 	1305 	793
f 1304 	793 	792
f 296 	146 	307
f 295 	381 	380
f 794 	793 	1305
f 794 	1305 	1308
f 1307 	1306 	227
f 1310 	481 	794
f 1307 	227 	1212
f 641 	1212 	227
f 1310 	794 	1308
f 1248 	1276 	1309
f 1306 	1307 	1297
f 1217 	1297 	1307
f 1306 	1291 	1332
f 1276 	1309 	827
f 1355 	827 	1309
f 1212 	1197 	1307
f 1311 	1312 	1313
f 1315 	1313 	1314
f 1312 	1314 	1313
f 1183 	1181 	1304
f 1340 	1183 	1304
f 1305 	1304 	1181
f 1308 	1305 	1181
f 1310 	1308 	1185
f 218 	1317 	1318
f 1316 	1313 	1312
f 1248 	1319 	1280
f 797 	796 	1321
f 797 	1321 	1322
f 1324 	221 	1318
f 218 	1318 	221
f 1316 	1254 	1313
f 1211 	1313 	1254
f 221 	1324 	1326
f 1312 	1313 	1211
f 1327 	1325 	802
f 804 	802 	1325
f 1312 	1311 	1314
f 1328 	1314 	1311
f 802 	801 	1327
f 1317 	1332 	1318
f 1297 	1298 	1306
f 1211 	1314 	1312
f 1320 	1045 	1317
f 519 	1316 	1330
f 1329 	1331 	800
f 1324 	1291 	1326
f 1327 	801 	800
f 1327 	800 	1331
f 1332 	228 	1306
f 1325 	1327 	1121
f 1331 	1321 	1327
f 1321 	1333 	1327
f 1121 	1327 	1333
f 1322 	1321 	1331
f 1331 	1329 	1322
f 1342 	1322 	1329
f 1283 	1413 	1323
f 1312 	495 	1316
f 1314 	495 	1312
f 1323 	33 	1283
f 1334 	1164 	849
f 1314 	1328 	1315
f 1280 	1319 	1276
f 1314 	499 	1315
f 1319 	1381 	1280
f 796 	805 	1333
f 1333 	1321 	796
f 1121 	1333 	805
f 1280 	33 	1319
f 1335 	814 	813
f 1316 	1336 	1330
f 1335 	813 	1339
f 1290 	1404 	1338
f 1339 	813 	815
f 1282 	1336 	1316
f 1338 	1411 	1290
f 1339 	815 	1337
f 744 	1337 	815
f 1338 	47 	1290
f 1278 	1227 	1337
f 1339 	1337 	1220
f 1339 	1220 	1335
f 818 	1304 	792
f 1220 	1223 	1335
f 818 	1335 	1340
f 1290 	1420 	1338
f 818 	1340 	1304
f 814 	1335 	818
f 1341 	1314 	1315
f 1342 	1366 	1322
f 1341 	1370 	495
f 800 	819 	1329
f 938 	849 	1164
f 1253 	1276 	827
f 1341 	495 	1314
f 1342 	1329 	819
f 1182 	1215 	1334
f 1343 	1334 	1215
f 1343 	1215 	853
f 643 	853 	1215
f 1164 	1344 	1165
f 1044 	1165 	1344
f 1045 	1136 	1044
f 1344 	851 	1044
f 1344 	1164 	1345
f 1322 	1366 	797
f 1344 	852 	851
f 1122 	1123 	1325
f 1347 	1325 	1123
f 852 	1345 	853
f 523 	869 	1113
f 1345 	1164 	1343
f 1345 	1343 	853
f 1346 	830 	829
f 1346 	829 	1347
f 1121 	1122 	1325
f 852 	1344 	1345
f 829 	804 	1325
f 829 	1325 	1347
f 830 	1149 	1147
f 1349 	554 	1348
f 1045 	878 	1332
f 830 	1346 	1149
f 1332 	878 	228
f 830 	1147 	662
f 220 	857 	1360
f 1360 	1320 	220
f 1138 	1156 	1351
f 1316 	1254 	1282
f 1350 	826 	824
f 1350 	824 	1351
f 1053 	512 	223
f 223 	1326 	1053
f 1150 	1138 	1351
f 1349 	1348 	556
f 555 	556 	1348
f 824 	1150 	1351
f 556 	554 	1349
f 1350 	828 	826
f 1350 	1351 	1156
f 1360 	857 	1348
f 1360 	1348 	1349
f 1350 	1352 	828
f 1354 	1355 	1353
f 1355 	1309 	1353
f 1276 	1319 	1309
f 1352 	832 	828
f 1248 	1309 	1355
f 247 	1348 	857
f 1309 	176 	1355
f 843 	1157 	668
f 152 	247 	857
f 1248 	1354 	1353
f 1156 	1157 	1356
f 1356 	1352 	1156
f 1352 	1350 	1156
f 1354 	1353 	33
f 1248 	1353 	1319
f 1356 	1157 	1358
f 295 	380 	464
f 1352 	1356 	832
f 1358 	833 	832
f 1358 	832 	1356
f 1323 	1357 	731
f 835 	833 	1358
f 1357 	1359 	731
f 84 	871 	1363
f 835 	1358 	1361
f 146 	495 	638
f 1362 	1349 	1363
f 307 	146 	638
f 1157 	1364 	1358
f 1361 	1358 	1364
f 741 	1359 	1357
f 1357 	1323 	741
f 843 	1364 	1157
f 838 	835 	1361
f 1324 	1318 	1332
f 1332 	1317 	1045
f 1362 	1045 	1360
f 1120 	1045 	1362
f 1360 	1045 	1320
f 1349 	1362 	1360
f 845 	797 	1366
f 1413 	1359 	1357
f 1323 	1413 	1357
f 1361 	1364 	838
f 843 	838 	1364
f 871 	897 	1363
f 1323 	1357 	33
f 1359 	33 	1357
f 1365 	819 	842
f 1365 	1342 	819
f 1353 	1309 	1319
f 1152 	1120 	1362
f 1152 	1362 	1363
f 1353 	1354 	1319
f 1354 	1381 	1319
f 1363 	897 	1152
f 1366 	1365 	845
f 842 	845 	1365
f 1348 	1363 	1349
f 1313 	1315 	1328
f 1313 	1328 	1311
f 1136 	170 	876
f 846 	779 	1367
f 176 	1249 	175
f 878 	1045 	879
f 1044 	879 	1045
f 1367 	779 	781
f 1368 	1338 	1404
f 1342 	1365 	1366
f 851 	879 	1044
f 1368 	1411 	1338
f 1368 	47 	1338
f 876 	1165 	1136
f 84 	68 	56
f 57 	170 	58
f 1311 	1336 	1328
f 1313 	1336 	1311
f 63 	72 	57
f 855 	674 	1162
f 69 	72 	63
f 1338 	1420 	1368
f 1313 	1330 	1336
f 1162 	547 	1369
f 1162 	1369 	855
f 855 	1369 	547
f 855 	547 	417
f 58 	170 	216
f 205 	154 	789
f 435 	148 	167
f 435 	167 	859
f 1341 	1328 	1336
f 1341 	1315 	1328
f 57 	56 	63
f 1370 	1371 	1372
f 169 	863 	167
f 69 	63 	56
f 202 	69 	68
f 499 	1187 	1371
f 1370 	1372 	1373
f 56 	68 	69
f 859 	167 	863
f 174 	172 	864
f 174 	864 	318
f 179 	178 	320
f 179 	320 	865
f 865 	864 	179
f 1370 	499 	1371
f 1374 	1375 	867
f 1374 	867 	866
f 866 	868 	1376
f 1374 	866 	1376
f 886 	58 	216
f 868 	884 	1385
f 1313 	1311 	1370
f 1309 	1276 	176
f 886 	57 	58
f 1376 	868 	1385
f 1370 	1311 	1328
f 886 	501 	195
f 1377 	872 	1375
f 1378 	1379 	1370
f 867 	1375 	872
f 69 	58 	57
f 1373 	1378 	1370
f 126 	1380 	873
f 873 	1380 	18
f 1380 	126 	51
f 1380 	51 	386
f 1382 	1355 	1381
f 1354 	1381 	1355
f 1380 	15 	18
f 1370 	1379 	1313
f 1248 	1355 	1382
f 1384 	1330 	1313
f 1384 	519 	1330
f 1386 	15 	1385
f 357 	1377 	386
f 15 	1380 	1375
f 355 	356 	387
f 1381 	1354 	1248
f 1380 	386 	1377
f 1381 	1354 	33
f 1377 	138 	877
f 1328 	1315 	1370
f 499 	1370 	1315
f 1359 	1383 	731
f 1377 	357 	138
f 872 	1377 	877
f 519 	1384 	1387
f 884 	70 	71
f 884 	71 	1385
f 71 	66 	1386
f 34 	1386 	66
f 1385 	71 	1386
f 59 	165 	34
f 1376 	1385 	15
f 34 	46 	39
f 1359 	741 	1383
f 1416 	1394 	741
f 39 	1386 	34
f 39 	15 	1386
f 1416 	741 	1415
f 1375 	1374 	15
f 1374 	1376 	15
f 1336 	1282 	1384
f 889 	15 	39
f 1359 	1413 	1383
f 1377 	1375 	1380
f 1384 	1313 	1379
f 33 	1359 	1383
f 18 	15 	888
f 15 	889 	888
f 1381 	1390 	1280
f 1388 	1368 	1404
f 1368 	1388 	1411
f 1370 	1387 	1398
f 1368 	1420 	1388
f 1389 	495 	1370
f 1398 	1389 	1370
f 1384 	1341 	1336
f 1370 	1379 	1387
f 1378 	1387 	1379
f 1384 	1379 	1341
f 1370 	1341 	1379
f 731 	1416 	1174
f 1387 	1282 	1398
f 1388 	1404 	91
f 1387 	1384 	1282
f 91 	1411 	1388
f 91 	47 	1388
f 1388 	47 	1368
f 1390 	1391 	1392
f 1390 	1392 	1393
f 1248 	1393 	1392
f 1393 	1392 	827
f 1355 	1382 	827
f 1393 	827 	1382
f 1248 	1391 	1390
f 523 	522 	1048
f 1378 	1396 	1387
f 1387 	1396 	1397
f 1394 	1416 	1395
f 1371 	1373 	1372
f 1413 	1395 	1394
f 1413 	1273 	1391
f 1416 	731 	1394
f 1383 	1394 	731
f 1393 	1382 	176
f 1388 	1420 	91
f 1381 	1390 	1393
f 1381 	1393 	1382
f 1393 	1248 	1382
f 519 	1387 	1398
f 1382 	1355 	176
f 1248 	1390 	1381
f 1398 	1387 	1397
f 1390 	1381 	33
f 1390 	33 	1391
f 321 	1415 	741
f 1383 	741 	1394
f 1398 	1429 	1422
f 1383 	1413 	1394
f 1194 	268 	741
f 1398 	1422 	1399
f 1426 	1427 	1398
f 1398 	1399 	1389
f 1383 	1394 	33
f 1398 	1423 	1426
f 1394 	1395 	33
f 1390 	1391 	1273
f 1425 	987 	1398
f 1425 	1398 	1403
f 1427 	1428 	1398
f 1353 	1319 	33
f 1402 	1396 	1378
f 581 	827 	430
f 495 	1389 	1399
f 894 	899 	827
f 1371 	1187 	1400
f 1401 	1371 	1400
f 1401 	1373 	1371
f 1373 	1401 	1378
f 899 	194 	827
f 1402 	1378 	1400
f 1401 	1400 	1378
f 1399 	1402 	1400
f 1404 	827 	1409
f 1400 	1187 	1399
f 1404 	1408 	259
f 232 	264 	259
f 1405 	1407 	1404
f 1406 	1407 	1405
f 1407 	1408 	1404
f 232 	259 	1408
f 1409 	1405 	1404
f 1404 	47 	1405
f 1410 	1406 	1405
f 1409 	1411 	1410
f 1409 	1410 	1405
f 1405 	47 	53
f 1405 	53 	1412
f 1405 	1412 	1410
f 1404 	1405 	89
f 1410 	89 	1405
f 1411 	1408 	1407
f 1407 	1406 	1411
f 1397 	1396 	1403
f 1407 	53 	1408
f 1398 	1282 	986
f 232 	1408 	1411
f 47 	232 	1408
f 1406 	1410 	1411
f 1398 	1397 	1403
f 1406 	1412 	1407
f 1410 	1412 	1406
f 1430 	1403 	1396
f 987 	519 	1398
f 47 	1408 	53
f 53 	1407 	1412
f 1411 	89 	1410
f 1412 	53 	89
f 1410 	1412 	89
f 47 	89 	53
f 827 	1392 	1413
f 33 	827 	1413
f 1053 	1433 	512
f 1408 	1420 	1407
f 33 	1414 	232
f 1414 	1420 	232
f 176 	207 	33
f 207 	543 	33
f 1413 	176 	33
f 1415 	1174 	1416
f 1399 	1187 	1402
f 232 	1420 	1408
f 1417 	1419 	1418
f 1415 	321 	1174
f 1413 	1392 	176
f 33 	1411 	1414
f 1425 	1403 	1417
f 33 	543 	1414
f 1430 	1419 	1417
f 1414 	1411 	1420
f 1410 	1420 	1411
f 1410 	1406 	1420
f 1407 	1420 	1406
f 1420 	1410 	89
f 1420 	543 	1410
f 827 	33 	1420
f 1414 	1420 	33
f 1399 	1421 	495
f 1412 	1410 	543
f 543 	1420 	1414
f 259 	237 	1404
f 1409 	1404 	237
f 1411 	1409 	237
f 1424 	302 	1409
f 1404 	1409 	302
f 302 	47 	1404
f 1424 	1409 	1411
f 33 	1416 	1413
f 232 	1411 	33
f 1425 	1417 	1418
f 302 	1424 	237
f 1411 	237 	1424
f 1391 	1413 	1392
f 1413 	1248 	1392
f 1391 	1248 	1413
f 1413 	1391 	33
f 1394 	1395 	1416
f 1429 	1398 	1428
f 1402 	1188 	1430
f 1392 	1393 	176
f 1416 	1395 	1413
f 1402 	1430 	1396
f 321 	741 	268
f 1430 	1417 	1403
f 1399 	1422 	1431
f 1399 	1431 	1432
f 1399 	1432 	1421
f 1416 	33 	1395
f 1047 	1048 	1433
f 1433 	1048 	522
f 1216 	1433 	522
f 1216 	512 	1433
f 1422 	1421 	1431
f 1434 	1435 	1429
f 1422 	1429 	1435
f 1422 	1435 	1421
f 1428 	1423 	1429
f 1430 	1188 	1432
f 1432 	1431 	1430
f 1431 	1422 	1430
f 1429 	1430 	1422
f 1200 	1432 	1188
f 1431 	1421 	1432
f 1434 	1429 	1423
f 1427 	1426 	1423
f 1428 	1427 	1423
f 1429 	1428 	1430
f 1428 	1427 	1430
f 1427 	1426 	1430
f 1426 	1437 	1430
f 1430 	1437 	1419
f 1418 	1436 	1425
f 1438 	1439 	1434
f 1438 	1434 	1440
f 1441 	1440 	1434
f 495 	1421 	1439
f 1439 	1435 	1434
f 1439 	803 	495
f 1438 	1422 	1439
f 1440 	1422 	1438
f 1423 	1441 	1434
f 1440 	1441 	1422
f 1435 	1439 	1421
f 1439 	1438 	1030
f 1440 	1030 	1438
f 1422 	1431 	1439
f 1432 	1439 	1431
f 1200 	1439 	1432
f 1198 	1038 	1439
f 791 	1038 	1198
f 1439 	1030 	1198
f 803 	1439 	1198
f 1423 	1398 	986
f 1429 	1422 	1441
f 1428 	1429 	1441
f 1423 	986 	1441
f 1441 	1427 	1428
f 1441 	1426 	1427
f 1440 	1441 	1030
f 1426 	1441 	1437
f 1439 	1038 	1438
f 1038 	1441 	1440
f 1038 	1419 	1441
f 523 	1048 	869
f 1419 	987 	1418
f 1436 	1418 	987
f 986 	1282 	987
f 1441 	986 	1030
f 1425 	1436 	987
f 1419 	1437 	1441
f 1440 	1438 	1038
# 3212 faces

 #end of obj_0

