# Created by FreeCAD <https://www.freecad.org>
v 112.000000 -71.699997 29.700001
v 116.000000 -76.099998 29.700001
v 116.000000 -71.699997 29.700001
v 112.000000 -76.099998 29.700001
v 116.000000 -76.099998 37.099998
v 112.000000 -76.099998 37.099998
v 116.000000 -79.900002 37.099998
v 112.000000 -79.900002 37.099998
v 112.000000 -79.900002 22.299999
v 116.000000 -79.900002 22.299999
v 112.000000 -71.699997 22.299999
v 116.000000 -71.699997 22.299999
v 112.000000 -71.699997 7.500000
v 116.000000 -71.699997 7.500000
v 116.000000 -76.099998 7.500000
v 112.000000 -76.099998 7.500000
v 116.000000 -76.099998 14.900000
v 112.000000 -76.099998 14.900000
v 116.000000 -79.900002 14.900000
v 112.000000 -79.900002 14.900000
v 112.000000 -79.900002 0.100000
v 116.000000 -79.900002 0.100000
v 112.000000 -63.700001 0.100000
v 116.000000 -63.700001 0.100000
v 112.000000 -63.700001 -3.900000
v 116.000000 -63.700001 -3.900000
v 112.000000 -48.100002 -3.900000
v 116.000000 -48.100002 -3.900000
v 116.000000 -48.100002 0.100000
v 112.000000 -48.100002 0.100000
v 112.000000 -31.699999 0.100000
v 116.000000 -31.699999 0.100000
v 112.000000 -31.699999 -3.900000
v 116.000000 -31.699999 -3.900000
v 112.000000 -16.100000 -3.900000
v 116.000000 -16.100000 -3.900000
v 116.000000 -16.100000 0.100000
v 112.000000 -16.100000 0.100000
v 112.000000 0.100000 0.100000
v 116.000000 0.100000 0.100000
v 116.000000 0.100000 14.900000
v 112.000000 0.100000 14.900000
v 116.000000 -3.700003 14.900000
v 112.000000 -3.700003 14.900000
v 112.000000 -3.700003 7.500000
v 116.000000 -3.700003 7.500000
v 116.000000 -8.099997 7.500000
v 112.000000 -8.099997 7.500000
v 116.000000 -8.099997 22.299999
v 112.000000 -8.099997 22.299999
v 112.000000 0.100000 22.299999
v 116.000000 0.100000 22.299999
v 116.000000 0.100000 37.099998
v 112.000000 0.100000 37.099998
v 116.000000 -3.700003 37.099998
v 112.000000 -3.700003 37.099998
v 112.000000 -3.700003 29.700001
v 116.000000 -3.700003 29.700001
v 116.000000 -8.099997 29.700001
v 112.000000 -8.099997 29.700001
v 116.000000 -8.099997 37.099998
v 112.000000 -8.099997 37.099998
v 116.000000 -16.100000 37.099998
v 112.000000 -16.100000 37.099998
v 116.000000 -16.100000 41.099998
v 112.000000 -16.100000 41.099998
v 116.000000 -31.699999 41.099998
v 112.000000 -31.699999 41.099998
v 112.000000 -31.699999 37.099998
v 116.000000 -31.699999 37.099998
v 116.000000 -48.100002 37.099998
v 112.000000 -48.100002 37.099998
v 116.000000 -48.100002 41.099998
v 112.000000 -48.100002 41.099998
v 116.000000 -63.700001 41.099998
v 112.000000 -63.700001 41.099998
v 112.000000 -63.700001 37.099998
v 116.000000 -71.699997 37.099998
v 112.000000 -71.699997 37.099998
v 116.000000 -63.700001 37.099998
vn -0.000000 0.000000 1.000000
vn 0.000000 0.000000 1.000000
vn 0.000000 1.000000 0.000000
vn 0.000000 1.000000 0.000000
vn 0.000000 0.000000 1.000000
vn 0.000000 0.000000 1.000000
vn 0.000000 -1.000000 0.000000
vn 0.000000 -1.000000 -0.000000
vn 0.000000 0.000000 -1.000000
vn 0.000000 0.000000 -1.000000
vn 0.000000 -1.000000 -0.000000
vn 0.000000 -1.000000 0.000000
vn -0.000000 0.000000 1.000000
vn 0.000000 0.000000 1.000000
vn 0.000000 1.000000 0.000000
vn 0.000000 1.000000 0.000000
vn 0.000000 0.000000 1.000000
vn 0.000000 0.000000 1.000000
vn 0.000000 -1.000000 0.000000
vn 0.000000 -1.000000 -0.000000
vn 0.000000 0.000000 -1.000000
vn 0.000000 0.000000 -1.000000
vn 0.000000 -1.000000 0.000000
vn 0.000000 -1.000000 -0.000000
vn 0.000000 0.000000 -1.000000
vn 0.000000 0.000000 -1.000000
vn 0.000000 1.000000 -0.000000
vn 0.000000 1.000000 0.000000
vn 0.000000 0.000000 -1.000000
vn 0.000000 0.000000 -1.000000
vn 0.000000 -1.000000 0.000000
vn 0.000000 -1.000000 -0.000000
vn 0.000000 0.000000 -1.000000
vn 0.000000 0.000000 -1.000000
vn 0.000000 1.000000 -0.000000
vn 0.000000 1.000000 0.000000
vn 0.000000 0.000000 -1.000000
vn 0.000000 0.000000 -1.000000
vn 0.000000 1.000000 0.000000
vn 0.000000 1.000000 0.000000
vn 0.000000 0.000000 1.000000
vn 0.000000 0.000000 1.000000
vn 0.000000 -1.000000 -0.000000
vn 0.000000 -1.000000 0.000000
vn -0.000000 0.000000 1.000000
vn 0.000000 0.000000 1.000000
vn 0.000000 1.000000 0.000000
vn 0.000000 1.000000 0.000000
vn 0.000000 0.000000 -1.000000
vn 0.000000 0.000000 -1.000000
vn 0.000000 1.000000 0.000000
vn 0.000000 1.000000 0.000000
vn 0.000000 0.000000 1.000000
vn 0.000000 0.000000 1.000000
vn 0.000000 -1.000000 -0.000000
vn 0.000000 -1.000000 0.000000
vn -0.000000 0.000000 1.000000
vn 0.000000 0.000000 1.000000
vn 0.000000 1.000000 0.000000
vn 0.000000 1.000000 0.000000
vn -0.000000 0.000000 1.000000
vn 0.000000 0.000000 1.000000
vn 0.000000 1.000000 -0.000000
vn 0.000000 1.000000 0.000000
vn -0.000000 0.000000 1.000000
vn 0.000000 0.000000 1.000000
vn 0.000000 -1.000000 0.000000
vn 0.000000 -1.000000 -0.000000
vn -0.000000 0.000000 1.000000
vn 0.000000 0.000000 1.000000
vn 0.000000 1.000000 -0.000000
vn 0.000000 1.000000 0.000000
vn -0.000000 0.000000 1.000000
vn 0.000000 0.000000 1.000000
vn 0.000000 -1.000000 0.000000
vn 0.000000 -1.000000 -0.000000
vn -0.000000 0.000000 1.000000
vn 0.000000 0.000000 1.000000
vn 0.000000 -1.000000 -0.000000
vn 0.000000 -1.000000 0.000000
vn -1.000000 -0.000000 -0.000000
vn -1.000000 -0.000000 0.000000
vn -1.000000 0.000000 0.000000
vn -1.000000 -0.000000 -0.000000
vn -1.000000 0.000000 -0.000000
vn -1.000000 0.000000 0.000000
vn -1.000000 -0.000000 -0.000000
vn -1.000000 0.000000 0.000000
vn -1.000000 0.000000 -0.000000
vn -1.000000 -0.000000 -0.000000
vn -1.000000 -0.000000 0.000000
vn -1.000000 0.000000 -0.000000
vn -1.000000 0.000000 0.000000
vn -1.000000 0.000000 -0.000000
vn -1.000000 0.000000 0.000000
vn -1.000000 0.000000 -0.000000
vn -1.000000 0.000000 -0.000000
vn -1.000000 0.000000 0.000000
vn -1.000000 0.000000 0.000000
vn -1.000000 -0.000000 -0.000000
vn -1.000000 -0.000000 -0.000000
vn -1.000000 -0.000000 0.000000
vn -1.000000 -0.000000 -0.000000
vn -1.000000 0.000000 0.000000
vn -1.000000 -0.000000 0.000000
vn -1.000000 0.000000 0.000000
vn -1.000000 -0.000000 -0.000000
vn -1.000000 -0.000000 -0.000000
vn -1.000000 0.000000 -0.000000
vn -1.000000 0.000000 -0.000000
vn -1.000000 0.000000 0.000000
vn -1.000000 0.000000 -0.000000
vn -1.000000 -0.000000 -0.000000
vn -1.000000 0.000000 0.000000
vn -1.000000 -0.000000 0.000000
vn -1.000000 0.000000 -0.000000
vn -1.000000 0.000000 -0.000000
vn -1.000000 -0.000000 -0.000000
vn 1.000000 0.000000 -0.000000
vn 1.000000 0.000000 0.000000
vn 1.000000 0.000000 0.000000
vn 1.000000 0.000000 -0.000000
vn 1.000000 0.000000 0.000000
vn 1.000000 0.000000 0.000000
vn 1.000000 0.000000 -0.000000
vn 1.000000 0.000000 0.000000
vn 1.000000 0.000000 0.000000
vn 1.000000 0.000000 -0.000000
vn 1.000000 0.000000 0.000000
vn 1.000000 0.000000 0.000000
vn 1.000000 0.000000 0.000000
vn 1.000000 0.000000 0.000000
vn 1.000000 0.000000 0.000000
vn 1.000000 0.000000 -0.000000
vn 1.000000 0.000000 -0.000000
vn 1.000000 0.000000 0.000000
vn 1.000000 0.000000 0.000000
vn 1.000000 0.000000 -0.000000
vn 1.000000 0.000000 -0.000000
vn 1.000000 0.000000 0.000000
vn 1.000000 0.000000 -0.000000
vn 1.000000 0.000000 0.000000
vn 1.000000 0.000000 0.000000
vn 1.000000 0.000000 0.000000
vn 1.000000 0.000000 0.000000
vn 1.000000 0.000000 -0.000000
vn 1.000000 0.000000 -0.000000
vn 1.000000 0.000000 0.000000
vn 1.000000 0.000000 -0.000000
vn 1.000000 0.000000 -0.000000
vn 1.000000 0.000000 -0.000000
vn 1.000000 0.000000 0.000000
vn 1.000000 0.000000 0.000000
vn 1.000000 0.000000 0.000000
vn 1.000000 0.000000 -0.000000
vn 1.000000 0.000000 0.000000
f 1//1 2//1 3//1
f 1//2 4//2 2//2
f 4//3 5//3 2//3
f 4//4 6//4 5//4
f 5//5 6//5 7//5
f 6//6 8//6 7//6
f 8//7 9//7 7//7
f 7//8 9//8 10//8
f 9//9 11//9 10//9
f 10//10 11//10 12//10
f 12//11 13//11 14//11
f 11//12 13//12 12//12
f 13//13 15//13 14//13
f 13//14 16//14 15//14
f 16//15 17//15 15//15
f 16//16 18//16 17//16
f 17//17 18//17 19//17
f 18//18 20//18 19//18
f 20//19 21//19 19//19
f 19//20 21//20 22//20
f 21//21 23//21 22//21
f 22//22 23//22 24//22
f 23//23 25//23 24//23
f 24//24 25//24 26//24
f 25//25 27//25 26//25
f 26//26 27//26 28//26
f 28//27 27//27 29//27
f 27//28 30//28 29//28
f 30//29 31//29 29//29
f 29//30 31//30 32//30
f 31//31 33//31 32//31
f 32//32 33//32 34//32
f 33//33 35//33 34//33
f 34//34 35//34 36//34
f 36//35 35//35 37//35
f 35//36 38//36 37//36
f 38//37 39//37 37//37
f 37//38 39//38 40//38
f 39//39 41//39 40//39
f 39//40 42//40 41//40
f 41//41 42//41 43//41
f 42//42 44//42 43//42
f 43//43 45//43 46//43
f 44//44 45//44 43//44
f 45//45 47//45 46//45
f 45//46 48//46 47//46
f 48//47 49//47 47//47
f 48//48 50//48 49//48
f 50//49 51//49 49//49
f 49//50 51//50 52//50
f 51//51 53//51 52//51
f 51//52 54//52 53//52
f 53//53 54//53 55//53
f 54//54 56//54 55//54
f 55//55 57//55 58//55
f 56//56 57//56 55//56
f 57//57 59//57 58//57
f 57//58 60//58 59//58
f 60//59 61//59 59//59
f 60//60 62//60 61//60
f 62//61 63//61 61//61
f 62//62 64//62 63//62
f 63//63 64//63 65//63
f 64//64 66//64 65//64
f 66//65 67//65 65//65
f 66//66 68//66 67//66
f 68//67 69//67 67//67
f 67//68 69//68 70//68
f 69//69 71//69 70//69
f 69//70 72//70 71//70
f 71//71 72//71 73//71
f 72//72 74//72 73//72
f 74//73 75//73 73//73
f 74//74 76//74 75//74
f 76//75 77//75 75//75
f 75//76 77//76 80//76
f 77//77 78//77 80//77
f 77//78 79//78 78//78
f 78//79 1//79 3//79
f 79//80 1//80 78//80
f 6//81 4//81 8//81
f 4//82 9//82 8//82
f 79//83 77//83 1//83
f 1//84 11//84 4//84
f 4//85 11//85 9//85
f 77//86 11//86 1//86
f 74//87 72//87 76//87
f 76//88 72//88 77//88
f 77//89 72//89 11//89
f 18//90 16//90 20//90
f 16//91 21//91 20//91
f 16//92 13//92 21//92
f 11//93 23//93 13//93
f 13//94 23//94 21//94
f 68//95 66//95 69//95
f 66//96 64//96 69//96
f 72//97 30//97 11//97
f 11//98 30//98 23//98
f 23//99 27//99 25//99
f 30//100 27//100 23//100
f 62//101 60//101 64//101
f 54//102 57//102 56//102
f 69//103 31//103 72//103
f 72//104 31//104 30//104
f 57//105 50//105 60//105
f 69//106 50//106 31//106
f 64//107 50//107 69//107
f 60//108 50//108 64//108
f 54//109 51//109 57//109
f 57//110 51//110 50//110
f 50//111 38//111 31//111
f 50//112 48//112 38//112
f 38//113 35//113 31//113
f 31//114 35//114 33//114
f 42//115 45//115 44//115
f 48//116 39//116 38//116
f 42//117 39//117 45//117
f 45//118 39//118 48//118
f 2//119 5//119 7//119
f 10//120 2//120 7//120
f 80//121 78//121 3//121
f 12//122 3//122 2//122
f 12//123 2//123 10//123
f 12//124 80//124 3//124
f 71//125 73//125 75//125
f 71//126 75//126 80//126
f 71//127 80//127 12//127
f 15//128 17//128 19//128
f 22//129 15//129 19//129
f 14//130 15//130 22//130
f 24//131 12//131 14//131
f 24//132 14//132 22//132
f 65//133 67//133 70//133
f 63//134 65//134 70//134
f 29//135 71//135 12//135
f 29//136 12//136 24//136
f 28//137 24//137 26//137
f 28//138 29//138 24//138
f 59//139 61//139 63//139
f 58//140 53//140 55//140
f 32//141 70//141 71//141
f 32//142 71//142 29//142
f 49//143 58//143 59//143
f 49//144 70//144 32//144
f 49//145 63//145 70//145
f 49//146 59//146 63//146
f 52//147 53//147 58//147
f 52//148 58//148 49//148
f 37//149 49//149 32//149
f 47//150 49//150 37//150
f 36//151 37//151 32//151
f 36//152 32//152 34//152
f 46//153 41//153 43//153
f 40//154 47//154 37//154
f 40//155 41//155 46//155
f 40//156 46//156 47//156
