# Created by FreeCAD <https://www.freecad.org>
v 116.099998 -76.000000 0.100000
v 116.099998 -72.000000 0.100000
v 119.900002 -76.000000 0.100000
v 119.900002 -72.000000 0.100000
v 119.900002 -76.000000 14.900000
v 119.900002 -72.000000 14.900000
v 111.699997 -76.000000 14.900000
v 111.699997 -72.000000 14.900000
v 111.699997 -72.000000 29.700001
v 111.699997 -76.000000 29.700001
v 116.099998 -72.000000 29.700001
v 116.099998 -76.000000 29.700001
v 116.099998 -72.000000 22.299999
v 116.099998 -76.000000 22.299999
v 119.900002 -76.000000 22.299999
v 119.900002 -72.000000 22.299999
v 119.900002 -72.000000 37.099998
v 96.699997 -72.000000 37.099998
v 96.699997 -76.000000 37.099998
v 96.699997 -76.000000 41.099998
v 96.699997 -72.000000 41.099998
v 82.300003 -72.000000 41.099998
v 82.300003 -76.000000 41.099998
v 82.300003 -72.000000 37.099998
v 82.300003 -76.000000 37.099998
v 67.099998 -72.000000 37.099998
v 67.099998 -76.000000 37.099998
v 67.099998 -76.000000 41.099998
v 67.099998 -72.000000 41.099998
v 52.700005 -76.000000 41.099998
v 52.700005 -72.000000 41.099998
v 52.700005 -72.000000 37.099998
v 52.700005 -76.000000 37.099998
v 37.500000 -72.000000 37.099998
v 37.500000 -76.000000 41.099998
v 37.500000 -72.000000 41.099998
v 23.099997 -72.000000 41.099998
v 23.099997 -76.000000 41.099998
v 23.099997 -72.000000 37.099998
v 23.099997 -76.000000 37.099998
v -0.100000 -72.000000 37.099998
v -0.100000 -76.000000 37.099998
v -0.100000 -72.000000 22.299999
v -0.100000 -76.000000 22.299999
v 3.700003 -76.000000 22.299999
v 3.700003 -72.000000 22.299999
v 3.700003 -76.000000 29.700001
v 3.700003 -72.000000 29.700001
v 8.099997 -76.000000 29.700001
v 8.099997 -72.000000 29.700001
v 8.099997 -72.000000 14.900000
v 8.099997 -76.000000 14.900000
v -0.100000 -76.000000 14.900000
v -0.100000 -72.000000 14.900000
v -0.100000 -72.000000 0.100000
v -0.100000 -76.000000 0.100000
v 3.700003 -72.000000 0.100000
v 3.700003 -76.000000 0.100000
v 3.700003 -76.000000 7.500000
v 3.700003 -72.000000 7.500000
v 8.099997 -72.000000 7.500000
v 8.099997 -76.000000 7.500000
v 8.099997 -72.000000 0.100000
v 8.099997 -76.000000 0.100000
v 116.099998 -76.000000 7.500000
v 116.099998 -72.000000 7.500000
v 111.699997 -72.000000 0.100000
v 111.699997 -76.000000 7.500000
v 111.699997 -76.000000 0.100000
v 111.699997 -72.000000 7.500000
v 96.699997 -72.000000 0.100000
v 82.300003 -72.000000 0.100000
v 82.300003 -72.000000 -3.900000
v 96.699997 -72.000000 -3.900000
v 67.099998 -72.000000 0.100000
v 52.700005 -72.000000 0.100000
v 52.700005 -72.000000 -3.900000
v 67.099998 -72.000000 -3.900000
v 37.500000 -72.000000 0.100000
v 23.099997 -72.000000 0.100000
v 37.500000 -72.000000 -3.900000
v 23.099997 -72.000000 -3.900000
v 23.099997 -76.000000 -3.900000
v 23.099997 -76.000000 0.100000
v 37.500000 -76.000000 -3.900000
v 37.500000 -76.000000 0.100000
v 52.700005 -76.000000 -3.900000
v 52.700005 -76.000000 0.100000
v 67.099998 -76.000000 -3.900000
v 67.099998 -76.000000 0.100000
v 82.300003 -76.000000 -3.900000
v 82.300003 -76.000000 0.100000
v 96.699997 -76.000000 -3.900000
v 96.699997 -76.000000 0.100000
v 119.900002 -76.000000 37.099998
v 37.500000 -76.000000 37.099998
vn 0.000000 0.000000 -1.000000
vn 0.000000 0.000000 -1.000000
vn 1.000000 0.000000 0.000000
vn 1.000000 0.000000 -0.000000
vn 0.000000 0.000000 1.000000
vn 0.000000 0.000000 1.000000
vn 1.000000 0.000000 -0.000000
vn 1.000000 0.000000 0.000000
vn 0.000000 0.000000 -1.000000
vn 0.000000 0.000000 -1.000000
vn -1.000000 0.000000 0.000000
vn -1.000000 -0.000000 -0.000000
vn 0.000000 0.000000 -1.000000
vn 0.000000 0.000000 -1.000000
vn 1.000000 0.000000 0.000000
vn 1.000000 0.000000 -0.000000
vn 0.000000 0.000000 1.000000
vn 0.000000 0.000000 1.000000
vn 1.000000 0.000000 0.000000
vn 1.000000 0.000000 -0.000000
vn 0.000000 0.000000 1.000000
vn 0.000000 0.000000 1.000000
vn -1.000000 -0.000000 -0.000000
vn -1.000000 0.000000 0.000000
vn 0.000000 0.000000 1.000000
vn 0.000000 0.000000 1.000000
vn 1.000000 0.000000 0.000000
vn 1.000000 0.000000 -0.000000
vn 0.000000 0.000000 1.000000
vn 0.000000 0.000000 1.000000
vn -1.000000 -0.000000 -0.000000
vn -1.000000 0.000000 0.000000
vn 0.000000 0.000000 1.000000
vn 0.000000 0.000000 1.000000
vn 1.000000 0.000000 0.000000
vn 1.000000 0.000000 -0.000000
vn 0.000000 0.000000 1.000000
vn 0.000000 0.000000 1.000000
vn -1.000000 -0.000000 -0.000000
vn -1.000000 0.000000 0.000000
vn 0.000000 0.000000 1.000000
vn 0.000000 0.000000 1.000000
vn -1.000000 -0.000000 -0.000000
vn -1.000000 0.000000 0.000000
vn 0.000000 0.000000 -1.000000
vn 0.000000 0.000000 -1.000000
vn 1.000000 0.000000 0.000000
vn 1.000000 0.000000 -0.000000
vn 0.000000 0.000000 -1.000000
vn 0.000000 0.000000 -1.000000
vn -1.000000 -0.000000 -0.000000
vn -1.000000 0.000000 0.000000
vn 0.000000 0.000000 1.000000
vn 0.000000 0.000000 1.000000
vn -1.000000 -0.000000 -0.000000
vn -1.000000 0.000000 0.000000
vn 0.000000 -0.000000 -1.000000
vn 0.000000 0.000000 -1.000000
vn 1.000000 0.000000 0.000000
vn 1.000000 0.000000 -0.000000
vn 0.000000 0.000000 -1.000000
vn 0.000000 0.000000 -1.000000
vn -1.000000 0.000000 0.000000
vn -1.000000 -0.000000 -0.000000
vn -1.000000 0.000000 0.000000
vn -1.000000 -0.000000 -0.000000
vn 1.000000 0.000000 0.000000
vn 1.000000 0.000000 -0.000000
vn 0.000000 0.000000 -1.000000
vn 0.000000 0.000000 -1.000000
vn 0.000000 1.000000 -0.000000
vn 0.000000 1.000000 0.000000
vn 0.000000 1.000000 0.000000
vn 0.000000 1.000000 -0.000000
vn 0.000000 1.000000 -0.000000
vn 0.000000 1.000000 -0.000000
vn 0.000000 1.000000 0.000000
vn 0.000000 1.000000 0.000000
vn 0.000000 1.000000 0.000000
vn 0.000000 1.000000 0.000000
vn 0.000000 1.000000 0.000000
vn 0.000000 1.000000 0.000000
vn 0.000000 1.000000 0.000000
vn 0.000000 1.000000 0.000000
vn 0.000000 1.000000 0.000000
vn 0.000000 1.000000 0.000000
vn 0.000000 1.000000 0.000000
vn 0.000000 1.000000 0.000000
vn 0.000000 1.000000 0.000000
vn 0.000000 1.000000 0.000000
vn 0.000000 1.000000 0.000000
vn 0.000000 1.000000 0.000000
vn 0.000000 1.000000 0.000000
vn 0.000000 1.000000 0.000000
vn 0.000000 1.000000 0.000000
vn 0.000000 1.000000 0.000000
vn 0.000000 1.000000 0.000000
vn 0.000000 1.000000 0.000000
vn 0.000000 1.000000 0.000000
vn 0.000000 1.000000 -0.000000
vn -0.000000 1.000000 0.000000
vn 0.000000 1.000000 0.000000
vn 0.000000 1.000000 0.000000
vn 0.000000 1.000000 0.000000
vn -0.000000 1.000000 0.000000
vn 0.000000 1.000000 0.000000
vn 0.000000 1.000000 0.000000
vn 0.000000 1.000000 0.000000
vn -0.000000 1.000000 0.000000
vn 0.000000 1.000000 -0.000000
vn 0.000000 1.000000 0.000000
vn 0.000000 1.000000 0.000000
vn 0.000000 1.000000 0.000000
vn 0.000000 1.000000 0.000000
vn -0.000000 1.000000 0.000000
vn -0.000000 1.000000 0.000000
vn -1.000000 -0.000000 0.000000
vn -1.000000 0.000000 -0.000000
vn 0.000000 0.000000 -1.000000
vn 0.000000 0.000000 -1.000000
vn 1.000000 0.000000 0.000000
vn 1.000000 0.000000 -0.000000
vn -1.000000 -0.000000 0.000000
vn -1.000000 0.000000 -0.000000
vn 0.000000 0.000000 -1.000000
vn 0.000000 0.000000 -1.000000
vn 1.000000 0.000000 0.000000
vn 1.000000 0.000000 -0.000000
vn -1.000000 -0.000000 0.000000
vn -1.000000 0.000000 -0.000000
vn 0.000000 0.000000 -1.000000
vn 0.000000 0.000000 -1.000000
vn 1.000000 0.000000 0.000000
vn 1.000000 0.000000 -0.000000
vn 0.000000 -1.000000 0.000000
vn 0.000000 -1.000000 0.000000
vn 0.000000 -1.000000 0.000000
vn 0.000000 -1.000000 0.000000
vn 0.000000 -1.000000 0.000000
vn 0.000000 -1.000000 0.000000
vn 0.000000 -1.000000 0.000000
vn 0.000000 -1.000000 -0.000000
vn 0.000000 -1.000000 0.000000
vn 0.000000 -1.000000 0.000000
vn 0.000000 -1.000000 -0.000000
vn 0.000000 -1.000000 0.000000
vn 0.000000 -1.000000 -0.000000
vn 0.000000 -1.000000 0.000000
vn 0.000000 -1.000000 -0.000000
vn -0.000000 -1.000000 -0.000000
vn 0.000000 -1.000000 0.000000
vn 0.000000 -1.000000 -0.000000
vn 0.000000 -1.000000 0.000000
vn 0.000000 -1.000000 0.000000
vn 0.000000 -1.000000 -0.000000
vn 0.000000 -1.000000 0.000000
vn 0.000000 -1.000000 -0.000000
vn -0.000000 -1.000000 -0.000000
vn 0.000000 -1.000000 -0.000000
vn 0.000000 -1.000000 0.000000
vn 0.000000 -1.000000 0.000000
vn 0.000000 -1.000000 -0.000000
vn 0.000000 -1.000000 0.000000
vn 0.000000 -1.000000 0.000000
vn -0.000000 -1.000000 -0.000000
vn 0.000000 -1.000000 -0.000000
vn 0.000000 -1.000000 0.000000
vn 0.000000 -1.000000 0.000000
vn 0.000000 -1.000000 -0.000000
vn 0.000000 -1.000000 -0.000000
vn 0.000000 -1.000000 0.000000
vn 0.000000 -1.000000 0.000000
vn 0.000000 -1.000000 0.000000
vn 0.000000 -1.000000 0.000000
vn 0.000000 -1.000000 -0.000000
vn 0.000000 -1.000000 0.000000
vn 0.000000 -1.000000 -0.000000
vn 0.000000 -1.000000 0.000000
vn -0.000000 -1.000000 0.000000
vn -0.000000 -1.000000 0.000000
vn 0.000000 0.000000 -1.000000
vn 0.000000 0.000000 -1.000000
vn 0.000000 0.000000 -1.000000
vn 0.000000 0.000000 -1.000000
vn 0.000000 0.000000 -1.000000
vn 0.000000 0.000000 -1.000000
vn 0.000000 0.000000 -1.000000
vn 0.000000 0.000000 -1.000000
f 1//1 2//1 3//1
f 2//2 4//2 3//2
f 4//3 5//3 3//3
f 4//4 6//4 5//4
f 6//5 7//5 5//5
f 6//6 8//6 7//6
f 8//7 9//7 10//7
f 8//8 10//8 7//8
f 9//9 11//9 12//9
f 9//10 12//10 10//10
f 12//11 13//11 14//11
f 11//12 13//12 12//12
f 14//13 13//13 15//13
f 13//14 16//14 15//14
f 16//15 95//15 15//15
f 16//16 17//16 95//16
f 17//17 18//17 95//17
f 95//18 18//18 19//18
f 18//19 20//19 19//19
f 18//20 21//20 20//20
f 21//21 22//21 20//21
f 20//22 22//22 23//22
f 22//23 24//23 23//23
f 23//24 24//24 25//24
f 24//25 26//25 25//25
f 25//26 26//26 27//26
f 26//27 28//27 27//27
f 26//28 29//28 28//28
f 29//29 30//29 28//29
f 29//30 31//30 30//30
f 31//31 32//31 30//31
f 30//32 32//32 33//32
f 32//33 34//33 33//33
f 33//34 34//34 96//34
f 34//35 35//35 96//35
f 34//36 36//36 35//36
f 36//37 37//37 35//37
f 35//38 37//38 38//38
f 37//39 39//39 38//39
f 38//40 39//40 40//40
f 39//41 41//41 40//41
f 40//42 41//42 42//42
f 41//43 43//43 42//43
f 42//44 43//44 44//44
f 44//45 43//45 45//45
f 43//46 46//46 45//46
f 46//47 47//47 45//47
f 46//48 48//48 47//48
f 48//49 49//49 47//49
f 48//50 50//50 49//50
f 50//51 51//51 49//51
f 49//52 51//52 52//52
f 51//53 53//53 52//53
f 51//54 54//54 53//54
f 54//55 55//55 53//55
f 53//56 55//56 56//56
f 57//57 58//57 56//57
f 55//58 57//58 56//58
f 57//59 59//59 58//59
f 57//60 60//60 59//60
f 59//61 61//61 62//61
f 60//62 61//62 59//62
f 62//63 63//63 64//63
f 61//64 63//64 62//64
f 65//65 2//65 1//65
f 66//66 2//66 65//66
f 67//67 68//67 69//67
f 67//68 70//68 68//68
f 68//69 66//69 65//69
f 70//70 66//70 68//70
f 16//71 11//71 17//71
f 9//72 17//72 11//72
f 13//73 11//73 16//73
f 8//74 18//74 9//74
f 66//75 8//75 6//75
f 4//76 66//76 6//76
f 24//77 22//77 21//77
f 24//78 21//78 18//78
f 70//79 8//79 66//79
f 2//80 66//80 4//80
f 71//81 70//81 67//81
f 71//82 18//82 8//82
f 71//83 8//83 70//83
f 32//84 31//84 29//84
f 32//85 29//85 26//85
f 72//86 24//86 18//86
f 72//87 18//87 71//87
f 73//88 71//88 74//88
f 73//89 72//89 71//89
f 75//90 26//90 24//90
f 75//91 24//91 72//91
f 39//92 37//92 36//92
f 39//93 36//93 34//93
f 76//94 26//94 75//94
f 76//95 32//95 26//95
f 77//96 75//96 78//96
f 77//97 76//97 75//97
f 79//98 32//98 76//98
f 79//99 34//99 32//99
f 48//100 41//100 50//100
f 80//101 79//101 81//101
f 80//102 34//102 79//102
f 80//103 39//103 34//103
f 51//104 50//104 39//104
f 51//105 39//105 80//105
f 43//106 48//106 46//106
f 43//107 41//107 48//107
f 82//108 80//108 81//108
f 61//109 51//109 80//109
f 60//110 54//110 51//110
f 60//111 51//111 61//111
f 63//112 61//112 80//112
f 55//113 60//113 57//113
f 55//114 54//114 60//114
f 41//115 39//115 50//115
f 18//116 17//116 9//116
f 80//117 83//117 84//117
f 80//118 82//118 83//118
f 83//119 81//119 85//119
f 82//120 81//120 83//120
f 81//121 86//121 85//121
f 81//122 79//122 86//122
f 76//123 87//123 88//123
f 76//124 77//124 87//124
f 87//125 78//125 89//125
f 77//126 78//126 87//126
f 78//127 90//127 89//127
f 78//128 75//128 90//128
f 72//129 91//129 92//129
f 72//130 73//130 91//130
f 91//131 74//131 93//131
f 73//132 74//132 91//132
f 74//133 94//133 93//133
f 74//134 71//134 94//134
f 12//135 15//135 95//135
f 95//136 10//136 12//136
f 12//137 14//137 15//137
f 19//138 7//138 10//138
f 7//139 65//139 5//139
f 65//140 3//140 5//140
f 23//141 25//141 20//141
f 20//142 25//142 19//142
f 7//143 68//143 65//143
f 65//144 1//144 3//144
f 68//145 94//145 69//145
f 19//146 94//146 7//146
f 7//147 94//147 68//147
f 30//148 33//148 28//148
f 28//149 33//149 27//149
f 94//150 92//150 93//150
f 25//151 92//151 19//151
f 19//152 92//152 94//152
f 92//153 91//153 93//153
f 27//154 90//154 25//154
f 25//155 90//155 92//155
f 38//156 40//156 35//156
f 35//157 40//157 96//157
f 90//158 88//158 89//158
f 27//159 88//159 90//159
f 33//160 88//160 27//160
f 88//161 87//161 89//161
f 33//162 86//162 88//162
f 96//163 86//163 33//163
f 42//164 47//164 49//164
f 86//165 84//165 85//165
f 96//166 84//166 86//166
f 40//167 84//167 96//167
f 49//168 52//168 40//168
f 40//169 52//169 84//169
f 47//170 44//170 45//170
f 42//171 44//171 47//171
f 84//172 83//172 85//172
f 52//173 62//173 84//173
f 53//174 59//174 52//174
f 52//175 59//175 62//175
f 62//176 64//176 84//176
f 59//177 56//177 58//177
f 53//178 56//178 59//178
f 40//179 42//179 49//179
f 95//180 19//180 10//180
f 64//181 63//181 80//181
f 64//182 80//182 84//182
f 86//183 79//183 76//183
f 86//184 76//184 88//184
f 90//185 75//185 72//185
f 90//186 72//186 92//186
f 94//187 71//187 67//187
f 94//188 67//188 69//188
