# Created by FreeCAD <https://www.freecad.org>
v 3.900000 -71.699997 29.600000
v 7.900000 -76.099998 29.600000
v 7.900000 -71.699997 29.600000
v 3.900000 -76.099998 29.600000
v 3.900000 -71.699997 37.000000
v 7.900000 -71.699997 37.000000
v 3.900000 -76.099998 37.000000
v 7.900000 -76.099998 37.000000
v 3.900000 -79.900002 37.000000
v 3.900000 -79.900002 22.200001
v 3.900000 -63.700001 37.000000
v 3.900000 -71.699997 22.200001
v 3.900000 -63.700001 41.000000
v 3.900000 -48.100002 41.000000
v 3.900000 -48.100002 37.000000
v 3.900000 -76.099998 14.799999
v 3.900000 -76.099998 7.400000
v 3.900000 -79.900002 14.799999
v 3.900000 -79.900002 0.000000
v 3.900000 -71.699997 7.400000
v 3.900000 -46.273029 28.663237
v 3.900000 -46.319241 28.619240
v 3.900000 -46.363239 28.573027
v 3.900000 -46.224712 28.704914
v 3.900000 -46.404915 28.524712
v 3.900000 -46.174412 28.744171
v 3.900000 -46.444172 28.474409
v 3.900000 -46.122242 28.780910
v 3.900000 -46.480911 28.422241
v 3.900000 -46.068336 28.815048
v 3.900000 -46.515049 28.368334
v 3.900000 -46.012817 28.846498
v 3.900000 -46.546497 28.312817
v 3.900000 -45.955822 28.875187
v 3.900000 -46.575188 28.255821
v 3.900000 -45.897491 28.901043
v 3.900000 -46.601044 28.197489
v 3.900000 -46.624008 28.137957
v 3.900000 -45.837959 28.924007
v 3.900000 -45.777370 28.944023
v 3.900000 -46.644024 28.077370
v 3.900000 -46.661041 28.015875
v 3.900000 -45.715878 28.961040
v 3.900000 -45.653618 28.975021
v 3.900000 -46.675022 27.953617
v 3.900000 -45.590752 28.985929
v 3.900000 -46.685932 27.890751
v 3.900000 -45.527424 28.993740
v 3.900000 -46.693741 27.827423
v 3.900000 -45.463791 28.998434
v 3.900000 -46.698437 27.763788
v 3.900000 -45.400002 29.000000
v 3.900000 -46.700001 27.700001
v 3.900000 -46.700001 24.000000
v 3.900000 -46.698437 23.936213
v 3.900000 -46.693741 23.872578
v 3.900000 -46.685932 23.809252
v 3.900000 -46.675022 23.746384
v 3.900000 -46.661041 23.684126
v 3.900000 -46.644024 23.622631
v 3.900000 -46.624008 23.562044
v 3.900000 -46.601044 23.502512
v 3.900000 -46.575188 23.444180
v 3.900000 -46.546497 23.387184
v 3.900000 -46.515049 23.331667
v 3.900000 -46.480911 23.277760
v 3.900000 -46.444172 23.225592
v 3.900000 -46.404915 23.175289
v 3.900000 -63.700001 0.000000
v 3.900000 -46.273029 23.036764
v 3.900000 -46.319241 23.080761
v 3.900000 -46.363239 23.126974
v 3.900000 -31.699999 37.000000
v 3.900000 -34.400002 29.000000
v 3.900000 -34.336212 28.998434
v 3.900000 -34.272579 28.993740
v 3.900000 -34.209251 28.985929
v 3.900000 -34.146385 28.975021
v 3.900000 -34.084126 28.961040
v 3.900000 -34.022633 28.944023
v 3.900000 -33.962044 28.924007
v 3.900000 -33.902512 28.901043
v 3.900000 -33.844181 28.875187
v 3.900000 -33.787186 28.846498
v 3.900000 -33.731667 28.815048
v 3.900000 -33.677761 28.780910
v 3.900000 -33.625591 28.744171
v 3.900000 -33.575291 28.704914
v 3.900000 -31.699999 41.000000
v 3.900000 -16.100000 41.000000
v 3.900000 -33.319092 28.422241
v 3.900000 -28.941420 27.891422
v 3.900000 -33.284954 28.368334
v 3.900000 -28.934313 27.898191
v 3.900000 -28.948191 27.884312
v 3.900000 -33.253506 28.312817
v 3.900000 -28.954603 27.876879
v 3.900000 -28.926878 27.904602
v 3.900000 -33.355831 28.474409
v 3.900000 -28.960642 27.869141
v 3.900000 -33.224815 28.255821
v 3.900000 -28.919138 27.910643
v 3.900000 -33.395088 28.524712
v 3.900000 -28.966295 27.861115
v 3.900000 -33.198959 28.197489
v 3.900000 -28.911112 27.916294
v 3.900000 -33.436764 28.573027
v 3.900000 -28.902819 27.921547
v 3.900000 -33.480762 28.619240
v 3.900000 -28.971544 27.852821
v 3.900000 -33.175995 28.137957
v 3.900000 -28.976385 27.844280
v 3.900000 -28.894278 27.926384
v 3.900000 -28.980799 27.835512
v 3.900000 -33.155979 28.077370
v 3.900000 -28.885511 27.930798
v 3.900000 -33.526974 28.663237
v 3.900000 -28.984774 27.826538
v 3.900000 -33.138962 28.015875
v 3.900000 -28.876535 27.934776
v 3.900000 -28.867376 27.938309
v 3.900000 -28.988310 27.817379
v 3.900000 -28.991388 27.808058
v 3.900000 -33.124981 27.953617
v 3.900000 -28.858057 27.941389
v 3.900000 -28.994005 27.798597
v 3.900000 -33.114071 27.890751
v 3.900000 -28.848597 27.944006
v 3.900000 -28.996157 27.789019
v 3.900000 -28.839018 27.946157
v 3.900000 -28.829348 27.947836
v 3.900000 -28.997835 27.779346
v 3.900000 -33.106262 27.827423
v 3.900000 -28.999037 27.769604
v 3.900000 -33.101566 27.763788
v 3.900000 -28.819605 27.949038
v 3.900000 -28.999758 27.759813
v 3.900000 -28.809813 27.949760
v 3.900000 -28.999998 27.750000
v 3.900000 -33.100002 27.700001
v 3.900000 -28.800001 27.950001
v 3.900000 -16.100000 37.000000
v 3.900000 -28.999998 23.950001
v 3.900000 -33.100002 24.000000
v 3.900000 -33.101566 23.936213
v 3.900000 -28.999758 23.940187
v 3.900000 -28.999037 23.930397
v 3.900000 -33.106262 23.872578
v 3.900000 -28.997835 23.920654
v 3.900000 -33.114071 23.809252
v 3.900000 -28.996157 23.910982
v 3.900000 -28.994005 23.901405
v 3.900000 -33.124981 23.746384
v 3.900000 -28.991388 23.891943
v 3.900000 -33.138962 23.684126
v 3.900000 -28.988310 23.882622
v 3.900000 -28.984774 23.873465
v 3.900000 -33.155979 23.622631
v 3.900000 -28.980799 23.864489
v 3.900000 -33.175995 23.562044
v 3.900000 -28.976385 23.855721
v 3.900000 -28.971544 23.847179
v 3.900000 -33.198959 23.502512
v 3.900000 -28.966295 23.838886
v 3.900000 -33.224815 23.444180
v 3.900000 -28.960642 23.830860
v 3.900000 -33.253506 23.387184
v 3.900000 -28.954603 23.823122
v 3.900000 -28.948191 23.815689
v 3.900000 -33.284954 23.331667
v 3.900000 -28.941420 23.808578
v 3.900000 -33.319092 23.277760
v 3.900000 -28.934313 23.801809
v 3.900000 -28.926878 23.795399
v 3.900000 -33.355831 23.225592
v 3.900000 -28.919138 23.789358
v 3.900000 -33.395088 23.175289
v 3.900000 -28.911112 23.783707
v 3.900000 -33.436764 23.126974
v 3.900000 -28.902819 23.778454
v 3.900000 -33.480762 23.080761
v 3.900000 -28.894278 23.773617
v 3.900000 -28.885511 23.769203
v 3.900000 -33.526974 23.036764
v 3.900000 -28.876535 23.765224
v 3.900000 -33.575291 22.995087
v 3.900000 -28.867376 23.761692
v 3.900000 -33.625591 22.955832
v 3.900000 -28.858057 23.758612
v 3.900000 -33.677761 22.919090
v 3.900000 -28.848597 23.755995
v 3.900000 -28.839018 23.753843
v 3.900000 -33.731667 22.884953
v 3.900000 -28.829348 23.752165
v 3.900000 -33.787186 22.853502
v 3.900000 -28.819605 23.750963
v 3.900000 -33.844181 22.824814
v 3.900000 -28.809813 23.750242
v 3.900000 -33.902512 22.798958
v 3.900000 -22.300001 27.950001
v 3.900000 -22.290186 27.949760
v 3.900000 -22.280397 27.949038
v 3.900000 -22.270655 27.947836
v 3.900000 -22.260981 27.946157
v 3.900000 -22.251402 27.944006
v 3.900000 -22.241941 27.941389
v 3.900000 -22.232622 27.938309
v 3.900000 -22.223463 27.934776
v 3.900000 -22.214487 27.930798
v 3.900000 -22.205721 27.926384
v 3.900000 -22.197180 27.921547
v 3.900000 -22.188887 27.916294
v 3.900000 -22.180861 27.910643
v 3.900000 -22.173120 27.904602
v 3.900000 -22.165689 27.898191
v 3.900000 -22.158579 27.891422
v 3.900000 -22.151808 27.884312
v 3.900000 -22.145399 27.876879
v 3.900000 -22.139357 27.869141
v 3.900000 -22.133707 27.861115
v 3.900000 -22.128454 27.852821
v 3.900000 -22.123617 27.844280
v 3.900000 -22.119204 27.835512
v 3.900000 -22.115225 27.826538
v 3.900000 -22.111692 27.817379
v 3.900000 -22.108610 27.808058
v 3.900000 -48.100002 0.000000
v 3.900000 -63.700001 -4.000000
v 3.900000 -34.400002 22.700001
v 3.900000 -45.400002 22.700001
v 3.900000 -45.463791 22.701567
v 3.900000 -45.527424 22.706261
v 3.900000 -45.590752 22.714071
v 3.900000 -45.653618 22.724979
v 3.900000 -45.715878 22.738960
v 3.900000 -45.777370 22.755978
v 3.900000 -45.837959 22.775993
v 3.900000 -45.897491 22.798958
v 3.900000 -45.955822 22.824814
v 3.900000 -46.012817 22.853502
v 3.900000 -46.068336 22.884953
v 3.900000 -46.122242 22.919090
v 3.900000 -46.174412 22.955832
v 3.900000 -46.224712 22.995087
v 3.900000 -48.100002 -4.000000
v 3.900000 -22.102163 27.779346
v 3.900000 -8.099997 29.600000
v 3.900000 -22.100962 27.769604
v 3.900000 -22.100241 27.759813
v 3.900000 -22.100000 27.750000
v 3.900000 -8.099997 37.000000
v 3.900000 -22.105993 27.798597
v 3.900000 -22.103842 27.789019
v 3.900000 0.100000 37.000000
v 3.900000 -3.700003 29.600000
v 3.900000 -3.700003 37.000000
v 3.900000 -31.699999 0.000000
v 3.900000 -33.962044 22.775993
v 3.900000 -34.022633 22.755978
v 3.900000 -34.084126 22.738960
v 3.900000 -34.146385 22.724979
v 3.900000 -34.209251 22.714071
v 3.900000 -34.272579 22.706261
v 3.900000 -34.336212 22.701567
v 3.900000 -22.300001 23.750000
v 3.900000 -28.800001 23.750000
v 3.900000 -8.099997 22.200001
v 3.900000 -22.100000 23.950001
v 3.900000 -22.100241 23.940187
v 3.900000 -22.100962 23.930397
v 3.900000 -22.102163 23.920654
v 3.900000 -22.103842 23.910982
v 3.900000 -22.105993 23.901405
v 3.900000 -22.108610 23.891943
v 3.900000 -22.111692 23.882622
v 3.900000 -22.115225 23.873465
v 3.900000 -22.119204 23.864489
v 3.900000 -22.123617 23.855721
v 3.900000 -22.128454 23.847179
v 3.900000 -22.133707 23.838886
v 3.900000 -22.139357 23.830860
v 3.900000 -22.145399 23.823122
v 3.900000 -22.151808 23.815689
v 3.900000 -22.158579 23.808578
v 3.900000 -22.165689 23.801809
v 3.900000 -22.173120 23.795399
v 3.900000 -22.180861 23.789358
v 3.900000 -22.188887 23.783707
v 3.900000 0.100000 22.200001
v 3.900000 -22.260981 23.753843
v 3.900000 -16.100000 0.000000
v 3.900000 -22.270655 23.752165
v 3.900000 -22.280397 23.750963
v 3.900000 -22.290186 23.750242
v 3.900000 -8.099997 7.400000
v 3.900000 -22.197180 23.778454
v 3.900000 -22.205721 23.773617
v 3.900000 -22.214487 23.769203
v 3.900000 -22.223463 23.765224
v 3.900000 -22.232622 23.761692
v 3.900000 -22.241941 23.758612
v 3.900000 -22.251402 23.755995
v 3.900000 -16.100000 -4.000000
v 3.900000 -31.699999 -4.000000
v 3.900000 0.100000 14.799999
v 3.900000 -3.700003 7.400000
v 3.900000 -3.700003 14.799999
v 3.900000 0.100000 0.000000
v 7.900000 -79.900002 37.000000
v 7.900000 -79.900002 22.200001
v 7.900000 -63.700001 37.000000
v 7.900000 -71.699997 22.200001
v 7.900000 -48.100002 37.000000
v 7.900000 -48.100002 41.000000
v 7.900000 -63.700001 41.000000
v 7.900000 -76.099998 7.400000
v 7.900000 -76.099998 14.799999
v 7.900000 -79.900002 14.799999
v 7.900000 -79.900002 0.000000
v 7.900000 -71.699997 7.400000
v 7.900000 -46.273029 28.663237
v 7.900000 -46.319241 28.619240
v 7.900000 -46.363239 28.573027
v 7.900000 -46.404915 28.524712
v 7.900000 -46.224712 28.704914
v 7.900000 -46.174412 28.744171
v 7.900000 -46.444172 28.474409
v 7.900000 -46.480911 28.422241
v 7.900000 -46.122242 28.780910
v 7.900000 -46.068336 28.815048
v 7.900000 -46.515049 28.368334
v 7.900000 -46.546497 28.312817
v 7.900000 -46.012817 28.846498
v 7.900000 -45.955822 28.875187
v 7.900000 -46.575188 28.255821
v 7.900000 -45.897491 28.901043
v 7.900000 -46.601044 28.197489
v 7.900000 -46.624008 28.137957
v 7.900000 -45.837959 28.924007
v 7.900000 -45.777370 28.944023
v 7.900000 -46.644024 28.077370
v 7.900000 -45.715878 28.961040
v 7.900000 -46.661041 28.015875
v 7.900000 -45.653618 28.975021
v 7.900000 -46.675022 27.953617
v 7.900000 -45.590752 28.985929
v 7.900000 -46.685932 27.890751
v 7.900000 -45.527424 28.993740
v 7.900000 -46.693741 27.827423
v 7.900000 -46.698437 27.763788
v 7.900000 -45.463791 28.998434
v 7.900000 -45.400002 29.000000
v 7.900000 -46.700001 27.700001
v 7.900000 -46.700001 24.000000
v 7.900000 -46.698437 23.936213
v 7.900000 -46.693741 23.872578
v 7.900000 -46.685932 23.809252
v 7.900000 -46.675022 23.746384
v 7.900000 -46.661041 23.684126
v 7.900000 -46.644024 23.622631
v 7.900000 -46.624008 23.562044
v 7.900000 -46.601044 23.502512
v 7.900000 -46.575188 23.444180
v 7.900000 -46.546497 23.387184
v 7.900000 -46.515049 23.331667
v 7.900000 -46.480911 23.277760
v 7.900000 -46.444172 23.225592
v 7.900000 -46.404915 23.175289
v 7.900000 -63.700001 0.000000
v 7.900000 -46.273029 23.036764
v 7.900000 -46.319241 23.080761
v 7.900000 -46.363239 23.126974
v 7.900000 -34.400002 29.000000
v 7.900000 -31.699999 37.000000
v 7.900000 -34.336212 28.998434
v 7.900000 -34.272579 28.993740
v 7.900000 -34.209251 28.985929
v 7.900000 -34.146385 28.975021
v 7.900000 -34.084126 28.961040
v 7.900000 -34.022633 28.944023
v 7.900000 -33.962044 28.924007
v 7.900000 -33.902512 28.901043
v 7.900000 -33.844181 28.875187
v 7.900000 -33.787186 28.846498
v 7.900000 -33.731667 28.815048
v 7.900000 -33.677761 28.780910
v 7.900000 -33.625591 28.744171
v 7.900000 -33.575291 28.704914
v 7.900000 -16.100000 41.000000
v 7.900000 -31.699999 41.000000
v 7.900000 -28.941420 27.891422
v 7.900000 -33.319092 28.422241
v 7.900000 -33.284954 28.368334
v 7.900000 -28.934313 27.898191
v 7.900000 -28.948191 27.884312
v 7.900000 -33.253506 28.312817
v 7.900000 -28.926878 27.904602
v 7.900000 -33.355831 28.474409
v 7.900000 -28.954603 27.876879
v 7.900000 -28.919138 27.910643
v 7.900000 -33.395088 28.524712
v 7.900000 -28.960642 27.869141
v 7.900000 -33.224815 28.255821
v 7.900000 -28.911112 27.916294
v 7.900000 -33.436764 28.573027
v 7.900000 -28.966295 27.861115
v 7.900000 -33.198959 28.197489
v 7.900000 -28.902819 27.921547
v 7.900000 -33.480762 28.619240
v 7.900000 -28.971544 27.852821
v 7.900000 -33.175995 28.137957
v 7.900000 -28.894278 27.926384
v 7.900000 -28.976385 27.844280
v 7.900000 -28.885511 27.930798
v 7.900000 -33.526974 28.663237
v 7.900000 -28.980799 27.835512
v 7.900000 -33.155979 28.077370
v 7.900000 -28.876535 27.934776
v 7.900000 -28.984774 27.826538
v 7.900000 -33.138962 28.015875
v 7.900000 -28.867376 27.938309
v 7.900000 -28.988310 27.817379
v 7.900000 -28.858057 27.941389
v 7.900000 -28.991388 27.808058
v 7.900000 -33.124981 27.953617
v 7.900000 -28.848597 27.944006
v 7.900000 -28.994005 27.798597
v 7.900000 -33.114071 27.890751
v 7.900000 -28.839018 27.946157
v 7.900000 -28.996157 27.789019
v 7.900000 -28.829348 27.947836
v 7.900000 -28.997835 27.779346
v 7.900000 -33.106262 27.827423
v 7.900000 -28.819605 27.949038
v 7.900000 -28.999037 27.769604
v 7.900000 -33.101566 27.763788
v 7.900000 -28.999758 27.759813
v 7.900000 -28.809813 27.949760
v 7.900000 -28.999998 27.750000
v 7.900000 -33.100002 27.700001
v 7.900000 -33.100002 24.000000
v 7.900000 -28.800001 27.950001
v 7.900000 -16.100000 37.000000
v 7.900000 -28.999998 23.950001
v 7.900000 -33.101566 23.936213
v 7.900000 -28.999758 23.940187
v 7.900000 -28.999037 23.930397
v 7.900000 -33.106262 23.872578
v 7.900000 -28.997835 23.920654
v 7.900000 -33.114071 23.809252
v 7.900000 -28.996157 23.910982
v 7.900000 -28.994005 23.901405
v 7.900000 -33.124981 23.746384
v 7.900000 -28.991388 23.891943
v 7.900000 -33.138962 23.684126
v 7.900000 -28.988310 23.882622
v 7.900000 -28.984774 23.873465
v 7.900000 -33.155979 23.622631
v 7.900000 -28.980799 23.864489
v 7.900000 -33.175995 23.562044
v 7.900000 -28.976385 23.855721
v 7.900000 -28.971544 23.847179
v 7.900000 -33.198959 23.502512
v 7.900000 -28.966295 23.838886
v 7.900000 -33.224815 23.444180
v 7.900000 -28.960642 23.830860
v 7.900000 -33.253506 23.387184
v 7.900000 -28.954603 23.823122
v 7.900000 -28.948191 23.815689
v 7.900000 -33.284954 23.331667
v 7.900000 -28.941420 23.808578
v 7.900000 -33.319092 23.277760
v 7.900000 -28.934313 23.801809
v 7.900000 -28.926878 23.795399
v 7.900000 -33.355831 23.225592
v 7.900000 -28.919138 23.789358
v 7.900000 -33.395088 23.175289
v 7.900000 -28.911112 23.783707
v 7.900000 -33.436764 23.126974
v 7.900000 -28.902819 23.778454
v 7.900000 -33.480762 23.080761
v 7.900000 -28.894278 23.773617
v 7.900000 -28.885511 23.769203
v 7.900000 -33.526974 23.036764
v 7.900000 -28.876535 23.765224
v 7.900000 -33.575291 22.995087
v 7.900000 -28.867376 23.761692
v 7.900000 -33.625591 22.955832
v 7.900000 -28.858057 23.758612
v 7.900000 -33.677761 22.919090
v 7.900000 -28.848597 23.755995
v 7.900000 -28.839018 23.753843
v 7.900000 -33.731667 22.884953
v 7.900000 -28.829348 23.752165
v 7.900000 -33.787186 22.853502
v 7.900000 -28.819605 23.750963
v 7.900000 -33.844181 22.824814
v 7.900000 -28.809813 23.750242
v 7.900000 -33.902512 22.798958
v 7.900000 -22.300001 27.950001
v 7.900000 -22.290186 27.949760
v 7.900000 -22.280397 27.949038
v 7.900000 -22.270655 27.947836
v 7.900000 -22.260981 27.946157
v 7.900000 -22.251402 27.944006
v 7.900000 -22.241941 27.941389
v 7.900000 -22.232622 27.938309
v 7.900000 -22.223463 27.934776
v 7.900000 -22.214487 27.930798
v 7.900000 -22.205721 27.926384
v 7.900000 -22.197180 27.921547
v 7.900000 -22.188887 27.916294
v 7.900000 -22.180861 27.910643
v 7.900000 -22.173120 27.904602
v 7.900000 -22.165689 27.898191
v 7.900000 -22.158579 27.891422
v 7.900000 -22.151808 27.884312
v 7.900000 -22.145399 27.876879
v 7.900000 -22.139357 27.869141
v 7.900000 -22.133707 27.861115
v 7.900000 -22.128454 27.852821
v 7.900000 -22.123617 27.844280
v 7.900000 -22.119204 27.835512
v 7.900000 -22.115225 27.826538
v 7.900000 -22.111692 27.817379
v 7.900000 -22.108610 27.808058
v 7.900000 -48.100002 0.000000
v 7.900000 -34.400002 22.700001
v 7.900000 -45.400002 22.700001
v 7.900000 -45.463791 22.701567
v 7.900000 -45.527424 22.706261
v 7.900000 -45.590752 22.714071
v 7.900000 -45.653618 22.724979
v 7.900000 -45.715878 22.738960
v 7.900000 -45.777370 22.755978
v 7.900000 -63.700001 -4.000000
v 7.900000 -45.837959 22.775993
v 7.900000 -45.897491 22.798958
v 7.900000 -45.955822 22.824814
v 7.900000 -46.012817 22.853502
v 7.900000 -46.068336 22.884953
v 7.900000 -46.122242 22.919090
v 7.900000 -46.174412 22.955832
v 7.900000 -46.224712 22.995087
v 7.900000 -48.100002 -4.000000
v 7.900000 -8.099997 29.600000
v 7.900000 -22.100962 27.769604
v 7.900000 -22.100241 27.759813
v 7.900000 -22.100000 27.750000
v 7.900000 -8.099997 37.000000
v 7.900000 -22.105993 27.798597
v 7.900000 -22.103842 27.789019
v 7.900000 -22.102163 27.779346
v 7.900000 -3.700003 29.600000
v 7.900000 0.100000 37.000000
v 7.900000 -3.700003 37.000000
v 7.900000 -31.699999 0.000000
v 7.900000 -34.022633 22.755978
v 7.900000 -34.084126 22.738960
v 7.900000 -34.146385 22.724979
v 7.900000 -34.209251 22.714071
v 7.900000 -34.272579 22.706261
v 7.900000 -34.336212 22.701567
v 7.900000 -22.300001 23.750000
v 7.900000 -28.800001 23.750000
v 7.900000 -33.962044 22.775993
v 7.900000 -8.099997 22.200001
v 7.900000 -22.100000 23.950001
v 7.900000 -22.100241 23.940187
v 7.900000 -22.100962 23.930397
v 7.900000 -22.102163 23.920654
v 7.900000 -22.103842 23.910982
v 7.900000 -22.105993 23.901405
v 7.900000 -22.108610 23.891943
v 7.900000 -22.111692 23.882622
v 7.900000 -22.115225 23.873465
v 7.900000 -22.119204 23.864489
v 7.900000 -22.123617 23.855721
v 7.900000 -22.128454 23.847179
v 7.900000 -22.133707 23.838886
v 7.900000 -22.139357 23.830860
v 7.900000 -22.145399 23.823122
v 7.900000 -22.151808 23.815689
v 7.900000 -22.158579 23.808578
v 7.900000 -22.165689 23.801809
v 7.900000 -22.173120 23.795399
v 7.900000 -22.180861 23.789358
v 7.900000 -22.188887 23.783707
v 7.900000 0.100000 22.200001
v 7.900000 -16.100000 0.000000
v 7.900000 -22.260981 23.753843
v 7.900000 -22.270655 23.752165
v 7.900000 -22.280397 23.750963
v 7.900000 -22.290186 23.750242
v 7.900000 -8.099997 7.400000
v 7.900000 -22.197180 23.778454
v 7.900000 -22.205721 23.773617
v 7.900000 -22.214487 23.769203
v 7.900000 -22.223463 23.765224
v 7.900000 -22.232622 23.761692
v 7.900000 -22.241941 23.758612
v 7.900000 -22.251402 23.755995
v 7.900000 -16.100000 -4.000000
v 7.900000 -31.699999 -4.000000
v 7.900000 -3.700003 7.400000
v 7.900000 0.100000 14.799999
v 7.900000 -3.700003 14.799999
v 7.900000 0.100000 0.000000
vn -0.000000 0.000000 1.000000
vn 0.000000 0.000000 1.000000
vn 0.000000 -1.000000 0.000000
vn 0.000000 -1.000000 0.000000
vn 0.000000 1.000000 0.000000
vn 0.000000 1.000000 -0.000000
vn -1.000000 -0.000000 -0.000000
vn -1.000000 -0.000000 0.000000
vn -1.000000 0.000000 0.000000
vn -1.000000 -0.000000 -0.000000
vn -1.000000 0.000000 -0.000000
vn -1.000000 0.000000 0.000000
vn -1.000000 0.000000 0.000000
vn -1.000000 0.000000 -0.000000
vn -1.000000 -0.000000 -0.000000
vn -1.000000 -0.000000 0.000000
vn -1.000000 0.000000 -0.000000
vn -1.000000 0.000000 0.000000
vn -1.000000 -0.000000 0.000000
vn -1.000000 0.000000 0.000000
vn -1.000000 -0.000000 0.000000
vn -1.000000 0.000000 0.000000
vn -1.000000 -0.000000 0.000000
vn -1.000000 0.000000 0.000000
vn -1.000000 -0.000000 0.000000
vn -1.000000 0.000000 0.000000
vn -1.000000 -0.000000 0.000000
vn -1.000000 0.000000 0.000000
vn -1.000000 -0.000000 0.000000
vn -1.000000 0.000000 0.000000
vn -1.000000 -0.000000 0.000000
vn -1.000000 0.000000 0.000000
vn -1.000000 -0.000000 0.000000
vn -1.000000 -0.000000 0.000000
vn -1.000000 0.000000 0.000000
vn -1.000000 0.000000 0.000000
vn -1.000000 -0.000000 -0.000000
vn -1.000000 -0.000000 0.000000
vn -1.000000 -0.000000 0.000000
vn -1.000000 0.000000 0.000000
vn -1.000000 0.000000 0.000000
vn -1.000000 -0.000000 0.000000
vn -1.000000 0.000000 0.000000
vn -1.000000 -0.000000 0.000000
vn -1.000000 0.000000 0.000000
vn -1.000000 -0.000000 0.000000
vn -1.000000 0.000000 0.000000
vn -1.000000 -0.000000 0.000000
vn -1.000000 0.000000 0.000000
vn -1.000000 -0.000000 0.000000
vn -1.000000 0.000000 -0.000000
vn -1.000000 -0.000000 -0.000000
vn -1.000000 0.000000 -0.000000
vn -1.000000 0.000000 -0.000000
vn -1.000000 0.000000 -0.000000
vn -1.000000 0.000000 -0.000000
vn -1.000000 0.000000 -0.000000
vn -1.000000 0.000000 -0.000000
vn -1.000000 0.000000 -0.000000
vn -1.000000 0.000000 -0.000000
vn -1.000000 0.000000 -0.000000
vn -1.000000 0.000000 -0.000000
vn -1.000000 0.000000 -0.000000
vn -1.000000 0.000000 0.000000
vn -1.000000 0.000000 -0.000000
vn -1.000000 0.000000 -0.000000
vn -1.000000 0.000000 -0.000000
vn -1.000000 0.000000 0.000000
vn -1.000000 0.000000 -0.000000
vn -1.000000 -0.000000 0.000000
vn -1.000000 -0.000000 0.000000
vn -1.000000 -0.000000 0.000000
vn -1.000000 -0.000000 0.000000
vn -1.000000 0.000000 0.000000
vn -1.000000 0.000000 0.000000
vn -1.000000 0.000000 0.000000
vn -1.000000 0.000000 0.000000
vn -1.000000 0.000000 0.000000
vn -1.000000 0.000000 0.000000
vn -1.000000 0.000000 0.000000
vn -1.000000 0.000000 0.000000
vn -1.000000 0.000000 0.000000
vn -1.000000 0.000000 0.000000
vn -1.000000 0.000000 0.000000
vn -1.000000 0.000000 0.000000
vn -1.000000 0.000000 0.000000
vn -1.000000 0.000000 0.000000
vn -1.000000 0.000000 0.000000
vn -1.000000 0.000000 0.000000
vn -1.000000 0.000000 0.000000
vn -1.000000 0.000000 0.000000
vn -1.000000 0.000000 0.000000
vn -1.000000 -0.000000 0.000000
vn -1.000000 -0.000000 0.000000
vn -1.000000 0.000000 0.000000
vn -1.000000 0.000000 0.000000
vn -1.000000 -0.000000 0.000000
vn -1.000000 0.000000 0.000000
vn -1.000000 0.000000 0.000000
vn -1.000000 0.000000 0.000000
vn -1.000000 -0.000000 0.000000
vn -1.000000 0.000000 0.000000
vn -1.000000 0.000000 0.000000
vn -1.000000 0.000000 0.000000
vn -1.000000 0.000000 0.000000
vn -1.000000 0.000000 0.000000
vn -1.000000 -0.000000 0.000000
vn -1.000000 0.000000 0.000000
vn -1.000000 -0.000000 0.000000
vn -1.000000 0.000000 0.000000
vn -1.000000 -0.000000 0.000000
vn -1.000000 0.000000 0.000000
vn -1.000000 0.000000 0.000000
vn -1.000000 0.000000 0.000000
vn -1.000000 -0.000000 0.000000
vn -1.000000 0.000000 0.000000
vn -1.000000 0.000000 0.000000
vn -1.000000 0.000000 0.000000
vn -1.000000 0.000000 0.000000
vn -1.000000 0.000000 -0.000000
vn -1.000000 -0.000000 0.000000
vn -1.000000 0.000000 0.000000
vn -1.000000 -0.000000 0.000000
vn -1.000000 0.000000 0.000000
vn -1.000000 0.000000 0.000000
vn -1.000000 -0.000000 0.000000
vn -1.000000 0.000000 0.000000
vn -1.000000 -0.000000 0.000000
vn -1.000000 0.000000 0.000000
vn -1.000000 0.000000 0.000000
vn -1.000000 0.000000 0.000000
vn -1.000000 -0.000000 0.000000
vn -1.000000 0.000000 0.000000
vn -1.000000 -0.000000 0.000000
vn -1.000000 0.000000 0.000000
vn -1.000000 0.000000 0.000000
vn -1.000000 0.000000 0.000000
vn -1.000000 0.000000 0.000000
vn -1.000000 -0.000000 0.000000
vn -1.000000 0.000000 0.000000
vn -1.000000 0.000000 -0.000000
vn -1.000000 0.000000 0.000000
vn -1.000000 0.000000 -0.000000
vn -1.000000 0.000000 -0.000000
vn -1.000000 0.000000 -0.000000
vn -1.000000 0.000000 -0.000000
vn -1.000000 0.000000 -0.000000
vn -1.000000 0.000000 -0.000000
vn -1.000000 0.000000 -0.000000
vn -1.000000 0.000000 -0.000000
vn -1.000000 0.000000 -0.000000
vn -1.000000 0.000000 -0.000000
vn -1.000000 0.000000 -0.000000
vn -1.000000 0.000000 -0.000000
vn -1.000000 0.000000 -0.000000
vn -1.000000 0.000000 -0.000000
vn -1.000000 0.000000 -0.000000
vn -1.000000 0.000000 -0.000000
vn -1.000000 0.000000 -0.000000
vn -1.000000 0.000000 -0.000000
vn -1.000000 0.000000 -0.000000
vn -1.000000 0.000000 -0.000000
vn -1.000000 0.000000 -0.000000
vn -1.000000 0.000000 -0.000000
vn -1.000000 0.000000 -0.000000
vn -1.000000 0.000000 -0.000000
vn -1.000000 0.000000 -0.000000
vn -1.000000 0.000000 -0.000000
vn -1.000000 0.000000 -0.000000
vn -1.000000 0.000000 -0.000000
vn -1.000000 0.000000 -0.000000
vn -1.000000 0.000000 -0.000000
vn -1.000000 0.000000 -0.000000
vn -1.000000 0.000000 -0.000000
vn -1.000000 0.000000 -0.000000
vn -1.000000 0.000000 -0.000000
vn -1.000000 0.000000 -0.000000
vn -1.000000 0.000000 -0.000000
vn -1.000000 0.000000 -0.000000
vn -1.000000 0.000000 -0.000000
vn -1.000000 0.000000 -0.000000
vn -1.000000 0.000000 -0.000000
vn -1.000000 0.000000 -0.000000
vn -1.000000 0.000000 -0.000000
vn -1.000000 0.000000 -0.000000
vn -1.000000 0.000000 -0.000000
vn -1.000000 0.000000 -0.000000
vn -1.000000 0.000000 -0.000000
vn -1.000000 0.000000 -0.000000
vn -1.000000 0.000000 -0.000000
vn -1.000000 0.000000 -0.000000
vn -1.000000 0.000000 -0.000000
vn -1.000000 0.000000 -0.000000
vn -1.000000 0.000000 -0.000000
vn -1.000000 0.000000 -0.000000
vn -1.000000 0.000000 -0.000000
vn -1.000000 0.000000 -0.000000
vn -1.000000 0.000000 -0.000000
vn -1.000000 0.000000 0.000000
vn -1.000000 -0.000000 0.000000
vn -1.000000 0.000000 0.000000
vn -1.000000 0.000000 0.000000
vn -1.000000 0.000000 0.000000
vn -1.000000 0.000000 0.000000
vn -1.000000 0.000000 0.000000
vn -1.000000 0.000000 0.000000
vn -1.000000 0.000000 0.000000
vn -1.000000 0.000000 0.000000
vn -1.000000 0.000000 0.000000
vn -1.000000 0.000000 0.000000
vn -1.000000 0.000000 0.000000
vn -1.000000 0.000000 0.000000
vn -1.000000 0.000000 0.000000
vn -1.000000 0.000000 0.000000
vn -1.000000 0.000000 0.000000
vn -1.000000 0.000000 0.000000
vn -1.000000 0.000000 0.000000
vn -1.000000 0.000000 0.000000
vn -1.000000 0.000000 0.000000
vn -1.000000 0.000000 0.000000
vn -1.000000 0.000000 0.000000
vn -1.000000 0.000000 0.000000
vn -1.000000 0.000000 0.000000
vn -1.000000 0.000000 0.000000
vn -1.000000 0.000000 0.000000
vn -1.000000 0.000000 0.000000
vn -1.000000 0.000000 0.000000
vn -1.000000 0.000000 0.000000
vn -1.000000 -0.000000 0.000000
vn -1.000000 -0.000000 0.000000
vn -1.000000 -0.000000 0.000000
vn -1.000000 -0.000000 0.000000
vn -1.000000 -0.000000 0.000000
vn -1.000000 -0.000000 0.000000
vn -1.000000 -0.000000 0.000000
vn -1.000000 -0.000000 0.000000
vn -1.000000 -0.000000 0.000000
vn -1.000000 -0.000000 0.000000
vn -1.000000 -0.000000 0.000000
vn -1.000000 -0.000000 0.000000
vn -1.000000 -0.000000 0.000000
vn -1.000000 -0.000000 0.000000
vn -1.000000 -0.000000 0.000000
vn -1.000000 -0.000000 0.000000
vn -1.000000 0.000000 -0.000000
vn -1.000000 0.000000 0.000000
vn -1.000000 0.000000 0.000000
vn -1.000000 0.000000 0.000000
vn -1.000000 -0.000000 -0.000000
vn -1.000000 0.000000 -0.000000
vn -1.000000 0.000000 0.000000
vn -1.000000 0.000000 0.000000
vn -1.000000 0.000000 0.000000
vn -1.000000 -0.000000 0.000000
vn -1.000000 0.000000 -0.000000
vn -1.000000 0.000000 -0.000000
vn -1.000000 0.000000 -0.000000
vn -1.000000 0.000000 -0.000000
vn -1.000000 0.000000 -0.000000
vn -1.000000 0.000000 -0.000000
vn -1.000000 0.000000 -0.000000
vn -1.000000 -0.000000 0.000000
vn -1.000000 0.000000 0.000000
vn -1.000000 -0.000000 0.000000
vn -1.000000 0.000000 -0.000000
vn -1.000000 0.000000 -0.000000
vn -1.000000 0.000000 0.000000
vn -1.000000 0.000000 -0.000000
vn -1.000000 0.000000 -0.000000
vn -1.000000 0.000000 -0.000000
vn -1.000000 0.000000 -0.000000
vn -1.000000 0.000000 -0.000000
vn -1.000000 0.000000 -0.000000
vn -1.000000 0.000000 -0.000000
vn -1.000000 0.000000 -0.000000
vn -1.000000 0.000000 -0.000000
vn -1.000000 0.000000 -0.000000
vn -1.000000 0.000000 -0.000000
vn -1.000000 0.000000 -0.000000
vn -1.000000 0.000000 -0.000000
vn -1.000000 0.000000 -0.000000
vn -1.000000 0.000000 -0.000000
vn -1.000000 0.000000 -0.000000
vn -1.000000 0.000000 -0.000000
vn -1.000000 0.000000 -0.000000
vn -1.000000 0.000000 -0.000000
vn -1.000000 0.000000 -0.000000
vn -1.000000 -0.000000 0.000000
vn -1.000000 0.000000 -0.000000
vn -1.000000 0.000000 -0.000000
vn -1.000000 0.000000 -0.000000
vn -1.000000 0.000000 -0.000000
vn -1.000000 0.000000 -0.000000
vn -1.000000 0.000000 -0.000000
vn -1.000000 0.000000 -0.000000
vn -1.000000 0.000000 -0.000000
vn -1.000000 -0.000000 -0.000000
vn -1.000000 0.000000 -0.000000
vn -1.000000 0.000000 -0.000000
vn -1.000000 0.000000 -0.000000
vn -1.000000 0.000000 -0.000000
vn -1.000000 0.000000 -0.000000
vn -1.000000 0.000000 -0.000000
vn -1.000000 0.000000 -0.000000
vn -1.000000 0.000000 -0.000000
vn -1.000000 0.000000 0.000000
vn -1.000000 0.000000 0.000000
vn -1.000000 -0.000000 -0.000000
vn -1.000000 -0.000000 0.000000
vn -1.000000 0.000000 -0.000000
vn -1.000000 0.000000 -0.000000
vn -1.000000 -0.000000 -0.000000
vn 1.000000 0.000000 -0.000000
vn 1.000000 0.000000 0.000000
vn 1.000000 0.000000 0.000000
vn 1.000000 0.000000 -0.000000
vn 1.000000 0.000000 0.000000
vn 1.000000 0.000000 0.000000
vn 1.000000 0.000000 -0.000000
vn 1.000000 0.000000 0.000000
vn 1.000000 0.000000 -0.000000
vn 1.000000 0.000000 0.000000
vn 1.000000 0.000000 0.000000
vn 1.000000 0.000000 0.000000
vn 1.000000 0.000000 -0.000000
vn 1.000000 0.000000 -0.000000
vn 1.000000 0.000000 0.000000
vn 1.000000 0.000000 0.000000
vn 1.000000 0.000000 -0.000000
vn 1.000000 0.000000 -0.000000
vn 1.000000 0.000000 0.000000
vn 1.000000 0.000000 0.000000
vn 1.000000 0.000000 -0.000000
vn 1.000000 0.000000 -0.000000
vn 1.000000 0.000000 0.000000
vn 1.000000 0.000000 0.000000
vn 1.000000 0.000000 -0.000000
vn 1.000000 0.000000 0.000000
vn 1.000000 0.000000 -0.000000
vn 1.000000 0.000000 -0.000000
vn 1.000000 0.000000 0.000000
vn 1.000000 0.000000 0.000000
vn 1.000000 0.000000 0.000000
vn 1.000000 0.000000 -0.000000
vn 1.000000 0.000000 0.000000
vn 1.000000 0.000000 -0.000000
vn 1.000000 0.000000 0.000000
vn 1.000000 0.000000 -0.000000
vn 1.000000 0.000000 0.000000
vn 1.000000 0.000000 -0.000000
vn 1.000000 0.000000 0.000000
vn 1.000000 0.000000 -0.000000
vn 1.000000 0.000000 -0.000000
vn 1.000000 0.000000 0.000000
vn 1.000000 0.000000 0.000000
vn 1.000000 0.000000 -0.000000
vn 1.000000 0.000000 -0.000000
vn 1.000000 0.000000 0.000000
vn 1.000000 0.000000 0.000000
vn 1.000000 0.000000 0.000000
vn 1.000000 0.000000 0.000000
vn 1.000000 0.000000 0.000000
vn 1.000000 0.000000 0.000000
vn 1.000000 0.000000 0.000000
vn 1.000000 0.000000 0.000000
vn 1.000000 0.000000 0.000000
vn 1.000000 0.000000 0.000000
vn 1.000000 0.000000 0.000000
vn 1.000000 0.000000 0.000000
vn 1.000000 0.000000 0.000000
vn 1.000000 0.000000 0.000000
vn 1.000000 0.000000 0.000000
vn 1.000000 0.000000 0.000000
vn 1.000000 0.000000 -0.000000
vn 1.000000 0.000000 0.000000
vn 1.000000 0.000000 0.000000
vn 1.000000 0.000000 0.000000
vn 1.000000 0.000000 0.000000
vn 1.000000 0.000000 -0.000000
vn 1.000000 0.000000 0.000000
vn 1.000000 0.000000 -0.000000
vn 1.000000 0.000000 -0.000000
vn 1.000000 0.000000 -0.000000
vn 1.000000 0.000000 -0.000000
vn 1.000000 0.000000 -0.000000
vn 1.000000 0.000000 -0.000000
vn 1.000000 0.000000 -0.000000
vn 1.000000 0.000000 -0.000000
vn 1.000000 0.000000 -0.000000
vn 1.000000 0.000000 -0.000000
vn 1.000000 0.000000 -0.000000
vn 1.000000 0.000000 -0.000000
vn 1.000000 0.000000 -0.000000
vn 1.000000 0.000000 -0.000000
vn 1.000000 0.000000 0.000000
vn 1.000000 0.000000 0.000000
vn 1.000000 0.000000 0.000000
vn 1.000000 0.000000 -0.000000
vn 1.000000 0.000000 0.000000
vn 1.000000 0.000000 0.000000
vn 1.000000 0.000000 0.000000
vn 1.000000 0.000000 -0.000000
vn 1.000000 0.000000 0.000000
vn 1.000000 0.000000 0.000000
vn 1.000000 0.000000 0.000000
vn 1.000000 0.000000 -0.000000
vn 1.000000 0.000000 0.000000
vn 1.000000 0.000000 0.000000
vn 1.000000 0.000000 -0.000000
vn 1.000000 0.000000 0.000000
vn 1.000000 0.000000 0.000000
vn 1.000000 0.000000 0.000000
vn 1.000000 0.000000 -0.000000
vn 1.000000 0.000000 0.000000
vn 1.000000 0.000000 0.000000
vn 1.000000 0.000000 -0.000000
vn 1.000000 0.000000 0.000000
vn 1.000000 0.000000 0.000000
vn 1.000000 0.000000 0.000000
vn 1.000000 0.000000 -0.000000
vn 1.000000 0.000000 0.000000
vn 1.000000 0.000000 0.000000
vn 1.000000 0.000000 -0.000000
vn 1.000000 0.000000 0.000000
vn 1.000000 0.000000 0.000000
vn 1.000000 0.000000 0.000000
vn 1.000000 0.000000 -0.000000
vn 1.000000 0.000000 0.000000
vn 1.000000 0.000000 0.000000
vn 1.000000 0.000000 -0.000000
vn 1.000000 0.000000 0.000000
vn 1.000000 0.000000 -0.000000
vn 1.000000 0.000000 0.000000
vn 1.000000 0.000000 0.000000
vn 1.000000 0.000000 -0.000000
vn 1.000000 0.000000 0.000000
vn 1.000000 0.000000 0.000000
vn 1.000000 0.000000 -0.000000
vn 1.000000 0.000000 0.000000
vn 1.000000 0.000000 -0.000000
vn 1.000000 0.000000 0.000000
vn 1.000000 0.000000 -0.000000
vn 1.000000 0.000000 0.000000
vn 1.000000 0.000000 -0.000000
vn 1.000000 0.000000 0.000000
vn 1.000000 0.000000 0.000000
vn 1.000000 0.000000 0.000000
vn 1.000000 0.000000 -0.000000
vn 1.000000 0.000000 -0.000000
vn 1.000000 0.000000 0.000000
vn 1.000000 0.000000 0.000000
vn 1.000000 0.000000 0.000000
vn 1.000000 0.000000 0.000000
vn 1.000000 0.000000 0.000000
vn 1.000000 0.000000 0.000000
vn 1.000000 0.000000 0.000000
vn 1.000000 0.000000 0.000000
vn 1.000000 0.000000 0.000000
vn 1.000000 0.000000 0.000000
vn 1.000000 0.000000 0.000000
vn 1.000000 0.000000 0.000000
vn 1.000000 0.000000 0.000000
vn 1.000000 0.000000 0.000000
vn 1.000000 0.000000 0.000000
vn 1.000000 0.000000 0.000000
vn 1.000000 0.000000 0.000000
vn 1.000000 0.000000 0.000000
vn 1.000000 0.000000 0.000000
vn 1.000000 0.000000 0.000000
vn 1.000000 0.000000 0.000000
vn 1.000000 0.000000 0.000000
vn 1.000000 0.000000 0.000000
vn 1.000000 0.000000 0.000000
vn 1.000000 0.000000 0.000000
vn 1.000000 0.000000 0.000000
vn 1.000000 0.000000 0.000000
vn 1.000000 0.000000 0.000000
vn 1.000000 0.000000 0.000000
vn 1.000000 0.000000 0.000000
vn 1.000000 0.000000 0.000000
vn 1.000000 0.000000 0.000000
vn 1.000000 0.000000 0.000000
vn 1.000000 0.000000 0.000000
vn 1.000000 0.000000 0.000000
vn 1.000000 0.000000 0.000000
vn 1.000000 0.000000 0.000000
vn 1.000000 0.000000 0.000000
vn 1.000000 0.000000 0.000000
vn 1.000000 0.000000 0.000000
vn 1.000000 0.000000 0.000000
vn 1.000000 0.000000 0.000000
vn 1.000000 0.000000 0.000000
vn 1.000000 0.000000 0.000000
vn 1.000000 0.000000 0.000000
vn 1.000000 0.000000 0.000000
vn 1.000000 0.000000 0.000000
vn 1.000000 0.000000 0.000000
vn 1.000000 0.000000 0.000000
vn 1.000000 0.000000 0.000000
vn 1.000000 0.000000 0.000000
vn 1.000000 0.000000 0.000000
vn 1.000000 0.000000 0.000000
vn 1.000000 0.000000 0.000000
vn 1.000000 0.000000 0.000000
vn 1.000000 0.000000 0.000000
vn 1.000000 0.000000 -0.000000
vn 1.000000 0.000000 -0.000000
vn 1.000000 0.000000 -0.000000
vn 1.000000 0.000000 -0.000000
vn 1.000000 0.000000 -0.000000
vn 1.000000 0.000000 -0.000000
vn 1.000000 0.000000 -0.000000
vn 1.000000 0.000000 -0.000000
vn 1.000000 0.000000 -0.000000
vn 1.000000 0.000000 -0.000000
vn 1.000000 0.000000 -0.000000
vn 1.000000 0.000000 -0.000000
vn 1.000000 0.000000 -0.000000
vn 1.000000 0.000000 -0.000000
vn 1.000000 0.000000 -0.000000
vn 1.000000 0.000000 -0.000000
vn 1.000000 0.000000 -0.000000
vn 1.000000 0.000000 -0.000000
vn 1.000000 0.000000 -0.000000
vn 1.000000 0.000000 -0.000000
vn 1.000000 0.000000 -0.000000
vn 1.000000 0.000000 -0.000000
vn 1.000000 0.000000 -0.000000
vn 1.000000 0.000000 -0.000000
vn 1.000000 0.000000 -0.000000
vn 1.000000 0.000000 -0.000000
vn 1.000000 0.000000 -0.000000
vn 1.000000 0.000000 0.000000
vn 1.000000 0.000000 0.000000
vn 1.000000 0.000000 0.000000
vn 1.000000 0.000000 0.000000
vn 1.000000 0.000000 0.000000
vn 1.000000 0.000000 0.000000
vn 1.000000 0.000000 0.000000
vn 1.000000 0.000000 0.000000
vn 1.000000 0.000000 0.000000
vn 1.000000 0.000000 0.000000
vn 1.000000 0.000000 0.000000
vn 1.000000 0.000000 0.000000
vn 1.000000 0.000000 0.000000
vn 1.000000 0.000000 0.000000
vn 1.000000 0.000000 0.000000
vn 1.000000 0.000000 0.000000
vn 1.000000 0.000000 0.000000
vn 1.000000 0.000000 -0.000000
vn 1.000000 0.000000 -0.000000
vn 1.000000 0.000000 0.000000
vn 1.000000 0.000000 0.000000
vn 1.000000 0.000000 -0.000000
vn 1.000000 0.000000 0.000000
vn 1.000000 0.000000 0.000000
vn 1.000000 0.000000 0.000000
vn 1.000000 0.000000 0.000000
vn 1.000000 0.000000 0.000000
vn 1.000000 0.000000 0.000000
vn 1.000000 0.000000 0.000000
vn 1.000000 0.000000 0.000000
vn 1.000000 0.000000 0.000000
vn 1.000000 0.000000 0.000000
vn 1.000000 0.000000 0.000000
vn 1.000000 0.000000 0.000000
vn 1.000000 0.000000 0.000000
vn 1.000000 0.000000 0.000000
vn 1.000000 0.000000 -0.000000
vn 1.000000 0.000000 0.000000
vn 1.000000 0.000000 0.000000
vn 1.000000 0.000000 0.000000
vn 1.000000 0.000000 0.000000
vn 1.000000 0.000000 0.000000
vn 1.000000 0.000000 0.000000
vn 1.000000 0.000000 0.000000
vn 1.000000 0.000000 0.000000
vn 1.000000 0.000000 0.000000
vn 1.000000 0.000000 0.000000
vn 1.000000 0.000000 0.000000
vn 1.000000 0.000000 0.000000
vn 1.000000 0.000000 -0.000000
vn 1.000000 0.000000 0.000000
vn 1.000000 0.000000 0.000000
vn 1.000000 0.000000 0.000000
vn 1.000000 0.000000 0.000000
vn 1.000000 0.000000 0.000000
vn 1.000000 0.000000 0.000000
vn 1.000000 0.000000 0.000000
vn 1.000000 0.000000 0.000000
vn 1.000000 0.000000 0.000000
vn 1.000000 0.000000 0.000000
vn 1.000000 0.000000 0.000000
vn 1.000000 0.000000 0.000000
vn 1.000000 0.000000 0.000000
vn 1.000000 0.000000 0.000000
vn 1.000000 0.000000 -0.000000
vn 1.000000 0.000000 0.000000
vn 1.000000 0.000000 0.000000
vn 1.000000 0.000000 0.000000
vn 1.000000 0.000000 0.000000
vn 1.000000 0.000000 0.000000
vn 1.000000 0.000000 -0.000000
vn 1.000000 0.000000 0.000000
vn 1.000000 0.000000 0.000000
vn 1.000000 0.000000 0.000000
vn 1.000000 0.000000 0.000000
vn 1.000000 0.000000 0.000000
vn 1.000000 0.000000 0.000000
vn 1.000000 0.000000 0.000000
vn 1.000000 0.000000 0.000000
vn 1.000000 0.000000 0.000000
vn 1.000000 0.000000 0.000000
vn 1.000000 0.000000 -0.000000
vn 1.000000 0.000000 0.000000
vn 1.000000 0.000000 0.000000
vn 1.000000 0.000000 -0.000000
vn 1.000000 0.000000 0.000000
vn -0.000000 0.000000 1.000000
vn 0.000000 0.000000 1.000000
vn 0.000000 0.000000 1.000000
vn 0.000000 0.000000 1.000000
vn -0.000000 -1.000000 -0.000000
vn 0.000000 -1.000000 0.000000
vn 0.000000 -1.000000 0.000000
vn 0.000000 -1.000000 -0.000000
vn -0.000000 0.000000 1.000000
vn 0.000000 0.000000 1.000000
vn 0.000000 0.000000 -1.000000
vn 0.000000 0.000000 -1.000000
vn 0.000000 1.000000 -0.000000
vn 0.000000 1.000000 0.000000
vn 0.000000 -1.000000 0.000000
vn 0.000000 -1.000000 0.000000
vn -0.000000 0.000000 1.000000
vn 0.000000 0.000000 1.000000
vn -0.000000 0.000000 1.000000
vn 0.000000 0.000000 1.000000
vn -0.000000 -1.000000 -0.000000
vn 0.000000 -1.000000 0.000000
vn 0.000000 1.000000 0.000000
vn 0.000000 1.000000 -0.000000
vn -0.000000 0.000000 1.000000
vn 0.000000 0.000000 1.000000
vn 0.000000 0.000000 1.000000
vn 0.000000 0.000000 1.000000
vn 0.000000 1.000000 0.000000
vn 0.000000 1.000000 0.000000
vn 0.000000 -1.000000 0.000000
vn 0.000000 -1.000000 0.000000
vn -0.000000 0.000000 1.000000
vn 0.000000 0.000000 1.000000
vn 0.000000 0.000000 -1.000000
vn 0.000000 0.000000 -1.000000
vn 0.000000 1.000000 0.000000
vn 0.000000 1.000000 -0.000000
vn 0.000000 -1.000000 0.000000
vn 0.000000 -1.000000 0.000000
vn -0.000000 0.000000 1.000000
vn 0.000000 0.000000 1.000000
vn 0.000000 0.000000 -1.000000
vn 0.000000 0.000000 -1.000000
vn 0.000000 -1.000000 0.000000
vn 0.000000 -1.000000 0.000000
vn 0.000000 1.000000 0.000000
vn 0.000000 1.000000 0.000000
vn 0.000000 0.000000 1.000000
vn 0.000000 0.000000 1.000000
vn 0.000000 0.000000 -1.000000
vn 0.000000 0.000000 -1.000000
vn 0.000000 1.000000 0.000000
vn 0.000000 1.000000 -0.000000
vn 0.000000 -1.000000 0.000000
vn 0.000000 -1.000000 0.000000
vn 0.000000 0.000000 -1.000000
vn 0.000000 0.000000 -1.000000
vn 0.000000 0.000000 -1.000000
vn 0.000000 0.000000 -1.000000
vn 0.000000 1.000000 0.000000
vn 0.000000 1.000000 -0.000000
vn 0.000000 1.000000 0.000000
vn 0.000000 1.000000 0.000000
vn -0.000000 0.000000 1.000000
vn 0.000000 0.000000 1.000000
vn 0.000000 0.000000 -1.000000
vn 0.000000 0.000000 -1.000000
vn 0.000000 -1.000000 0.000000
vn 0.000000 -1.000000 0.000000
vn 0.000000 1.000000 0.000000
vn 0.000000 1.000000 -0.000000
vn -0.000000 0.000000 1.000000
vn 0.000000 0.000000 1.000000
vn 0.000000 0.999700 -0.024512
vn 0.000000 0.999700 -0.024512
vn 0.000000 0.997288 -0.073594
vn 0.000000 0.997288 -0.073594
vn 0.000000 0.992483 -0.122379
vn 0.000000 0.992483 -0.122379
vn 0.000000 0.985273 -0.170988
vn 0.000000 0.985273 -0.170988
vn 0.000000 0.975701 -0.219107
vn 0.000000 0.975701 -0.219107
vn 0.000000 0.963778 -0.266705
vn 0.000000 0.963778 -0.266705
vn 0.000000 0.949526 -0.313689
vn 0.000000 0.949526 -0.313689
vn 0.000000 0.932991 -0.359900
vn 0.000000 0.932991 -0.359900
vn 0.000000 0.914215 -0.405228
vn 0.000000 0.914215 -0.405228
vn 0.000000 0.893216 -0.449627
vn 0.000000 0.893216 -0.449627
vn 0.000000 0.870099 -0.492878
vn 0.000000 0.870099 -0.492878
vn 0.000000 0.844845 -0.535012
vn 0.000000 0.844845 -0.535012
vn 0.000000 0.817595 -0.575793
vn 0.000000 0.817595 -0.575793
vn 0.000000 0.788342 -0.615237
vn 0.000000 0.788342 -0.615237
vn 0.000000 0.757219 -0.653161
vn 0.000000 0.757219 -0.653161
vn 0.000000 0.724246 -0.689542
vn 0.000000 0.724246 -0.689542
vn 0.000000 0.689541 -0.724247
vn 0.000000 0.689541 -0.724247
vn 0.000000 0.653164 -0.757217
vn 0.000000 0.653164 -0.757217
vn 0.000000 0.615252 -0.788331
vn 0.000000 0.615252 -0.788331
vn 0.000000 0.575779 -0.817605
vn 0.000000 0.575779 -0.817605
vn 0.000000 0.535025 -0.844836
vn 0.000000 0.535025 -0.844836
vn 0.000000 0.492887 -0.870093
vn 0.000000 0.492887 -0.870093
vn 0.000000 0.449603 -0.893228
vn 0.000000 0.449603 -0.893228
vn 0.000000 0.405240 -0.914211
vn 0.000000 0.405240 -0.914211
vn 0.000000 0.359900 -0.932991
vn 0.000000 0.359900 -0.932991
vn 0.000000 0.313680 -0.949529
vn 0.000000 0.313680 -0.949529
vn 0.000000 0.266713 -0.963776
vn 0.000000 0.266713 -0.963776
vn 0.000000 0.219101 -0.975702
vn 0.000000 0.219101 -0.975702
vn 0.000000 0.170959 -0.985278
vn 0.000000 0.170959 -0.985278
vn 0.000000 0.122408 -0.992480
vn 0.000000 0.122408 -0.992480
vn 0.000000 0.073567 -0.997290
vn 0.000000 0.073567 -0.997290
vn 0.000000 0.024541 -0.999699
vn 0.000000 0.024541 -0.999699
vn 0.000000 1.000000 0.000000
vn 0.000000 1.000000 -0.000000
vn -0.000000 0.024541 0.999699
vn 0.000000 0.024541 0.999699
vn 0.000000 0.073567 0.997290
vn -0.000000 0.073567 0.997290
vn 0.000000 0.122408 0.992480
vn -0.000000 0.122408 0.992480
vn 0.000000 0.170959 0.985278
vn -0.000000 0.170959 0.985278
vn 0.000000 0.219101 0.975702
vn -0.000000 0.219101 0.975702
vn 0.000000 0.266713 0.963776
vn -0.000000 0.266713 0.963776
vn 0.000000 0.313680 0.949529
vn -0.000000 0.313680 0.949529
vn 0.000000 0.359900 0.932991
vn -0.000000 0.359900 0.932991
vn -0.000000 0.405240 0.914211
vn 0.000000 0.405240 0.914211
vn -0.000000 0.449603 0.893228
vn 0.000000 0.449603 0.893228
vn -0.000000 0.492887 0.870093
vn 0.000000 0.492887 0.870093
vn -0.000000 0.535025 0.844836
vn 0.000000 0.535025 0.844836
vn -0.000000 0.575799 0.817591
vn 0.000000 0.575799 0.817591
vn -0.000000 0.615233 0.788345
vn 0.000000 0.615233 0.788345
vn -0.000000 0.653164 0.757217
vn 0.000000 0.653164 0.757217
vn -0.000000 0.689541 0.724247
vn 0.000000 0.689541 0.724247
vn -0.000000 0.724246 0.689542
vn 0.000000 0.724246 0.689542
vn -0.000000 0.757219 0.653161
vn 0.000000 0.757219 0.653161
vn -0.000000 0.788342 0.615237
vn 0.000000 0.788342 0.615237
vn -0.000000 0.817595 0.575793
vn 0.000000 0.817595 0.575793
vn 0.000000 0.844845 0.535012
vn -0.000000 0.844845 0.535012
vn -0.000000 0.870099 0.492878
vn 0.000000 0.870099 0.492878
vn 0.000000 0.893216 0.449627
vn 0.000000 0.914215 0.405228
vn -0.000000 0.893216 0.449627
vn 0.000000 0.914215 0.405228
vn 0.000000 0.932991 0.359900
vn 0.000000 0.949526 0.313689
vn -0.000000 0.932991 0.359900
vn 0.000000 0.949526 0.313689
vn 0.000000 0.963778 0.266705
vn -0.000000 0.963778 0.266705
vn 0.000000 0.975701 0.219107
vn -0.000000 0.975701 0.219107
vn 0.000000 0.985274 0.170983
vn -0.000000 0.985274 0.170983
vn 0.000000 0.992483 0.122383
vn -0.000000 0.992483 0.122383
vn 0.000000 0.997288 0.073594
vn -0.000000 0.997288 0.073594
vn 0.000000 0.999700 0.024512
vn -0.000000 0.999700 0.024512
vn -0.000000 0.000000 1.000000
vn 0.000000 0.000000 1.000000
vn 0.000000 -0.999700 0.024512
vn 0.000000 -0.999700 0.024512
vn 0.000000 -0.997288 0.073594
vn 0.000000 -0.997288 0.073594
vn 0.000000 -0.992483 0.122383
vn 0.000000 -0.985274 0.170983
vn 0.000000 -0.992483 0.122383
vn 0.000000 -0.975701 0.219107
vn 0.000000 -0.985274 0.170983
vn 0.000000 -0.975701 0.219107
vn 0.000000 -0.963778 0.266705
vn 0.000000 -0.949526 0.313689
vn 0.000000 -0.963778 0.266705
vn 0.000000 -0.932991 0.359900
vn 0.000000 -0.949526 0.313689
vn 0.000000 -0.932991 0.359900
vn 0.000000 -0.914215 0.405228
vn 0.000000 -0.914215 0.405228
vn 0.000000 -0.893216 0.449627
vn 0.000000 -0.893216 0.449627
vn 0.000000 -0.870099 0.492878
vn 0.000000 -0.870099 0.492878
vn 0.000000 -0.844845 0.535012
vn 0.000000 -0.844845 0.535012
vn 0.000000 -0.817595 0.575793
vn 0.000000 -0.817595 0.575793
vn 0.000000 -0.788342 0.615237
vn 0.000000 -0.788342 0.615237
vn 0.000000 -0.757219 0.653161
vn 0.000000 -0.757219 0.653161
vn 0.000000 -0.724246 0.689542
vn 0.000000 -0.724246 0.689542
vn 0.000000 -0.689541 0.724247
vn 0.000000 -0.689541 0.724247
vn 0.000000 -0.653164 0.757217
vn 0.000000 -0.653164 0.757217
vn 0.000000 -0.615233 0.788345
vn 0.000000 -0.615233 0.788345
vn 0.000000 -0.575799 0.817591
vn 0.000000 -0.575799 0.817591
vn 0.000000 -0.535025 0.844836
vn 0.000000 -0.535025 0.844836
vn 0.000000 -0.492887 0.870093
vn 0.000000 -0.492887 0.870093
vn 0.000000 -0.449603 0.893228
vn 0.000000 -0.449603 0.893228
vn 0.000000 -0.405240 0.914211
vn 0.000000 -0.359900 0.932991
vn 0.000000 -0.405240 0.914211
vn 0.000000 -0.359900 0.932991
vn 0.000000 -0.313680 0.949529
vn 0.000000 -0.266713 0.963776
vn 0.000000 -0.313680 0.949529
vn 0.000000 -0.266713 0.963776
vn 0.000000 -0.219101 0.975702
vn 0.000000 -0.219101 0.975702
vn 0.000000 -0.170959 0.985278
vn 0.000000 -0.170959 0.985278
vn 0.000000 -0.122408 0.992480
vn 0.000000 -0.122408 0.992480
vn 0.000000 -0.073567 0.997290
vn 0.000000 -0.073567 0.997290
vn 0.000000 -0.024541 0.999699
vn 0.000000 -0.024541 0.999699
vn -0.000000 -1.000000 -0.000000
vn 0.000000 -1.000000 0.000000
vn -0.000000 -0.024541 -0.999699
vn -0.000000 -0.073567 -0.997290
vn 0.000000 -0.024541 -0.999699
vn -0.000000 -0.122408 -0.992480
vn 0.000000 -0.073567 -0.997290
vn -0.000000 -0.170959 -0.985278
vn 0.000000 -0.122408 -0.992480
vn -0.000000 -0.219101 -0.975702
vn 0.000000 -0.170959 -0.985278
vn -0.000000 -0.266713 -0.963776
vn 0.000000 -0.219101 -0.975702
vn -0.000000 -0.313680 -0.949529
vn 0.000000 -0.266713 -0.963776
vn -0.000000 -0.359900 -0.932991
vn 0.000000 -0.313680 -0.949529
vn 0.000000 -0.359900 -0.932991
vn -0.000000 -0.405240 -0.914211
vn 0.000000 -0.405240 -0.914211
vn -0.000000 -0.449603 -0.893228
vn 0.000000 -0.449603 -0.893228
vn -0.000000 -0.492887 -0.870093
vn 0.000000 -0.492887 -0.870093
vn -0.000000 -0.535025 -0.844836
vn 0.000000 -0.535025 -0.844836
vn -0.000000 -0.575779 -0.817605
vn 0.000000 -0.575779 -0.817605
vn -0.000000 -0.615252 -0.788331
vn 0.000000 -0.615252 -0.788331
vn -0.000000 -0.653164 -0.757217
vn 0.000000 -0.653164 -0.757217
vn -0.000000 -0.689541 -0.724247
vn 0.000000 -0.689541 -0.724247
vn 0.000000 -0.724246 -0.689542
vn 0.000000 -0.724246 -0.689542
vn -0.000000 -0.757219 -0.653161
vn 0.000000 -0.757219 -0.653161
vn -0.000000 -0.788342 -0.615237
vn 0.000000 -0.788342 -0.615237
vn -0.000000 -0.817595 -0.575793
vn 0.000000 -0.817595 -0.575793
vn -0.000000 -0.844845 -0.535012
vn -0.000000 -0.870099 -0.492878
vn 0.000000 -0.844845 -0.535012
vn -0.000000 -0.893216 -0.449627
vn 0.000000 -0.870099 -0.492878
vn -0.000000 -0.914215 -0.405228
vn 0.000000 -0.893216 -0.449627
vn -0.000000 -0.932991 -0.359900
vn 0.000000 -0.914215 -0.405228
vn 0.000000 -0.932991 -0.359900
vn 0.000000 -0.949526 -0.313689
vn -0.000000 -0.963778 -0.266705
vn 0.000000 -0.949526 -0.313689
vn -0.000000 -0.975701 -0.219107
vn 0.000000 -0.963778 -0.266705
vn -0.000000 -0.985273 -0.170988
vn 0.000000 -0.975701 -0.219107
vn -0.000000 -0.992483 -0.122379
vn 0.000000 -0.985273 -0.170988
vn -0.000000 -0.997288 -0.073594
vn 0.000000 -0.992483 -0.122379
vn 0.000000 -0.997288 -0.073594
vn 0.000000 -0.999700 -0.024512
vn 0.000000 -0.999700 -0.024512
vn 0.000000 0.000000 -1.000000
vn 0.000000 0.000000 -1.000000
vn -0.000000 -0.024478 -0.999700
vn -0.000000 -0.073650 -0.997284
vn 0.000000 -0.024478 -0.999700
vn -0.000000 -0.122408 -0.992480
vn 0.000000 -0.073650 -0.997284
vn -0.000000 -0.170948 -0.985280
vn 0.000000 -0.122408 -0.992480
vn -0.000000 -0.219152 -0.975691
vn 0.000000 -0.170948 -0.985280
vn -0.000000 -0.266601 -0.963807
vn 0.000000 -0.219152 -0.975691
vn -0.000000 -0.313837 -0.949477
vn 0.000000 -0.266601 -0.963807
vn -0.000000 -0.359838 -0.933015
vn 0.000000 -0.313837 -0.949477
vn 0.000000 -0.359838 -0.933015
vn -0.000000 -0.405237 -0.914212
vn 0.000000 -0.405237 -0.914212
vn -0.000000 -0.449699 -0.893180
vn 0.000000 -0.449699 -0.893180
vn -0.000000 -0.492787 -0.870150
vn 0.000000 -0.492787 -0.870150
vn -0.000000 -0.535089 -0.844796
vn 0.000000 -0.535089 -0.844796
vn -0.000000 -0.575729 -0.817640
vn 0.000000 -0.575729 -0.817640
vn -0.000000 -0.615244 -0.788336
vn 0.000000 -0.615244 -0.788336
vn 0.000000 -0.653205 -0.757181
vn 0.000000 -0.653205 -0.757181
vn -0.000000 -0.689505 -0.724281
vn 0.000000 -0.689505 -0.724281
vn 0.000000 -0.724184 -0.689607
vn 0.000000 -0.724184 -0.689607
vn -0.000000 -0.757360 -0.652997
vn 0.000000 -0.757360 -0.652997
vn -0.000000 -0.788169 -0.615459
vn 0.000000 -0.788169 -0.615459
vn 0.000000 -0.817732 -0.575599
vn 0.000000 -0.817732 -0.575599
vn -0.000000 -0.844796 -0.535089
vn -0.000000 -0.870150 -0.492787
vn 0.000000 -0.844796 -0.535089
vn 0.000000 -0.870150 -0.492787
vn 0.000000 -0.893219 -0.449621
vn -0.000000 -0.914180 -0.405309
vn 0.000000 -0.893219 -0.449621
vn 0.000000 -0.914180 -0.405309
vn 0.000000 -0.933015 -0.359838
vn 0.000000 -0.933015 -0.359838
vn 0.000000 -0.949438 -0.313954
vn -0.000000 -0.963807 -0.266601
vn 0.000000 -0.949438 -0.313954
vn -0.000000 -0.975691 -0.219152
vn 0.000000 -0.963807 -0.266601
vn 0.000000 -0.975691 -0.219152
vn 0.000000 -0.985274 -0.170980
vn 0.000000 -0.985274 -0.170980
vn 0.000000 -0.992480 -0.122408
vn -0.000000 -0.997299 -0.073442
vn 0.000000 -0.992480 -0.122408
vn 0.000000 -0.997299 -0.073442
vn 0.000000 -0.999700 -0.024482
vn 0.000000 -0.999700 -0.024482
vn 0.000000 0.000000 -1.000000
vn 0.000000 0.000000 -1.000000
vn 0.000000 0.999700 -0.024482
vn 0.000000 0.997299 -0.073442
vn 0.000000 0.999700 -0.024482
vn 0.000000 0.992480 -0.122408
vn 0.000000 0.997299 -0.073442
vn 0.000000 0.985274 -0.170980
vn 0.000000 0.992480 -0.122408
vn 0.000000 0.975691 -0.219152
vn 0.000000 0.985274 -0.170980
vn 0.000000 0.963807 -0.266601
vn 0.000000 0.975691 -0.219152
vn 0.000000 0.949554 -0.313603
vn 0.000000 0.963807 -0.266601
vn 0.000000 0.932884 -0.360176
vn 0.000000 0.949554 -0.313603
vn 0.000000 0.932884 -0.360176
vn 0.000000 0.914324 -0.404984
vn 0.000000 0.914324 -0.404984
vn 0.000000 0.893219 -0.449621
vn 0.000000 0.893219 -0.449621
vn 0.000000 0.869983 -0.493081
vn 0.000000 0.869983 -0.493081
vn 0.000000 0.844971 -0.534812
vn 0.000000 0.844971 -0.534812
vn 0.000000 0.817549 -0.575859
vn 0.000000 0.817549 -0.575859
vn 0.000000 0.788357 -0.615218
vn 0.000000 0.788357 -0.615218
vn 0.000000 0.757168 -0.653220
vn 0.000000 0.757168 -0.653220
vn 0.000000 0.724184 -0.689607
vn 0.000000 0.724184 -0.689607
vn 0.000000 0.689699 -0.724096
vn 0.000000 0.689699 -0.724096
vn 0.000000 0.653013 -0.757347
vn 0.000000 0.653013 -0.757347
vn 0.000000 0.615244 -0.788336
vn 0.000000 0.615244 -0.788336
vn 0.000000 0.575729 -0.817640
vn 0.000000 0.575729 -0.817640
vn 0.000000 0.535089 -0.844796
vn 0.000000 0.492787 -0.870150
vn 0.000000 0.535089 -0.844796
vn 0.000000 0.449699 -0.893180
vn 0.000000 0.492787 -0.870150
vn 0.000000 0.405237 -0.914212
vn 0.000000 0.449699 -0.893180
vn 0.000000 0.405237 -0.914212
vn 0.000000 0.359838 -0.933015
vn 0.000000 0.313837 -0.949477
vn 0.000000 0.359838 -0.933015
vn 0.000000 0.266601 -0.963807
vn 0.000000 0.313837 -0.949477
vn 0.000000 0.219152 -0.975691
vn 0.000000 0.266601 -0.963807
vn 0.000000 0.219152 -0.975691
vn 0.000000 0.171013 -0.985269
vn 0.000000 0.171013 -0.985269
vn 0.000000 0.122408 -0.992480
vn 0.000000 0.073621 -0.997286
vn 0.000000 0.122408 -0.992480
vn 0.000000 0.073621 -0.997286
vn 0.000000 0.024487 -0.999700
vn 0.000000 0.024487 -0.999700
vn 0.000000 1.000000 0.000000
vn 0.000000 1.000000 -0.000000
vn -0.000000 0.024681 0.999695
vn 0.000000 0.024681 0.999695
vn 0.000000 0.073428 0.997301
vn -0.000000 0.073428 0.997301
vn 0.000000 0.122408 0.992480
vn -0.000000 0.122408 0.992480
vn 0.000000 0.171013 0.985269
vn -0.000000 0.171013 0.985269
vn 0.000000 0.219152 0.975691
vn -0.000000 0.219152 0.975691
vn 0.000000 0.266601 0.963807
vn -0.000000 0.266601 0.963807
vn 0.000000 0.313837 0.949477
vn -0.000000 0.313837 0.949477
vn 0.000000 0.359838 0.933015
vn -0.000000 0.359838 0.933015
vn -0.000000 0.405237 0.914212
vn 0.000000 0.405237 0.914212
vn -0.000000 0.449699 0.893180
vn 0.000000 0.449699 0.893180
vn -0.000000 0.492787 0.870150
vn 0.000000 0.492787 0.870150
vn -0.000000 0.535089 0.844796
vn 0.000000 0.535089 0.844796
vn 0.000000 0.575729 0.817640
vn 0.000000 0.575729 0.817640
vn 0.000000 0.615244 0.788336
vn 0.000000 0.615244 0.788336
vn 0.000000 0.653013 0.757347
vn 0.000000 0.653013 0.757347
vn 0.000000 0.689699 0.724096
vn 0.000000 0.689699 0.724096
vn 0.000000 0.724184 0.689607
vn 0.000000 0.724184 0.689607
vn 0.000000 0.757168 0.653220
vn 0.000000 0.757168 0.653220
vn 0.000000 0.788357 0.615218
vn 0.000000 0.788357 0.615218
vn 0.000000 0.817549 0.575859
vn 0.000000 0.817549 0.575859
vn 0.000000 0.844971 0.534812
vn 0.000000 0.869983 0.493081
vn 0.000000 0.844971 0.534812
vn 0.000000 0.893219 0.449621
vn 0.000000 0.869983 0.493081
vn 0.000000 0.914356 0.404912
vn 0.000000 0.893219 0.449621
vn 0.000000 0.932859 0.360242
vn 0.000000 0.914356 0.404912
vn 0.000000 0.949554 0.313603
vn 0.000000 0.932859 0.360242
vn 0.000000 0.963821 0.266551
vn 0.000000 0.949554 0.313603
vn 0.000000 0.975682 0.219193
vn 0.000000 0.963821 0.266551
vn 0.000000 0.985274 0.170980
vn 0.000000 0.975682 0.219193
vn 0.000000 0.992480 0.122408
vn 0.000000 0.985274 0.170980
vn 0.000000 0.997299 0.073442
vn 0.000000 0.992480 0.122408
vn 0.000000 0.999700 0.024482
vn 0.000000 0.997299 0.073442
vn 0.000000 0.999700 0.024482
vn -0.000000 0.000000 1.000000
vn 0.000000 0.000000 1.000000
vn 0.000000 -0.999700 0.024482
vn 0.000000 -0.999700 0.024482
vn 0.000000 -0.997299 0.073442
vn 0.000000 -0.997299 0.073442
vn 0.000000 -0.992480 0.122408
vn 0.000000 -0.992480 0.122408
vn 0.000000 -0.985274 0.170980
vn 0.000000 -0.985274 0.170980
vn 0.000000 -0.975682 0.219193
vn 0.000000 -0.975682 0.219193
vn 0.000000 -0.963821 0.266551
vn 0.000000 -0.963821 0.266551
vn 0.000000 -0.949438 0.313954
vn 0.000000 -0.949438 0.313954
vn 0.000000 -0.932990 0.359904
vn 0.000000 -0.932990 0.359904
vn 0.000000 -0.914212 0.405237
vn 0.000000 -0.914212 0.405237
vn 0.000000 -0.893219 0.449621
vn 0.000000 -0.893219 0.449621
vn 0.000000 -0.870150 0.492787
vn 0.000000 -0.870150 0.492787
vn 0.000000 -0.844796 0.535089
vn 0.000000 -0.844796 0.535089
vn 0.000000 -0.817732 0.575599
vn 0.000000 -0.817732 0.575599
vn 0.000000 -0.788169 0.615459
vn 0.000000 -0.788169 0.615459
vn 0.000000 -0.757360 0.652997
vn 0.000000 -0.757360 0.652997
vn 0.000000 -0.724184 0.689607
vn 0.000000 -0.724184 0.689607
vn 0.000000 -0.689505 0.724281
vn 0.000000 -0.689505 0.724281
vn 0.000000 -0.653205 0.757181
vn 0.000000 -0.653205 0.757181
vn 0.000000 -0.615244 0.788336
vn 0.000000 -0.615244 0.788336
vn 0.000000 -0.575729 0.817640
vn 0.000000 -0.575729 0.817640
vn 0.000000 -0.535089 0.844796
vn 0.000000 -0.492787 0.870150
vn 0.000000 -0.535089 0.844796
vn 0.000000 -0.449699 0.893180
vn 0.000000 -0.492787 0.870150
vn 0.000000 -0.405237 0.914212
vn 0.000000 -0.449699 0.893180
vn 0.000000 -0.359838 0.933015
vn 0.000000 -0.405237 0.914212
vn 0.000000 -0.313837 0.949477
vn 0.000000 -0.359838 0.933015
vn 0.000000 -0.266601 0.963807
vn 0.000000 -0.313837 0.949477
vn 0.000000 -0.219152 0.975691
vn 0.000000 -0.266601 0.963807
vn 0.000000 -0.170948 0.985280
vn 0.000000 -0.219152 0.975691
vn 0.000000 -0.122408 0.992480
vn 0.000000 -0.170948 0.985280
vn 0.000000 -0.073457 0.997298
vn 0.000000 -0.122408 0.992480
vn 0.000000 -0.024672 0.999696
vn 0.000000 -0.073457 0.997298
vn 0.000000 -0.024672 0.999696
vn -0.000000 -1.000000 -0.000000
vn 0.000000 -1.000000 0.000000
f 1//1 2//1 3//1
f 1//2 4//2 2//2
f 5//3 1//3 3//3
f 5//4 3//4 6//4
f 4//5 7//5 2//5
f 2//6 7//6 8//6
f 7//7 4//7 9//7
f 4//8 10//8 9//8
f 5//9 11//9 1//9
f 1//10 12//10 4//10
f 4//11 12//11 10//11
f 11//12 12//12 1//12
f 13//13 14//13 11//13
f 14//14 15//14 11//14
f 16//15 17//15 18//15
f 17//16 19//16 18//16
f 17//17 20//17 19//17
f 15//18 21//18 22//18
f 22//19 23//19 15//19
f 15//20 24//20 21//20
f 23//21 25//21 15//21
f 15//22 26//22 24//22
f 25//23 27//23 15//23
f 15//24 28//24 26//24
f 27//25 29//25 15//25
f 15//26 30//26 28//26
f 29//27 31//27 15//27
f 15//28 32//28 30//28
f 31//29 33//29 15//29
f 15//30 34//30 32//30
f 33//31 35//31 15//31
f 15//32 36//32 34//32
f 35//33 37//33 15//33
f 37//34 38//34 15//34
f 15//35 39//35 36//35
f 15//36 40//36 39//36
f 15//37 41//37 11//37
f 38//38 41//38 15//38
f 41//39 42//39 11//39
f 15//40 43//40 40//40
f 15//41 44//41 43//41
f 42//42 45//42 11//42
f 15//43 46//43 44//43
f 45//44 47//44 11//44
f 15//45 48//45 46//45
f 47//46 49//46 11//46
f 15//47 50//47 48//47
f 49//48 51//48 11//48
f 15//49 52//49 50//49
f 51//50 53//50 11//50
f 11//51 54//51 12//51
f 53//52 54//52 11//52
f 54//53 55//53 12//53
f 55//54 56//54 12//54
f 56//55 57//55 12//55
f 57//56 58//56 12//56
f 58//57 59//57 12//57
f 59//58 60//58 12//58
f 60//59 61//59 12//59
f 61//60 62//60 12//60
f 62//61 63//61 12//61
f 63//62 64//62 12//62
f 64//63 65//63 12//63
f 12//64 66//64 20//64
f 65//65 66//65 12//65
f 66//66 67//66 20//66
f 67//67 68//67 20//67
f 68//68 69//68 20//68
f 20//69 69//69 19//69
f 70//70 69//70 71//70
f 71//71 69//71 72//71
f 72//72 69//72 68//72
f 73//73 74//73 15//73
f 15//74 74//74 52//74
f 73//75 75//75 74//75
f 73//76 76//76 75//76
f 73//77 77//77 76//77
f 73//78 78//78 77//78
f 73//79 79//79 78//79
f 73//80 80//80 79//80
f 73//81 81//81 80//81
f 73//82 82//82 81//82
f 73//83 83//83 82//83
f 73//84 84//84 83//84
f 73//85 85//85 84//85
f 73//86 86//86 85//86
f 73//87 87//87 86//87
f 73//88 88//88 87//88
f 89//89 90//89 73//89
f 91//90 92//90 93//90
f 91//91 94//91 92//91
f 93//92 95//92 96//92
f 92//93 95//93 93//93
f 95//94 97//94 96//94
f 91//95 98//95 94//95
f 99//96 98//96 91//96
f 97//97 100//97 96//97
f 96//98 100//98 101//98
f 99//99 102//99 98//99
f 103//100 102//100 99//100
f 100//101 104//101 101//101
f 101//102 104//102 105//102
f 103//103 106//103 102//103
f 107//104 106//104 103//104
f 107//105 108//105 106//105
f 109//106 108//106 107//106
f 104//107 110//107 105//107
f 105//108 110//108 111//108
f 110//109 112//109 111//109
f 109//110 113//110 108//110
f 112//111 114//111 111//111
f 111//112 114//112 115//112
f 109//113 116//113 113//113
f 117//114 116//114 109//114
f 114//115 118//115 115//115
f 115//116 118//116 119//116
f 88//117 120//117 117//117
f 117//118 120//118 116//118
f 88//119 121//119 120//119
f 73//120 121//120 88//120
f 118//121 122//121 119//121
f 119//122 123//122 124//122
f 122//123 123//123 119//123
f 73//124 125//124 121//124
f 124//125 126//125 127//125
f 123//126 126//126 124//126
f 73//127 128//127 125//127
f 126//128 129//128 127//128
f 73//129 130//129 128//129
f 73//130 131//130 130//130
f 127//131 132//131 133//131
f 129//132 132//132 127//132
f 133//133 134//133 135//133
f 132//134 134//134 133//134
f 73//135 136//135 131//135
f 134//136 137//136 135//136
f 73//137 138//137 136//137
f 135//138 139//138 140//138
f 137//139 139//139 135//139
f 73//140 141//140 138//140
f 90//141 142//141 73//141
f 140//142 143//142 144//142
f 144//143 143//143 145//143
f 139//144 143//144 140//144
f 143//145 146//145 145//145
f 145//146 147//146 148//146
f 146//147 147//147 145//147
f 148//148 149//148 150//148
f 147//149 149//149 148//149
f 149//150 151//150 150//150
f 150//151 152//151 153//151
f 151//152 152//152 150//152
f 153//153 154//153 155//153
f 152//154 154//154 153//154
f 154//155 156//155 155//155
f 155//156 157//156 158//156
f 156//157 157//157 155//157
f 158//158 159//158 160//158
f 157//159 159//159 158//159
f 159//160 161//160 160//160
f 160//161 162//161 163//161
f 161//162 162//162 160//162
f 163//163 164//163 165//163
f 162//164 164//164 163//164
f 165//165 166//165 167//165
f 164//166 166//166 165//166
f 166//167 168//167 167//167
f 167//168 169//168 170//168
f 168//169 169//169 167//169
f 169//170 171//170 170//170
f 170//171 171//171 172//171
f 171//172 173//172 172//172
f 172//173 174//173 175//173
f 173//174 174//174 172//174
f 175//175 176//175 177//175
f 174//176 176//176 175//176
f 176//177 178//177 177//177
f 177//178 178//178 179//178
f 178//179 180//179 179//179
f 179//180 180//180 181//180
f 180//181 182//181 181//181
f 182//182 183//182 181//182
f 181//183 183//183 184//183
f 184//184 185//184 186//184
f 183//185 185//185 184//185
f 185//186 187//186 186//186
f 186//187 187//187 188//187
f 188//188 189//188 190//188
f 187//189 189//189 188//189
f 189//190 191//190 190//190
f 190//191 192//191 193//191
f 191//192 192//192 190//192
f 193//193 194//193 195//193
f 192//194 194//194 193//194
f 195//195 196//195 197//195
f 194//196 196//196 195//196
f 197//197 198//197 199//197
f 196//198 198//198 197//198
f 73//199 200//199 141//199
f 142//200 200//200 73//200
f 142//201 201//201 200//201
f 142//202 202//202 201//202
f 142//203 203//203 202//203
f 142//204 204//204 203//204
f 142//205 205//205 204//205
f 142//206 206//206 205//206
f 142//207 207//207 206//207
f 142//208 208//208 207//208
f 142//209 209//209 208//209
f 142//210 210//210 209//210
f 142//211 211//211 210//211
f 142//212 212//212 211//212
f 142//213 213//213 212//213
f 142//214 214//214 213//214
f 142//215 215//215 214//215
f 142//216 216//216 215//216
f 142//217 217//217 216//217
f 142//218 218//218 217//218
f 142//219 219//219 218//219
f 142//220 220//220 219//220
f 142//221 221//221 220//221
f 142//222 222//222 221//222
f 142//223 223//223 222//223
f 142//224 224//224 223//224
f 142//225 225//225 224//225
f 142//226 226//226 225//226
f 69//227 227//227 228//227
f 70//228 227//228 69//228
f 229//229 227//229 230//229
f 230//230 227//230 231//230
f 231//231 227//231 232//231
f 232//232 227//232 233//232
f 233//233 227//233 234//233
f 234//234 227//234 235//234
f 235//235 227//235 236//235
f 236//236 227//236 237//236
f 237//237 227//237 238//237
f 238//238 227//238 239//238
f 239//239 227//239 240//239
f 240//240 227//240 241//240
f 241//241 227//241 242//241
f 242//242 227//242 243//242
f 243//243 227//243 244//243
f 244//244 227//244 70//244
f 227//245 245//245 228//245
f 246//246 247//246 248//246
f 248//247 247//247 249//247
f 249//248 247//248 250//248
f 251//249 247//249 142//249
f 142//250 247//250 226//250
f 226//251 247//251 252//251
f 252//252 247//252 253//252
f 253//253 247//253 246//253
f 254//254 255//254 256//254
f 199//255 257//255 258//255
f 258//256 257//256 259//256
f 259//257 257//257 260//257
f 260//258 257//258 261//258
f 261//259 257//259 262//259
f 262//260 257//260 263//260
f 263//261 257//261 264//261
f 265//262 257//262 266//262
f 198//263 257//263 199//263
f 266//264 257//264 198//264
f 264//265 257//265 229//265
f 229//266 257//266 227//266
f 250//267 267//267 268//267
f 268//268 267//268 269//268
f 269//269 267//269 270//269
f 270//270 267//270 271//270
f 271//271 267//271 272//271
f 272//272 267//272 273//272
f 273//273 267//273 274//273
f 274//274 267//274 275//274
f 275//275 267//275 276//275
f 276//276 267//276 277//276
f 277//277 267//277 278//277
f 278//278 267//278 279//278
f 279//279 267//279 280//279
f 280//280 267//280 281//280
f 281//281 267//281 282//281
f 282//282 267//282 283//282
f 283//283 267//283 284//283
f 284//284 267//284 285//284
f 285//285 267//285 286//285
f 286//286 267//286 287//286
f 287//287 267//287 288//287
f 255//288 267//288 247//288
f 247//289 267//289 250//289
f 254//290 289//290 255//290
f 255//291 289//291 267//291
f 290//292 291//292 292//292
f 292//293 291//293 293//293
f 293//294 291//294 294//294
f 294//295 291//295 265//295
f 265//296 291//296 257//296
f 267//297 295//297 288//297
f 288//298 295//298 296//298
f 296//299 295//299 297//299
f 297//300 295//300 298//300
f 298//301 295//301 299//301
f 299//302 295//302 300//302
f 300//303 295//303 301//303
f 301//304 295//304 302//304
f 302//305 295//305 290//305
f 290//306 295//306 291//306
f 257//307 303//307 304//307
f 291//308 303//308 257//308
f 305//309 306//309 307//309
f 295//310 308//310 291//310
f 305//311 308//311 306//311
f 306//312 308//312 295//312
f 2//313 8//313 309//313
f 310//314 2//314 309//314
f 311//315 6//315 3//315
f 312//316 3//316 2//316
f 312//317 2//317 310//317
f 312//318 311//318 3//318
f 313//319 314//319 315//319
f 313//320 315//320 311//320
f 316//321 317//321 318//321
f 319//322 316//322 318//322
f 320//323 316//323 319//323
f 321//324 313//324 322//324
f 323//325 322//325 313//325
f 324//326 323//326 313//326
f 325//327 313//327 321//327
f 326//328 313//328 325//328
f 327//329 324//329 313//329
f 328//330 327//330 313//330
f 329//331 313//331 326//331
f 330//332 313//332 329//332
f 331//333 328//333 313//333
f 332//334 331//334 313//334
f 333//335 313//335 330//335
f 334//336 313//336 333//336
f 335//337 332//337 313//337
f 336//338 313//338 334//338
f 337//339 335//339 313//339
f 338//340 337//340 313//340
f 339//341 313//341 336//341
f 340//342 313//342 339//342
f 341//343 313//343 311//343
f 341//344 338//344 313//344
f 342//345 313//345 340//345
f 343//346 341//346 311//346
f 344//347 313//347 342//347
f 345//348 343//348 311//348
f 346//349 313//349 344//349
f 347//350 345//350 311//350
f 348//351 313//351 346//351
f 349//352 347//352 311//352
f 350//353 349//353 311//353
f 351//354 313//354 348//354
f 352//355 313//355 351//355
f 353//356 350//356 311//356
f 354//357 353//357 311//357
f 354//358 311//358 312//358
f 355//359 354//359 312//359
f 356//360 355//360 312//360
f 357//361 356//361 312//361
f 358//362 357//362 312//362
f 359//363 358//363 312//363
f 360//364 359//364 312//364
f 361//365 360//365 312//365
f 362//366 361//366 312//366
f 363//367 362//367 312//367
f 364//368 363//368 312//368
f 365//369 364//369 312//369
f 366//370 312//370 320//370
f 366//371 365//371 312//371
f 367//372 366//372 320//372
f 368//373 367//373 320//373
f 369//374 368//374 320//374
f 369//375 370//375 371//375
f 369//376 371//376 372//376
f 369//377 372//377 368//377
f 369//378 320//378 319//378
f 373//379 374//379 313//379
f 373//380 313//380 352//380
f 375//381 374//381 373//381
f 376//382 374//382 375//382
f 377//383 374//383 376//383
f 378//384 374//384 377//384
f 379//385 374//385 378//385
f 380//386 374//386 379//386
f 381//387 374//387 380//387
f 382//388 374//388 381//388
f 383//389 374//389 382//389
f 384//390 374//390 383//390
f 385//391 374//391 384//391
f 386//392 374//392 385//392
f 387//393 374//393 386//393
f 388//394 374//394 387//394
f 389//395 390//395 374//395
f 391//396 392//396 393//396
f 394//397 392//397 391//397
f 395//398 391//398 393//398
f 395//399 393//399 396//399
f 397//400 392//400 394//400
f 397//401 398//401 392//401
f 399//402 395//402 396//402
f 400//403 401//403 398//403
f 400//404 398//404 397//404
f 402//405 396//405 403//405
f 402//406 399//406 396//406
f 404//407 405//407 401//407
f 404//408 401//408 400//408
f 406//409 402//409 403//409
f 406//410 403//410 407//410
f 408//411 409//411 405//411
f 408//412 405//412 404//412
f 410//413 406//413 407//413
f 410//414 407//414 411//414
f 412//415 409//415 408//415
f 413//416 410//416 411//416
f 414//417 415//417 409//417
f 414//418 409//418 412//418
f 416//419 411//419 417//419
f 416//420 413//420 411//420
f 418//421 415//421 414//421
f 418//422 388//422 415//422
f 419//423 416//423 417//423
f 419//424 417//424 420//424
f 421//425 374//425 388//425
f 421//426 388//426 418//426
f 422//427 419//427 420//427
f 423//428 374//428 421//428
f 424//429 420//429 425//429
f 424//430 422//430 420//430
f 426//431 374//431 423//431
f 427//432 424//432 425//432
f 427//433 425//433 428//433
f 429//434 374//434 426//434
f 430//435 427//435 428//435
f 431//436 374//436 429//436
f 432//437 428//437 433//437
f 432//438 430//438 428//438
f 434//439 374//439 431//439
f 435//440 432//440 433//440
f 435//441 433//441 436//441
f 437//442 435//442 436//442
f 438//443 374//443 434//443
f 439//444 437//444 436//444
f 439//445 436//445 440//445
f 439//446 440//446 441//446
f 442//447 374//447 438//447
f 443//448 389//448 374//448
f 444//449 439//449 441//449
f 444//450 441//450 445//450
f 446//451 444//451 445//451
f 447//452 445//452 448//452
f 447//453 446//453 445//453
f 449//454 447//454 448//454
f 449//455 448//455 450//455
f 451//456 449//456 450//456
f 452//457 451//457 450//457
f 452//458 450//458 453//458
f 454//459 453//459 455//459
f 454//460 452//460 453//460
f 456//461 454//461 455//461
f 457//462 455//462 458//462
f 457//463 456//463 455//463
f 459//464 457//464 458//464
f 459//465 458//465 460//465
f 461//466 459//466 460//466
f 462//467 460//467 463//467
f 462//468 461//468 460//468
f 464//469 462//469 463//469
f 464//470 463//470 465//470
f 466//471 465//471 467//471
f 466//472 464//472 465//472
f 468//473 466//473 467//473
f 469//474 468//474 467//474
f 469//475 467//475 470//475
f 471//476 469//476 470//476
f 471//477 470//477 472//477
f 473//478 471//478 472//478
f 474//479 473//479 472//479
f 474//480 472//480 475//480
f 476//481 474//481 475//481
f 476//482 475//482 477//482
f 478//483 477//483 479//483
f 478//484 476//484 477//484
f 480//485 478//485 479//485
f 480//486 479//486 481//486
f 482//487 480//487 481//487
f 483//488 482//488 481//488
f 483//489 481//489 484//489
f 485//490 484//490 486//490
f 485//491 483//491 484//491
f 487//492 485//492 486//492
f 487//493 486//493 488//493
f 489//494 487//494 488//494
f 489//495 488//495 490//495
f 491//496 489//496 490//496
f 492//497 491//497 490//497
f 492//498 490//498 493//498
f 494//499 492//499 493//499
f 494//500 493//500 495//500
f 496//501 494//501 495//501
f 496//502 495//502 497//502
f 498//503 496//503 497//503
f 498//504 497//504 499//504
f 500//505 374//505 442//505
f 500//506 443//506 374//506
f 501//507 443//507 500//507
f 502//508 443//508 501//508
f 503//509 443//509 502//509
f 504//510 443//510 503//510
f 505//511 443//511 504//511
f 506//512 443//512 505//512
f 507//513 443//513 506//513
f 508//514 443//514 507//514
f 509//515 443//515 508//515
f 510//516 443//516 509//516
f 511//517 443//517 510//517
f 512//518 443//518 511//518
f 513//519 443//519 512//519
f 514//520 443//520 513//520
f 515//521 443//521 514//521
f 516//522 443//522 515//522
f 517//523 443//523 516//523
f 518//524 443//524 517//524
f 519//525 443//525 518//525
f 520//526 443//526 519//526
f 521//527 443//527 520//527
f 522//528 443//528 521//528
f 523//529 443//529 522//529
f 524//530 443//530 523//530
f 525//531 443//531 524//531
f 526//532 443//532 525//532
f 527//533 528//533 529//533
f 527//534 529//534 530//534
f 527//535 530//535 531//535
f 527//536 531//536 532//536
f 527//537 532//537 533//537
f 527//538 533//538 534//538
f 527//539 534//539 535//539
f 527//540 369//540 536//540
f 527//541 535//541 537//541
f 527//542 537//542 538//542
f 527//543 538//543 539//543
f 527//544 539//544 540//544
f 527//545 540//545 541//545
f 527//546 541//546 542//546
f 527//547 542//547 543//547
f 527//548 543//548 544//548
f 527//549 544//549 370//549
f 527//550 370//550 369//550
f 545//551 527//551 536//551
f 546//552 547//552 548//552
f 546//553 548//553 549//553
f 546//554 550//554 443//554
f 546//555 443//555 526//555
f 546//556 526//556 551//556
f 546//557 551//557 552//557
f 546//558 552//558 553//558
f 546//559 553//559 547//559
f 554//560 555//560 556//560
f 557//561 558//561 559//561
f 557//562 559//562 560//562
f 557//563 560//563 561//563
f 557//564 561//564 562//564
f 557//565 562//565 563//565
f 557//566 564//566 565//566
f 557//567 565//567 498//567
f 557//568 563//568 528//568
f 557//569 498//569 499//569
f 557//570 528//570 527//570
f 557//571 499//571 566//571
f 557//572 566//572 558//572
f 567//573 554//573 546//573
f 567//574 549//574 568//574
f 567//575 568//575 569//575
f 567//576 569//576 570//576
f 567//577 570//577 571//577
f 567//578 571//578 572//578
f 567//579 572//579 573//579
f 567//580 573//580 574//580
f 567//581 574//581 575//581
f 567//582 546//582 549//582
f 567//583 575//583 576//583
f 567//584 576//584 577//584
f 567//585 577//585 578//585
f 567//586 578//586 579//586
f 567//587 579//587 580//587
f 567//588 580//588 581//588
f 567//589 581//589 582//589
f 567//590 582//590 583//590
f 567//591 583//591 584//591
f 567//592 584//592 585//592
f 567//593 585//593 586//593
f 567//594 586//594 587//594
f 567//595 587//595 588//595
f 589//596 554//596 567//596
f 589//597 555//597 554//597
f 590//598 591//598 592//598
f 590//599 592//599 593//599
f 590//600 593//600 594//600
f 590//601 594//601 564//601
f 590//602 564//602 557//602
f 595//603 567//603 588//603
f 595//604 588//604 596//604
f 595//605 591//605 590//605
f 595//606 596//606 597//606
f 595//607 597//607 598//607
f 595//608 598//608 599//608
f 595//609 599//609 600//609
f 595//610 600//610 601//610
f 595//611 601//611 602//611
f 595//612 602//612 591//612
f 603//613 557//613 604//613
f 603//614 590//614 557//614
f 605//615 606//615 607//615
f 608//616 605//616 595//616
f 608//617 606//617 605//617
f 608//618 595//618 590//618
f 11//619 6//619 311//619
f 11//620 5//620 6//620
f 8//621 7//621 309//621
f 7//622 9//622 309//622
f 315//623 13//623 311//623
f 13//624 11//624 311//624
f 9//625 10//625 309//625
f 309//626 10//626 310//626
f 14//627 13//627 314//627
f 314//628 13//628 315//628
f 10//629 12//629 310//629
f 310//630 12//630 312//630
f 313//631 15//631 314//631
f 15//632 14//632 314//632
f 12//633 20//633 320//633
f 12//634 320//634 312//634
f 73//635 15//635 374//635
f 374//636 15//636 313//636
f 20//637 17//637 320//637
f 320//638 17//638 316//638
f 390//639 89//639 374//639
f 89//640 73//640 374//640
f 17//641 16//641 316//641
f 316//642 16//642 317//642
f 90//643 89//643 389//643
f 389//644 89//644 390//644
f 317//645 16//645 318//645
f 16//646 18//646 318//646
f 142//647 389//647 443//647
f 142//648 90//648 389//648
f 18//649 319//649 318//649
f 18//650 19//650 319//650
f 251//651 443//651 550//651
f 251//652 142//652 443//652
f 19//653 69//653 319//653
f 319//654 69//654 369//654
f 247//655 251//655 546//655
f 546//656 251//656 550//656
f 69//657 536//657 369//657
f 69//658 228//658 536//658
f 255//659 247//659 554//659
f 554//660 247//660 546//660
f 228//661 545//661 536//661
f 228//662 245//662 545//662
f 256//663 255//663 554//663
f 256//664 554//664 556//664
f 245//665 527//665 545//665
f 245//666 227//666 527//666
f 555//667 254//667 556//667
f 254//668 256//668 556//668
f 227//669 257//669 527//669
f 527//670 257//670 557//670
f 289//671 254//671 589//671
f 589//672 254//672 555//672
f 257//673 604//673 557//673
f 257//674 304//674 604//674
f 267//675 589//675 567//675
f 267//676 289//676 589//676
f 304//677 603//677 604//677
f 304//678 303//678 603//678
f 295//679 267//679 595//679
f 595//680 267//680 567//680
f 303//681 590//681 603//681
f 303//682 291//682 590//682
f 306//683 295//683 605//683
f 605//684 295//684 595//684
f 291//685 608//685 590//685
f 291//686 308//686 608//686
f 307//687 306//687 605//687
f 307//688 605//688 607//688
f 308//689 305//689 608//689
f 608//690 305//690 606//690
f 305//691 307//691 606//691
f 606//692 307//692 607//692
f 353//693 53//693 350//693
f 53//694 51//694 350//694
f 350//695 49//695 349//695
f 51//696 49//696 350//696
f 349//697 47//697 347//697
f 49//698 47//698 349//698
f 347//699 45//699 345//699
f 47//700 45//700 347//700
f 345//701 42//701 343//701
f 45//702 42//702 345//702
f 343//703 41//703 341//703
f 42//704 41//704 343//704
f 341//705 38//705 338//705
f 41//706 38//706 341//706
f 338//707 37//707 337//707
f 38//708 37//708 338//708
f 37//709 35//709 337//709
f 337//710 35//710 335//710
f 35//711 33//711 335//711
f 335//712 33//712 332//712
f 33//713 31//713 332//713
f 332//714 31//714 331//714
f 31//715 29//715 331//715
f 331//716 29//716 328//716
f 29//717 27//717 328//717
f 328//718 27//718 327//718
f 27//719 25//719 327//719
f 327//720 25//720 324//720
f 25//721 23//721 324//721
f 324//722 23//722 323//722
f 23//723 22//723 323//723
f 323//724 22//724 322//724
f 22//725 21//725 322//725
f 322//726 21//726 321//726
f 21//727 24//727 321//727
f 321//728 24//728 325//728
f 24//729 26//729 325//729
f 325//730 26//730 326//730
f 26//731 28//731 326//731
f 326//732 28//732 329//732
f 329//733 30//733 330//733
f 28//734 30//734 329//734
f 30//735 32//735 330//735
f 330//736 32//736 333//736
f 333//737 34//737 334//737
f 32//738 34//738 333//738
f 334//739 36//739 336//739
f 34//740 36//740 334//740
f 336//741 39//741 339//741
f 36//742 39//742 336//742
f 339//743 40//743 340//743
f 39//744 40//744 339//744
f 340//745 43//745 342//745
f 40//746 43//746 340//746
f 342//747 44//747 344//747
f 43//748 44//748 342//748
f 344//749 46//749 346//749
f 44//750 46//750 344//750
f 346//751 48//751 348//751
f 46//752 48//752 346//752
f 348//753 50//753 351//753
f 48//754 50//754 348//754
f 50//755 52//755 351//755
f 351//756 52//756 352//756
f 54//757 53//757 354//757
f 354//758 53//758 353//758
f 230//759 231//759 529//759
f 529//760 231//760 530//760
f 530//761 232//761 531//761
f 231//762 232//762 530//762
f 531//763 233//763 532//763
f 232//764 233//764 531//764
f 532//765 234//765 533//765
f 233//766 234//766 532//766
f 533//767 235//767 534//767
f 234//768 235//768 533//768
f 534//769 236//769 535//769
f 235//770 236//770 534//770
f 535//771 237//771 537//771
f 236//772 237//772 535//772
f 537//773 238//773 538//773
f 237//774 238//774 537//774
f 238//775 239//775 538//775
f 538//776 239//776 539//776
f 239//777 240//777 539//777
f 539//778 240//778 540//778
f 240//779 241//779 540//779
f 540//780 241//780 541//780
f 241//781 242//781 541//781
f 541//782 242//782 542//782
f 242//783 243//783 542//783
f 542//784 243//784 543//784
f 243//785 244//785 543//785
f 543//786 244//786 544//786
f 244//787 70//787 544//787
f 544//788 70//788 370//788
f 70//789 71//789 370//789
f 370//790 71//790 371//790
f 71//791 72//791 371//791
f 371//792 72//792 372//792
f 72//793 68//793 372//793
f 372//794 68//794 368//794
f 68//795 67//795 368//795
f 368//796 67//796 367//796
f 67//797 66//797 367//797
f 367//798 66//798 366//798
f 366//799 65//799 365//799
f 66//800 65//800 366//800
f 65//801 64//801 365//801
f 365//802 64//802 364//802
f 364//803 63//803 363//803
f 363//804 63//804 362//804
f 64//805 63//805 364//805
f 63//806 62//806 362//806
f 362//807 61//807 361//807
f 361//808 61//808 360//808
f 62//809 61//809 362//809
f 61//810 60//810 360//810
f 360//811 59//811 359//811
f 60//812 59//812 360//812
f 359//813 58//813 358//813
f 59//814 58//814 359//814
f 358//815 57//815 357//815
f 58//816 57//816 358//816
f 357//817 56//817 356//817
f 57//818 56//818 357//818
f 356//819 55//819 355//819
f 56//820 55//820 356//820
f 355//821 54//821 354//821
f 55//822 54//822 355//822
f 229//823 529//823 528//823
f 229//824 230//824 529//824
f 144//825 145//825 441//825
f 441//826 145//826 445//826
f 445//827 148//827 448//827
f 145//828 148//828 445//828
f 448//829 150//829 450//829
f 450//830 150//830 453//830
f 148//831 150//831 448//831
f 453//832 153//832 455//832
f 150//833 153//833 453//833
f 153//834 155//834 455//834
f 455//835 158//835 458//835
f 458//836 158//836 460//836
f 155//837 158//837 455//837
f 460//838 160//838 463//838
f 158//839 160//839 460//839
f 160//840 163//840 463//840
f 163//841 165//841 463//841
f 463//842 165//842 465//842
f 165//843 167//843 465//843
f 465//844 167//844 467//844
f 167//845 170//845 467//845
f 467//846 170//846 470//846
f 170//847 172//847 470//847
f 470//848 172//848 472//848
f 472//849 172//849 475//849
f 172//850 175//850 475//850
f 175//851 177//851 475//851
f 475//852 177//852 477//852
f 177//853 179//853 477//853
f 477//854 179//854 479//854
f 479//855 179//855 481//855
f 179//856 181//856 481//856
f 181//857 184//857 481//857
f 481//858 184//858 484//858
f 484//859 184//859 486//859
f 184//860 186//860 486//860
f 186//861 188//861 486//861
f 486//862 188//862 488//862
f 188//863 190//863 488//863
f 488//864 190//864 490//864
f 490//865 193//865 493//865
f 190//866 193//866 490//866
f 193//867 195//867 493//867
f 493//868 195//868 495//868
f 495//869 197//869 497//869
f 195//870 197//870 495//870
f 497//871 199//871 499//871
f 499//872 199//872 566//872
f 197//873 199//873 497//873
f 199//874 258//874 566//874
f 566//875 259//875 558//875
f 558//876 259//876 559//876
f 258//877 259//877 566//877
f 259//878 260//878 559//878
f 559//879 261//879 560//879
f 260//880 261//880 559//880
f 560//881 262//881 561//881
f 261//882 262//882 560//882
f 561//883 263//883 562//883
f 262//884 263//884 561//884
f 562//885 264//885 563//885
f 263//886 264//886 562//886
f 563//887 229//887 528//887
f 264//888 229//888 563//888
f 440//889 140//889 441//889
f 140//890 144//890 441//890
f 373//891 74//891 375//891
f 375//892 75//892 376//892
f 74//893 75//893 375//893
f 376//894 76//894 377//894
f 75//895 76//895 376//895
f 377//896 77//896 378//896
f 76//897 77//897 377//897
f 378//898 78//898 379//898
f 77//899 78//899 378//899
f 379//900 79//900 380//900
f 78//901 79//901 379//901
f 380//902 80//902 381//902
f 79//903 80//903 380//903
f 381//904 81//904 382//904
f 80//905 81//905 381//905
f 81//906 82//906 382//906
f 382//907 82//907 383//907
f 82//908 83//908 383//908
f 383//909 83//909 384//909
f 83//910 84//910 384//910
f 384//911 84//911 385//911
f 84//912 85//912 385//912
f 385//913 85//913 386//913
f 85//914 86//914 386//914
f 386//915 86//915 387//915
f 86//916 87//916 387//916
f 387//917 87//917 388//917
f 87//918 88//918 388//918
f 388//919 88//919 415//919
f 88//920 117//920 415//920
f 415//921 117//921 409//921
f 117//922 109//922 409//922
f 109//923 107//923 409//923
f 409//924 107//924 405//924
f 405//925 107//925 401//925
f 107//926 103//926 401//926
f 401//927 103//927 398//927
f 103//928 99//928 398//928
f 398//929 99//929 392//929
f 99//930 91//930 392//930
f 392//931 91//931 393//931
f 393//932 93//932 396//932
f 91//933 93//933 393//933
f 396//934 96//934 403//934
f 93//935 96//935 396//935
f 403//936 101//936 407//936
f 96//937 101//937 403//937
f 407//938 105//938 411//938
f 101//939 105//939 407//939
f 105//940 111//940 411//940
f 411//941 115//941 417//941
f 417//942 115//942 420//942
f 111//943 115//943 411//943
f 420//944 119//944 425//944
f 115//945 119//945 420//945
f 425//946 124//946 428//946
f 119//947 124//947 425//947
f 428//948 127//948 433//948
f 124//949 127//949 428//949
f 433//950 133//950 436//950
f 127//951 133//951 433//951
f 133//952 135//952 436//952
f 436//953 140//953 440//953
f 135//954 140//954 436//954
f 52//955 74//955 352//955
f 352//956 74//956 373//956
f 500//957 200//957 501//957
f 501//958 201//958 502//958
f 200//959 201//959 501//959
f 502//960 202//960 503//960
f 201//961 202//961 502//961
f 503//962 203//962 504//962
f 202//963 203//963 503//963
f 504//964 204//964 505//964
f 203//965 204//965 504//965
f 505//966 205//966 506//966
f 204//967 205//967 505//967
f 506//968 206//968 507//968
f 205//969 206//969 506//969
f 507//970 207//970 508//970
f 206//971 207//971 507//971
f 207//972 208//972 508//972
f 508//973 208//973 509//973
f 208//974 209//974 509//974
f 509//975 209//975 510//975
f 209//976 210//976 510//976
f 510//977 210//977 511//977
f 210//978 211//978 511//978
f 511//979 211//979 512//979
f 211//980 212//980 512//980
f 512//981 212//981 513//981
f 212//982 213//982 513//982
f 513//983 213//983 514//983
f 213//984 214//984 514//984
f 214//985 215//985 514//985
f 514//986 215//986 515//986
f 515//987 215//987 516//987
f 215//988 216//988 516//988
f 216//989 217//989 516//989
f 516//990 217//990 517//990
f 517//991 217//991 518//991
f 217//992 218//992 518//992
f 518//993 218//993 519//993
f 218//994 219//994 519//994
f 219//995 220//995 519//995
f 519//996 220//996 520//996
f 520//997 220//997 521//997
f 521//998 221//998 522//998
f 220//999 221//999 521//999
f 221//1000 222//1000 522//1000
f 522//1001 223//1001 523//1001
f 523//1002 223//1002 524//1002
f 222//1003 223//1003 522//1003
f 223//1004 224//1004 524//1004
f 524//1005 225//1005 525//1005
f 224//1006 225//1006 524//1006
f 525//1007 226//1007 526//1007
f 526//1008 226//1008 551//1008
f 225//1009 226//1009 525//1009
f 551//1010 252//1010 552//1010
f 226//1011 252//1011 551//1011
f 252//1012 253//1012 552//1012
f 552//1013 246//1013 553//1013
f 253//1014 246//1014 552//1014
f 553//1015 248//1015 547//1015
f 547//1016 248//1016 548//1016
f 246//1017 248//1017 553//1017
f 248//1018 249//1018 548//1018
f 548//1019 250//1019 549//1019
f 249//1020 250//1020 548//1020
f 141//1021 200//1021 442//1021
f 442//1022 200//1022 500//1022
f 439//1023 139//1023 437//1023
f 437//1024 137//1024 435//1024
f 139//1025 137//1025 437//1025
f 435//1026 134//1026 432//1026
f 137//1027 134//1027 435//1027
f 432//1028 132//1028 430//1028
f 134//1029 132//1029 432//1029
f 430//1030 129//1030 427//1030
f 132//1031 129//1031 430//1031
f 427//1032 126//1032 424//1032
f 129//1033 126//1033 427//1033
f 424//1034 123//1034 422//1034
f 126//1035 123//1035 424//1035
f 422//1036 122//1036 419//1036
f 123//1037 122//1037 422//1037
f 122//1038 118//1038 419//1038
f 419//1039 118//1039 416//1039
f 118//1040 114//1040 416//1040
f 416//1041 114//1041 413//1041
f 114//1042 112//1042 413//1042
f 413//1043 112//1043 410//1043
f 112//1044 110//1044 410//1044
f 410//1045 110//1045 406//1045
f 110//1046 104//1046 406//1046
f 406//1047 104//1047 402//1047
f 104//1048 100//1048 402//1048
f 402//1049 100//1049 399//1049
f 100//1050 97//1050 399//1050
f 399//1051 97//1051 395//1051
f 97//1052 95//1052 395//1052
f 395//1053 95//1053 391//1053
f 95//1054 92//1054 391//1054
f 92//1055 94//1055 391//1055
f 391//1056 94//1056 394//1056
f 394//1057 94//1057 397//1057
f 94//1058 98//1058 397//1058
f 98//1059 102//1059 397//1059
f 397//1060 102//1060 400//1060
f 400//1061 102//1061 404//1061
f 102//1062 106//1062 404//1062
f 404//1063 106//1063 408//1063
f 408//1064 108//1064 412//1064
f 106//1065 108//1065 408//1065
f 412//1066 113//1066 414//1066
f 108//1067 113//1067 412//1067
f 414//1068 116//1068 418//1068
f 113//1069 116//1069 414//1069
f 116//1070 120//1070 418//1070
f 418//1071 121//1071 421//1071
f 421//1072 121//1072 423//1072
f 120//1073 121//1073 418//1073
f 423//1074 125//1074 426//1074
f 121//1075 125//1075 423//1075
f 426//1076 128//1076 429//1076
f 125//1077 128//1077 426//1077
f 128//1078 130//1078 429//1078
f 429//1079 131//1079 431//1079
f 130//1080 131//1080 429//1080
f 431//1081 136//1081 434//1081
f 434//1082 136//1082 438//1082
f 131//1083 136//1083 431//1083
f 136//1084 138//1084 438//1084
f 438//1085 141//1085 442//1085
f 138//1086 141//1086 438//1086
f 143//1087 139//1087 444//1087
f 444//1088 139//1088 439//1088
f 266//1089 198//1089 565//1089
f 565//1090 198//1090 498//1090
f 498//1091 196//1091 496//1091
f 198//1092 196//1092 498//1092
f 496//1093 194//1093 494//1093
f 196//1094 194//1094 496//1094
f 494//1095 192//1095 492//1095
f 194//1096 192//1096 494//1096
f 492//1097 191//1097 491//1097
f 192//1098 191//1098 492//1098
f 491//1099 189//1099 489//1099
f 191//1100 189//1100 491//1100
f 489//1101 187//1101 487//1101
f 189//1102 187//1102 489//1102
f 487//1103 185//1103 485//1103
f 187//1104 185//1104 487//1104
f 185//1105 183//1105 485//1105
f 485//1106 183//1106 483//1106
f 183//1107 182//1107 483//1107
f 483//1108 182//1108 482//1108
f 182//1109 180//1109 482//1109
f 482//1110 180//1110 480//1110
f 180//1111 178//1111 480//1111
f 480//1112 178//1112 478//1112
f 478//1113 178//1113 476//1113
f 178//1114 176//1114 476//1114
f 476//1115 176//1115 474//1115
f 176//1116 174//1116 474//1116
f 474//1117 174//1117 473//1117
f 174//1118 173//1118 473//1118
f 473//1119 173//1119 471//1119
f 173//1120 171//1120 471//1120
f 471//1121 171//1121 469//1121
f 171//1122 169//1122 469//1122
f 469//1123 169//1123 468//1123
f 169//1124 168//1124 468//1124
f 468//1125 168//1125 466//1125
f 168//1126 166//1126 466//1126
f 466//1127 166//1127 464//1127
f 166//1128 164//1128 464//1128
f 464//1129 164//1129 462//1129
f 462//1130 162//1130 461//1130
f 164//1131 162//1131 462//1131
f 461//1132 161//1132 459//1132
f 162//1133 161//1133 461//1133
f 459//1134 159//1134 457//1134
f 161//1135 159//1135 459//1135
f 457//1136 157//1136 456//1136
f 159//1137 157//1137 457//1137
f 456//1138 156//1138 454//1138
f 157//1139 156//1139 456//1139
f 454//1140 154//1140 452//1140
f 156//1141 154//1141 454//1141
f 452//1142 152//1142 451//1142
f 154//1143 152//1143 452//1143
f 451//1144 151//1144 449//1144
f 152//1145 151//1145 451//1145
f 449//1146 149//1146 447//1146
f 151//1147 149//1147 449//1147
f 447//1148 147//1148 446//1148
f 149//1149 147//1149 447//1149
f 446//1150 146//1150 444//1150
f 147//1151 146//1151 446//1151
f 146//1152 143//1152 444//1152
f 265//1153 565//1153 564//1153
f 265//1154 266//1154 565//1154
f 268//1155 269//1155 568//1155
f 568//1156 269//1156 569//1156
f 569//1157 270//1157 570//1157
f 269//1158 270//1158 569//1158
f 570//1159 271//1159 571//1159
f 270//1160 271//1160 570//1160
f 571//1161 272//1161 572//1161
f 271//1162 272//1162 571//1162
f 572//1163 273//1163 573//1163
f 272//1164 273//1164 572//1164
f 573//1165 274//1165 574//1165
f 273//1166 274//1166 573//1166
f 574//1167 275//1167 575//1167
f 274//1168 275//1168 574//1168
f 575//1169 276//1169 576//1169
f 275//1170 276//1170 575//1170
f 276//1171 277//1171 576//1171
f 576//1172 277//1172 577//1172
f 277//1173 278//1173 577//1173
f 577//1174 278//1174 578//1174
f 278//1175 279//1175 578//1175
f 578//1176 279//1176 579//1176
f 279//1177 280//1177 579//1177
f 579//1178 280//1178 580//1178
f 280//1179 281//1179 580//1179
f 580//1180 281//1180 581//1180
f 281//1181 282//1181 581//1181
f 581//1182 282//1182 582//1182
f 282//1183 283//1183 582//1183
f 582//1184 283//1184 583//1184
f 583//1185 283//1185 584//1185
f 283//1186 284//1186 584//1186
f 284//1187 285//1187 584//1187
f 584//1188 285//1188 585//1188
f 585//1189 285//1189 586//1189
f 285//1190 286//1190 586//1190
f 586//1191 286//1191 587//1191
f 286//1192 287//1192 587//1192
f 287//1193 288//1193 587//1193
f 587//1194 288//1194 588//1194
f 588//1195 288//1195 596//1195
f 596//1196 296//1196 597//1196
f 288//1197 296//1197 596//1197
f 597//1198 297//1198 598//1198
f 296//1199 297//1199 597//1199
f 598//1200 298//1200 599//1200
f 297//1201 298//1201 598//1201
f 599//1202 299//1202 600//1202
f 298//1203 299//1203 599//1203
f 600//1204 300//1204 601//1204
f 299//1205 300//1205 600//1205
f 601//1206 301//1206 602//1206
f 300//1207 301//1207 601//1207
f 602//1208 302//1208 591//1208
f 301//1209 302//1209 602//1209
f 591//1210 290//1210 592//1210
f 302//1211 290//1211 591//1211
f 592//1212 292//1212 593//1212
f 290//1213 292//1213 592//1213
f 593//1214 293//1214 594//1214
f 292//1215 293//1215 593//1215
f 594//1216 294//1216 564//1216
f 293//1217 294//1217 594//1217
f 294//1218 265//1218 564//1218
f 549//1219 250//1219 568//1219
f 250//1220 268//1220 568//1220
