%TF.GenerationSoftware,KiCad,Pcbnew,9.0.5*%
%TF.CreationDate,2026-03-04T16:47:02+01:00*%
%TF.ProjectId,Goalfinder,476f616c-6669-46e6-9465-722e6b696361,01.04 SMD*%
%TF.SameCoordinates,Original*%
%TF.FileFunction,Copper,L1,Top*%
%TF.FilePolarity,Positive*%
%FSLAX46Y46*%
G04 Gerber Fmt 4.6, Leading zero omitted, Abs format (unit mm)*
G04 Created by KiCad (PCBNEW 9.0.5) date 2026-03-04 16:47:02*
%MOMM*%
%LPD*%
G01*
G04 APERTURE LIST*
G04 Aperture macros list*
%AMRoundRect*
0 Rectangle with rounded corners*
0 $1 Rounding radius*
0 $2 $3 $4 $5 $6 $7 $8 $9 X,Y pos of 4 corners*
0 Add a 4 corners polygon primitive as box body*
4,1,4,$2,$3,$4,$5,$6,$7,$8,$9,$2,$3,0*
0 Add four circle primitives for the rounded corners*
1,1,$1+$1,$2,$3*
1,1,$1+$1,$4,$5*
1,1,$1+$1,$6,$7*
1,1,$1+$1,$8,$9*
0 Add four rect primitives between the rounded corners*
20,1,$1+$1,$2,$3,$4,$5,0*
20,1,$1+$1,$4,$5,$6,$7,0*
20,1,$1+$1,$6,$7,$8,$9,0*
20,1,$1+$1,$8,$9,$2,$3,0*%
G04 Aperture macros list end*
%TA.AperFunction,EtchedComponent*%
%ADD10C,0.150000*%
%TD*%
%TA.AperFunction,ComponentPad*%
%ADD11R,1.700000X1.700000*%
%TD*%
%TA.AperFunction,ComponentPad*%
%ADD12O,1.700000X1.700000*%
%TD*%
%TA.AperFunction,ComponentPad*%
%ADD13RoundRect,0.250000X0.750000X-0.600000X0.750000X0.600000X-0.750000X0.600000X-0.750000X-0.600000X0*%
%TD*%
%TA.AperFunction,ComponentPad*%
%ADD14O,2.000000X1.700000*%
%TD*%
%TA.AperFunction,ComponentPad*%
%ADD15R,1.600000X1.600000*%
%TD*%
%TA.AperFunction,ComponentPad*%
%ADD16C,1.600000*%
%TD*%
%TA.AperFunction,ComponentPad*%
%ADD17C,1.800000*%
%TD*%
%TA.AperFunction,Conductor*%
%ADD18C,0.400000*%
%TD*%
G04 APERTURE END LIST*
D10*
%TO.C,MH3*%
X180871815Y-102015000D02*
X180037500Y-102015000D01*
X181437500Y-101449315D02*
X181437500Y-100615000D01*
X181437500Y-102580685D02*
X181437500Y-103415000D01*
X182003185Y-102015000D02*
X182837500Y-102015000D01*
X182003185Y-102015000D02*
G75*
G02*
X180871815Y-102015000I-565685J0D01*
G01*
X180871815Y-102015000D02*
G75*
G02*
X182003185Y-102015000I565685J0D01*
G01*
%TO.C,MH4*%
X117871815Y-102015000D02*
X117037500Y-102015000D01*
X118437500Y-101449315D02*
X118437500Y-100615000D01*
X118437500Y-102580685D02*
X118437500Y-103415000D01*
X119003185Y-102015000D02*
X119837500Y-102015000D01*
X119003185Y-102015000D02*
G75*
G02*
X117871815Y-102015000I-565685J0D01*
G01*
X117871815Y-102015000D02*
G75*
G02*
X119003185Y-102015000I565685J0D01*
G01*
%TO.C,MH1*%
X117871815Y-78015000D02*
X117037500Y-78015000D01*
X118437500Y-77449315D02*
X118437500Y-76615000D01*
X118437500Y-78580685D02*
X118437500Y-79415000D01*
X119003185Y-78015000D02*
X119837500Y-78015000D01*
X119003185Y-78015000D02*
G75*
G02*
X117871815Y-78015000I-565685J0D01*
G01*
X117871815Y-78015000D02*
G75*
G02*
X119003185Y-78015000I565685J0D01*
G01*
%TO.C,MH2*%
X180871815Y-78015000D02*
X180037500Y-78015000D01*
X181437500Y-77449315D02*
X181437500Y-76615000D01*
X181437500Y-78580685D02*
X181437500Y-79415000D01*
X182003185Y-78015000D02*
X182837500Y-78015000D01*
X182003185Y-78015000D02*
G75*
G02*
X180871815Y-78015000I-565685J0D01*
G01*
X180871815Y-78015000D02*
G75*
G02*
X182003185Y-78015000I565685J0D01*
G01*
%TD*%
D11*
%TO.P,U5,1,VCC*%
%TO.N,3V3*%
X130177500Y-77627000D03*
D12*
%TO.P,U5,2,GND*%
%TO.N,GND*%
X130177500Y-80167000D03*
%TO.P,U5,3,SCL/SPC*%
%TO.N,Net-(J7-Pin_2)*%
X130177500Y-82707000D03*
%TO.P,U5,4,SDA/SDI/SDO*%
%TO.N,Net-(J7-Pin_3)*%
X130177500Y-85247000D03*
%TO.P,U5,6,CS*%
%TO.N,Net-(J7-Pin_4)*%
X130177500Y-90327000D03*
%TO.P,U5,7,INT1*%
%TO.N,Net-(J7-Pin_5)*%
X130177500Y-92867000D03*
%TD*%
D11*
%TO.P,J2,1,Pin_1*%
%TO.N,5V*%
X117731500Y-84760500D03*
D12*
%TO.P,J2,2,Pin_2*%
%TO.N,Net-(J1-Pin_2)*%
X120271500Y-84760500D03*
%TO.P,J2,3,Pin_3*%
%TO.N,Net-(J1-Pin_3)*%
X122811500Y-84760500D03*
%TO.P,J2,4,Pin_4*%
%TO.N,GND*%
X125351500Y-84760500D03*
%TD*%
D13*
%TO.P,J4,1,Pin_1*%
%TO.N,5V*%
X117985500Y-71277000D03*
D14*
%TO.P,J4,2,Pin_2*%
%TO.N,/LED_PWR*%
X117985500Y-68777000D03*
%TD*%
D11*
%TO.P,J1,1,Pin_1*%
%TO.N,5V*%
X117731500Y-89332500D03*
D12*
%TO.P,J1,2,Pin_2*%
%TO.N,Net-(J1-Pin_2)*%
X120271500Y-89332500D03*
%TO.P,J1,3,Pin_3*%
%TO.N,Net-(J1-Pin_3)*%
X122811500Y-89332500D03*
%TO.P,J1,4,Pin_4*%
%TO.N,GND*%
X125351500Y-89332500D03*
%TD*%
D11*
%TO.P,J6,1,Pin_1*%
%TO.N,3V3*%
X132717500Y-70007000D03*
D12*
%TO.P,J6,2,Pin_2*%
%TO.N,Net-(J6-Pin_2)*%
X135257500Y-70007000D03*
%TO.P,J6,3,Pin_3*%
%TO.N,Net-(J6-Pin_3)*%
X137797500Y-70007000D03*
%TO.P,J6,4,Pin_4*%
%TO.N,GND*%
X140337500Y-70007000D03*
%TD*%
D11*
%TO.P,U3,1,LRCLK*%
%TO.N,Net-(U1-IO_05{slash}SS)*%
X174881500Y-82453000D03*
D12*
%TO.P,U3,2,BCLK*%
%TO.N,Net-(U1-IO_23{slash}MOSI)*%
X174881500Y-84993000D03*
%TO.P,U3,3,DIN*%
%TO.N,Net-(U1-IO_19{slash}MISO)*%
X174881500Y-87533000D03*
%TO.P,U3,4,GAIN_SLOT*%
%TO.N,Net-(U3-GAIN_SLOT)*%
X174881500Y-90073000D03*
%TO.P,U3,5,~{SD_MODE}*%
%TO.N,Net-(U1-IO_18{slash}CLK)*%
X174881500Y-92613000D03*
%TO.P,U3,6,GND*%
%TO.N,GND*%
X174881500Y-95153000D03*
%TO.P,U3,7,VDD*%
%TO.N,5V*%
X174881500Y-97693000D03*
%TD*%
D15*
%TO.P,C1,1*%
%TO.N,5V*%
X124843500Y-94391000D03*
D16*
%TO.P,C1,2*%
%TO.N,GND*%
X124843500Y-96391000D03*
%TD*%
D15*
%TO.P,C2,1*%
%TO.N,5V*%
X118747500Y-94391000D03*
D16*
%TO.P,C2,2*%
%TO.N,GND*%
X118747500Y-96391000D03*
%TD*%
D11*
%TO.P,J5,1,Pin_1*%
%TO.N,3V3*%
X174119500Y-67467000D03*
D12*
%TO.P,J5,2,Pin_2*%
%TO.N,Net-(J5-Pin_2)*%
X174119500Y-70007000D03*
%TO.P,J5,3,Pin_3*%
%TO.N,GND*%
X174119500Y-72547000D03*
%TD*%
D17*
%TO.P,U1,1,GND*%
%TO.N,GND*%
X170817500Y-104043000D03*
%TO.P,U1,8,IO_18/CLK*%
%TO.N,Net-(U1-IO_18{slash}CLK)*%
X168277500Y-96423000D03*
%TO.P,U1,10,IO_19/MISO*%
%TO.N,Net-(U1-IO_19{slash}MISO)*%
X168277500Y-93883000D03*
%TO.P,U1,12,IO_23/MOSI*%
%TO.N,Net-(U1-IO_23{slash}MOSI)*%
X168277500Y-91343000D03*
%TO.P,U1,14,IO_05/SS*%
%TO.N,Net-(U1-IO_05{slash}SS)*%
X168277500Y-88803000D03*
%TO.P,U1,16,3V3*%
%TO.N,3V3*%
X168277500Y-86263000D03*
%TO.P,U1,18,IO_13/TCK*%
%TO.N,Net-(J5-Pin_2)*%
X168277500Y-83723000D03*
%TO.P,U1,20,SD3*%
%TO.N,unconnected-(U1-SD3-Pad20)*%
X168277500Y-81183000D03*
%TO.P,U1,22,GND*%
%TO.N,GND*%
X142877500Y-104043000D03*
%TO.P,U1,25,IO_22/SCL_1*%
%TO.N,Net-(J6-Pin_3)*%
X145417500Y-98963000D03*
%TO.P,U1,27,IO_21/SDA_1*%
%TO.N,Net-(J6-Pin_2)*%
X145417500Y-96423000D03*
%TO.P,U1,29,IO_17/U2_TXC*%
%TO.N,Net-(U1-IO_17{slash}U2_TXC)*%
X145417500Y-93883000D03*
%TO.P,U1,30,IO_12/TDI*%
%TO.N,Net-(J7-Pin_5)*%
X142877500Y-93883000D03*
%TO.P,U1,31,IO_16/U2_RX*%
%TO.N,Net-(J7-Pin_2)*%
X145417500Y-91343000D03*
%TO.P,U1,32,IO_04*%
%TO.N,Net-(J7-Pin_3)*%
X142877500Y-91343000D03*
%TO.P,U1,33,GND*%
%TO.N,GND*%
X145417500Y-88803000D03*
%TO.P,U1,39,SD0*%
%TO.N,unconnected-(U1-SD0-Pad39)*%
X145417500Y-81183000D03*
%TO.P,U1,40,CLK*%
%TO.N,unconnected-(U1-CLK-Pad40)*%
X142877500Y-81183000D03*
%TD*%
D11*
%TO.P,U2,1,VCC*%
%TO.N,3V3*%
X143789500Y-71785000D03*
D12*
%TO.P,U2,2,GND*%
%TO.N,GND*%
X146329500Y-71785000D03*
%TO.P,U2,3,SDA*%
%TO.N,Net-(J6-Pin_2)*%
X148869500Y-71785000D03*
%TO.P,U2,4,SCL*%
%TO.N,Net-(J6-Pin_3)*%
X151409500Y-71785000D03*
%TO.P,U2,5,XSHUT*%
%TO.N,unconnected-(U2-XSHUT-Pad5)*%
X153949500Y-71785000D03*
%TO.P,U2,6,GPIO1*%
%TO.N,unconnected-(U2-GPIO1-Pad6)*%
X156489500Y-71785000D03*
%TD*%
D18*
%TO.N,GND*%
X146941500Y-104043000D02*
X142877500Y-104043000D01*
X148211500Y-102773000D02*
X146941500Y-104043000D01*
X145417500Y-88803000D02*
X147195500Y-88803000D01*
X148211500Y-89819000D02*
X148211500Y-102773000D01*
X147195500Y-88803000D02*
X148211500Y-89819000D01*
%TD*%
M02*
