<?xml version='1.0' encoding='UTF-8' standalone='no'?>
<svg xmlns:svg="http://www.w3.org/2000/svg" xmlns:rdf="http://www.w3.org/1999/02/22-rdf-syntax-ns#" width="297mm" xmlns:dc="http://purl.org/dc/elements/1.1/" height="210mm" xmlns:xlink="http://www.w3.org/1999/xlink" version="1.2" baseProfile="tiny" xmlns:freecad="https://www.freecad.org/wiki/index.php?title=Svg_Namespace" xmlns:cc="http://creativecommons.org/ns#" viewBox="0 0 2970 2100" xmlns="http://www.w3.org/2000/svg" xmlns:inkscape="http://www.inkscape.org/namespaces/inkscape" xmlns:sodipodi="http://sodipodi.sourceforge.net/DTD/sodipodi-0.dtd">
 <title>FreeCAD SVG Export</title>
 <desc>Drawing page: Page015 exported from FreeCAD document: LeoIoT_Goalfinder_Case</desc>
 <defs/>
 <g id="Page015" inkscape:groupmode="layer" inkscape:label="TechDraw">
  <g id="A4_Landscape_ISO7200TD21.svg" transform="scale(10.000000, 10.000000)" style="stroke: none;">
   <!-- Working space 10 10 287 200 -->
   <!-- Title block 107 162 287 200 -->
   <g>
    <rect id="drawing-border" width="277" x="10" height="180" style="fill:none;stroke:#000000;stroke-width:0.35;stroke-linecap:miter;stroke-miterlimit:4" y="20"/>
    <!-- width-20, height-20 -->
    <g transform="translate(87,-65)">
     <!-- A4 Portrait based for other formats width-210, height-297 -->
     <!--        page       rect   translation
                     w    h    rw   rh   tx   ty
              A4-P  210  297  180  277    0    0
              A3-L  420  297  390  277  210    0
              A2-L  594  420  564  400  384  123
              A1-L  841  594  811  574  631  297
              A0-L 1189  841 1159  821  979  544
      -->
     <g id="titleblock-structure" style="fill:none;stroke:#000000;stroke-width:0.35;stroke-linecap:miter;stroke-miterlimit:4">
      <rect width="180" x="20" height="38" y="227"/>
      <path d="m 20,238 h 180"/>
      <path d="m 80,227 v 11"/>
      <path d="m 140,227 v 38"/>
      <path d="m 160,227 v 11"/>
      <path d="m 180,227 v 11"/>
      <path d="m 140,254 h 60"/>
      <path d="m 180,254 v 11"/>
     </g>
     <g id="titleblock-text-non-editable" style="font-size:3px;text-anchor:start;fill:#000000;font-family:osifont">
      <text x="21" y="230.5">Created by:</text>
      <text x="81" y="230.5">Title:</text>
      <text x="21" y="241.5">Supplementary information:</text>
      <text x="141" y="230.5">Size:</text>
      <text x="161" y="230.5">Sheet:</text>
      <text x="181" y="230.5">Scale:</text>
      <text x="141" y="241.5">Part number:</text>
      <text x="141" y="249.5">Drawing no.:</text>
      <text x="141" y="257.5">Date:</text>
      <text x="181" y="257.5">Revision:</text>
     </g>
     <!-- Set display:none to hide FreeCAD Logo -->
     <g id="freecad-logo" transform="translate(128.5,254)" style="display:inline" stroke="#000" stroke-width="0.35" fill="none" fill-rule="evenodd">
      <path d="m0.1524 0.15254v8.8549h1.9744v-3.4652h1.396v-1.3661h-1.396v-1.4745h3.4391v-2.5441l-5.4135-0.005z"/>
      <path d="m7.7927 3.4504-0.50715-0.176-0.48387-1.2366-0.76115 0.04-0.34718 1.2787-0.4859 0.23269-1.2119-0.53015-0.51188 0.56882 0.65892 1.1485-0.18006 0.50567-1.2366 0.48387 0.044064 0.76263 1.2787 0.34718 0.23269 0.4859-0.53421 1.2104 0.56882 0.51188 1.1485-0.65891 0.50973 0.18155 0.4798 1.2351 0.7667-0.04258 0.34311-1.2802 0.4859-0.23269 1.2145 0.5357 0.51188-0.56882-0.65891-1.1485 0.17748-0.51122 1.2351-0.4798-0.03851-0.76521-1.2802-0.34311-0.23269-0.4859 0.53163-1.216-0.56881-0.51184zm-0.5715 1.2244 0.23576 0.13679 0.20426 0.18519 0.16353 0.22101 0.11763 0.24572 0.06916 0.26489 0.01146 0.27146-0.03921 0.27139-0.08948 0.25764-0.14234 0.23834-0.17964 0.20167-0.22101 0.16353-0.24572 0.11763-0.26489 0.06916-0.27295 0.01553-0.2719-0.04-0.2576-0.089-0.2383-0.143-0.2002-0.183-0.165-0.217-0.1177-0.246-0.0676-0.269-0.0156-0.273 0.039206-0.2714 0.089484-0.25764 0.14085-0.23427 0.18113-0.20574 0.22101-0.16352 0.24572-0.11763 0.26895-0.06768 0.27147-0.01146 0.27139 0.03921 0.25764 0.08948z"/>
     </g>
    </g>
   </g>
   <g id="titleblock-text-editable" style="font-size:5px;text-anchor:start;fill:#000000;font-family:osifont">
    <text freecad:editable="AUTHOR_NAME" x="108" y="171">
     <tspan xml:space="preserve">HTL Leonding</tspan>
    </text>
    <text freecad:editable="DRAWING_TITLE" x="168" y="171">
     <tspan xml:space="preserve">LeoIoT - Goalfinder</tspan>
    </text>
    <text freecad:editable="SI-1" x="108" y="182">
     <tspan xml:space="preserve">Case for LeoIoT "Goalfinder r1.4" hardware</tspan>
    </text>
    <text freecad:editable="FreeCAD_DRAWING" x="108" y="189">
     <tspan xml:space="preserve">Material: 4mm PMMA (acrylic glass)</tspan>
    </text>
    <text freecad:editable="SI-3" x="108" y="196">
     <tspan xml:space="preserve"/>
    </text>
    <text freecad:editable="FC-SI" x="233" y="171">
     <tspan xml:space="preserve">A4</tspan>
    </text>
    <text freecad:editable="FC-SH" x="251" y="171">
     <tspan xml:space="preserve">8/9</tspan>
    </text>
    <text freecad:editable="FC-SC" x="271" y="171">
     <tspan xml:space="preserve">1 : 1</tspan>
    </text>
    <text freecad:editable="PN" x="231" y="181">
     <tspan xml:space="preserve">Front Wall</tspan>
    </text>
    <text freecad:editable="DN" x="231" y="189">
     <tspan xml:space="preserve">01</tspan>
    </text>
    <text freecad:editable="FC-DATE" x="231" y="197">
     <tspan xml:space="preserve">17/10/2025</tspan>
    </text>
    <text freecad:editable="FC-REV" x="269" y="197">
     <tspan xml:space="preserve">r 01.10</tspan>
    </text>
   </g>
   <!-- DrawingContent -->
  </g>
  <g id="DrawingContent" stroke="black" stroke-width="1" fill="none" stroke-linecap="square" fill-rule="evenodd" stroke-linejoin="bevel">
   <g transform="matrix(1,0,0,1,1485,1050)" fill-opacity="1" stroke="none" font-size="29.1042" font-weight="400" fill="#f1f3f5" font-family="MS Shell Dlg 2" font-style="normal">
    <path d="M562,185 L600,185 L600,37 L518,37 L518,-111 L562,-111 L562,-37 L600,-37 L600,-185 L368,-185 L368,-225 L224,-225 L224,-185 L72,-185 L72,-225 L-72,-225 L-72,-185 L-224,-185 L-224,-225 L-368,-225 L-368,-185 L-600,-185 L-600,-37 L-562,-37 L-562,-111 L-518,-111 L-518,37 L-600,37 L-600,185 L-562,185 L-562,111 L-518,111 L-518,185 L-368,185 L-368,225 L-224,225 L-224,185 L-72,185 L-72,225 L72,225 L72,185 L224,185 L224,225 L368,225 L368,185 L518,185 L518,111 L562,111 L562,185" vector-effect="non-scaling-stroke" fill-rule="evenodd"/>
   </g>
   <g transform="matrix(1,0,0,1,1485,1050)" fill-opacity="1" stroke="none" font-size="29.1042" font-weight="400" fill="#f1f3f5" font-family="MS Shell Dlg 2" font-style="normal">
    <path d="M60,65 C60,98.1371 33.1371,125 -8.88178e-12,125 C-33.1371,125 -60,98.1371 -60,65 C-60,31.8629 -33.1371,5 -8.88178e-12,5 C33.1371,5 60,31.8629 60,65 " vector-effect="non-scaling-stroke" fill-rule="evenodd"/>
   </g>
   <g stroke-opacity="1" transform="matrix(1,0,0,1,1485,1050)" stroke="#212529" font-size="29.1042" stroke-width="7" font-weight="400" fill="none" stroke-linecap="round" font-family="MS Shell Dlg 2" font-style="normal" stroke-linejoin="bevel">
    <path d="M562,185 L600,185" vector-effect="none" fill-rule="evenodd"/>
   </g>
   <g stroke-opacity="1" transform="matrix(1,0,0,1,1485,1050)" stroke="#212529" font-size="29.1042" stroke-width="7" font-weight="400" fill="none" stroke-linecap="round" font-family="MS Shell Dlg 2" font-style="normal" stroke-linejoin="bevel">
    <path d="M600,185 L600,37" vector-effect="none" fill-rule="evenodd"/>
   </g>
   <g stroke-opacity="1" transform="matrix(1,0,0,1,1485,1050)" stroke="#212529" font-size="29.1042" stroke-width="7" font-weight="400" fill="none" stroke-linecap="round" font-family="MS Shell Dlg 2" font-style="normal" stroke-linejoin="bevel">
    <path d="M600,37 L518,37" vector-effect="none" fill-rule="evenodd"/>
   </g>
   <g stroke-opacity="1" transform="matrix(1,0,0,1,1485,1050)" stroke="#212529" font-size="29.1042" stroke-width="7" font-weight="400" fill="none" stroke-linecap="round" font-family="MS Shell Dlg 2" font-style="normal" stroke-linejoin="bevel">
    <path d="M518,-111 L518,37" vector-effect="none" fill-rule="evenodd"/>
   </g>
   <g stroke-opacity="1" transform="matrix(1,0,0,1,1485,1050)" stroke="#212529" font-size="29.1042" stroke-width="7" font-weight="400" fill="none" stroke-linecap="round" font-family="MS Shell Dlg 2" font-style="normal" stroke-linejoin="bevel">
    <path d="M562,-111 L518,-111" vector-effect="none" fill-rule="evenodd"/>
   </g>
   <g stroke-opacity="1" transform="matrix(1,0,0,1,1485,1050)" stroke="#212529" font-size="29.1042" stroke-width="7" font-weight="400" fill="none" stroke-linecap="round" font-family="MS Shell Dlg 2" font-style="normal" stroke-linejoin="bevel">
    <path d="M562,-37 L562,-111" vector-effect="none" fill-rule="evenodd"/>
   </g>
   <g stroke-opacity="1" transform="matrix(1,0,0,1,1485,1050)" stroke="#212529" font-size="29.1042" stroke-width="7" font-weight="400" fill="none" stroke-linecap="round" font-family="MS Shell Dlg 2" font-style="normal" stroke-linejoin="bevel">
    <path d="M562,-37 L600,-37" vector-effect="none" fill-rule="evenodd"/>
   </g>
   <g stroke-opacity="1" transform="matrix(1,0,0,1,1485,1050)" stroke="#212529" font-size="29.1042" stroke-width="7" font-weight="400" fill="none" stroke-linecap="round" font-family="MS Shell Dlg 2" font-style="normal" stroke-linejoin="bevel">
    <path d="M600,-37 L600,-185" vector-effect="none" fill-rule="evenodd"/>
   </g>
   <g stroke-opacity="1" transform="matrix(1,0,0,1,1485,1050)" stroke="#212529" font-size="29.1042" stroke-width="7" font-weight="400" fill="none" stroke-linecap="round" font-family="MS Shell Dlg 2" font-style="normal" stroke-linejoin="bevel">
    <path d="M600,-185 L368,-185" vector-effect="none" fill-rule="evenodd"/>
   </g>
   <g stroke-opacity="1" transform="matrix(1,0,0,1,1485,1050)" stroke="#212529" font-size="29.1042" stroke-width="7" font-weight="400" fill="none" stroke-linecap="round" font-family="MS Shell Dlg 2" font-style="normal" stroke-linejoin="bevel">
    <path d="M368,-185 L368,-225" vector-effect="none" fill-rule="evenodd"/>
   </g>
   <g stroke-opacity="1" transform="matrix(1,0,0,1,1485,1050)" stroke="#212529" font-size="29.1042" stroke-width="7" font-weight="400" fill="none" stroke-linecap="round" font-family="MS Shell Dlg 2" font-style="normal" stroke-linejoin="bevel">
    <path d="M368,-225 L224,-225" vector-effect="none" fill-rule="evenodd"/>
   </g>
   <g stroke-opacity="1" transform="matrix(1,0,0,1,1485,1050)" stroke="#212529" font-size="29.1042" stroke-width="7" font-weight="400" fill="none" stroke-linecap="round" font-family="MS Shell Dlg 2" font-style="normal" stroke-linejoin="bevel">
    <path d="M224,-225 L224,-185" vector-effect="none" fill-rule="evenodd"/>
   </g>
   <g stroke-opacity="1" transform="matrix(1,0,0,1,1485,1050)" stroke="#212529" font-size="29.1042" stroke-width="7" font-weight="400" fill="none" stroke-linecap="round" font-family="MS Shell Dlg 2" font-style="normal" stroke-linejoin="bevel">
    <path d="M224,-185 L72,-185" vector-effect="none" fill-rule="evenodd"/>
   </g>
   <g stroke-opacity="1" transform="matrix(1,0,0,1,1485,1050)" stroke="#212529" font-size="29.1042" stroke-width="7" font-weight="400" fill="none" stroke-linecap="round" font-family="MS Shell Dlg 2" font-style="normal" stroke-linejoin="bevel">
    <path d="M72,-185 L72,-225" vector-effect="none" fill-rule="evenodd"/>
   </g>
   <g stroke-opacity="1" transform="matrix(1,0,0,1,1485,1050)" stroke="#212529" font-size="29.1042" stroke-width="7" font-weight="400" fill="none" stroke-linecap="round" font-family="MS Shell Dlg 2" font-style="normal" stroke-linejoin="bevel">
    <path d="M72,-225 L-72,-225" vector-effect="none" fill-rule="evenodd"/>
   </g>
   <g stroke-opacity="1" transform="matrix(1,0,0,1,1485,1050)" stroke="#212529" font-size="29.1042" stroke-width="7" font-weight="400" fill="none" stroke-linecap="round" font-family="MS Shell Dlg 2" font-style="normal" stroke-linejoin="bevel">
    <path d="M-72,-225 L-72,-185" vector-effect="none" fill-rule="evenodd"/>
   </g>
   <g stroke-opacity="1" transform="matrix(1,0,0,1,1485,1050)" stroke="#212529" font-size="29.1042" stroke-width="7" font-weight="400" fill="none" stroke-linecap="round" font-family="MS Shell Dlg 2" font-style="normal" stroke-linejoin="bevel">
    <path d="M-72,-185 L-224,-185" vector-effect="none" fill-rule="evenodd"/>
   </g>
   <g stroke-opacity="1" transform="matrix(1,0,0,1,1485,1050)" stroke="#212529" font-size="29.1042" stroke-width="7" font-weight="400" fill="none" stroke-linecap="round" font-family="MS Shell Dlg 2" font-style="normal" stroke-linejoin="bevel">
    <path d="M-224,-185 L-224,-225" vector-effect="none" fill-rule="evenodd"/>
   </g>
   <g stroke-opacity="1" transform="matrix(1,0,0,1,1485,1050)" stroke="#212529" font-size="29.1042" stroke-width="7" font-weight="400" fill="none" stroke-linecap="round" font-family="MS Shell Dlg 2" font-style="normal" stroke-linejoin="bevel">
    <path d="M-224,-225 L-368,-225" vector-effect="none" fill-rule="evenodd"/>
   </g>
   <g stroke-opacity="1" transform="matrix(1,0,0,1,1485,1050)" stroke="#212529" font-size="29.1042" stroke-width="7" font-weight="400" fill="none" stroke-linecap="round" font-family="MS Shell Dlg 2" font-style="normal" stroke-linejoin="bevel">
    <path d="M-368,-225 L-368,-185" vector-effect="none" fill-rule="evenodd"/>
   </g>
   <g stroke-opacity="1" transform="matrix(1,0,0,1,1485,1050)" stroke="#212529" font-size="29.1042" stroke-width="7" font-weight="400" fill="none" stroke-linecap="round" font-family="MS Shell Dlg 2" font-style="normal" stroke-linejoin="bevel">
    <path d="M-368,-185 L-600,-185" vector-effect="none" fill-rule="evenodd"/>
   </g>
   <g stroke-opacity="1" transform="matrix(1,0,0,1,1485,1050)" stroke="#212529" font-size="29.1042" stroke-width="7" font-weight="400" fill="none" stroke-linecap="round" font-family="MS Shell Dlg 2" font-style="normal" stroke-linejoin="bevel">
    <path d="M-600,-185 L-600,-37" vector-effect="none" fill-rule="evenodd"/>
   </g>
   <g stroke-opacity="1" transform="matrix(1,0,0,1,1485,1050)" stroke="#212529" font-size="29.1042" stroke-width="7" font-weight="400" fill="none" stroke-linecap="round" font-family="MS Shell Dlg 2" font-style="normal" stroke-linejoin="bevel">
    <path d="M-600,-37 L-562,-37" vector-effect="none" fill-rule="evenodd"/>
   </g>
   <g stroke-opacity="1" transform="matrix(1,0,0,1,1485,1050)" stroke="#212529" font-size="29.1042" stroke-width="7" font-weight="400" fill="none" stroke-linecap="round" font-family="MS Shell Dlg 2" font-style="normal" stroke-linejoin="bevel">
    <path d="M-562,-37 L-562,-111" vector-effect="none" fill-rule="evenodd"/>
   </g>
   <g stroke-opacity="1" transform="matrix(1,0,0,1,1485,1050)" stroke="#212529" font-size="29.1042" stroke-width="7" font-weight="400" fill="none" stroke-linecap="round" font-family="MS Shell Dlg 2" font-style="normal" stroke-linejoin="bevel">
    <path d="M-562,-111 L-518,-111" vector-effect="none" fill-rule="evenodd"/>
   </g>
   <g stroke-opacity="1" transform="matrix(1,0,0,1,1485,1050)" stroke="#212529" font-size="29.1042" stroke-width="7" font-weight="400" fill="none" stroke-linecap="round" font-family="MS Shell Dlg 2" font-style="normal" stroke-linejoin="bevel">
    <path d="M-518,-111 L-518,37" vector-effect="none" fill-rule="evenodd"/>
   </g>
   <g stroke-opacity="1" transform="matrix(1,0,0,1,1485,1050)" stroke="#212529" font-size="29.1042" stroke-width="7" font-weight="400" fill="none" stroke-linecap="round" font-family="MS Shell Dlg 2" font-style="normal" stroke-linejoin="bevel">
    <path d="M-518,37 L-600,37" vector-effect="none" fill-rule="evenodd"/>
   </g>
   <g stroke-opacity="1" transform="matrix(1,0,0,1,1485,1050)" stroke="#212529" font-size="29.1042" stroke-width="7" font-weight="400" fill="none" stroke-linecap="round" font-family="MS Shell Dlg 2" font-style="normal" stroke-linejoin="bevel">
    <path d="M-600,37 L-600,185" vector-effect="none" fill-rule="evenodd"/>
   </g>
   <g stroke-opacity="1" transform="matrix(1,0,0,1,1485,1050)" stroke="#212529" font-size="29.1042" stroke-width="7" font-weight="400" fill="none" stroke-linecap="round" font-family="MS Shell Dlg 2" font-style="normal" stroke-linejoin="bevel">
    <path d="M-562,185 L-600,185" vector-effect="none" fill-rule="evenodd"/>
   </g>
   <g stroke-opacity="1" transform="matrix(1,0,0,1,1485,1050)" stroke="#212529" font-size="29.1042" stroke-width="7" font-weight="400" fill="none" stroke-linecap="round" font-family="MS Shell Dlg 2" font-style="normal" stroke-linejoin="bevel">
    <path d="M-562,185 L-562,111" vector-effect="none" fill-rule="evenodd"/>
   </g>
   <g stroke-opacity="1" transform="matrix(1,0,0,1,1485,1050)" stroke="#212529" font-size="29.1042" stroke-width="7" font-weight="400" fill="none" stroke-linecap="round" font-family="MS Shell Dlg 2" font-style="normal" stroke-linejoin="bevel">
    <path d="M-518,111 L-562,111" vector-effect="none" fill-rule="evenodd"/>
   </g>
   <g stroke-opacity="1" transform="matrix(1,0,0,1,1485,1050)" stroke="#212529" font-size="29.1042" stroke-width="7" font-weight="400" fill="none" stroke-linecap="round" font-family="MS Shell Dlg 2" font-style="normal" stroke-linejoin="bevel">
    <path d="M-518,185 L-518,111" vector-effect="none" fill-rule="evenodd"/>
   </g>
   <g stroke-opacity="1" transform="matrix(1,0,0,1,1485,1050)" stroke="#212529" font-size="29.1042" stroke-width="7" font-weight="400" fill="none" stroke-linecap="round" font-family="MS Shell Dlg 2" font-style="normal" stroke-linejoin="bevel">
    <path d="M562,185 L562,111" vector-effect="none" fill-rule="evenodd"/>
   </g>
   <g stroke-opacity="1" transform="matrix(1,0,0,1,1485,1050)" stroke="#212529" font-size="29.1042" stroke-width="7" font-weight="400" fill="none" stroke-linecap="round" font-family="MS Shell Dlg 2" font-style="normal" stroke-linejoin="bevel">
    <path d="M518,185 L518,111" vector-effect="none" fill-rule="evenodd"/>
   </g>
   <g stroke-opacity="1" transform="matrix(1,0,0,1,1485,1050)" stroke="#212529" font-size="29.1042" stroke-width="7" font-weight="400" fill="none" stroke-linecap="round" font-family="MS Shell Dlg 2" font-style="normal" stroke-linejoin="bevel">
    <path d="M562,111 L518,111" vector-effect="none" fill-rule="evenodd"/>
   </g>
   <g stroke-opacity="1" transform="matrix(1,0,0,1,1485,1050)" stroke="#212529" font-size="29.1042" stroke-width="7" font-weight="400" fill="none" stroke-linecap="round" font-family="MS Shell Dlg 2" font-style="normal" stroke-linejoin="bevel">
    <path d="M-368,185 L-368,225" vector-effect="none" fill-rule="evenodd"/>
   </g>
   <g stroke-opacity="1" transform="matrix(1,0,0,1,1485,1050)" stroke="#212529" font-size="29.1042" stroke-width="7" font-weight="400" fill="none" stroke-linecap="round" font-family="MS Shell Dlg 2" font-style="normal" stroke-linejoin="bevel">
    <path d="M-224,225 L-368,225" vector-effect="none" fill-rule="evenodd"/>
   </g>
   <g stroke-opacity="1" transform="matrix(1,0,0,1,1485,1050)" stroke="#212529" font-size="29.1042" stroke-width="7" font-weight="400" fill="none" stroke-linecap="round" font-family="MS Shell Dlg 2" font-style="normal" stroke-linejoin="bevel">
    <path d="M-224,225 L-224,185" vector-effect="none" fill-rule="evenodd"/>
   </g>
   <g stroke-opacity="1" transform="matrix(1,0,0,1,1485,1050)" stroke="#212529" font-size="29.1042" stroke-width="7" font-weight="400" fill="none" stroke-linecap="round" font-family="MS Shell Dlg 2" font-style="normal" stroke-linejoin="bevel">
    <path d="M-72,185 L-72,225" vector-effect="none" fill-rule="evenodd"/>
   </g>
   <g stroke-opacity="1" transform="matrix(1,0,0,1,1485,1050)" stroke="#212529" font-size="29.1042" stroke-width="7" font-weight="400" fill="none" stroke-linecap="round" font-family="MS Shell Dlg 2" font-style="normal" stroke-linejoin="bevel">
    <path d="M72,225 L-72,225" vector-effect="none" fill-rule="evenodd"/>
   </g>
   <g stroke-opacity="1" transform="matrix(1,0,0,1,1485,1050)" stroke="#212529" font-size="29.1042" stroke-width="7" font-weight="400" fill="none" stroke-linecap="round" font-family="MS Shell Dlg 2" font-style="normal" stroke-linejoin="bevel">
    <path d="M72,225 L72,185" vector-effect="none" fill-rule="evenodd"/>
   </g>
   <g stroke-opacity="1" transform="matrix(1,0,0,1,1485,1050)" stroke="#212529" font-size="29.1042" stroke-width="7" font-weight="400" fill="none" stroke-linecap="round" font-family="MS Shell Dlg 2" font-style="normal" stroke-linejoin="bevel">
    <path d="M224,185 L224,225" vector-effect="none" fill-rule="evenodd"/>
   </g>
   <g stroke-opacity="1" transform="matrix(1,0,0,1,1485,1050)" stroke="#212529" font-size="29.1042" stroke-width="7" font-weight="400" fill="none" stroke-linecap="round" font-family="MS Shell Dlg 2" font-style="normal" stroke-linejoin="bevel">
    <path d="M368,225 L224,225" vector-effect="none" fill-rule="evenodd"/>
   </g>
   <g stroke-opacity="1" transform="matrix(1,0,0,1,1485,1050)" stroke="#212529" font-size="29.1042" stroke-width="7" font-weight="400" fill="none" stroke-linecap="round" font-family="MS Shell Dlg 2" font-style="normal" stroke-linejoin="bevel">
    <path d="M368,225 L368,185" vector-effect="none" fill-rule="evenodd"/>
   </g>
   <g stroke-opacity="1" transform="matrix(1,0,0,1,1485,1050)" stroke="#212529" font-size="29.1042" stroke-width="7" font-weight="400" fill="none" stroke-linecap="round" font-family="MS Shell Dlg 2" font-style="normal" stroke-linejoin="bevel">
    <path d="M60,65 C60,98.1371 33.1371,125 -8.88178e-12,125 C-33.1371,125 -60,98.1371 -60,65 C-60,31.8629 -33.1371,5 -8.88178e-12,5 C33.1371,5 60,31.8629 60,65 " vector-effect="none" fill-rule="evenodd"/>
   </g>
   <g stroke-opacity="1" transform="matrix(1,0,0,1,1485,1050)" stroke="#212529" font-size="29.1042" stroke-width="7" font-weight="400" fill="none" stroke-linecap="round" font-family="MS Shell Dlg 2" font-style="normal" stroke-linejoin="bevel">
    <path d="M-368,185 L-518,185" vector-effect="none" fill-rule="evenodd"/>
   </g>
   <g stroke-opacity="1" transform="matrix(1,0,0,1,1485,1050)" stroke="#212529" font-size="29.1042" stroke-width="7" font-weight="400" fill="none" stroke-linecap="round" font-family="MS Shell Dlg 2" font-style="normal" stroke-linejoin="bevel">
    <path d="M-72,185 L-224,185" vector-effect="none" fill-rule="evenodd"/>
   </g>
   <g stroke-opacity="1" transform="matrix(1,0,0,1,1485,1050)" stroke="#212529" font-size="29.1042" stroke-width="7" font-weight="400" fill="none" stroke-linecap="round" font-family="MS Shell Dlg 2" font-style="normal" stroke-linejoin="bevel">
    <path d="M224,185 L72,185" vector-effect="none" fill-rule="evenodd"/>
   </g>
   <g stroke-opacity="1" transform="matrix(1,0,0,1,1485,1050)" stroke="#212529" font-size="29.1042" stroke-width="7" font-weight="400" fill="none" stroke-linecap="round" font-family="MS Shell Dlg 2" font-style="normal" stroke-linejoin="bevel">
    <path d="M518,185 L368,185" vector-effect="none" fill-rule="evenodd"/>
   </g>
   <g stroke-opacity="1" transform="matrix(1,0,0,1,1485,1050)" stroke-dasharray="42,10.5" stroke="#212529" font-size="29.1042" stroke-width="3.5" font-weight="400" fill="none" stroke-linecap="round" font-family="MS Shell Dlg 2" font-style="normal" stroke-dashoffset="0" stroke-linejoin="bevel">
    <path d="M562,185 L600,185" vector-effect="none" fill-rule="evenodd"/>
   </g>
   <g stroke-opacity="1" transform="matrix(1,0,0,1,1485,1050)" stroke-dasharray="42,10.5" stroke="#212529" font-size="29.1042" stroke-width="3.5" font-weight="400" fill="none" stroke-linecap="round" font-family="MS Shell Dlg 2" font-style="normal" stroke-dashoffset="0" stroke-linejoin="bevel">
    <path d="M600,185 L600,37" vector-effect="none" fill-rule="evenodd"/>
   </g>
   <g stroke-opacity="1" transform="matrix(1,0,0,1,1485,1050)" stroke-dasharray="42,10.5" stroke="#212529" font-size="29.1042" stroke-width="3.5" font-weight="400" fill="none" stroke-linecap="round" font-family="MS Shell Dlg 2" font-style="normal" stroke-dashoffset="0" stroke-linejoin="bevel">
    <path d="M600,37 L518,37" vector-effect="none" fill-rule="evenodd"/>
   </g>
   <g stroke-opacity="1" transform="matrix(1,0,0,1,1485,1050)" stroke-dasharray="42,10.5" stroke="#212529" font-size="29.1042" stroke-width="3.5" font-weight="400" fill="none" stroke-linecap="round" font-family="MS Shell Dlg 2" font-style="normal" stroke-dashoffset="0" stroke-linejoin="bevel">
    <path d="M518,-111 L518,37" vector-effect="none" fill-rule="evenodd"/>
   </g>
   <g stroke-opacity="1" transform="matrix(1,0,0,1,1485,1050)" stroke-dasharray="42,10.5" stroke="#212529" font-size="29.1042" stroke-width="3.5" font-weight="400" fill="none" stroke-linecap="round" font-family="MS Shell Dlg 2" font-style="normal" stroke-dashoffset="0" stroke-linejoin="bevel">
    <path d="M562,-111 L518,-111" vector-effect="none" fill-rule="evenodd"/>
   </g>
   <g stroke-opacity="1" transform="matrix(1,0,0,1,1485,1050)" stroke-dasharray="42,10.5" stroke="#212529" font-size="29.1042" stroke-width="3.5" font-weight="400" fill="none" stroke-linecap="round" font-family="MS Shell Dlg 2" font-style="normal" stroke-dashoffset="0" stroke-linejoin="bevel">
    <path d="M562,-37 L562,-111" vector-effect="none" fill-rule="evenodd"/>
   </g>
   <g stroke-opacity="1" transform="matrix(1,0,0,1,1485,1050)" stroke-dasharray="42,10.5" stroke="#212529" font-size="29.1042" stroke-width="3.5" font-weight="400" fill="none" stroke-linecap="round" font-family="MS Shell Dlg 2" font-style="normal" stroke-dashoffset="0" stroke-linejoin="bevel">
    <path d="M562,-37 L600,-37" vector-effect="none" fill-rule="evenodd"/>
   </g>
   <g stroke-opacity="1" transform="matrix(1,0,0,1,1485,1050)" stroke-dasharray="42,10.5" stroke="#212529" font-size="29.1042" stroke-width="3.5" font-weight="400" fill="none" stroke-linecap="round" font-family="MS Shell Dlg 2" font-style="normal" stroke-dashoffset="0" stroke-linejoin="bevel">
    <path d="M600,-37 L600,-185" vector-effect="none" fill-rule="evenodd"/>
   </g>
   <g stroke-opacity="1" transform="matrix(1,0,0,1,1485,1050)" stroke-dasharray="42,10.5" stroke="#212529" font-size="29.1042" stroke-width="3.5" font-weight="400" fill="none" stroke-linecap="round" font-family="MS Shell Dlg 2" font-style="normal" stroke-dashoffset="0" stroke-linejoin="bevel">
    <path d="M600,-185 L368,-185" vector-effect="none" fill-rule="evenodd"/>
   </g>
   <g stroke-opacity="1" transform="matrix(1,0,0,1,1485,1050)" stroke-dasharray="42,10.5" stroke="#212529" font-size="29.1042" stroke-width="3.5" font-weight="400" fill="none" stroke-linecap="round" font-family="MS Shell Dlg 2" font-style="normal" stroke-dashoffset="0" stroke-linejoin="bevel">
    <path d="M368,-185 L368,-225" vector-effect="none" fill-rule="evenodd"/>
   </g>
   <g stroke-opacity="1" transform="matrix(1,0,0,1,1485,1050)" stroke-dasharray="42,10.5" stroke="#212529" font-size="29.1042" stroke-width="3.5" font-weight="400" fill="none" stroke-linecap="round" font-family="MS Shell Dlg 2" font-style="normal" stroke-dashoffset="0" stroke-linejoin="bevel">
    <path d="M368,-225 L224,-225" vector-effect="none" fill-rule="evenodd"/>
   </g>
   <g stroke-opacity="1" transform="matrix(1,0,0,1,1485,1050)" stroke-dasharray="42,10.5" stroke="#212529" font-size="29.1042" stroke-width="3.5" font-weight="400" fill="none" stroke-linecap="round" font-family="MS Shell Dlg 2" font-style="normal" stroke-dashoffset="0" stroke-linejoin="bevel">
    <path d="M224,-225 L224,-185" vector-effect="none" fill-rule="evenodd"/>
   </g>
   <g stroke-opacity="1" transform="matrix(1,0,0,1,1485,1050)" stroke-dasharray="42,10.5" stroke="#212529" font-size="29.1042" stroke-width="3.5" font-weight="400" fill="none" stroke-linecap="round" font-family="MS Shell Dlg 2" font-style="normal" stroke-dashoffset="0" stroke-linejoin="bevel">
    <path d="M224,-185 L72,-185" vector-effect="none" fill-rule="evenodd"/>
   </g>
   <g stroke-opacity="1" transform="matrix(1,0,0,1,1485,1050)" stroke-dasharray="42,10.5" stroke="#212529" font-size="29.1042" stroke-width="3.5" font-weight="400" fill="none" stroke-linecap="round" font-family="MS Shell Dlg 2" font-style="normal" stroke-dashoffset="0" stroke-linejoin="bevel">
    <path d="M72,-185 L72,-225" vector-effect="none" fill-rule="evenodd"/>
   </g>
   <g stroke-opacity="1" transform="matrix(1,0,0,1,1485,1050)" stroke-dasharray="42,10.5" stroke="#212529" font-size="29.1042" stroke-width="3.5" font-weight="400" fill="none" stroke-linecap="round" font-family="MS Shell Dlg 2" font-style="normal" stroke-dashoffset="0" stroke-linejoin="bevel">
    <path d="M72,-225 L-72,-225" vector-effect="none" fill-rule="evenodd"/>
   </g>
   <g stroke-opacity="1" transform="matrix(1,0,0,1,1485,1050)" stroke-dasharray="42,10.5" stroke="#212529" font-size="29.1042" stroke-width="3.5" font-weight="400" fill="none" stroke-linecap="round" font-family="MS Shell Dlg 2" font-style="normal" stroke-dashoffset="0" stroke-linejoin="bevel">
    <path d="M-72,-225 L-72,-185" vector-effect="none" fill-rule="evenodd"/>
   </g>
   <g stroke-opacity="1" transform="matrix(1,0,0,1,1485,1050)" stroke-dasharray="42,10.5" stroke="#212529" font-size="29.1042" stroke-width="3.5" font-weight="400" fill="none" stroke-linecap="round" font-family="MS Shell Dlg 2" font-style="normal" stroke-dashoffset="0" stroke-linejoin="bevel">
    <path d="M-72,-185 L-224,-185" vector-effect="none" fill-rule="evenodd"/>
   </g>
   <g stroke-opacity="1" transform="matrix(1,0,0,1,1485,1050)" stroke-dasharray="42,10.5" stroke="#212529" font-size="29.1042" stroke-width="3.5" font-weight="400" fill="none" stroke-linecap="round" font-family="MS Shell Dlg 2" font-style="normal" stroke-dashoffset="0" stroke-linejoin="bevel">
    <path d="M-224,-185 L-224,-225" vector-effect="none" fill-rule="evenodd"/>
   </g>
   <g stroke-opacity="1" transform="matrix(1,0,0,1,1485,1050)" stroke-dasharray="42,10.5" stroke="#212529" font-size="29.1042" stroke-width="3.5" font-weight="400" fill="none" stroke-linecap="round" font-family="MS Shell Dlg 2" font-style="normal" stroke-dashoffset="0" stroke-linejoin="bevel">
    <path d="M-224,-225 L-368,-225" vector-effect="none" fill-rule="evenodd"/>
   </g>
   <g stroke-opacity="1" transform="matrix(1,0,0,1,1485,1050)" stroke-dasharray="42,10.5" stroke="#212529" font-size="29.1042" stroke-width="3.5" font-weight="400" fill="none" stroke-linecap="round" font-family="MS Shell Dlg 2" font-style="normal" stroke-dashoffset="0" stroke-linejoin="bevel">
    <path d="M-368,-225 L-368,-185" vector-effect="none" fill-rule="evenodd"/>
   </g>
   <g stroke-opacity="1" transform="matrix(1,0,0,1,1485,1050)" stroke-dasharray="42,10.5" stroke="#212529" font-size="29.1042" stroke-width="3.5" font-weight="400" fill="none" stroke-linecap="round" font-family="MS Shell Dlg 2" font-style="normal" stroke-dashoffset="0" stroke-linejoin="bevel">
    <path d="M-368,-185 L-600,-185" vector-effect="none" fill-rule="evenodd"/>
   </g>
   <g stroke-opacity="1" transform="matrix(1,0,0,1,1485,1050)" stroke-dasharray="42,10.5" stroke="#212529" font-size="29.1042" stroke-width="3.5" font-weight="400" fill="none" stroke-linecap="round" font-family="MS Shell Dlg 2" font-style="normal" stroke-dashoffset="0" stroke-linejoin="bevel">
    <path d="M-600,-185 L-600,-37" vector-effect="none" fill-rule="evenodd"/>
   </g>
   <g stroke-opacity="1" transform="matrix(1,0,0,1,1485,1050)" stroke-dasharray="42,10.5" stroke="#212529" font-size="29.1042" stroke-width="3.5" font-weight="400" fill="none" stroke-linecap="round" font-family="MS Shell Dlg 2" font-style="normal" stroke-dashoffset="0" stroke-linejoin="bevel">
    <path d="M-600,-37 L-562,-37" vector-effect="none" fill-rule="evenodd"/>
   </g>
   <g stroke-opacity="1" transform="matrix(1,0,0,1,1485,1050)" stroke-dasharray="42,10.5" stroke="#212529" font-size="29.1042" stroke-width="3.5" font-weight="400" fill="none" stroke-linecap="round" font-family="MS Shell Dlg 2" font-style="normal" stroke-dashoffset="0" stroke-linejoin="bevel">
    <path d="M-562,-37 L-562,-111" vector-effect="none" fill-rule="evenodd"/>
   </g>
   <g stroke-opacity="1" transform="matrix(1,0,0,1,1485,1050)" stroke-dasharray="42,10.5" stroke="#212529" font-size="29.1042" stroke-width="3.5" font-weight="400" fill="none" stroke-linecap="round" font-family="MS Shell Dlg 2" font-style="normal" stroke-dashoffset="0" stroke-linejoin="bevel">
    <path d="M-562,-111 L-518,-111" vector-effect="none" fill-rule="evenodd"/>
   </g>
   <g stroke-opacity="1" transform="matrix(1,0,0,1,1485,1050)" stroke-dasharray="42,10.5" stroke="#212529" font-size="29.1042" stroke-width="3.5" font-weight="400" fill="none" stroke-linecap="round" font-family="MS Shell Dlg 2" font-style="normal" stroke-dashoffset="0" stroke-linejoin="bevel">
    <path d="M-518,-111 L-518,37" vector-effect="none" fill-rule="evenodd"/>
   </g>
   <g stroke-opacity="1" transform="matrix(1,0,0,1,1485,1050)" stroke-dasharray="42,10.5" stroke="#212529" font-size="29.1042" stroke-width="3.5" font-weight="400" fill="none" stroke-linecap="round" font-family="MS Shell Dlg 2" font-style="normal" stroke-dashoffset="0" stroke-linejoin="bevel">
    <path d="M-518,37 L-600,37" vector-effect="none" fill-rule="evenodd"/>
   </g>
   <g stroke-opacity="1" transform="matrix(1,0,0,1,1485,1050)" stroke-dasharray="42,10.5" stroke="#212529" font-size="29.1042" stroke-width="3.5" font-weight="400" fill="none" stroke-linecap="round" font-family="MS Shell Dlg 2" font-style="normal" stroke-dashoffset="0" stroke-linejoin="bevel">
    <path d="M-600,37 L-600,185" vector-effect="none" fill-rule="evenodd"/>
   </g>
   <g stroke-opacity="1" transform="matrix(1,0,0,1,1485,1050)" stroke-dasharray="42,10.5" stroke="#212529" font-size="29.1042" stroke-width="3.5" font-weight="400" fill="none" stroke-linecap="round" font-family="MS Shell Dlg 2" font-style="normal" stroke-dashoffset="0" stroke-linejoin="bevel">
    <path d="M-562,185 L-600,185" vector-effect="none" fill-rule="evenodd"/>
   </g>
   <g stroke-opacity="1" transform="matrix(1,0,0,1,1485,1050)" stroke-dasharray="42,10.5" stroke="#212529" font-size="29.1042" stroke-width="3.5" font-weight="400" fill="none" stroke-linecap="round" font-family="MS Shell Dlg 2" font-style="normal" stroke-dashoffset="0" stroke-linejoin="bevel">
    <path d="M-562,185 L-562,111" vector-effect="none" fill-rule="evenodd"/>
   </g>
   <g stroke-opacity="1" transform="matrix(1,0,0,1,1485,1050)" stroke-dasharray="42,10.5" stroke="#212529" font-size="29.1042" stroke-width="3.5" font-weight="400" fill="none" stroke-linecap="round" font-family="MS Shell Dlg 2" font-style="normal" stroke-dashoffset="0" stroke-linejoin="bevel">
    <path d="M-518,111 L-562,111" vector-effect="none" fill-rule="evenodd"/>
   </g>
   <g stroke-opacity="1" transform="matrix(1,0,0,1,1485,1050)" stroke-dasharray="42,10.5" stroke="#212529" font-size="29.1042" stroke-width="3.5" font-weight="400" fill="none" stroke-linecap="round" font-family="MS Shell Dlg 2" font-style="normal" stroke-dashoffset="0" stroke-linejoin="bevel">
    <path d="M-518,185 L-518,111" vector-effect="none" fill-rule="evenodd"/>
   </g>
   <g stroke-opacity="1" transform="matrix(1,0,0,1,1485,1050)" stroke-dasharray="42,10.5" stroke="#212529" font-size="29.1042" stroke-width="3.5" font-weight="400" fill="none" stroke-linecap="round" font-family="MS Shell Dlg 2" font-style="normal" stroke-dashoffset="0" stroke-linejoin="bevel">
    <path d="M562,185 L562,111" vector-effect="none" fill-rule="evenodd"/>
   </g>
   <g stroke-opacity="1" transform="matrix(1,0,0,1,1485,1050)" stroke-dasharray="42,10.5" stroke="#212529" font-size="29.1042" stroke-width="3.5" font-weight="400" fill="none" stroke-linecap="round" font-family="MS Shell Dlg 2" font-style="normal" stroke-dashoffset="0" stroke-linejoin="bevel">
    <path d="M518,185 L518,111" vector-effect="none" fill-rule="evenodd"/>
   </g>
   <g stroke-opacity="1" transform="matrix(1,0,0,1,1485,1050)" stroke-dasharray="42,10.5" stroke="#212529" font-size="29.1042" stroke-width="3.5" font-weight="400" fill="none" stroke-linecap="round" font-family="MS Shell Dlg 2" font-style="normal" stroke-dashoffset="0" stroke-linejoin="bevel">
    <path d="M562,111 L518,111" vector-effect="none" fill-rule="evenodd"/>
   </g>
   <g stroke-opacity="1" transform="matrix(1,0,0,1,1485,1050)" stroke-dasharray="42,10.5" stroke="#212529" font-size="29.1042" stroke-width="3.5" font-weight="400" fill="none" stroke-linecap="round" font-family="MS Shell Dlg 2" font-style="normal" stroke-dashoffset="0" stroke-linejoin="bevel">
    <path d="M-368,185 L-518,185" vector-effect="none" fill-rule="evenodd"/>
   </g>
   <g stroke-opacity="1" transform="matrix(1,0,0,1,1485,1050)" stroke-dasharray="42,10.5" stroke="#212529" font-size="29.1042" stroke-width="3.5" font-weight="400" fill="none" stroke-linecap="round" font-family="MS Shell Dlg 2" font-style="normal" stroke-dashoffset="0" stroke-linejoin="bevel">
    <path d="M-368,185 L-368,225" vector-effect="none" fill-rule="evenodd"/>
   </g>
   <g stroke-opacity="1" transform="matrix(1,0,0,1,1485,1050)" stroke-dasharray="42,10.5" stroke="#212529" font-size="29.1042" stroke-width="3.5" font-weight="400" fill="none" stroke-linecap="round" font-family="MS Shell Dlg 2" font-style="normal" stroke-dashoffset="0" stroke-linejoin="bevel">
    <path d="M-224,225 L-368,225" vector-effect="none" fill-rule="evenodd"/>
   </g>
   <g stroke-opacity="1" transform="matrix(1,0,0,1,1485,1050)" stroke-dasharray="42,10.5" stroke="#212529" font-size="29.1042" stroke-width="3.5" font-weight="400" fill="none" stroke-linecap="round" font-family="MS Shell Dlg 2" font-style="normal" stroke-dashoffset="0" stroke-linejoin="bevel">
    <path d="M-224,225 L-224,185" vector-effect="none" fill-rule="evenodd"/>
   </g>
   <g stroke-opacity="1" transform="matrix(1,0,0,1,1485,1050)" stroke-dasharray="42,10.5" stroke="#212529" font-size="29.1042" stroke-width="3.5" font-weight="400" fill="none" stroke-linecap="round" font-family="MS Shell Dlg 2" font-style="normal" stroke-dashoffset="0" stroke-linejoin="bevel">
    <path d="M-224,185 L-72,185" vector-effect="none" fill-rule="evenodd"/>
   </g>
   <g stroke-opacity="1" transform="matrix(1,0,0,1,1485,1050)" stroke-dasharray="42,10.5" stroke="#212529" font-size="29.1042" stroke-width="3.5" font-weight="400" fill="none" stroke-linecap="round" font-family="MS Shell Dlg 2" font-style="normal" stroke-dashoffset="0" stroke-linejoin="bevel">
    <path d="M-72,185 L-72,225" vector-effect="none" fill-rule="evenodd"/>
   </g>
   <g stroke-opacity="1" transform="matrix(1,0,0,1,1485,1050)" stroke-dasharray="42,10.5" stroke="#212529" font-size="29.1042" stroke-width="3.5" font-weight="400" fill="none" stroke-linecap="round" font-family="MS Shell Dlg 2" font-style="normal" stroke-dashoffset="0" stroke-linejoin="bevel">
    <path d="M72,225 L-72,225" vector-effect="none" fill-rule="evenodd"/>
   </g>
   <g stroke-opacity="1" transform="matrix(1,0,0,1,1485,1050)" stroke-dasharray="42,10.5" stroke="#212529" font-size="29.1042" stroke-width="3.5" font-weight="400" fill="none" stroke-linecap="round" font-family="MS Shell Dlg 2" font-style="normal" stroke-dashoffset="0" stroke-linejoin="bevel">
    <path d="M72,225 L72,185" vector-effect="none" fill-rule="evenodd"/>
   </g>
   <g stroke-opacity="1" transform="matrix(1,0,0,1,1485,1050)" stroke-dasharray="42,10.5" stroke="#212529" font-size="29.1042" stroke-width="3.5" font-weight="400" fill="none" stroke-linecap="round" font-family="MS Shell Dlg 2" font-style="normal" stroke-dashoffset="0" stroke-linejoin="bevel">
    <path d="M224,185 L72,185" vector-effect="none" fill-rule="evenodd"/>
   </g>
   <g stroke-opacity="1" transform="matrix(1,0,0,1,1485,1050)" stroke-dasharray="42,10.5" stroke="#212529" font-size="29.1042" stroke-width="3.5" font-weight="400" fill="none" stroke-linecap="round" font-family="MS Shell Dlg 2" font-style="normal" stroke-dashoffset="0" stroke-linejoin="bevel">
    <path d="M224,185 L224,225" vector-effect="none" fill-rule="evenodd"/>
   </g>
   <g stroke-opacity="1" transform="matrix(1,0,0,1,1485,1050)" stroke-dasharray="42,10.5" stroke="#212529" font-size="29.1042" stroke-width="3.5" font-weight="400" fill="none" stroke-linecap="round" font-family="MS Shell Dlg 2" font-style="normal" stroke-dashoffset="0" stroke-linejoin="bevel">
    <path d="M368,225 L224,225" vector-effect="none" fill-rule="evenodd"/>
   </g>
   <g stroke-opacity="1" transform="matrix(1,0,0,1,1485,1050)" stroke-dasharray="42,10.5" stroke="#212529" font-size="29.1042" stroke-width="3.5" font-weight="400" fill="none" stroke-linecap="round" font-family="MS Shell Dlg 2" font-style="normal" stroke-dashoffset="0" stroke-linejoin="bevel">
    <path d="M368,225 L368,185" vector-effect="none" fill-rule="evenodd"/>
   </g>
   <g stroke-opacity="1" transform="matrix(1,0,0,1,1485,1050)" stroke-dasharray="42,10.5" stroke="#212529" font-size="29.1042" stroke-width="3.5" font-weight="400" fill="none" stroke-linecap="round" font-family="MS Shell Dlg 2" font-style="normal" stroke-dashoffset="0" stroke-linejoin="bevel">
    <path d="M518,185 L368,185" vector-effect="none" fill-rule="evenodd"/>
   </g>
   <g stroke-opacity="1" transform="matrix(1,0,0,1,1485,1050)" stroke-dasharray="42,10.5" stroke="#212529" font-size="29.1042" stroke-width="3.5" font-weight="400" fill="none" stroke-linecap="round" font-family="MS Shell Dlg 2" font-style="normal" stroke-dashoffset="0" stroke-linejoin="bevel">
    <path d="M60,65 C60,98.1371 33.1371,125 -8.88178e-12,125 C-33.1371,125 -60,98.1371 -60,65 C-60,31.8629 -33.1371,5 -8.88178e-12,5 C33.1371,5 60,31.8629 60,65 " vector-effect="none" fill-rule="evenodd"/>
   </g>
  </g>
 </g>
</svg>
