<?xml version='1.0' encoding='UTF-8' standalone='no'?>
<svg xmlns:dc="http://purl.org/dc/elements/1.1/" xmlns="http://www.w3.org/2000/svg" xmlns:rdf="http://www.w3.org/1999/02/22-rdf-syntax-ns#" version="1.2" xmlns:inkscape="http://www.inkscape.org/namespaces/inkscape" height="210mm" xmlns:svg="http://www.w3.org/2000/svg" width="297mm" baseProfile="tiny" xmlns:xlink="http://www.w3.org/1999/xlink" xmlns:sodipodi="http://sodipodi.sourceforge.net/DTD/sodipodi-0.dtd" xmlns:cc="http://creativecommons.org/ns#" xmlns:freecad="https://www.freecad.org/wiki/index.php?title=Svg_Namespace" viewBox="0 0 2970 2100">
 <title>FreeCAD SVG Export</title>
 <desc>Drawing page: Page006 exported from FreeCAD document: LeoIoT_Goalfinder_Case</desc>
 <defs/>
 <g id="Page006" inkscape:label="TechDraw" inkscape:groupmode="layer">
  <g transform="scale(10.000000, 10.000000)" id="A4_Landscape_ISO7200TD23.svg" style="stroke: none;">
   <!-- Working space 10 10 287 200 -->
   <!-- Title block 107 162 287 200 -->
   <g>
    <rect x="10" id="drawing-border" height="180" y="20" width="277" style="fill:none;stroke:#000000;stroke-width:0.35;stroke-linecap:miter;stroke-miterlimit:4"/>
    <!-- width-20, height-20 -->
    <g transform="translate(87,-65)">
     <!-- A4 Portrait based for other formats width-210, height-297 -->
     <!--        page       rect   translation
                     w    h    rw   rh   tx   ty
              A4-P  210  297  180  277    0    0
              A3-L  420  297  390  277  210    0
              A2-L  594  420  564  400  384  123
              A1-L  841  594  811  574  631  297
              A0-L 1189  841 1159  821  979  544
      -->
     <g id="titleblock-structure" style="fill:none;stroke:#000000;stroke-width:0.35;stroke-linecap:miter;stroke-miterlimit:4">
      <rect x="20" height="38" y="227" width="180"/>
      <path d="m 20,238 h 180"/>
      <path d="m 80,227 v 11"/>
      <path d="m 140,227 v 38"/>
      <path d="m 160,227 v 11"/>
      <path d="m 180,227 v 11"/>
      <path d="m 140,254 h 60"/>
      <path d="m 180,254 v 11"/>
     </g>
     <g id="titleblock-text-non-editable" style="font-size:3px;text-anchor:start;fill:#000000;font-family:osifont">
      <text x="21" y="230.5">Created by:</text>
      <text x="81" y="230.5">Title:</text>
      <text x="21" y="241.5">Supplementary information:</text>
      <text x="141" y="230.5">Size:</text>
      <text x="161" y="230.5">Sheet:</text>
      <text x="181" y="230.5">Scale:</text>
      <text x="141" y="241.5">Part number:</text>
      <text x="141" y="249.5">Drawing no.:</text>
      <text x="141" y="257.5">Date:</text>
      <text x="181" y="257.5">Revision:</text>
     </g>
     <!-- Set display:none to hide FreeCAD Logo -->
     <g transform="translate(128.5,254)" id="freecad-logo" stroke="#000" fill-rule="evenodd" stroke-width="0.35" style="display:inline" fill="none">
      <path d="m0.1524 0.15254v8.8549h1.9744v-3.4652h1.396v-1.3661h-1.396v-1.4745h3.4391v-2.5441l-5.4135-0.005z"/>
      <path d="m7.7927 3.4504-0.50715-0.176-0.48387-1.2366-0.76115 0.04-0.34718 1.2787-0.4859 0.23269-1.2119-0.53015-0.51188 0.56882 0.65892 1.1485-0.18006 0.50567-1.2366 0.48387 0.044064 0.76263 1.2787 0.34718 0.23269 0.4859-0.53421 1.2104 0.56882 0.51188 1.1485-0.65891 0.50973 0.18155 0.4798 1.2351 0.7667-0.04258 0.34311-1.2802 0.4859-0.23269 1.2145 0.5357 0.51188-0.56882-0.65891-1.1485 0.17748-0.51122 1.2351-0.4798-0.03851-0.76521-1.2802-0.34311-0.23269-0.4859 0.53163-1.216-0.56881-0.51184zm-0.5715 1.2244 0.23576 0.13679 0.20426 0.18519 0.16353 0.22101 0.11763 0.24572 0.06916 0.26489 0.01146 0.27146-0.03921 0.27139-0.08948 0.25764-0.14234 0.23834-0.17964 0.20167-0.22101 0.16353-0.24572 0.11763-0.26489 0.06916-0.27295 0.01553-0.2719-0.04-0.2576-0.089-0.2383-0.143-0.2002-0.183-0.165-0.217-0.1177-0.246-0.0676-0.269-0.0156-0.273 0.039206-0.2714 0.089484-0.25764 0.14085-0.23427 0.18113-0.20574 0.22101-0.16352 0.24572-0.11763 0.26895-0.06768 0.27147-0.01146 0.27139 0.03921 0.25764 0.08948z"/>
     </g>
    </g>
   </g>
   <g id="titleblock-text-editable" style="font-size:5px;text-anchor:start;fill:#000000;font-family:osifont">
    <text x="108" y="171" freecad:editable="AUTHOR_NAME">
     <tspan xml:space="preserve">HTL Leonding</tspan>
    </text>
    <text x="168" y="171" freecad:editable="DRAWING_TITLE">
     <tspan xml:space="preserve">LeoIoT - Goalfinder</tspan>
    </text>
    <text x="108" y="182" freecad:editable="SI-1">
     <tspan xml:space="preserve">Case for LeoIoT "Goalfinder r1.4" hardware</tspan>
    </text>
    <text x="108" y="189" freecad:editable="FreeCAD_DRAWING">
     <tspan xml:space="preserve">Material: 4mm PMMA (acrylic glass)</tspan>
    </text>
    <text x="108" y="196" freecad:editable="SI-3">
     <tspan xml:space="preserve"/>
    </text>
    <text x="233" y="171" freecad:editable="FC-SI">
     <tspan xml:space="preserve">A4</tspan>
    </text>
    <text x="251" y="171" freecad:editable="FC-SH">
     <tspan xml:space="preserve">3 / 7</tspan>
    </text>
    <text x="271" y="171" freecad:editable="FC-SC">
     <tspan xml:space="preserve">1 : 1</tspan>
    </text>
    <text x="231" y="181" freecad:editable="PN">
     <tspan xml:space="preserve">Top for Backmount</tspan>
    </text>
    <text x="231" y="189" freecad:editable="DN">
     <tspan xml:space="preserve">01</tspan>
    </text>
    <text x="231" y="197" freecad:editable="FC-DATE">
     <tspan xml:space="preserve">17/09/2025</tspan>
    </text>
    <text x="269" y="197" freecad:editable="FC-REV">
     <tspan xml:space="preserve">r 01.10</tspan>
    </text>
   </g>
   <!-- DrawingContent -->
  </g>
  <g stroke-linejoin="bevel" id="DrawingContent" stroke="black" fill-rule="evenodd" stroke-width="1" fill="none" stroke-linecap="square">
   <g transform="matrix(1,0,0,1,1495.82,902.9)" font-family="MS Shell Dlg 2" fill-opacity="1" stroke="none" fill="#f1f3f5" font-style="normal" font-size="29.1042" font-weight="400">
    <path vector-effect="non-scaling-stroke" fill-rule="evenodd" d="M-528,-319 L-560,-319 C-582.091,-319 -600,-301.091 -600,-279 L-600,441 C-600,463.091 -582.091,481 -560,481 L560,481 C582.091,481 600,463.091 600,441 L600,-279 C600,-301.091 582.091,-319 560,-319 L528,-319 C522.477,-319 518,-314.523 518,-309 L518,-237 L370,-237 L370,-461 C370,-472.046 361.046,-481 350,-481 L242,-481 C230.954,-481 222,-472.046 222,-461 L222,-237 L74,-237 L74,-461 C74,-472.046 65.0457,-481 54,-481 L-54,-481 C-65.0457,-481 -74,-472.046 -74,-461 L-74,-237 L-222,-237 L-222,-461 C-222,-472.046 -230.954,-481 -242,-481 L-350,-481 C-361.046,-481 -370,-472.046 -370,-461 L-370,-237 L-518,-237 L-518,-309 C-518,-314.523 -522.477,-319 -528,-319 "/>
   </g>
   <g transform="matrix(1,0,0,1,1495.82,902.9)" font-family="MS Shell Dlg 2" fill-opacity="1" stroke="none" fill="#f1f3f5" font-style="normal" font-size="29.1042" font-weight="400">
    <path vector-effect="non-scaling-stroke" fill-rule="evenodd" d="M562,161 L518,161 L518,321 L562,321 L562,161"/>
   </g>
   <g transform="matrix(1,0,0,1,1495.82,902.9)" font-family="MS Shell Dlg 2" fill-opacity="1" stroke="none" fill="#f1f3f5" font-style="normal" font-size="29.1042" font-weight="400">
    <path vector-effect="non-scaling-stroke" fill-rule="evenodd" d="M562,-159 L518,-159 L518,1 L562,1 L562,-159"/>
   </g>
   <g transform="matrix(1,0,0,1,1495.82,902.9)" font-family="MS Shell Dlg 2" fill-opacity="1" stroke="none" fill="#f1f3f5" font-style="normal" font-size="29.1042" font-weight="400">
    <path vector-effect="non-scaling-stroke" fill-rule="evenodd" d="M-518,161 L-562,161 L-562,321 L-518,321 L-518,161"/>
   </g>
   <g transform="matrix(1,0,0,1,1495.82,902.9)" font-family="MS Shell Dlg 2" fill-opacity="1" stroke="none" fill="#f1f3f5" font-style="normal" font-size="29.1042" font-weight="400">
    <path vector-effect="non-scaling-stroke" fill-rule="evenodd" d="M-518,-159 L-562,-159 L-562,1 L-518,1 L-518,-159"/>
   </g>
   <g transform="matrix(1,0,0,1,1495.82,902.9)" font-family="MS Shell Dlg 2" fill-opacity="1" stroke="none" fill="#f1f3f5" font-style="normal" font-size="29.1042" font-weight="400">
    <path vector-effect="non-scaling-stroke" fill-rule="evenodd" d="M74,399 L-74,399 L-74,443 L74,443 L74,399"/>
   </g>
   <g transform="matrix(1,0,0,1,1495.82,902.9)" font-family="MS Shell Dlg 2" fill-opacity="1" stroke="none" fill="#f1f3f5" font-style="normal" font-size="29.1042" font-weight="400">
    <path vector-effect="non-scaling-stroke" fill-rule="evenodd" d="M370,399 L222,399 L222,443 L370,443 L370,399"/>
   </g>
   <g transform="matrix(1,0,0,1,1495.82,902.9)" font-family="MS Shell Dlg 2" fill-opacity="1" stroke="none" fill="#f1f3f5" font-style="normal" font-size="29.1042" font-weight="400">
    <path vector-effect="non-scaling-stroke" fill-rule="evenodd" d="M-222,399 L-370,399 L-370,443 L-222,443 L-222,399"/>
   </g>
   <g transform="matrix(1,0,0,1,1495.82,902.9)" font-family="MS Shell Dlg 2" fill-opacity="1" stroke="none" fill="#f1f3f5" font-style="normal" font-size="29.1042" font-weight="400">
    <path vector-effect="non-scaling-stroke" fill-rule="evenodd" d="M482,241 C482,253.15 472.15,263 460,263 C447.85,263 438,253.15 438,241 C438,228.85 447.85,219 460,219 C472.15,219 482,228.85 482,241 "/>
   </g>
   <g transform="matrix(1,0,0,1,1495.82,902.9)" font-family="MS Shell Dlg 2" fill-opacity="1" stroke="none" fill="#f1f3f5" font-style="normal" font-size="29.1042" font-weight="400">
    <path vector-effect="non-scaling-stroke" fill-rule="evenodd" d="M482,341 C482,353.15 472.15,363 460,363 C447.85,363 438,353.15 438,341 C438,328.85 447.85,319 460,319 C472.15,319 482,328.85 482,341 "/>
   </g>
   <g transform="matrix(1,0,0,1,1495.82,902.9)" font-family="MS Shell Dlg 2" fill-opacity="1" stroke="none" fill="#f1f3f5" font-style="normal" font-size="29.1042" font-weight="400">
    <path vector-effect="non-scaling-stroke" fill-rule="evenodd" d="M282,-179 C282,-166.85 272.15,-157 260,-157 C247.85,-157 238,-166.85 238,-179 C238,-191.15 247.85,-201 260,-201 C272.15,-201 282,-191.15 282,-179 "/>
   </g>
   <g transform="matrix(1,0,0,1,1495.82,902.9)" font-family="MS Shell Dlg 2" fill-opacity="1" stroke="none" fill="#f1f3f5" font-style="normal" font-size="29.1042" font-weight="400">
    <path vector-effect="non-scaling-stroke" fill-rule="evenodd" d="M482,-179 C482,-166.85 472.15,-157 460,-157 C447.85,-157 438,-166.85 438,-179 C438,-191.15 447.85,-201 460,-201 C472.15,-201 482,-191.15 482,-179 "/>
   </g>
   <g transform="matrix(1,0,0,1,1495.82,902.9)" font-family="MS Shell Dlg 2" fill-opacity="1" stroke="none" fill="#f1f3f5" font-style="normal" font-size="29.1042" font-weight="400">
    <path vector-effect="non-scaling-stroke" fill-rule="evenodd" d="M-238,341 C-238,353.15 -247.85,363 -260,363 C-272.15,363 -282,353.15 -282,341 C-282,328.85 -272.15,319 -260,319 C-247.85,319 -238,328.85 -238,341 "/>
   </g>
   <g transform="matrix(1,0,0,1,1495.82,902.9)" font-family="MS Shell Dlg 2" fill-opacity="1" stroke="none" fill="#f1f3f5" font-style="normal" font-size="29.1042" font-weight="400">
    <path vector-effect="non-scaling-stroke" fill-rule="evenodd" d="M-438,-79 C-438,-66.8497 -447.85,-57 -460,-57 C-472.15,-57 -482,-66.8497 -482,-79 C-482,-91.1503 -472.15,-101 -460,-101 C-447.85,-101 -438,-91.1503 -438,-79 "/>
   </g>
   <g transform="matrix(1,0,0,1,1495.82,902.9)" font-family="MS Shell Dlg 2" fill-opacity="1" stroke="none" fill="#f1f3f5" font-style="normal" font-size="29.1042" font-weight="400">
    <path vector-effect="non-scaling-stroke" fill-rule="evenodd" d="M482,-79 C482,-66.8497 472.15,-57 460,-57 C447.85,-57 438,-66.8497 438,-79 C438,-91.1503 447.85,-101 460,-101 C472.15,-101 482,-91.1503 482,-79 "/>
   </g>
   <g transform="matrix(1,0,0,1,1495.82,902.9)" font-family="MS Shell Dlg 2" fill-opacity="1" stroke="none" fill="#f1f3f5" font-style="normal" font-size="29.1042" font-weight="400">
    <path vector-effect="non-scaling-stroke" fill-rule="evenodd" d="M-438,-179 C-438,-166.85 -447.85,-157 -460,-157 C-472.15,-157 -482,-166.85 -482,-179 C-482,-191.15 -472.15,-201 -460,-201 C-447.85,-201 -438,-191.15 -438,-179 "/>
   </g>
   <g transform="matrix(1,0,0,1,1495.82,902.9)" font-family="MS Shell Dlg 2" fill-opacity="1" stroke="none" fill="#f1f3f5" font-style="normal" font-size="29.1042" font-weight="400">
    <path vector-effect="non-scaling-stroke" fill-rule="evenodd" d="M-438,341 C-438,353.15 -447.85,363 -460,363 C-472.15,363 -482,353.15 -482,341 C-482,328.85 -472.15,319 -460,319 C-447.85,319 -438,328.85 -438,341 "/>
   </g>
   <g transform="matrix(1,0,0,1,1495.82,902.9)" font-family="MS Shell Dlg 2" fill-opacity="1" stroke="none" fill="#f1f3f5" font-style="normal" font-size="29.1042" font-weight="400">
    <path vector-effect="non-scaling-stroke" fill-rule="evenodd" d="M-438,241 C-438,253.15 -447.85,263 -460,263 C-472.15,263 -482,253.15 -482,241 C-482,228.85 -472.15,219 -460,219 C-447.85,219 -438,228.85 -438,241 "/>
   </g>
   <g stroke-linejoin="bevel" transform="matrix(1,0,0,1,1495.82,902.9)" font-family="MS Shell Dlg 2" stroke="#212529" stroke-width="7" fill="none" stroke-opacity="1" font-style="normal" font-size="29.1042" font-weight="400" stroke-linecap="round">
    <path vector-effect="none" fill-rule="evenodd" d="M-528,-319 L-560,-319"/>
   </g>
   <g stroke-linejoin="bevel" transform="matrix(1,0,0,1,1495.82,902.9)" font-family="MS Shell Dlg 2" stroke="#212529" stroke-width="7" fill="none" stroke-opacity="1" font-style="normal" font-size="29.1042" font-weight="400" stroke-linecap="round">
    <path vector-effect="none" fill-rule="evenodd" d="M-528,-319 C-522.477,-319 -518,-314.523 -518,-309 "/>
   </g>
   <g stroke-linejoin="bevel" transform="matrix(1,0,0,1,1495.82,902.9)" font-family="MS Shell Dlg 2" stroke="#212529" stroke-width="7" fill="none" stroke-opacity="1" font-style="normal" font-size="29.1042" font-weight="400" stroke-linecap="round">
    <path vector-effect="none" fill-rule="evenodd" d="M-600,-279 C-600,-301.091 -582.091,-319 -560,-319 "/>
   </g>
   <g stroke-linejoin="bevel" transform="matrix(1,0,0,1,1495.82,902.9)" font-family="MS Shell Dlg 2" stroke="#212529" stroke-width="7" fill="none" stroke-opacity="1" font-style="normal" font-size="29.1042" font-weight="400" stroke-linecap="round">
    <path vector-effect="none" fill-rule="evenodd" d="M-600,-279 L-600,441"/>
   </g>
   <g stroke-linejoin="bevel" transform="matrix(1,0,0,1,1495.82,902.9)" font-family="MS Shell Dlg 2" stroke="#212529" stroke-width="7" fill="none" stroke-opacity="1" font-style="normal" font-size="29.1042" font-weight="400" stroke-linecap="round">
    <path vector-effect="none" fill-rule="evenodd" d="M-560,481 C-582.091,481 -600,463.091 -600,441 "/>
   </g>
   <g stroke-linejoin="bevel" transform="matrix(1,0,0,1,1495.82,902.9)" font-family="MS Shell Dlg 2" stroke="#212529" stroke-width="7" fill="none" stroke-opacity="1" font-style="normal" font-size="29.1042" font-weight="400" stroke-linecap="round">
    <path vector-effect="none" fill-rule="evenodd" d="M-560,481 L560,481"/>
   </g>
   <g stroke-linejoin="bevel" transform="matrix(1,0,0,1,1495.82,902.9)" font-family="MS Shell Dlg 2" stroke="#212529" stroke-width="7" fill="none" stroke-opacity="1" font-style="normal" font-size="29.1042" font-weight="400" stroke-linecap="round">
    <path vector-effect="none" fill-rule="evenodd" d="M600,441 C600,463.091 582.091,481 560,481 "/>
   </g>
   <g stroke-linejoin="bevel" transform="matrix(1,0,0,1,1495.82,902.9)" font-family="MS Shell Dlg 2" stroke="#212529" stroke-width="7" fill="none" stroke-opacity="1" font-style="normal" font-size="29.1042" font-weight="400" stroke-linecap="round">
    <path vector-effect="none" fill-rule="evenodd" d="M600,441 L600,-279"/>
   </g>
   <g stroke-linejoin="bevel" transform="matrix(1,0,0,1,1495.82,902.9)" font-family="MS Shell Dlg 2" stroke="#212529" stroke-width="7" fill="none" stroke-opacity="1" font-style="normal" font-size="29.1042" font-weight="400" stroke-linecap="round">
    <path vector-effect="none" fill-rule="evenodd" d="M560,-319 C582.091,-319 600,-301.091 600,-279 "/>
   </g>
   <g stroke-linejoin="bevel" transform="matrix(1,0,0,1,1495.82,902.9)" font-family="MS Shell Dlg 2" stroke="#212529" stroke-width="7" fill="none" stroke-opacity="1" font-style="normal" font-size="29.1042" font-weight="400" stroke-linecap="round">
    <path vector-effect="none" fill-rule="evenodd" d="M528,-319 L560,-319"/>
   </g>
   <g stroke-linejoin="bevel" transform="matrix(1,0,0,1,1495.82,902.9)" font-family="MS Shell Dlg 2" stroke="#212529" stroke-width="7" fill="none" stroke-opacity="1" font-style="normal" font-size="29.1042" font-weight="400" stroke-linecap="round">
    <path vector-effect="none" fill-rule="evenodd" d="M518,-309 C518,-314.523 522.477,-319 528,-319 "/>
   </g>
   <g stroke-linejoin="bevel" transform="matrix(1,0,0,1,1495.82,902.9)" font-family="MS Shell Dlg 2" stroke="#212529" stroke-width="7" fill="none" stroke-opacity="1" font-style="normal" font-size="29.1042" font-weight="400" stroke-linecap="round">
    <path vector-effect="none" fill-rule="evenodd" d="M518,-237 L518,-309"/>
   </g>
   <g stroke-linejoin="bevel" transform="matrix(1,0,0,1,1495.82,902.9)" font-family="MS Shell Dlg 2" stroke="#212529" stroke-width="7" fill="none" stroke-opacity="1" font-style="normal" font-size="29.1042" font-weight="400" stroke-linecap="round">
    <path vector-effect="none" fill-rule="evenodd" d="M518,-237 L370,-237"/>
   </g>
   <g stroke-linejoin="bevel" transform="matrix(1,0,0,1,1495.82,902.9)" font-family="MS Shell Dlg 2" stroke="#212529" stroke-width="7" fill="none" stroke-opacity="1" font-style="normal" font-size="29.1042" font-weight="400" stroke-linecap="round">
    <path vector-effect="none" fill-rule="evenodd" d="M370,-237 L370,-461"/>
   </g>
   <g stroke-linejoin="bevel" transform="matrix(1,0,0,1,1495.82,902.9)" font-family="MS Shell Dlg 2" stroke="#212529" stroke-width="7" fill="none" stroke-opacity="1" font-style="normal" font-size="29.1042" font-weight="400" stroke-linecap="round">
    <path vector-effect="none" fill-rule="evenodd" d="M350,-481 C361.046,-481 370,-472.046 370,-461 "/>
   </g>
   <g stroke-linejoin="bevel" transform="matrix(1,0,0,1,1495.82,902.9)" font-family="MS Shell Dlg 2" stroke="#212529" stroke-width="7" fill="none" stroke-opacity="1" font-style="normal" font-size="29.1042" font-weight="400" stroke-linecap="round">
    <path vector-effect="none" fill-rule="evenodd" d="M350,-481 L242,-481"/>
   </g>
   <g stroke-linejoin="bevel" transform="matrix(1,0,0,1,1495.82,902.9)" font-family="MS Shell Dlg 2" stroke="#212529" stroke-width="7" fill="none" stroke-opacity="1" font-style="normal" font-size="29.1042" font-weight="400" stroke-linecap="round">
    <path vector-effect="none" fill-rule="evenodd" d="M222,-461 C222,-472.046 230.954,-481 242,-481 "/>
   </g>
   <g stroke-linejoin="bevel" transform="matrix(1,0,0,1,1495.82,902.9)" font-family="MS Shell Dlg 2" stroke="#212529" stroke-width="7" fill="none" stroke-opacity="1" font-style="normal" font-size="29.1042" font-weight="400" stroke-linecap="round">
    <path vector-effect="none" fill-rule="evenodd" d="M222,-237 L222,-461"/>
   </g>
   <g stroke-linejoin="bevel" transform="matrix(1,0,0,1,1495.82,902.9)" font-family="MS Shell Dlg 2" stroke="#212529" stroke-width="7" fill="none" stroke-opacity="1" font-style="normal" font-size="29.1042" font-weight="400" stroke-linecap="round">
    <path vector-effect="none" fill-rule="evenodd" d="M222,-237 L74,-237"/>
   </g>
   <g stroke-linejoin="bevel" transform="matrix(1,0,0,1,1495.82,902.9)" font-family="MS Shell Dlg 2" stroke="#212529" stroke-width="7" fill="none" stroke-opacity="1" font-style="normal" font-size="29.1042" font-weight="400" stroke-linecap="round">
    <path vector-effect="none" fill-rule="evenodd" d="M74,-237 L74,-461"/>
   </g>
   <g stroke-linejoin="bevel" transform="matrix(1,0,0,1,1495.82,902.9)" font-family="MS Shell Dlg 2" stroke="#212529" stroke-width="7" fill="none" stroke-opacity="1" font-style="normal" font-size="29.1042" font-weight="400" stroke-linecap="round">
    <path vector-effect="none" fill-rule="evenodd" d="M54,-481 C65.0457,-481 74,-472.046 74,-461 "/>
   </g>
   <g stroke-linejoin="bevel" transform="matrix(1,0,0,1,1495.82,902.9)" font-family="MS Shell Dlg 2" stroke="#212529" stroke-width="7" fill="none" stroke-opacity="1" font-style="normal" font-size="29.1042" font-weight="400" stroke-linecap="round">
    <path vector-effect="none" fill-rule="evenodd" d="M54,-481 L-54,-481"/>
   </g>
   <g stroke-linejoin="bevel" transform="matrix(1,0,0,1,1495.82,902.9)" font-family="MS Shell Dlg 2" stroke="#212529" stroke-width="7" fill="none" stroke-opacity="1" font-style="normal" font-size="29.1042" font-weight="400" stroke-linecap="round">
    <path vector-effect="none" fill-rule="evenodd" d="M-74,-461 C-74,-472.046 -65.0457,-481 -54,-481 "/>
   </g>
   <g stroke-linejoin="bevel" transform="matrix(1,0,0,1,1495.82,902.9)" font-family="MS Shell Dlg 2" stroke="#212529" stroke-width="7" fill="none" stroke-opacity="1" font-style="normal" font-size="29.1042" font-weight="400" stroke-linecap="round">
    <path vector-effect="none" fill-rule="evenodd" d="M-74,-237 L-74,-461"/>
   </g>
   <g stroke-linejoin="bevel" transform="matrix(1,0,0,1,1495.82,902.9)" font-family="MS Shell Dlg 2" stroke="#212529" stroke-width="7" fill="none" stroke-opacity="1" font-style="normal" font-size="29.1042" font-weight="400" stroke-linecap="round">
    <path vector-effect="none" fill-rule="evenodd" d="M-74,-237 L-222,-237"/>
   </g>
   <g stroke-linejoin="bevel" transform="matrix(1,0,0,1,1495.82,902.9)" font-family="MS Shell Dlg 2" stroke="#212529" stroke-width="7" fill="none" stroke-opacity="1" font-style="normal" font-size="29.1042" font-weight="400" stroke-linecap="round">
    <path vector-effect="none" fill-rule="evenodd" d="M-222,-237 L-222,-461"/>
   </g>
   <g stroke-linejoin="bevel" transform="matrix(1,0,0,1,1495.82,902.9)" font-family="MS Shell Dlg 2" stroke="#212529" stroke-width="7" fill="none" stroke-opacity="1" font-style="normal" font-size="29.1042" font-weight="400" stroke-linecap="round">
    <path vector-effect="none" fill-rule="evenodd" d="M-242,-481 C-230.954,-481 -222,-472.046 -222,-461 "/>
   </g>
   <g stroke-linejoin="bevel" transform="matrix(1,0,0,1,1495.82,902.9)" font-family="MS Shell Dlg 2" stroke="#212529" stroke-width="7" fill="none" stroke-opacity="1" font-style="normal" font-size="29.1042" font-weight="400" stroke-linecap="round">
    <path vector-effect="none" fill-rule="evenodd" d="M-242,-481 L-350,-481"/>
   </g>
   <g stroke-linejoin="bevel" transform="matrix(1,0,0,1,1495.82,902.9)" font-family="MS Shell Dlg 2" stroke="#212529" stroke-width="7" fill="none" stroke-opacity="1" font-style="normal" font-size="29.1042" font-weight="400" stroke-linecap="round">
    <path vector-effect="none" fill-rule="evenodd" d="M-370,-461 C-370,-472.046 -361.046,-481 -350,-481 "/>
   </g>
   <g stroke-linejoin="bevel" transform="matrix(1,0,0,1,1495.82,902.9)" font-family="MS Shell Dlg 2" stroke="#212529" stroke-width="7" fill="none" stroke-opacity="1" font-style="normal" font-size="29.1042" font-weight="400" stroke-linecap="round">
    <path vector-effect="none" fill-rule="evenodd" d="M-370,-237 L-370,-461"/>
   </g>
   <g stroke-linejoin="bevel" transform="matrix(1,0,0,1,1495.82,902.9)" font-family="MS Shell Dlg 2" stroke="#212529" stroke-width="7" fill="none" stroke-opacity="1" font-style="normal" font-size="29.1042" font-weight="400" stroke-linecap="round">
    <path vector-effect="none" fill-rule="evenodd" d="M-370,-237 L-518,-237"/>
   </g>
   <g stroke-linejoin="bevel" transform="matrix(1,0,0,1,1495.82,902.9)" font-family="MS Shell Dlg 2" stroke="#212529" stroke-width="7" fill="none" stroke-opacity="1" font-style="normal" font-size="29.1042" font-weight="400" stroke-linecap="round">
    <path vector-effect="none" fill-rule="evenodd" d="M-518,-237 L-518,-309"/>
   </g>
   <g stroke-linejoin="bevel" transform="matrix(1,0,0,1,1495.82,902.9)" font-family="MS Shell Dlg 2" stroke="#212529" stroke-width="7" fill="none" stroke-opacity="1" font-style="normal" font-size="29.1042" font-weight="400" stroke-linecap="round">
    <path vector-effect="none" fill-rule="evenodd" d="M562,161 L518,161"/>
   </g>
   <g stroke-linejoin="bevel" transform="matrix(1,0,0,1,1495.82,902.9)" font-family="MS Shell Dlg 2" stroke="#212529" stroke-width="7" fill="none" stroke-opacity="1" font-style="normal" font-size="29.1042" font-weight="400" stroke-linecap="round">
    <path vector-effect="none" fill-rule="evenodd" d="M518,161 L518,321"/>
   </g>
   <g stroke-linejoin="bevel" transform="matrix(1,0,0,1,1495.82,902.9)" font-family="MS Shell Dlg 2" stroke="#212529" stroke-width="7" fill="none" stroke-opacity="1" font-style="normal" font-size="29.1042" font-weight="400" stroke-linecap="round">
    <path vector-effect="none" fill-rule="evenodd" d="M518,321 L562,321"/>
   </g>
   <g stroke-linejoin="bevel" transform="matrix(1,0,0,1,1495.82,902.9)" font-family="MS Shell Dlg 2" stroke="#212529" stroke-width="7" fill="none" stroke-opacity="1" font-style="normal" font-size="29.1042" font-weight="400" stroke-linecap="round">
    <path vector-effect="none" fill-rule="evenodd" d="M562,321 L562,161"/>
   </g>
   <g stroke-linejoin="bevel" transform="matrix(1,0,0,1,1495.82,902.9)" font-family="MS Shell Dlg 2" stroke="#212529" stroke-width="7" fill="none" stroke-opacity="1" font-style="normal" font-size="29.1042" font-weight="400" stroke-linecap="round">
    <path vector-effect="none" fill-rule="evenodd" d="M562,-159 L518,-159"/>
   </g>
   <g stroke-linejoin="bevel" transform="matrix(1,0,0,1,1495.82,902.9)" font-family="MS Shell Dlg 2" stroke="#212529" stroke-width="7" fill="none" stroke-opacity="1" font-style="normal" font-size="29.1042" font-weight="400" stroke-linecap="round">
    <path vector-effect="none" fill-rule="evenodd" d="M518,-159 L518,1"/>
   </g>
   <g stroke-linejoin="bevel" transform="matrix(1,0,0,1,1495.82,902.9)" font-family="MS Shell Dlg 2" stroke="#212529" stroke-width="7" fill="none" stroke-opacity="1" font-style="normal" font-size="29.1042" font-weight="400" stroke-linecap="round">
    <path vector-effect="none" fill-rule="evenodd" d="M518,1 L562,1"/>
   </g>
   <g stroke-linejoin="bevel" transform="matrix(1,0,0,1,1495.82,902.9)" font-family="MS Shell Dlg 2" stroke="#212529" stroke-width="7" fill="none" stroke-opacity="1" font-style="normal" font-size="29.1042" font-weight="400" stroke-linecap="round">
    <path vector-effect="none" fill-rule="evenodd" d="M562,1 L562,-159"/>
   </g>
   <g stroke-linejoin="bevel" transform="matrix(1,0,0,1,1495.82,902.9)" font-family="MS Shell Dlg 2" stroke="#212529" stroke-width="7" fill="none" stroke-opacity="1" font-style="normal" font-size="29.1042" font-weight="400" stroke-linecap="round">
    <path vector-effect="none" fill-rule="evenodd" d="M-518,161 L-562,161"/>
   </g>
   <g stroke-linejoin="bevel" transform="matrix(1,0,0,1,1495.82,902.9)" font-family="MS Shell Dlg 2" stroke="#212529" stroke-width="7" fill="none" stroke-opacity="1" font-style="normal" font-size="29.1042" font-weight="400" stroke-linecap="round">
    <path vector-effect="none" fill-rule="evenodd" d="M-562,161 L-562,321"/>
   </g>
   <g stroke-linejoin="bevel" transform="matrix(1,0,0,1,1495.82,902.9)" font-family="MS Shell Dlg 2" stroke="#212529" stroke-width="7" fill="none" stroke-opacity="1" font-style="normal" font-size="29.1042" font-weight="400" stroke-linecap="round">
    <path vector-effect="none" fill-rule="evenodd" d="M-562,321 L-518,321"/>
   </g>
   <g stroke-linejoin="bevel" transform="matrix(1,0,0,1,1495.82,902.9)" font-family="MS Shell Dlg 2" stroke="#212529" stroke-width="7" fill="none" stroke-opacity="1" font-style="normal" font-size="29.1042" font-weight="400" stroke-linecap="round">
    <path vector-effect="none" fill-rule="evenodd" d="M-518,321 L-518,161"/>
   </g>
   <g stroke-linejoin="bevel" transform="matrix(1,0,0,1,1495.82,902.9)" font-family="MS Shell Dlg 2" stroke="#212529" stroke-width="7" fill="none" stroke-opacity="1" font-style="normal" font-size="29.1042" font-weight="400" stroke-linecap="round">
    <path vector-effect="none" fill-rule="evenodd" d="M-518,-159 L-562,-159"/>
   </g>
   <g stroke-linejoin="bevel" transform="matrix(1,0,0,1,1495.82,902.9)" font-family="MS Shell Dlg 2" stroke="#212529" stroke-width="7" fill="none" stroke-opacity="1" font-style="normal" font-size="29.1042" font-weight="400" stroke-linecap="round">
    <path vector-effect="none" fill-rule="evenodd" d="M-562,-159 L-562,1"/>
   </g>
   <g stroke-linejoin="bevel" transform="matrix(1,0,0,1,1495.82,902.9)" font-family="MS Shell Dlg 2" stroke="#212529" stroke-width="7" fill="none" stroke-opacity="1" font-style="normal" font-size="29.1042" font-weight="400" stroke-linecap="round">
    <path vector-effect="none" fill-rule="evenodd" d="M-562,1 L-518,1"/>
   </g>
   <g stroke-linejoin="bevel" transform="matrix(1,0,0,1,1495.82,902.9)" font-family="MS Shell Dlg 2" stroke="#212529" stroke-width="7" fill="none" stroke-opacity="1" font-style="normal" font-size="29.1042" font-weight="400" stroke-linecap="round">
    <path vector-effect="none" fill-rule="evenodd" d="M-518,1 L-518,-159"/>
   </g>
   <g stroke-linejoin="bevel" transform="matrix(1,0,0,1,1495.82,902.9)" font-family="MS Shell Dlg 2" stroke="#212529" stroke-width="7" fill="none" stroke-opacity="1" font-style="normal" font-size="29.1042" font-weight="400" stroke-linecap="round">
    <path vector-effect="none" fill-rule="evenodd" d="M370,399 L222,399"/>
   </g>
   <g stroke-linejoin="bevel" transform="matrix(1,0,0,1,1495.82,902.9)" font-family="MS Shell Dlg 2" stroke="#212529" stroke-width="7" fill="none" stroke-opacity="1" font-style="normal" font-size="29.1042" font-weight="400" stroke-linecap="round">
    <path vector-effect="none" fill-rule="evenodd" d="M222,399 L222,443"/>
   </g>
   <g stroke-linejoin="bevel" transform="matrix(1,0,0,1,1495.82,902.9)" font-family="MS Shell Dlg 2" stroke="#212529" stroke-width="7" fill="none" stroke-opacity="1" font-style="normal" font-size="29.1042" font-weight="400" stroke-linecap="round">
    <path vector-effect="none" fill-rule="evenodd" d="M222,443 L370,443"/>
   </g>
   <g stroke-linejoin="bevel" transform="matrix(1,0,0,1,1495.82,902.9)" font-family="MS Shell Dlg 2" stroke="#212529" stroke-width="7" fill="none" stroke-opacity="1" font-style="normal" font-size="29.1042" font-weight="400" stroke-linecap="round">
    <path vector-effect="none" fill-rule="evenodd" d="M370,443 L370,399"/>
   </g>
   <g stroke-linejoin="bevel" transform="matrix(1,0,0,1,1495.82,902.9)" font-family="MS Shell Dlg 2" stroke="#212529" stroke-width="7" fill="none" stroke-opacity="1" font-style="normal" font-size="29.1042" font-weight="400" stroke-linecap="round">
    <path vector-effect="none" fill-rule="evenodd" d="M-222,399 L-370,399"/>
   </g>
   <g stroke-linejoin="bevel" transform="matrix(1,0,0,1,1495.82,902.9)" font-family="MS Shell Dlg 2" stroke="#212529" stroke-width="7" fill="none" stroke-opacity="1" font-style="normal" font-size="29.1042" font-weight="400" stroke-linecap="round">
    <path vector-effect="none" fill-rule="evenodd" d="M-370,399 L-370,443"/>
   </g>
   <g stroke-linejoin="bevel" transform="matrix(1,0,0,1,1495.82,902.9)" font-family="MS Shell Dlg 2" stroke="#212529" stroke-width="7" fill="none" stroke-opacity="1" font-style="normal" font-size="29.1042" font-weight="400" stroke-linecap="round">
    <path vector-effect="none" fill-rule="evenodd" d="M-370,443 L-222,443"/>
   </g>
   <g stroke-linejoin="bevel" transform="matrix(1,0,0,1,1495.82,902.9)" font-family="MS Shell Dlg 2" stroke="#212529" stroke-width="7" fill="none" stroke-opacity="1" font-style="normal" font-size="29.1042" font-weight="400" stroke-linecap="round">
    <path vector-effect="none" fill-rule="evenodd" d="M-222,443 L-222,399"/>
   </g>
   <g stroke-linejoin="bevel" transform="matrix(1,0,0,1,1495.82,902.9)" font-family="MS Shell Dlg 2" stroke="#212529" stroke-width="7" fill="none" stroke-opacity="1" font-style="normal" font-size="29.1042" font-weight="400" stroke-linecap="round">
    <path vector-effect="none" fill-rule="evenodd" d="M74,399 L-74,399"/>
   </g>
   <g stroke-linejoin="bevel" transform="matrix(1,0,0,1,1495.82,902.9)" font-family="MS Shell Dlg 2" stroke="#212529" stroke-width="7" fill="none" stroke-opacity="1" font-style="normal" font-size="29.1042" font-weight="400" stroke-linecap="round">
    <path vector-effect="none" fill-rule="evenodd" d="M-74,399 L-74,443"/>
   </g>
   <g stroke-linejoin="bevel" transform="matrix(1,0,0,1,1495.82,902.9)" font-family="MS Shell Dlg 2" stroke="#212529" stroke-width="7" fill="none" stroke-opacity="1" font-style="normal" font-size="29.1042" font-weight="400" stroke-linecap="round">
    <path vector-effect="none" fill-rule="evenodd" d="M-74,443 L74,443"/>
   </g>
   <g stroke-linejoin="bevel" transform="matrix(1,0,0,1,1495.82,902.9)" font-family="MS Shell Dlg 2" stroke="#212529" stroke-width="7" fill="none" stroke-opacity="1" font-style="normal" font-size="29.1042" font-weight="400" stroke-linecap="round">
    <path vector-effect="none" fill-rule="evenodd" d="M74,443 L74,399"/>
   </g>
   <g stroke-linejoin="bevel" transform="matrix(1,0,0,1,1495.82,902.9)" font-family="MS Shell Dlg 2" stroke="#212529" stroke-width="7" fill="none" stroke-opacity="1" font-style="normal" font-size="29.1042" font-weight="400" stroke-linecap="round">
    <path vector-effect="none" fill-rule="evenodd" d="M-238,341 C-238,353.15 -247.85,363 -260,363 C-272.15,363 -282,353.15 -282,341 C-282,328.85 -272.15,319 -260,319 C-247.85,319 -238,328.85 -238,341 "/>
   </g>
   <g stroke-linejoin="bevel" transform="matrix(1,0,0,1,1495.82,902.9)" font-family="MS Shell Dlg 2" stroke="#212529" stroke-width="7" fill="none" stroke-opacity="1" font-style="normal" font-size="29.1042" font-weight="400" stroke-linecap="round">
    <path vector-effect="none" fill-rule="evenodd" d="M-438,341 C-438,353.15 -447.85,363 -460,363 C-472.15,363 -482,353.15 -482,341 C-482,328.85 -472.15,319 -460,319 C-447.85,319 -438,328.85 -438,341 "/>
   </g>
   <g stroke-linejoin="bevel" transform="matrix(1,0,0,1,1495.82,902.9)" font-family="MS Shell Dlg 2" stroke="#212529" stroke-width="7" fill="none" stroke-opacity="1" font-style="normal" font-size="29.1042" font-weight="400" stroke-linecap="round">
    <path vector-effect="none" fill-rule="evenodd" d="M-438,241 C-438,253.15 -447.85,263 -460,263 C-472.15,263 -482,253.15 -482,241 C-482,228.85 -472.15,219 -460,219 C-447.85,219 -438,228.85 -438,241 "/>
   </g>
   <g stroke-linejoin="bevel" transform="matrix(1,0,0,1,1495.82,902.9)" font-family="MS Shell Dlg 2" stroke="#212529" stroke-width="7" fill="none" stroke-opacity="1" font-style="normal" font-size="29.1042" font-weight="400" stroke-linecap="round">
    <path vector-effect="none" fill-rule="evenodd" d="M482,341 C482,353.15 472.15,363 460,363 C447.85,363 438,353.15 438,341 C438,328.85 447.85,319 460,319 C472.15,319 482,328.85 482,341 "/>
   </g>
   <g stroke-linejoin="bevel" transform="matrix(1,0,0,1,1495.82,902.9)" font-family="MS Shell Dlg 2" stroke="#212529" stroke-width="7" fill="none" stroke-opacity="1" font-style="normal" font-size="29.1042" font-weight="400" stroke-linecap="round">
    <path vector-effect="none" fill-rule="evenodd" d="M-438,-79 C-438,-66.8497 -447.85,-57 -460,-57 C-472.15,-57 -482,-66.8497 -482,-79 C-482,-91.1503 -472.15,-101 -460,-101 C-447.85,-101 -438,-91.1503 -438,-79 "/>
   </g>
   <g stroke-linejoin="bevel" transform="matrix(1,0,0,1,1495.82,902.9)" font-family="MS Shell Dlg 2" stroke="#212529" stroke-width="7" fill="none" stroke-opacity="1" font-style="normal" font-size="29.1042" font-weight="400" stroke-linecap="round">
    <path vector-effect="none" fill-rule="evenodd" d="M482,241 C482,253.15 472.15,263 460,263 C447.85,263 438,253.15 438,241 C438,228.85 447.85,219 460,219 C472.15,219 482,228.85 482,241 "/>
   </g>
   <g stroke-linejoin="bevel" transform="matrix(1,0,0,1,1495.82,902.9)" font-family="MS Shell Dlg 2" stroke="#212529" stroke-width="7" fill="none" stroke-opacity="1" font-style="normal" font-size="29.1042" font-weight="400" stroke-linecap="round">
    <path vector-effect="none" fill-rule="evenodd" d="M-438,-179 C-438,-166.85 -447.85,-157 -460,-157 C-472.15,-157 -482,-166.85 -482,-179 C-482,-191.15 -472.15,-201 -460,-201 C-447.85,-201 -438,-191.15 -438,-179 "/>
   </g>
   <g stroke-linejoin="bevel" transform="matrix(1,0,0,1,1495.82,902.9)" font-family="MS Shell Dlg 2" stroke="#212529" stroke-width="7" fill="none" stroke-opacity="1" font-style="normal" font-size="29.1042" font-weight="400" stroke-linecap="round">
    <path vector-effect="none" fill-rule="evenodd" d="M282,-179 C282,-166.85 272.15,-157 260,-157 C247.85,-157 238,-166.85 238,-179 C238,-191.15 247.85,-201 260,-201 C272.15,-201 282,-191.15 282,-179 "/>
   </g>
   <g stroke-linejoin="bevel" transform="matrix(1,0,0,1,1495.82,902.9)" font-family="MS Shell Dlg 2" stroke="#212529" stroke-width="7" fill="none" stroke-opacity="1" font-style="normal" font-size="29.1042" font-weight="400" stroke-linecap="round">
    <path vector-effect="none" fill-rule="evenodd" d="M482,-79 C482,-66.8497 472.15,-57 460,-57 C447.85,-57 438,-66.8497 438,-79 C438,-91.1503 447.85,-101 460,-101 C472.15,-101 482,-91.1503 482,-79 "/>
   </g>
   <g stroke-linejoin="bevel" transform="matrix(1,0,0,1,1495.82,902.9)" font-family="MS Shell Dlg 2" stroke="#212529" stroke-width="7" fill="none" stroke-opacity="1" font-style="normal" font-size="29.1042" font-weight="400" stroke-linecap="round">
    <path vector-effect="none" fill-rule="evenodd" d="M482,-179 C482,-166.85 472.15,-157 460,-157 C447.85,-157 438,-166.85 438,-179 C438,-191.15 447.85,-201 460,-201 C472.15,-201 482,-191.15 482,-179 "/>
   </g>
  </g>
 </g>
</svg>
